<svg viewBox="0 0 976 390" fill="none" xmlns="http://www.w3.org/2000/svg">
  <path d="M487 101V133" stroke="#1A1A1C" stroke-width="2" />
  <rect x="37" y="134" width="900" height="225" fill="white" stroke="#1A1A1C" stroke-width="2" />
  <rect width="210" height="64" transform="translate(386 37)" fill="#1A1A1C" />
  <path
    d="M415.223 63.18C415.823 63.26 416.523 63.32 417.183 63.32C418.383 63.32 422.803 63.32 423.943 63.32C424.563 63.32 425.303 63.26 425.923 63.18V65.24C425.303 65.2 424.563 65.18 423.943 65.18C422.803 65.18 418.383 65.18 417.203 65.18C416.523 65.18 415.783 65.2 415.223 65.24V63.18ZM412.883 68.24C413.443 68.32 414.063 68.36 414.683 68.36C415.883 68.36 426.663 68.36 427.783 68.36C428.203 68.36 428.963 68.32 429.463 68.24V70.32C429.003 70.28 428.303 70.26 427.783 70.26C426.663 70.26 415.883 70.26 414.683 70.26C414.103 70.26 413.423 70.28 412.883 70.32V68.24ZM422.643 69.3C422.643 71.86 422.263 73.92 421.403 75.6C420.683 76.96 419.163 78.44 417.423 79.32L415.563 77.96C417.063 77.36 418.483 76.22 419.283 74.98C420.283 73.44 420.483 71.5 420.483 69.32L422.643 69.3ZM427.043 61.66C427.543 62.38 428.263 63.62 428.643 64.4L427.343 64.98C426.943 64.16 426.283 62.96 425.743 62.2L427.043 61.66ZM429.303 60.82C429.823 61.56 430.583 62.82 430.963 63.54L429.663 64.12C429.223 63.26 428.583 62.12 428.023 61.36L429.303 60.82ZM447.403 62.62C447.783 63.38 448.283 64.58 448.523 65.38L447.363 65.76C447.083 64.92 446.663 63.76 446.283 62.98L447.403 62.62ZM449.423 62C449.803 62.76 450.303 63.96 450.583 64.74L449.423 65.12C449.123 64.24 448.703 63.12 448.283 62.36L449.423 62ZM445.583 69.3C445.583 74.46 444.423 77.34 439.743 79.42L438.043 77.82C441.783 76.44 443.543 74.72 443.543 69.42V64.36C443.543 63.56 443.483 62.9 443.443 62.62H445.703C445.663 62.92 445.583 63.56 445.583 64.36V69.3ZM438.363 62.78C438.343 63.04 438.263 63.64 438.263 64.38V71.64C438.263 72.44 438.323 73.28 438.343 73.56H436.123C436.163 73.28 436.223 72.46 436.223 71.64V64.38C436.223 63.88 436.183 63.3 436.123 62.78H438.363ZM432.203 66.54C432.463 66.58 433.363 66.68 434.283 66.68H447.463C448.423 66.68 449.063 66.64 449.463 66.56V68.68C449.143 68.64 448.423 68.62 447.483 68.62H434.283C433.343 68.62 432.523 68.68 432.203 68.7V66.54ZM452.803 70.54C456.323 69.62 459.323 68.26 461.543 66.88C463.623 65.58 465.743 63.74 467.083 62.1L468.783 63.7C467.023 65.5 464.763 67.28 462.423 68.72C460.203 70.08 456.983 71.56 453.803 72.52L452.803 70.54ZM461.183 67.9L463.383 67.32V76.4C463.383 77.2 463.423 78.3 463.543 78.74H461.043C461.123 78.32 461.183 77.2 461.183 76.4V67.9ZM475.963 63.12C477.363 64.06 479.943 66.14 481.083 67.3L479.483 68.92C478.463 67.84 475.963 65.68 474.483 64.68L475.963 63.12ZM473.903 76.48C477.223 76 479.823 74.86 481.743 73.7C484.983 71.72 487.483 68.72 488.683 66.14L489.903 68.34C488.483 70.92 486.003 73.66 482.903 75.58C480.883 76.82 478.343 78 475.223 78.56L473.903 76.48ZM497.383 62.44C498.623 63.12 500.883 64.6 501.823 65.28L500.643 67.02C499.603 66.26 497.483 64.86 496.243 64.16L497.383 62.44ZM494.063 76.7C496.283 76.32 498.723 75.58 500.823 74.4C504.183 72.5 506.883 69.84 508.483 67L509.703 69.12C507.923 71.84 505.123 74.4 501.903 76.28C499.863 77.44 497.063 78.4 495.243 78.76L494.063 76.7ZM494.343 66.96C495.583 67.64 497.863 69.04 498.803 69.72L497.643 71.48C496.603 70.74 494.463 69.36 493.203 68.7L494.343 66.96ZM527.583 64.56C527.443 64.74 527.143 65.26 527.003 65.58C526.203 67.52 524.683 70.3 523.003 72.2C520.763 74.74 517.843 77.16 514.703 78.62L513.083 76.92C516.303 75.7 519.323 73.28 521.303 71.08C522.643 69.56 524.003 67.36 524.483 65.8C523.723 65.8 517.883 65.8 517.123 65.8C516.363 65.8 515.263 65.9 514.963 65.92V63.66C515.343 63.72 516.523 63.78 517.123 63.78C518.023 63.78 523.743 63.78 524.563 63.78C525.303 63.78 525.943 63.7 526.303 63.58L527.583 64.56ZM523.263 70.9C525.383 72.64 528.123 75.52 529.463 77.16L527.683 78.7C526.223 76.74 523.943 74.26 521.803 72.34L523.263 70.9ZM535.463 62.98C536.083 63.06 536.763 63.1 537.423 63.1C538.623 63.1 544.363 63.1 545.503 63.1C546.103 63.1 546.863 63.06 547.483 62.98V65.04C546.863 65 546.123 64.96 545.503 64.96C544.363 64.96 538.623 64.96 537.443 64.96C536.763 64.96 536.023 65 535.463 65.04V62.98ZM533.103 68.04C533.683 68.1 534.303 68.14 534.923 68.14C536.123 68.14 546.903 68.14 548.023 68.14C548.443 68.14 549.203 68.12 549.703 68.04V70.1C549.223 70.08 548.543 70.06 548.023 70.06C546.903 70.06 536.123 70.06 534.923 70.06C534.323 70.06 533.663 70.08 533.103 70.12V68.04ZM542.883 69.1C542.883 71.66 542.503 73.72 541.623 75.38C540.923 76.74 539.383 78.22 537.663 79.12L535.803 77.76C537.303 77.16 538.723 76 539.503 74.78C540.503 73.22 540.723 71.3 540.723 69.12L542.883 69.1ZM561.417 63.02C561.197 63.56 560.937 64.18 560.657 65.04C559.977 67.18 557.757 74.04 556.897 76.08L554.597 76.16C555.637 73.74 557.857 66.8 558.477 64.6C558.737 63.64 558.837 63.1 558.897 62.5L561.417 63.02ZM565.117 69.62C566.537 71.72 568.657 75.7 569.537 77.84L567.417 78.78C566.577 76.5 564.617 72.34 563.177 70.44L565.117 69.62ZM554.077 75.5C556.897 75.36 563.797 74.6 566.477 74.22L566.977 76.2C564.117 76.58 556.977 77.34 554.197 77.62C553.697 77.66 553.037 77.76 552.437 77.84L552.057 75.52C552.697 75.54 553.457 75.52 554.077 75.5Z"
    fill="white"
  />
  <rect width="210" height="64" transform="translate(386 166)" fill="#1A1A1C" />
  <path
    d="M424.3 193.08V195.3C424.8 195.26 425.84 195.22 426.62 195.22H435.94V205.42C435.94 206.14 435.92 206.88 435.9 207.3H438.18C438.16 206.86 438.1 205.9 438.1 205.18V194.84C438.1 194.32 438.14 193.62 438.16 193.16C437.78 193.18 437.08 193.2 436.56 193.2H426.6C425.94 193.2 425 193.16 424.3 193.08ZM424.04 204.04V206.32C424.64 206.26 425.64 206.22 426.44 206.22H437.14V204.16H426.38C425.52 204.16 424.64 204.1 424.04 204.04ZM445.66 192.12L444.18 193.68C445.66 194.68 448.16 196.84 449.18 197.92L450.78 196.3C449.64 195.14 447.06 193.06 445.66 192.12ZM443.6 205.48L444.92 207.56C448.04 207 450.58 205.82 452.6 204.58C455.7 202.66 458.18 199.92 459.6 197.34L458.38 195.14C457.18 197.72 454.68 200.72 451.44 202.7C449.52 203.86 446.92 205 443.6 205.48ZM476.26 192.14C476.26 191.48 476.8 190.94 477.46 190.94C478.12 190.94 478.66 191.48 478.66 192.14C478.66 192.8 478.12 193.32 477.46 193.32C476.8 193.32 476.26 192.8 476.26 192.14ZM475.22 192.14C475.22 193.38 476.22 194.38 477.46 194.38C478.7 194.38 479.7 193.38 479.7 192.14C479.7 190.9 478.7 189.88 477.46 189.88C476.22 189.88 475.22 190.9 475.22 192.14ZM472.12 191.44H469.78C469.86 191.76 469.94 192.52 469.94 193C469.94 194.12 469.94 196.18 469.94 196.86C469.94 197.8 469.94 204.42 469.92 205.36C469.92 205.88 469.7 206.1 469.16 206.1C468.66 206.1 467.76 206.02 466.9 205.86L467.08 207.84C467.98 207.94 469.16 208 470.1 208C471.4 208 471.98 207.38 471.98 206.28C471.98 204.74 471.98 198.48 471.98 196.86C471.98 195.8 471.98 194.12 471.98 193C471.98 192.54 472.08 191.72 472.12 191.44ZM462.78 194.72V196.84C463.32 196.78 463.98 196.76 464.58 196.76C465.86 196.76 475.72 196.76 477.02 196.76C477.52 196.76 478.2 196.78 478.78 196.82V194.74C478.26 194.8 477.5 194.86 477 194.86C475.7 194.86 465.78 194.86 464.58 194.86C463.94 194.86 463.36 194.8 462.78 194.72ZM467.6 199.74L465.82 198.9C465.02 200.54 463.36 202.84 462.02 204.1L463.74 205.26C464.86 204.06 466.72 201.48 467.6 199.74ZM476.06 198.88L474.34 199.8C475.36 201.04 476.82 203.5 477.64 205.14L479.5 204.12C478.7 202.66 477.1 200.16 476.06 198.88ZM482.94 198.08V200.56C483.62 200.5 484.8 200.46 485.92 200.46C487.78 200.46 495.16 200.46 496.8 200.46C497.66 200.46 498.58 200.54 499.02 200.56V198.08C498.54 198.12 497.76 198.2 496.78 198.2C495.16 198.2 487.78 198.2 485.92 198.2C484.82 198.2 483.6 198.14 482.94 198.08ZM512.26 190.86H509.98C510.06 191.32 510.08 192.06 510.08 192.64C510.08 193.28 510.08 194.24 510.08 194.74H512.14C512.14 194.24 512.14 193.2 512.14 192.64C512.14 192.06 512.18 191.3 512.26 190.86ZM517.8 194.94L516.48 193.66C516.08 193.78 515.58 193.82 515.04 193.82C513.84 193.82 507.28 193.82 506.36 193.82C505.68 193.82 504.58 193.8 503.88 193.7V195.8C504.5 195.74 505.7 195.72 506.4 195.72C507.28 195.72 513.24 195.72 514.24 195.72C513.6 196.6 512.16 198 510.48 199.08C508.7 200.22 506.18 201.56 502.36 202.46L503.58 204.32C506.86 203.32 509.68 202.1 511.84 200.58C513.7 199.28 515.42 197.58 516.48 196.34C516.86 195.92 517.36 195.36 517.8 194.94ZM512.1 199.44L510.06 200.3C510.06 201.54 510.06 204.1 510.06 205.62C510.06 206.36 509.98 207.4 509.92 207.98H512.2C512.14 207.36 512.08 206.36 512.08 205.62C512.08 204.04 512.1 200.94 512.1 199.44ZM518.44 204.54L519.76 202.82C517.88 201.54 516.82 200.92 514.96 199.92L513.64 201.42C515.46 202.4 516.7 203.22 518.44 204.54ZM525.66 192.12L524.18 193.68C525.66 194.68 528.16 196.84 529.18 197.92L530.78 196.3C529.64 195.14 527.06 193.06 525.66 192.12ZM523.6 205.48L524.92 207.56C528.04 207 530.58 205.82 532.6 204.58C535.7 202.66 538.18 199.92 539.6 197.34L538.38 195.14C537.18 197.72 534.68 200.72 531.44 202.7C529.52 203.86 526.92 205 523.6 205.48ZM547.52 205.18C547.52 205.94 547.48 207.02 547.36 207.74H549.82C549.74 207 549.68 205.78 549.68 205.18C549.68 204 549.66 196.32 549.66 193.6C549.66 192.9 549.74 192.04 549.82 191.38H547.36C547.48 192.04 547.52 192.98 547.52 193.6C547.52 195.28 547.52 203.88 547.52 205.18ZM549.2 196.6V198.84C551.38 199.54 554.96 200.9 557.24 202.1L558.12 199.94C556.02 198.9 551.86 197.36 549.2 196.6Z"
    fill="white"
  />
  <rect width="210" height="64" transform="translate(644 166)" fill="#1A1A1C" />
  <path
    d="M693.463 191.98C694.083 192.06 694.763 192.1 695.423 192.1C696.623 192.1 702.363 192.1 703.503 192.1C704.103 192.1 704.863 192.06 705.483 191.98V194.04C704.863 194 704.123 193.96 703.503 193.96C702.363 193.96 696.623 193.96 695.443 193.96C694.763 193.96 694.023 194 693.463 194.04V191.98ZM691.103 197.04C691.683 197.1 692.303 197.14 692.923 197.14C694.123 197.14 704.903 197.14 706.023 197.14C706.443 197.14 707.203 197.12 707.703 197.04V199.1C707.223 199.08 706.543 199.06 706.023 199.06C704.903 199.06 694.123 199.06 692.923 199.06C692.323 199.06 691.663 199.08 691.103 199.12V197.04ZM700.883 198.1C700.883 200.66 700.503 202.72 699.623 204.38C698.923 205.74 697.383 207.22 695.663 208.12L693.803 206.76C695.303 206.16 696.723 205 697.503 203.78C698.503 202.22 698.723 200.3 698.723 198.12L700.883 198.1ZM713.963 192.12C715.363 193.06 717.943 195.14 719.083 196.3L717.483 197.92C716.463 196.84 713.963 194.68 712.483 193.68L713.963 192.12ZM711.903 205.48C715.223 205 717.823 203.86 719.743 202.7C722.983 200.72 725.483 197.72 726.683 195.14L727.903 197.34C726.483 199.92 724.003 202.66 720.903 204.58C718.883 205.82 716.343 207 713.223 207.56L711.903 205.48ZM744.777 192.52C744.777 193.2 745.337 193.76 746.037 193.76C746.717 193.76 747.277 193.2 747.277 192.52C747.277 191.82 746.717 191.26 746.037 191.26C745.337 191.26 744.777 191.82 744.777 192.52ZM743.717 192.52C743.717 191.24 744.757 190.2 746.037 190.2C747.297 190.2 748.337 191.24 748.337 192.52C748.337 193.78 747.297 194.82 746.037 194.82C744.757 194.82 743.717 193.78 743.717 192.52ZM745.757 193.96C745.597 194.28 745.497 194.72 745.397 195.12C744.957 197.16 744.037 200.34 742.397 202.46C740.597 204.84 738.077 206.74 734.457 207.9L732.737 206C736.657 205.06 738.917 203.34 740.557 201.24C741.937 199.5 742.797 196.94 743.057 195.1C741.877 195.1 734.537 195.1 733.237 195.1C732.377 195.1 731.577 195.14 731.077 195.18V192.94C731.637 193.02 732.577 193.1 733.237 193.1C734.537 193.1 741.917 193.1 742.937 193.1C743.277 193.1 743.777 193.08 744.217 192.96L745.757 193.96ZM752.897 206.3C753.077 205.9 753.117 205.6 753.117 205.18C753.117 203.82 753.117 196.04 753.117 194C753.117 193.38 753.017 192.46 752.917 191.98H755.397C755.317 192.6 755.237 193.34 755.237 194C755.237 196.04 755.237 203.7 755.237 204.94C758.817 203.98 763.377 201.38 765.897 198.2L767.017 199.98C764.357 203.22 760.237 205.66 755.357 207.14C755.117 207.22 754.757 207.34 754.377 207.58L752.897 206.3ZM770.637 198.08C771.297 198.14 772.517 198.2 773.617 198.2C775.477 198.2 782.857 198.2 784.477 198.2C785.457 198.2 786.237 198.12 786.717 198.08V200.56C786.277 200.54 785.357 200.46 784.497 200.46C782.857 200.46 775.477 200.46 773.617 200.46C772.497 200.46 771.317 200.5 770.637 200.56V198.08ZM795.217 205.18C795.217 203.88 795.217 195.28 795.217 193.6C795.217 192.98 795.177 192.04 795.057 191.38H797.517C797.437 192.04 797.357 192.9 797.357 193.6C797.357 196.32 797.377 204 797.377 205.18C797.377 205.78 797.437 207 797.517 207.74H795.057C795.177 207.02 795.217 205.94 795.217 205.18ZM796.897 196.6C799.557 197.36 803.717 198.9 805.817 199.94L804.937 202.1C802.657 200.9 799.077 199.54 796.897 198.84V196.6Z"
    fill="white"
  />
  <rect width="210" height="64" transform="translate(515 259)" fill="#949497" />
  <path
    d="M563.896 276.08C564.596 276.16 565.536 276.2 566.196 276.2H576.156C576.676 276.2 577.376 276.18 577.756 276.16C577.736 276.62 577.696 277.32 577.696 277.84V288.18C577.696 288.9 577.756 289.86 577.776 290.3H575.496C575.516 289.88 575.536 289.14 575.536 288.42V278.22H566.216C565.436 278.22 564.396 278.26 563.896 278.3V276.08ZM563.636 287.04C564.236 287.1 565.116 287.16 565.976 287.16H576.736V289.22H566.036C565.236 289.22 564.236 289.26 563.636 289.32V287.04ZM586.316 274.64C588.916 274.96 594.456 276.1 596.976 276.98L596.176 278.94C593.796 278.06 588.356 276.86 585.576 276.5L586.316 274.64ZM585.396 279.96C588.196 280.44 593.136 281.48 595.636 282.38L594.856 284.34C592.556 283.44 587.556 282.32 584.656 281.86L585.396 279.96ZM584.336 285.74C587.716 286.28 593.676 287.68 596.416 288.74L595.556 290.7C592.876 289.56 586.776 288.2 583.556 287.7L584.336 285.74ZM615.516 280.48C615.436 280.7 615.376 281.02 615.356 281.2C615.176 282.66 614.476 287.36 614.236 288.78H612.076C612.316 287.58 613.016 283.14 613.076 281.82C611.956 281.82 607.696 281.82 607.136 281.82C606.536 281.82 605.896 281.86 605.356 281.9V279.8C605.856 279.86 606.596 279.92 607.116 279.92C607.996 279.92 611.736 279.92 612.776 279.92C613.136 279.92 613.776 279.86 613.976 279.74L615.516 280.48ZM603.496 287.98C603.996 288.04 604.656 288.08 605.296 288.08C606.416 288.08 614.996 288.08 616.016 288.08C616.496 288.08 617.296 288.06 617.756 288V290.04C617.376 290.02 616.536 290 616.056 290C614.976 290 606.296 290 605.296 290C604.636 290 604.156 290.02 603.496 290.06V287.98ZM624.076 276.74C624.756 276.8 625.536 276.84 626.216 276.84C627.656 276.84 633.596 276.84 634.656 276.84C635.416 276.84 636.176 276.8 636.736 276.74V279.02C636.176 279 635.336 278.96 634.656 278.96C633.636 278.96 627.256 278.96 626.216 278.96C625.496 278.96 624.716 279 624.076 279.02V276.74ZM622.376 286.6C623.096 286.64 623.896 286.7 624.656 286.7C625.856 286.7 635.216 286.7 636.416 286.7C637.036 286.7 637.776 286.66 638.396 286.6V289.02C637.756 288.94 636.976 288.9 636.416 288.9C635.216 288.9 625.856 288.9 624.656 288.9C623.896 288.9 623.076 288.96 622.376 289.02V286.6ZM644.756 274.98C645.376 275.06 646.056 275.1 646.716 275.1C647.916 275.1 653.656 275.1 654.796 275.1C655.396 275.1 656.156 275.06 656.776 274.98V277.04C656.156 277 655.416 276.96 654.796 276.96C653.656 276.96 647.916 276.96 646.736 276.96C646.056 276.96 645.316 277 644.756 277.04V274.98ZM642.396 280.04C642.976 280.1 643.596 280.14 644.216 280.14C645.416 280.14 656.196 280.14 657.316 280.14C657.736 280.14 658.496 280.12 658.996 280.04V282.1C658.516 282.08 657.836 282.06 657.316 282.06C656.196 282.06 645.416 282.06 644.216 282.06C643.616 282.06 642.956 282.08 642.396 282.12V280.04ZM652.176 281.1C652.176 283.66 651.796 285.72 650.916 287.38C650.216 288.74 648.676 290.22 646.956 291.12L645.096 289.76C646.596 289.16 648.016 288 648.796 286.78C649.796 285.22 650.016 283.3 650.016 281.12L652.176 281.1ZM661.704 284.62C664.324 284.02 667.284 282.64 668.884 281.66C670.804 280.5 672.724 278.78 673.744 277.5L675.304 279.02C674.144 280.3 671.904 282.1 669.784 283.36C668.064 284.38 665.144 285.72 662.644 286.48L661.704 284.62ZM668.684 282.86L670.804 282.4V289.72C670.804 290.38 670.824 291.3 670.924 291.66H668.584C668.624 291.3 668.684 290.38 668.684 289.72V282.86ZM599 303.74C598.426 303.74 597.95 303.264 597.95 302.69C597.95 302.116 598.426 301.64 599 301.64C599.574 301.64 600.05 302.116 600.05 302.69C600.05 303.264 599.574 303.74 599 303.74ZM599 306.274L603.62 301.654L604.026 302.06L599.406 306.68L604.026 311.3L603.62 311.706L599 307.086L594.366 311.72L593.96 311.314L598.594 306.68L593.974 302.06L594.38 301.654L599 306.274ZM596.06 306.68C596.06 307.254 595.584 307.73 595.01 307.73C594.436 307.73 593.96 307.254 593.96 306.68C593.96 306.106 594.436 305.63 595.01 305.63C595.584 305.63 596.06 306.106 596.06 306.68ZM601.94 306.68C601.94 306.106 602.416 305.63 602.99 305.63C603.564 305.63 604.04 306.106 604.04 306.68C604.04 307.254 603.564 307.73 602.99 307.73C602.416 307.73 601.94 307.254 601.94 306.68ZM599 309.62C599.574 309.62 600.05 310.096 600.05 310.67C600.05 311.244 599.574 311.72 599 311.72C598.426 311.72 597.95 311.244 597.95 310.67C597.95 310.096 598.426 309.62 599 309.62ZM606.812 305.854H619.23V307.17H606.812V305.854ZM607.834 302.396H618.25V303.712H607.834V302.396ZM612.272 300.198H613.672V313.176H612.272V300.198ZM611.992 306.582L613.14 307.058C611.81 309.284 609.542 311.356 607.358 312.476C607.134 312.14 606.7 311.622 606.378 311.342C608.534 310.404 610.816 308.486 611.992 306.582ZM613.966 306.582C615.142 308.486 617.438 310.404 619.58 311.342C619.272 311.608 618.838 312.14 618.614 312.49C616.444 311.37 614.204 309.256 612.86 307.058L613.966 306.582ZM626.93 303.432V304.356H631.214V303.432H626.93ZM626.93 301.612V302.536H631.214V301.612H626.93ZM625.712 300.632H632.488V305.336H625.712V300.632ZM625.054 306.19H633.23V307.282H625.054V306.19ZM628.442 306.764H629.688V312.476L628.442 311.944V306.764ZM626.818 309.298C627.532 311.51 629.016 311.832 630.864 311.832C631.27 311.832 633.104 311.832 633.65 311.804C633.482 312.084 633.314 312.644 633.272 312.98H630.822C628.498 312.98 626.888 312.476 626.02 309.578L626.818 309.298ZM629.324 308.738H632.516V309.802H629.324V308.738ZM625.936 307.842L627.14 307.982C626.846 310.278 626.132 312.042 624.872 313.176C624.676 312.966 624.172 312.56 623.892 312.378C625.11 311.412 625.726 309.844 625.936 307.842ZM620.364 307.478C621.47 307.212 623.122 306.722 624.718 306.246L624.9 307.45C623.444 307.912 621.89 308.402 620.672 308.766L620.364 307.478ZM620.504 302.942H624.858V304.16H620.504V302.942ZM622.142 300.198H623.374V311.594C623.374 312.252 623.248 312.602 622.856 312.798C622.492 313.008 621.904 313.05 621.022 313.05C620.98 312.728 620.826 312.182 620.658 311.832C621.232 311.846 621.75 311.846 621.918 311.832C622.086 311.832 622.142 311.776 622.142 311.58V300.198ZM637.598 300.212L638.844 300.604C637.934 302.984 636.492 305.42 634.966 307.016C634.84 306.694 634.476 305.98 634.252 305.658C635.568 304.342 636.842 302.284 637.598 300.212ZM636.142 303.964L637.43 302.676L637.444 302.69V313.162H636.142V303.964ZM638.718 303.068H647.342V304.342H638.718V303.068ZM638.368 307.506H647.482V308.808H638.368V307.506ZM640.412 300.324H641.7V308.192H640.412V300.324ZM644.136 300.296H645.424V308.206H644.136V300.296ZM640.734 309.494L641.98 309.886C641.294 311.104 640.202 312.35 639.236 313.134C638.998 312.91 638.494 312.49 638.186 312.308C639.166 311.608 640.146 310.544 640.734 309.494ZM643.87 310.096L644.92 309.508C645.858 310.418 646.866 311.636 647.37 312.476L646.25 313.176C645.788 312.322 644.78 311.034 643.87 310.096Z"
    fill="white"
  />
  <rect width="210" height="64" transform="translate(121 166)" fill="#1A1A1C" />
  <path
    d="M172.583 193.56C172.443 193.74 172.143 194.26 172.003 194.58C171.203 196.52 169.683 199.3 168.003 201.2C165.763 203.74 162.843 206.16 159.703 207.62L158.083 205.92C161.303 204.7 164.323 202.28 166.303 200.08C167.643 198.56 169.003 196.36 169.483 194.8C168.723 194.8 162.883 194.8 162.123 194.8C161.363 194.8 160.263 194.9 159.963 194.92V192.66C160.343 192.72 161.523 192.78 162.123 192.78C163.023 192.78 168.743 192.78 169.563 192.78C170.303 192.78 170.943 192.7 171.303 192.58L172.583 193.56ZM168.263 199.9C170.383 201.64 173.123 204.52 174.463 206.16L172.683 207.7C171.223 205.74 168.943 203.26 166.803 201.34L168.263 199.9ZM184.723 197.76C187.243 199.22 190.703 201.62 192.623 203.18L191.123 204.96C189.323 203.28 185.743 200.68 183.323 199.18L184.723 197.76ZM193.983 194.22C193.783 194.54 193.563 195.04 193.423 195.44C192.823 197.4 191.583 200 189.803 202.2C187.963 204.48 185.363 206.66 181.563 208.08L179.743 206.5C183.663 205.3 186.243 203.18 188.023 201.1C189.483 199.38 190.723 196.94 191.143 195.22H184.023L184.783 193.42H190.843C191.423 193.42 191.963 193.34 192.343 193.22L193.983 194.22ZM187.303 191.24C186.883 191.84 186.463 192.62 186.243 193.02C184.983 195.32 182.603 198.36 179.543 200.46L177.863 199.16C181.323 197 183.283 194.12 184.243 192.32C184.503 191.92 184.863 191.12 185.003 190.52L187.303 191.24ZM197.803 199.54C201.323 198.62 204.323 197.26 206.543 195.88C208.623 194.58 210.743 192.74 212.083 191.1L213.783 192.7C212.023 194.5 209.763 196.28 207.423 197.72C205.203 199.08 201.983 200.56 198.803 201.52L197.803 199.54ZM206.183 196.9L208.383 196.32V205.4C208.383 206.2 208.423 207.3 208.543 207.74H206.043C206.123 207.32 206.183 206.2 206.183 205.4V196.9ZM226.583 206.58C226.663 206.24 226.743 205.76 226.743 205.3C226.743 204.32 226.743 194.88 226.743 193.46C226.743 192.64 226.623 191.98 226.603 191.88H228.943C228.923 191.98 228.823 192.66 228.823 193.48C228.823 194.88 228.823 203.66 228.823 204.54C230.583 203.76 232.823 202.04 234.283 199.92L235.483 201.66C233.783 203.92 230.963 206.02 228.683 207.16C228.303 207.36 228.083 207.54 227.923 207.68L226.583 206.58ZM217.383 206.4C219.103 205.18 220.243 203.38 220.823 201.54C221.403 199.76 221.423 195.86 221.423 193.54C221.423 192.86 221.363 192.38 221.263 191.92H223.583C223.563 192.1 223.463 192.82 223.463 193.52C223.463 195.8 223.403 200.06 222.863 202.08C222.263 204.26 220.983 206.22 219.303 207.66L217.383 206.4ZM250.877 191.18C251.377 191.92 252.097 193.14 252.497 193.92L251.197 194.5C250.777 193.68 250.137 192.5 249.597 191.72L250.877 191.18ZM253.157 190.34C253.677 191.08 254.437 192.34 254.797 193.06L253.497 193.64C253.077 192.78 252.437 191.64 251.877 190.88L253.157 190.34ZM245.657 191.36C245.597 191.82 245.557 192.58 245.537 193.06C245.297 201.12 243.237 205 239.077 207.92L237.237 206.44C237.957 206.04 238.857 205.42 239.537 204.76C242.097 202.34 243.417 198.96 243.457 193.1C243.457 192.64 243.397 191.84 243.317 191.36H245.657ZM252.537 195.56C252.477 195.9 252.417 196.34 252.417 196.58C252.337 198.6 252.097 204.32 251.217 206.3C250.797 207.22 250.097 207.66 248.877 207.66C247.817 207.66 246.637 207.58 245.637 207.5L245.377 205.4C246.417 205.56 247.457 205.64 248.277 205.64C248.877 205.64 249.217 205.46 249.437 204.98C250.117 203.56 250.377 199.04 250.377 196.9H240.177C239.437 196.9 238.497 196.9 237.717 196.98V194.88C238.477 194.96 239.397 195 240.157 195H249.777C250.297 195 250.737 194.96 251.137 194.88L252.537 195.56ZM257.197 199.54C260.717 198.62 263.717 197.26 265.937 195.88C268.017 194.58 270.137 192.74 271.477 191.1L273.177 192.7C271.417 194.5 269.157 196.28 266.817 197.72C264.597 199.08 261.377 200.56 258.197 201.52L257.197 199.54ZM265.577 196.9L267.777 196.32V205.4C267.777 206.2 267.817 207.3 267.937 207.74H265.437C265.517 207.32 265.577 206.2 265.577 205.4V196.9ZM289.037 192.4C289.557 193.18 290.397 194.5 290.857 195.42L289.457 196.06C288.917 194.92 288.377 193.94 287.677 192.98L289.037 192.4ZM291.537 191.36C292.097 192.1 292.957 193.4 293.417 194.32L292.057 195C291.477 193.84 290.897 192.92 290.197 192L291.537 191.36ZM281.597 205.46C281.597 204.16 281.597 195.56 281.597 193.88C281.597 193.24 281.537 192.32 281.417 191.66H283.897C283.817 192.3 283.737 193.18 283.737 193.88C283.737 196.6 283.737 204.26 283.737 205.46C283.737 206.06 283.817 207.28 283.897 208H281.437C281.537 207.3 281.597 206.22 281.597 205.46ZM283.277 196.86C285.937 197.62 290.077 199.18 292.197 200.22L291.317 202.38C289.037 201.16 285.457 199.8 283.277 199.12V196.86Z"
    fill="white"
  />
  <rect width="210" height="64" transform="translate(257 259)" fill="#949497" />
  <path
    d="M307.598 289.1C310.878 287.74 313.098 285.66 314.558 283.48C316.078 281.26 316.678 278.94 316.998 277.18C317.138 276.48 317.218 275.62 317.198 275.2L319.738 275.54C319.538 276.18 319.358 277 319.258 277.46C318.758 279.82 317.958 282.3 316.498 284.54C314.938 286.96 312.698 289.18 309.478 290.7L307.598 289.1ZM306.718 275.38C307.658 276.72 309.398 279.8 310.118 281.14L308.078 282.3C307.158 280.36 305.578 277.62 304.718 276.4L306.718 275.38ZM324.438 281.08C325.098 281.14 326.318 281.2 327.418 281.2C329.278 281.2 336.658 281.2 338.278 281.2C339.258 281.2 340.038 281.12 340.518 281.08V283.56C340.078 283.54 339.158 283.46 338.298 283.46C336.658 283.46 329.278 283.46 327.418 283.46C326.298 283.46 325.118 283.5 324.438 283.56V281.08ZM357.782 276.56C357.642 276.74 357.342 277.26 357.202 277.58C356.402 279.52 354.882 282.3 353.202 284.2C350.962 286.74 348.042 289.16 344.902 290.62L343.282 288.92C346.502 287.7 349.522 285.28 351.502 283.08C352.842 281.56 354.202 279.36 354.682 277.8C353.922 277.8 348.082 277.8 347.322 277.8C346.562 277.8 345.462 277.9 345.162 277.92V275.66C345.542 275.72 346.722 275.78 347.322 275.78C348.222 275.78 353.942 275.78 354.762 275.78C355.502 275.78 356.142 275.7 356.502 275.58L357.782 276.56ZM353.462 282.9C355.582 284.64 358.322 287.52 359.662 289.16L357.882 290.7C356.422 288.74 354.142 286.26 352.002 284.34L353.462 282.9ZM364.802 276.08C365.502 276.16 366.442 276.2 367.102 276.2H377.062C377.582 276.2 378.282 276.18 378.662 276.16C378.642 276.62 378.602 277.32 378.602 277.84V288.18C378.602 288.9 378.662 289.86 378.682 290.3H376.402C376.422 289.88 376.442 289.14 376.442 288.42V278.22H367.122C366.342 278.22 365.302 278.26 364.802 278.3V276.08ZM364.542 287.04C365.142 287.1 366.022 287.16 366.882 287.16H377.642V289.22H366.942C366.142 289.22 365.142 289.26 364.542 289.32V287.04ZM383.442 281.08C384.102 281.14 385.322 281.2 386.422 281.2C388.282 281.2 395.662 281.2 397.282 281.2C398.262 281.2 399.042 281.12 399.522 281.08V283.56C399.082 283.54 398.162 283.46 397.302 283.46C395.662 283.46 388.282 283.46 386.422 283.46C385.302 283.46 384.122 283.5 383.442 283.56V281.08ZM414.842 275.4C415.362 276.18 416.202 277.5 416.662 278.42L415.262 279.06C414.722 277.92 414.182 276.94 413.482 275.98L414.842 275.4ZM417.342 274.36C417.902 275.1 418.762 276.4 419.222 277.32L417.862 278C417.282 276.84 416.702 275.92 416.002 275L417.342 274.36ZM407.402 288.46C407.402 287.16 407.402 278.56 407.402 276.88C407.402 276.24 407.342 275.32 407.222 274.66H409.702C409.622 275.3 409.542 276.18 409.542 276.88C409.542 279.6 409.542 287.26 409.542 288.46C409.542 289.06 409.622 290.28 409.702 291H407.242C407.342 290.3 407.402 289.22 407.402 288.46ZM409.082 279.86C411.742 280.62 415.882 282.18 418.002 283.22L417.122 285.38C414.842 284.16 411.262 282.8 409.082 282.12V279.86ZM341 303.74C340.426 303.74 339.95 303.264 339.95 302.69C339.95 302.116 340.426 301.64 341 301.64C341.574 301.64 342.05 302.116 342.05 302.69C342.05 303.264 341.574 303.74 341 303.74ZM341 306.274L345.62 301.654L346.026 302.06L341.406 306.68L346.026 311.3L345.62 311.706L341 307.086L336.366 311.72L335.96 311.314L340.594 306.68L335.974 302.06L336.38 301.654L341 306.274ZM338.06 306.68C338.06 307.254 337.584 307.73 337.01 307.73C336.436 307.73 335.96 307.254 335.96 306.68C335.96 306.106 336.436 305.63 337.01 305.63C337.584 305.63 338.06 306.106 338.06 306.68ZM343.94 306.68C343.94 306.106 344.416 305.63 344.99 305.63C345.564 305.63 346.04 306.106 346.04 306.68C346.04 307.254 345.564 307.73 344.99 307.73C344.416 307.73 343.94 307.254 343.94 306.68ZM341 309.62C341.574 309.62 342.05 310.096 342.05 310.67C342.05 311.244 341.574 311.72 341 311.72C340.426 311.72 339.95 311.244 339.95 310.67C339.95 310.096 340.426 309.62 341 309.62ZM348.812 305.854H361.23V307.17H348.812V305.854ZM349.834 302.396H360.25V303.712H349.834V302.396ZM354.272 300.198H355.672V313.176H354.272V300.198ZM353.992 306.582L355.14 307.058C353.81 309.284 351.542 311.356 349.358 312.476C349.134 312.14 348.7 311.622 348.378 311.342C350.534 310.404 352.816 308.486 353.992 306.582ZM355.966 306.582C357.142 308.486 359.438 310.404 361.58 311.342C361.272 311.608 360.838 312.14 360.614 312.49C358.444 311.37 356.204 309.256 354.86 307.058L355.966 306.582ZM368.93 303.432V304.356H373.214V303.432H368.93ZM368.93 301.612V302.536H373.214V301.612H368.93ZM367.712 300.632H374.488V305.336H367.712V300.632ZM367.054 306.19H375.23V307.282H367.054V306.19ZM370.442 306.764H371.688V312.476L370.442 311.944V306.764ZM368.818 309.298C369.532 311.51 371.016 311.832 372.864 311.832C373.27 311.832 375.104 311.832 375.65 311.804C375.482 312.084 375.314 312.644 375.272 312.98H372.822C370.498 312.98 368.888 312.476 368.02 309.578L368.818 309.298ZM371.324 308.738H374.516V309.802H371.324V308.738ZM367.936 307.842L369.14 307.982C368.846 310.278 368.132 312.042 366.872 313.176C366.676 312.966 366.172 312.56 365.892 312.378C367.11 311.412 367.726 309.844 367.936 307.842ZM362.364 307.478C363.47 307.212 365.122 306.722 366.718 306.246L366.9 307.45C365.444 307.912 363.89 308.402 362.672 308.766L362.364 307.478ZM362.504 302.942H366.858V304.16H362.504V302.942ZM364.142 300.198H365.374V311.594C365.374 312.252 365.248 312.602 364.856 312.798C364.492 313.008 363.904 313.05 363.022 313.05C362.98 312.728 362.826 312.182 362.658 311.832C363.232 311.846 363.75 311.846 363.918 311.832C364.086 311.832 364.142 311.776 364.142 311.58V300.198ZM379.598 300.212L380.844 300.604C379.934 302.984 378.492 305.42 376.966 307.016C376.84 306.694 376.476 305.98 376.252 305.658C377.568 304.342 378.842 302.284 379.598 300.212ZM378.142 303.964L379.43 302.676L379.444 302.69V313.162H378.142V303.964ZM380.718 303.068H389.342V304.342H380.718V303.068ZM380.368 307.506H389.482V308.808H380.368V307.506ZM382.412 300.324H383.7V308.192H382.412V300.324ZM386.136 300.296H387.424V308.206H386.136V300.296ZM382.734 309.494L383.98 309.886C383.294 311.104 382.202 312.35 381.236 313.134C380.998 312.91 380.494 312.49 380.186 312.308C381.166 311.608 382.146 310.544 382.734 309.494ZM385.87 310.096L386.92 309.508C387.858 310.418 388.866 311.636 389.37 312.476L388.25 313.176C387.788 312.322 386.78 311.034 385.87 310.096Z"
    fill="white"
  />
</svg>