<svg viewBox="0 0 942 408" fill="none" xmlns="http://www.w3.org/2000/svg">
  <path
    fill-rule="evenodd"
    clip-rule="evenodd"
    d="M381 408C421.186 408 458.658 396.38 490.239 376.318C516.817 359.434 554.382 360.346 583.324 372.748C598.724 379.346 615.685 383 633.5 383C659.873 383 684.375 374.993 704.709 361.277C727.987 345.576 759.391 338.984 786.99 344.145C794.801 345.606 802.857 346.37 811.092 346.37C883.052 346.37 941.388 288.034 941.388 216.074C941.388 144.114 883.052 85.7781 811.092 85.7781C782.723 85.7781 756.472 94.8441 735.078 110.237C712.287 126.635 681.015 133.843 653.272 129.524C646.829 128.521 640.225 128 633.5 128C601.983 128 566.849 114.064 548.927 88.138C512.118 34.8881 450.633 0 381 0C310.569 0 248.475 35.6919 211.818 89.9749C192.204 119.02 145.799 134.639 110.751 134.639C49.5851 134.639 0 184.224 0 245.391C0 306.557 49.5851 356.142 110.751 356.142C119.916 356.142 128.821 355.029 137.338 352.93C174.451 343.786 228.487 344.747 259.121 367.605C293.126 392.979 335.309 408 381 408Z"
    fill="white"
  />
  <rect x="364" y="102" width="244" height="64" rx="8" fill="#003EE5" />
  <path
    d="M396.94 132.12V133.88H406.48V132.12H396.94ZM407.66 128.52V139.66H409.5V128.52H407.66ZM400.96 127.94V144.66H402.82V127.94H400.96ZM412.5 126.5V142.28C412.5 142.66 412.34 142.78 411.96 142.8C411.56 142.8 410.3 142.8 408.92 142.76C409.2 143.3 409.5 144.16 409.6 144.7C411.44 144.7 412.64 144.64 413.38 144.34C414.1 144.02 414.38 143.48 414.38 142.28V126.5H412.5ZM404.96 126.22C403.06 127.08 399.68 127.8 396.74 128.22C396.98 128.62 397.24 129.26 397.32 129.7C400.36 129.3 403.92 128.64 406.34 127.68L404.96 126.22ZM400.92 132.94C400.08 135.46 398.22 138.54 396.48 140.2C396.8 140.7 397.28 141.48 397.48 142.04C399.36 140.1 401.22 136.52 402.24 133.5L400.92 132.94ZM402.56 134.98L401.56 135.98C402.5 136.82 404.54 138.84 405.38 139.84L406.48 138.22C405.86 137.68 403.32 135.5 402.56 134.98ZM420.04 127.5V129.3H432.68V127.5H420.04ZM420.04 132.14V133.92H432.68V132.14H420.04ZM419.96 136.9V138.68H432.74V136.9H419.96ZM418.96 127.5V134.72C418.96 137.54 418.76 141.1 416.56 143.56C416.98 143.8 417.74 144.44 418.04 144.8C420.46 142.14 420.82 137.84 420.82 134.74V127.5H418.96ZM431.98 127.5V142.3C431.98 142.66 431.84 142.78 431.46 142.8C431.08 142.8 429.74 142.82 428.44 142.76C428.7 143.26 429 144.08 429.08 144.58C430.94 144.6 432.12 144.56 432.86 144.26C433.6 143.96 433.86 143.42 433.86 142.3V127.5H431.98ZM425.18 128.2V144.48H427.1V128.2H425.18ZM437.04 132.4V134.08H454.94V132.4H437.04ZM438.78 128.48V130.14H450.3V128.48H438.78ZM442.16 139.22V140.68H451.36V139.22H442.16ZM442.16 142.46V144.08H451.36V142.46H442.16ZM443.74 126.12V133.32H445.6V126.12H443.74ZM452.52 126.76C448.9 131.76 442.98 135.62 436.5 137.78C436.88 138.16 437.44 138.94 437.68 139.36C444.1 136.94 450.16 132.96 454.14 127.62L452.52 126.76ZM441.1 135.96V144.7H443V137.54H450.6V144.62H452.56V135.96H441.1ZM462.3 131.6V133.2H469.7V131.6H462.3ZM457.34 142.68V144.26H474.7V142.68H457.34ZM458.52 126.88V128.44H464.3V126.88H458.52ZM463.7 126.88V127.22C462.52 130.3 459.4 133.06 456.44 134.32C456.82 134.64 457.32 135.3 457.58 135.7C460.84 134.14 464.1 131.28 465.6 127.42L464.36 126.8L464.04 126.88H463.7ZM467.6 126.18L466 126.7C467.68 130.56 470.6 133.8 474.2 135.44C474.5 134.94 475.04 134.24 475.48 133.86C472.02 132.54 469.06 129.52 467.6 126.18ZM457.8 130.04C458.76 130.66 459.92 131.58 460.48 132.24L461.54 131.08C460.98 130.42 459.8 129.56 458.82 129L457.8 130.04ZM471.2 126.3C470.42 127.18 469.04 128.38 468.06 129.08L469.2 129.98C470.22 129.3 471.56 128.28 472.64 127.32L471.2 126.3ZM473.46 128.64C472.62 129.56 471.18 130.76 470.12 131.48L471.26 132.38C472.36 131.7 473.76 130.64 474.86 129.64L473.46 128.64ZM462.18 136.16H469.72V138.42H462.18V136.16ZM460.32 134.62V139.94H471.68V134.62H460.32ZM461.48 140.24C461.98 141.08 462.46 142.22 462.62 142.96L464.44 142.42C464.24 141.68 463.76 140.58 463.22 139.78L461.48 140.24ZM468.8 139.74C468.5 140.56 467.92 141.76 467.46 142.52L469.1 142.94C469.56 142.22 470.1 141.2 470.62 140.18L468.8 139.74ZM493.72 135C493.18 135.84 492.2 137.04 491.5 137.76L492.7 138.58C493.44 137.9 494.38 136.88 495.2 135.92L493.72 135ZM484.8 136.12C485.6 136.92 486.5 138.06 486.86 138.82L488.2 137.92C487.8 137.16 486.88 136.08 486.04 135.32L484.8 136.12ZM485.52 126.88V128.44H491.88V133.72H493.64V126.88H485.52ZM485.94 129.88V131.36H492.88V129.88H485.94ZM484.52 132.8V134.42H495.22V132.8H484.52ZM488.84 133.6V142.78C488.84 143 488.78 143.06 488.56 143.06C488.36 143.06 487.7 143.08 487.04 143.04C487.24 143.54 487.46 144.22 487.52 144.7C488.62 144.7 489.4 144.68 489.92 144.4C490.48 144.14 490.6 143.66 490.6 142.82V133.6H488.84ZM484.02 141.78L484.9 143.32C486.06 142.54 487.4 141.56 488.64 140.62L488.06 139.18C486.58 140.18 485.04 141.18 484.02 141.78ZM490.54 134.72L489.48 135.84C490.1 138.24 491.54 141.78 494.4 143.56C494.68 143.08 495.24 142.34 495.62 142C492.68 140.48 491.16 137.26 490.54 134.72ZM478.08 131.1V132.7H483.88V131.1H478.08ZM477.06 134.54V136.16H484.38V134.54H477.06ZM477.4 137.4C477.76 138.56 478.06 140.08 478.08 141.08L479.42 140.74C479.34 139.74 479.04 138.26 478.66 137.08L477.4 137.4ZM476.86 142.42L477.24 144.16C479.24 143.74 481.9 143.18 484.44 142.64L484.3 141.06C481.58 141.58 478.76 142.12 476.86 142.42ZM482.96 136.92C482.8 137.92 482.46 139.44 482.18 140.38L483.36 140.7C483.68 139.82 484.02 138.46 484.36 137.26L482.96 136.92ZM480.02 131.72V142.84L481.68 142.56V131.72H480.02ZM479.94 126.12C479.3 127.72 478.06 129.68 476.3 131.16C476.66 131.42 477.2 132 477.46 132.38C479.44 130.62 480.7 128.52 481.48 127V126.5H480.94V126.12H479.94ZM480.22 126.12V127.46H480.56C481.68 128.42 483.04 130.1 483.7 131.12L484.94 129.68C484.22 128.66 482.76 127.16 481.58 126.12H480.22ZM503.9 130.98V132.88C505.08 132.96 506.16 133 507.32 133C509.7 133 512.16 132.84 514.28 132.5V130.54C512.24 130.96 509.76 131.16 507.34 131.16C506.14 131.16 505.04 131.1 503.9 130.98ZM511.16 127.5H508.9C508.96 127.86 509 128.44 509 128.76C509 129.42 509.02 130.72 509.02 132.16C509.02 134.9 509.28 138.48 509.28 139.9C509.28 141.16 508.82 141.92 507.34 141.92C506.06 141.92 505.16 141.46 505.16 140.52C505.16 139.64 506.08 139.06 507.42 139.06C509.84 139.06 511.86 140.42 514.04 142.46L515.14 140.8C513.5 139.3 511.12 137.54 507.58 137.54C504.92 137.54 503.32 138.9 503.32 140.72C503.32 142.66 504.9 143.76 507.62 143.76C510.4 143.76 511.28 142.2 511.28 140.36C511.28 138.36 510.98 135.48 510.98 132.14C510.98 130.84 511 129.44 511.04 128.74C511.06 128.32 511.1 127.88 511.16 127.5ZM501.34 127.66L499.14 127.48C499.12 128 499.06 128.62 498.98 129.14C498.74 130.74 498.1 134.54 498.1 137.52C498.1 140.22 498.48 142.46 498.88 143.88L500.66 143.74C500.64 143.5 500.62 143.18 500.62 142.98C500.6 142.76 500.64 142.34 500.7 142.06C500.92 141.04 501.62 139 502.14 137.5L501.14 136.7C500.82 137.46 500.4 138.44 500.1 139.26C500 138.54 499.96 137.84 499.96 137.12C499.96 134.98 500.58 130.84 500.94 129.2C501 128.84 501.2 128.02 501.34 127.66ZM520.54 128.76V130.82C522.14 130.96 523.86 131.04 525.9 131.04C527.78 131.04 530.08 130.92 531.46 130.8V128.72C529.98 128.88 527.84 129 525.9 129C523.84 129 522 128.92 520.54 128.76ZM521.72 137L519.66 136.8C519.5 137.58 519.26 138.54 519.26 139.62C519.26 142.24 521.6 143.66 525.88 143.66C528.7 143.66 531.18 143.38 532.76 142.98L532.74 140.78C531.12 141.28 528.54 141.58 525.82 141.58C522.76 141.58 521.34 140.58 521.34 139.16C521.34 138.44 521.5 137.76 521.72 137ZM544.72 127.22L542.46 127.12C542.5 127.72 542.48 128.2 542.38 128.94C542.12 130.92 541.04 135.84 539.54 138.78L541.4 139.44C541.6 139.1 541.76 138.84 542 138.54C543.26 136.98 545.4 136.16 547.74 136.16C549.92 136.16 551.06 137.26 551.06 138.62C551.06 141.76 546.6 142.44 542.08 141.76L542.62 143.78C548.86 144.46 553.16 142.88 553.16 138.56C553.16 136.12 551.18 134.46 547.98 134.46C546.02 134.46 544.32 134.9 542.64 135.98C543.28 134.12 544 130.66 544.3 129.06C544.42 128.48 544.54 127.84 544.72 127.22ZM538.16 129.68L538.18 131.64C539.34 131.76 540.7 131.84 542.12 131.84C544.94 131.84 549.08 131.4 551.78 130.94L551.74 129.04C548.54 129.74 544.66 130.04 542.1 130.04C540.88 130.04 539.32 129.88 538.16 129.68ZM562.68 127.14L562.18 129.06C563.72 129.46 568.1 130.36 570.06 130.62L570.54 128.7C568.78 128.52 564.48 127.72 562.68 127.14ZM562.48 130.96L560.36 130.66C560.24 132.92 559.76 137 559.36 138.88L561.2 139.34C561.34 138.98 561.54 138.66 561.86 138.28C563.2 136.66 565.3 135.74 567.78 135.74C569.68 135.74 571.06 136.8 571.06 138.26C571.06 140.92 567.94 142.58 561.76 141.78L562.36 143.84C570.18 144.5 573.22 141.92 573.22 138.32C573.22 135.94 571.18 133.96 567.94 133.96C565.66 133.96 563.56 134.64 561.68 136.16C561.86 134.94 562.22 132.2 562.48 130.96Z"
    fill="white"
  />
  <path
    d="M693.92 178.18V179.84H708.64V178.18H693.92ZM702.14 179.16L700.4 179.44C701.64 183.06 703.94 184.94 708.24 185.7C708.46 185.18 708.96 184.4 709.38 184C705.42 183.5 703.12 182 702.14 179.16ZM700.1 175.72C699.84 180.36 699.26 182.94 693.48 184.18C693.84 184.54 694.32 185.28 694.5 185.74C700.86 184.24 701.74 181.06 702.04 175.72H700.1ZM692.9 171.16V175.1C692.9 177.84 692.68 181.68 690.48 184.38C690.96 184.56 691.8 185.08 692.14 185.4C694.4 182.52 694.8 178.16 694.8 175.14V171.16H692.9ZM693.84 171.16V172.62H705.68V174.6H693.84V176.08H707.54V171.16H693.84ZM691.58 168.2V169.92H708.54V168.2H691.58ZM714.6 169.06L714.66 171.12C715.1 171.06 715.64 171.02 716.12 170.98C717.18 170.92 720.64 170.78 721.68 170.74C720.68 171.62 718.36 173.54 717.24 174.46C716.08 175.44 713.58 177.54 712.02 178.8L713.46 180.28C715.82 177.76 717.7 176.26 720.92 176.26C723.42 176.26 725.26 177.62 725.26 179.52C725.26 181.86 723.3 183.22 719.9 183.22C718.5 183.22 717.52 182.66 717.52 181.8C717.52 181.18 718.12 180.66 718.96 180.66C720.38 180.66 721.26 181.78 721.34 183.38L723.18 183.1C723.08 181 721.66 179.14 718.96 179.14C717 179.14 715.66 180.48 715.66 181.96C715.66 183.78 717.52 185 720.26 185C724.76 185 727.3 182.74 727.3 179.54C727.3 176.74 724.84 174.7 721.48 174.7C720.7 174.7 719.9 174.78 719.08 175.02C720.52 173.86 722.96 171.78 724 171.02C724.4 170.7 724.84 170.44 725.24 170.16L724.16 168.72C723.94 168.8 723.58 168.86 722.88 168.92C721.78 169.02 717.24 169.14 716.18 169.14C715.72 169.14 715.1 169.12 714.6 169.06Z"
    fill="#003EE5"
  />
  <rect x="659" y="144" width="102" height="62" rx="7" stroke="#003EE5" stroke-width="2" />
  <path
    d="M350.54 370.76V372.82C352.14 372.96 353.86 373.04 355.9 373.04C357.78 373.04 360.08 372.92 361.46 372.8V370.72C359.98 370.88 357.84 371 355.9 371C353.84 371 352 370.92 350.54 370.76ZM351.72 379L349.66 378.8C349.5 379.58 349.26 380.54 349.26 381.62C349.26 384.24 351.6 385.66 355.88 385.66C358.7 385.66 361.18 385.38 362.76 384.98L362.74 382.78C361.12 383.28 358.54 383.58 355.82 383.58C352.76 383.58 351.34 382.58 351.34 381.16C351.34 380.44 351.5 379.76 351.72 379ZM377.5 371.34L375.38 371.28C375.18 373.36 374.74 375.64 374.16 377.54C373.22 380.62 372.28 381.94 371.38 381.94C370.54 381.94 369.54 380.88 369.54 378.58C369.54 375.82 372.1 372.28 376.44 372.28C380.12 372.28 382.22 374.74 382.22 377.92C382.22 381.14 379.92 383.02 377.36 383.62C376.86 383.72 376.28 383.82 375.58 383.9L376.76 385.76C381.64 385.08 384.32 382.2 384.32 378C384.32 373.8 381.28 370.44 376.48 370.44C371.46 370.44 367.54 374.3 367.54 378.76C367.54 382.1 369.34 384.32 371.32 384.32C373.32 384.32 374.96 382.04 376.18 377.96C376.84 375.74 377.24 373.4 377.5 371.34ZM392.34 369.86V371.48H400.32V369.86H392.34ZM399.8 369.86V370.16C397.78 373.98 392.34 376.26 387.06 377.06C387.38 377.48 387.78 378.26 387.94 378.76C393.62 377.7 399.28 375.24 401.8 370.52L400.52 369.78L400.18 369.86H399.8ZM393.36 368.08C392.34 369.9 390.34 371.9 387.36 373.3C387.8 373.58 388.42 374.24 388.72 374.7C391.88 373 394 370.82 395.44 368.48L393.36 368.08ZM392.5 370.84L390.9 371.54C393.58 375.36 398.3 377.58 404.1 378.42C404.34 377.92 404.84 377.14 405.22 376.72C399.52 376.06 394.76 374.08 392.5 370.84ZM387.1 379.24V380.92H404.9V379.24H387.1ZM395 377.3V386.68H396.92V377.3H395ZM394.3 380.04C392.7 382.08 389.56 383.98 386.66 384.84C387.08 385.24 387.62 385.94 387.9 386.4C390.84 385.3 394 383.14 395.8 380.68L394.3 380.04ZM397.6 380L396.1 380.66C397.92 383.1 401.06 385.24 404.08 386.3C404.34 385.84 404.92 385.1 405.34 384.72C402.36 383.86 399.22 382.04 397.6 380ZM417.92 368.38V386.68H419.84V368.38H417.92ZM414.5 369.18C414.04 371.72 413.2 374.28 412.08 375.92C412.54 376.12 413.34 376.56 413.72 376.84C414.82 375.06 415.76 372.3 416.32 369.54L414.5 369.18ZM414.94 372.12L414.48 373.98H424.26V372.12H414.94ZM412.32 377.98V379.82H425.16V377.98H412.32ZM411.12 368.2C410.08 371.16 408.34 374.1 406.5 375.98C406.84 376.44 407.38 377.44 407.56 377.9C409.66 375.62 411.64 372.14 412.92 368.76L411.12 368.2ZM409.12 373.52V386.66H410.92V371.74V371.72L409.12 373.52ZM427.48 371.6L427.7 373.78C429.92 373.3 434.58 372.84 436.6 372.62C434.98 373.68 433.2 376.12 433.2 379.12C433.2 383.54 437.3 385.62 441.22 385.82L441.96 383.7C438.64 383.56 435.24 382.34 435.24 378.7C435.24 376.32 437.02 373.48 439.68 372.68C440.72 372.4 442.46 372.38 443.58 372.38L443.56 370.36C442.18 370.42 440.18 370.54 438.04 370.72C434.38 371.02 430.8 371.36 429.34 371.5C428.96 371.54 428.26 371.58 427.48 371.6ZM440.7 374.62L439.48 375.14C440.1 376 440.6 376.92 441.08 377.94L442.32 377.38C441.92 376.54 441.18 375.3 440.7 374.62ZM442.9 373.74L441.72 374.3C442.34 375.16 442.88 376.04 443.38 377.06L444.62 376.46C444.18 375.62 443.4 374.42 442.9 373.74ZM456.32 370.82C456.54 371.48 456.82 372.38 457.26 373.52C457.9 375.26 458.9 377.12 459.7 378.34C459.02 378.28 457.62 378.16 456.56 378.06L456.4 379.74C457.94 379.86 460.42 380.1 461.44 380.32L462.44 378.9C462.12 378.54 461.78 378.16 461.48 377.72C460.72 376.66 459.74 374.86 459.12 373.16C458.64 371.86 458.14 370.2 457.9 368.88L455.76 369.14C455.98 369.72 456.18 370.38 456.32 370.82ZM449.02 372.12L449.06 374.12C452.84 374.44 456 374.38 458.6 374.08C460.12 373.9 461.94 373.6 463.32 373.2L463.08 371.22C461.52 371.72 459.64 372.08 457.96 372.28C455.62 372.52 452.52 372.52 449.02 372.12ZM452.5 378.68L450.54 378.22C449.92 379.48 449.52 380.56 449.52 381.72C449.52 384.52 452 385.98 455.92 386C458.24 386 459.98 385.76 461.18 385.54L461.28 383.54C459.88 383.84 458.14 384.04 456.04 384.04C453.18 384.02 451.54 383.24 451.54 381.42C451.54 380.5 451.88 379.64 452.5 378.68ZM474.74 369.42L472.4 369.18C472.42 370.7 472.16 372.46 471.8 374.14C471.24 376.62 469.68 381.94 467.36 385.04L469.42 385.86C471.62 382.34 473.12 377.04 473.78 374.22C474.04 373.08 474.3 371.62 474.46 370.82C474.54 370.38 474.64 369.86 474.74 369.42ZM481.62 371.6L479.76 372.42C481.18 374.12 482.68 377.62 483.24 379.74L485.22 378.82C484.58 376.94 482.86 373.28 481.62 371.6ZM467.14 373.68L467.34 375.84C467.9 375.76 468.82 375.64 469.34 375.56C470.5 375.44 474.12 375 475.4 375C476.66 375 477.44 375.28 477.44 377.02C477.44 379.1 477.14 381.62 476.54 382.88C476.18 383.66 475.62 383.84 474.9 383.84C474.36 383.84 473.26 383.66 472.46 383.42L472.8 385.52C473.44 385.66 474.4 385.8 475.16 385.8C476.56 385.8 477.6 385.42 478.24 384.06C479.08 382.36 479.4 379.16 479.4 376.78C479.4 374 477.92 373.2 475.98 373.2C474.58 373.2 470.62 373.64 469.08 373.68C468.4 373.7 467.82 373.72 467.14 373.68ZM481.6 368.76L480.3 369.3C480.84 370.06 481.5 371.26 481.9 372.08L483.22 371.5C482.82 370.72 482.1 369.48 481.6 368.76ZM483.88 367.9L482.58 368.44C483.14 369.2 483.8 370.36 484.22 371.2L485.52 370.64C485.16 369.92 484.4 368.66 483.88 367.9ZM498.76 369.04H496.46C496.5 369.24 496.58 369.86 496.62 370.52C496.7 371.6 496.7 375.52 496.7 376.56L498.66 377.36C498.64 375.76 498.6 371.8 498.64 370.5C498.66 370.22 498.72 369.32 498.76 369.04ZM487.84 371.7L487.88 373.62C490.9 373.42 495.06 373.28 498.58 373.28C501.52 373.28 503.42 373.32 504.6 373.38L504.62 371.52C503.6 371.5 500.88 371.52 498.62 371.52C495.78 371.52 490.66 371.68 487.84 371.7ZM498.48 377.56L497.04 377.02C497.5 379.26 496.7 380.2 495.58 380.2C494.6 380.2 493.76 379.54 493.76 378.44C493.76 377.24 494.64 376.54 495.58 376.54C496.58 376.54 497.38 377.24 497.38 378.82C497.38 382.2 495.02 383.8 491.48 384.6L493.16 386.26C497.92 384.88 499.32 381.74 499.32 379.08C499.32 376.7 498.06 374.88 495.6 374.88C493.58 374.88 491.86 376.36 491.86 378.46C491.86 380.76 493.6 381.96 495.22 381.96C497.26 381.96 498.48 380.5 498.48 377.56Z"
    fill="#003EE5"
  />
  <rect x="315" y="345" width="222" height="62" rx="7" stroke="#003EE5" stroke-width="2" />
  <rect x="533" y="234" width="164" height="64" rx="8" fill="#003EE5" />
  <path
    d="M569.56 259.3V261.22H575.22V259.3H569.56ZM574.28 259.3C574.28 263.2 575.04 271.9 582.86 276.62C583.2 276.16 583.96 275.34 584.4 275C576.72 270.46 576.22 262.98 576.22 259.3H574.28ZM573.58 263.42C572.42 268.92 569.96 272.9 565.64 275.12C566.14 275.48 567.02 276.26 567.36 276.66C571.68 274.1 574.32 269.84 575.74 263.82L573.58 263.42ZM586.58 262.4V264.34H602.02V262.4H586.58ZM601.26 262.4V262.8C600.88 270.5 600.46 273.64 599.72 274.34C599.46 274.6 599.22 274.66 598.8 274.66C598.28 274.66 597.04 274.64 595.72 274.54C596.08 275.08 596.34 275.92 596.36 276.48C597.6 276.54 598.86 276.58 599.58 276.48C600.4 276.4 600.92 276.22 601.44 275.54C602.34 274.52 602.74 271.52 603.18 263.36C603.2 263.08 603.22 262.4 603.22 262.4H601.26ZM592.94 258.16V261.92C592.94 265.94 592.44 271.56 585.98 275.26C586.44 275.6 587.14 276.32 587.44 276.78C594.34 272.72 594.94 266.46 594.94 261.92V258.16H592.94ZM607.74 273.68V275.48H622.22V273.68H607.74ZM606.08 259.38V261.16H623.92V259.38H606.08ZM606.7 262.86V276.68H608.54V262.86H606.7ZM621.48 262.86V276.64H623.32V262.86H621.48ZM613.96 259.92V263.88H615.88V259.92H613.96ZM614.1 263.82V271.54H615.74V263.82H614.1ZM611.74 268.38H618.12V270.6H611.74V268.38ZM611.74 264.68H618.12V266.9H611.74V264.68ZM610.16 263.12V272.18H619.76V263.12H610.16ZM632.14 266.98V268.5H637.48V266.98H632.14ZM632.14 270.42V271.94H637.52V270.42H632.14ZM628.14 273.9V275.66H641.98V273.9H628.14ZM626.96 263.38V276.7H628.78V265.12H641.1V276.7H643.02V263.38H626.96ZM631.3 264.5V274.7H633V264.5H631.3ZM636.74 264.5V274.66H638.46V264.5H636.74ZM633.76 260.2C633.64 261.4 633.28 263.08 632.98 264.18L634.7 264.64C635.1 263.64 635.54 262.1 635.98 260.68L633.76 260.2ZM626.08 259.38V261.18H643.96V259.38H626.08ZM645.94 269.32L647.84 271.26C648.16 270.8 648.62 270.14 649.06 269.56C650 268.36 651.54 266.26 652.42 265.16C653.06 264.36 653.44 264.24 654.24 265.1C655.16 266.14 656.68 268.06 657.96 269.54C659.28 271.06 661.04 273.06 662.52 274.46L664.14 272.58C662.3 270.94 660.44 268.98 659.2 267.62C657.96 266.28 656.4 264.26 655.12 263C653.74 261.62 652.6 261.8 651.32 263.26C650.12 264.68 648.5 266.86 647.5 267.9C646.94 268.48 646.48 268.9 645.94 269.32Z"
    fill="white"
  />
  <g clip-path="url(#clip0_7446_12662)">
    <rect x="60" y="140" width="99" height="217" fill="white" />
    <rect x="60" y="295" width="99" height="62" fill="#F5F5F5" />
    <rect x="71" y="187" width="56" height="11" rx="5.5" fill="#F5F5F5" />
    <rect x="71" y="203" width="76" height="6" rx="3" fill="#F5F5F5" />
    <rect x="71" y="214" width="41" height="6" rx="3" fill="#F5F5F5" />
    <rect x="71" y="238" width="74" height="2" fill="#0017C1" />
    <rect x="71" y="252" width="23" height="8" rx="4" fill="#F5F5F5" />
    <rect x="71" y="265" width="56" height="4" rx="2" fill="#F5F5F5" />
    <rect x="71" y="273" width="51" height="4" rx="2" fill="#F5F5F5" />
    <rect x="71" y="158" width="12" height="12" rx="6" fill="#0017C1" />
    <rect x="60" y="140" width="99" height="7" fill="#0017C1" />
  </g>
  <rect x="60.5" y="140.5" width="98" height="216" stroke="#CCCCCC" />
  <g clip-path="url(#clip1_7446_12662)">
    <rect x="797" y="145" width="99" height="173" fill="white" />
    <rect x="797" y="300" width="99" height="18" fill="#0017C1" />
    <rect x="808" y="192" width="56" height="11" rx="5.5" fill="#F5F5F5" />
    <rect x="808" y="208" width="76" height="6" rx="3" fill="#F5F5F5" />
    <rect x="808" y="219" width="41" height="6" rx="3" fill="#F5F5F5" />
    <rect x="808" y="243" width="74" height="2" fill="#0017C1" />
    <rect x="808" y="257" width="23" height="8" rx="4" fill="#F5F5F5" />
    <rect x="808" y="270" width="56" height="4" rx="2" fill="#F5F5F5" />
    <rect x="808" y="278" width="51" height="4" rx="2" fill="#F5F5F5" />
    <rect x="808" y="163" width="12" height="12" fill="#0017C1" />
    <rect x="797" y="145" width="99" height="7" fill="#0017C1" />
  </g>
  <rect x="797.5" y="145.5" width="98" height="172" stroke="#CCCCCC" />
  <g clip-path="url(#clip2_7446_12662)">
    <rect x="215" y="29" width="99" height="180" fill="white" />
    <rect x="215" y="184" width="99" height="25" fill="#0017C1" />
    <rect x="215" y="29" width="99" height="70" fill="#0017C1" />
    <rect x="226" y="71" width="76" height="6" rx="3" fill="#F5F5F5" />
    <rect x="226" y="82" width="41" height="6" rx="3" fill="#F5F5F5" />
    <rect x="226" y="141" width="23" height="8" rx="4" fill="#F5F5F5" />
    <rect x="226" y="154" width="56" height="4" rx="2" fill="#F5F5F5" />
    <rect x="226" y="162" width="51" height="4" rx="2" fill="#F5F5F5" />
    <rect x="226" y="47" width="12" height="12" rx="6" fill="#F9F9F9" />
  </g>
  <rect x="215.5" y="29.5" width="98" height="179" stroke="#CCCCCC" />
  <rect x="232" y="244" width="244" height="64" rx="8" fill="#003EE5" />
  <path
    d="M342.72 268.18C342.06 271.38 340.84 274.5 339.14 276.42C339.64 276.64 340.54 277.16 340.94 277.46C342.56 275.34 343.9 272.04 344.7 268.54L342.72 268.18ZM346.2 273.4H345.18V275.88C345.18 277.94 344.02 282.82 338.22 285.12C338.56 285.48 339.14 286.26 339.36 286.68C343.86 284.78 345.78 281.02 346.18 279.16C346.52 281 348.3 284.9 352.24 286.68C352.54 286.22 353.1 285.44 353.48 284.98C348.24 282.72 347.16 277.82 347.18 275.88V273.4H346.2ZM334.66 282.24L335.88 283.84C337.24 282.5 338.92 280.76 340.34 279.14L339.28 277.52C337.6 279.32 335.8 281.16 334.66 282.24ZM335.26 270.8C336.52 271.68 338.1 273 338.84 273.88L340.26 272.32C339.48 271.46 337.86 270.22 336.6 269.42L335.26 270.8ZM343.12 271.66L342.22 273.54H351.78V271.66H343.12ZM351.14 271.66V272.1C350.82 273.66 349.98 275.78 349.32 277C349.78 277.18 350.52 277.56 350.92 277.78C351.68 276.4 352.64 274.32 353.18 272.36L351.78 271.56L351.42 271.66H351.14ZM354.94 279.32L356.84 281.26C357.16 280.8 357.62 280.14 358.06 279.56C359 278.36 360.54 276.26 361.42 275.16C362.06 274.36 362.44 274.24 363.24 275.1C364.16 276.14 365.68 278.06 366.96 279.54C368.28 281.06 370.04 283.06 371.52 284.46L373.14 282.58C371.3 280.94 369.44 278.98 368.2 277.62C366.96 276.28 365.4 274.26 364.12 273C362.74 271.62 361.6 271.8 360.32 273.26C359.12 274.68 357.5 276.86 356.5 277.9C355.94 278.48 355.48 278.9 354.94 279.32Z"
    fill="white"
  />
  <defs>
    <clipPath id="clip0_7446_12662">
      <rect x="60" y="140" width="99" height="217" fill="white" />
    </clipPath>
    <clipPath id="clip1_7446_12662">
      <rect x="797" y="145" width="99" height="173" fill="white" />
    </clipPath>
    <clipPath id="clip2_7446_12662">
      <rect x="215" y="29" width="99" height="180" fill="white" />
    </clipPath>
  </defs>
</svg>