<svg width="828" height="279" viewBox="0 0 828 279" fill="none" xmlns="http://www.w3.org/2000/svg">
<path d="M99.6 106H102.018V97.94H105.554C109.428 97.94 112.21 96.12 112.21 92.298C112.21 88.346 109.428 86.942 105.554 86.942H99.6V106ZM102.018 95.99V88.918H105.216C108.18 88.918 109.818 89.802 109.818 92.298C109.818 94.768 108.18 95.99 105.216 95.99H102.018ZM110.078 106H112.782L106.958 96.042L105.086 97.29L110.078 106ZM121.234 106.364C123.158 106.364 124.64 105.714 125.888 104.908L125.03 103.322C123.99 104.024 122.872 104.466 121.52 104.466C118.816 104.466 116.996 102.516 116.814 99.526H126.33C126.408 99.162 126.434 98.668 126.434 98.174C126.434 94.118 124.406 91.544 120.818 91.544C117.568 91.544 114.474 94.378 114.474 98.98C114.474 103.608 117.464 106.364 121.234 106.364ZM116.788 97.81C117.1 95.028 118.868 93.442 120.844 93.442C123.08 93.442 124.354 94.976 124.354 97.81H116.788ZM134.339 112.5C138.681 112.5 141.463 110.264 141.463 107.638C141.463 105.298 139.825 104.284 136.549 104.284H133.793C131.895 104.284 131.297 103.634 131.297 102.724C131.297 101.97 131.713 101.476 132.207 101.06C132.857 101.372 133.637 101.528 134.313 101.528C137.199 101.528 139.487 99.656 139.487 96.64C139.487 95.418 139.019 94.378 138.343 93.728H141.229V91.882H136.315C135.821 91.7 135.119 91.544 134.313 91.544C131.453 91.544 129.009 93.468 129.009 96.588C129.009 98.278 129.945 99.63 130.881 100.384V100.488C130.127 101.008 129.295 101.918 129.295 103.088C129.295 104.206 129.841 104.96 130.569 105.428V105.532C129.269 106.364 128.489 107.534 128.489 108.73C128.489 111.148 130.881 112.5 134.339 112.5ZM134.313 99.942C132.675 99.942 131.297 98.616 131.297 96.588C131.297 94.482 132.649 93.26 134.313 93.26C135.977 93.26 137.329 94.508 137.329 96.588C137.329 98.616 135.951 99.942 134.313 99.942ZM134.651 110.888C132.103 110.888 130.569 109.926 130.569 108.392C130.569 107.586 130.985 106.728 131.999 106C132.649 106.182 133.299 106.234 133.845 106.234H136.289C138.135 106.234 139.149 106.676 139.149 108.002C139.149 109.458 137.381 110.888 134.651 110.888ZM148.365 106.364C150.315 106.364 151.719 105.324 153.045 103.79H153.097L153.305 106H155.255V91.882H152.889V101.918C151.563 103.582 150.523 104.284 149.093 104.284C147.221 104.284 146.415 103.166 146.415 100.54V91.882H144.049V100.826C144.049 104.44 145.401 106.364 148.365 106.364ZM162.546 106.364C163.196 106.364 163.56 106.26 163.898 106.156L163.586 104.336C163.3 104.388 163.196 104.388 163.092 104.388C162.728 104.388 162.416 104.102 162.416 103.348V85.33H160.05V103.192C160.05 105.22 160.752 106.364 162.546 106.364ZM170.689 106.364C172.431 106.364 174.017 105.454 175.343 104.336H175.447L175.655 106H177.605V97.342C177.605 93.832 176.149 91.544 172.691 91.544C170.429 91.544 168.453 92.532 167.153 93.364L168.089 95.028C169.181 94.274 170.663 93.494 172.327 93.494C174.641 93.494 175.213 95.236 175.213 97.056C169.207 97.732 166.555 99.266 166.555 102.334C166.555 104.882 168.323 106.364 170.689 106.364ZM171.339 104.44C169.961 104.44 168.869 103.79 168.869 102.178C168.869 100.358 170.455 99.188 175.213 98.642V102.568C173.861 103.79 172.717 104.44 171.339 104.44ZM182.089 106H184.455V96.952C185.391 94.534 186.847 93.676 188.017 93.676C188.589 93.676 188.901 93.754 189.395 93.91L189.837 91.83C189.369 91.622 188.953 91.544 188.329 91.544C186.743 91.544 185.287 92.662 184.325 94.456H184.247L184.013 91.882H182.089V106ZM198.192 106H200.48V96.016C200.48 93.988 200.298 91.986 200.168 90.062H200.298L202.352 93.988L209.268 106H211.764V86.942H209.45V96.848C209.45 98.824 209.632 100.982 209.788 102.906H209.658L207.604 98.954L200.662 86.942H198.192V106ZM222.259 106.364C225.717 106.364 228.785 103.634 228.785 98.98C228.785 94.248 225.717 91.544 222.259 91.544C218.775 91.544 215.707 94.248 215.707 98.98C215.707 103.634 218.775 106.364 222.259 106.364ZM222.259 104.388C219.789 104.388 218.151 102.204 218.151 98.98C218.151 95.704 219.789 93.52 222.259 93.52C224.703 93.52 226.341 95.704 226.341 98.98C226.341 102.204 224.703 104.388 222.259 104.388ZM236.402 106.364C237.286 106.364 238.222 106.104 239.002 105.818L238.534 104.05C238.092 104.232 237.442 104.44 236.948 104.44C235.31 104.44 234.764 103.426 234.764 101.71V93.806H238.586V91.882H234.764V87.904H232.762L232.502 91.882L230.292 92.038V93.806H232.398V101.658C232.398 104.466 233.386 106.364 236.402 106.364ZM246.812 106.364C250.27 106.364 253.338 103.634 253.338 98.98C253.338 94.248 250.27 91.544 246.812 91.544C243.328 91.544 240.26 94.248 240.26 98.98C240.26 103.634 243.328 106.364 246.812 106.364ZM246.812 104.388C244.342 104.388 242.704 102.204 242.704 98.98C242.704 95.704 244.342 93.52 246.812 93.52C249.256 93.52 250.894 95.704 250.894 98.98C250.894 102.204 249.256 104.388 246.812 104.388ZM268.394 106.364C272.398 106.364 274.868 103.972 274.868 100.956C274.868 98.122 273.178 96.796 270.942 95.834L268.238 94.664C266.756 94.04 265.092 93.364 265.092 91.492C265.092 89.802 266.496 88.71 268.654 88.71C270.396 88.71 271.8 89.412 272.97 90.504L274.244 88.97C272.918 87.566 270.916 86.604 268.654 86.604C265.17 86.604 262.648 88.736 262.648 91.674C262.648 94.456 264.728 95.808 266.522 96.562L269.252 97.758C271.046 98.538 272.424 99.162 272.424 101.138C272.424 102.984 270.942 104.232 268.446 104.232C266.47 104.232 264.546 103.322 263.168 101.866L261.738 103.53C263.402 105.272 265.716 106.364 268.394 106.364ZM281.646 106.364C283.388 106.364 284.974 105.454 286.3 104.336H286.404L286.612 106H288.562V97.342C288.562 93.832 287.106 91.544 283.648 91.544C281.386 91.544 279.41 92.532 278.11 93.364L279.046 95.028C280.138 94.274 281.62 93.494 283.284 93.494C285.598 93.494 286.17 95.236 286.17 97.056C280.164 97.732 277.512 99.266 277.512 102.334C277.512 104.882 279.28 106.364 281.646 106.364ZM282.296 104.44C280.918 104.44 279.826 103.79 279.826 102.178C279.826 100.358 281.412 99.188 286.17 98.642V102.568C284.818 103.79 283.674 104.44 282.296 104.44ZM293.046 106H295.412V95.756C296.816 94.352 297.83 93.598 299.26 93.598C301.132 93.598 301.938 94.716 301.938 97.368V106H304.33V97.056C304.33 93.468 302.978 91.544 300.014 91.544C298.064 91.544 296.608 92.61 295.282 93.936H295.204L294.97 91.882H293.046V106ZM312.607 106.364C315.935 106.364 317.729 104.466 317.729 102.152C317.729 99.474 315.493 98.642 313.439 97.862C311.827 97.29 310.397 96.77 310.397 95.418C310.397 94.326 311.203 93.39 312.997 93.39C314.245 93.39 315.259 93.936 316.221 94.638L317.365 93.13C316.273 92.246 314.713 91.544 312.971 91.544C309.903 91.544 308.109 93.286 308.109 95.522C308.109 97.94 310.267 98.876 312.217 99.63C313.777 100.202 315.467 100.852 315.467 102.282C315.467 103.53 314.531 104.518 312.659 104.518C310.969 104.518 309.721 103.816 308.499 102.828L307.329 104.414C308.655 105.506 310.605 106.364 312.607 106.364ZM330.636 106.364C334.354 106.364 335.888 103.712 335.888 100.41V86.942H333.47V100.202C333.47 103.088 332.482 104.232 330.402 104.232C329.05 104.232 327.958 103.634 327.126 102.1L325.384 103.322C326.528 105.324 328.218 106.364 330.636 106.364ZM341.014 106H343.432V98.434H346.552C350.738 98.434 353.598 96.562 353.598 92.558C353.598 88.372 350.712 86.942 346.448 86.942H341.014V106ZM343.432 96.484V88.918H346.136C349.516 88.918 351.206 89.776 351.206 92.558C351.206 95.262 349.594 96.484 346.266 96.484H343.432Z" fill="#1A1A1C"/>
<path d="M99.496 165H102.226V155.562C102.226 153.82 101.992 151.376 101.836 149.634H101.94L103.474 154.054L106.802 163.18H108.674L112.002 154.054L113.562 149.634H113.666C113.51 151.376 113.276 153.82 113.276 155.562V165H116.058V145.864H112.574L109.116 155.562C108.7 156.81 108.336 158.11 107.868 159.41H107.764C107.322 158.11 106.932 156.81 106.464 155.562L102.98 145.864H99.496V165ZM126.798 165.364C128.67 165.364 130.308 164.74 131.634 163.856L130.594 161.932C129.528 162.608 128.462 162.998 127.188 162.998C124.718 162.998 123.002 161.386 122.768 158.656H132.05C132.128 158.292 132.18 157.72 132.18 157.122C132.18 153.066 130.126 150.336 126.356 150.336C123.028 150.336 119.83 153.222 119.83 157.876C119.83 162.582 122.898 165.364 126.798 165.364ZM122.716 156.576C123.028 154.08 124.614 152.702 126.408 152.702C128.488 152.702 129.58 154.106 129.58 156.576H122.716ZM140.485 165.364C142.097 165.364 143.579 164.506 144.671 163.414H144.749L144.983 165H147.453V144.304H144.437V149.582L144.567 151.948C143.423 150.96 142.357 150.336 140.719 150.336C137.547 150.336 134.609 153.222 134.609 157.876C134.609 162.608 136.897 165.364 140.485 165.364ZM141.213 162.868C138.977 162.868 137.703 161.074 137.703 157.824C137.703 154.756 139.315 152.832 141.317 152.832C142.383 152.832 143.397 153.196 144.437 154.158V161.126C143.423 162.322 142.383 162.868 141.213 162.868ZM151.922 165H154.938V150.7H151.922V165ZM153.43 148.022C154.522 148.022 155.302 147.32 155.302 146.228C155.302 145.162 154.522 144.46 153.43 144.46C152.312 144.46 151.584 145.162 151.584 146.228C151.584 147.32 152.312 148.022 153.43 148.022ZM163.624 165.364C165.6 165.364 166.978 164.35 168.278 162.842H168.356L168.59 165H171.06V150.7H168.07V160.632C166.874 162.14 165.964 162.764 164.638 162.764C162.948 162.764 162.22 161.802 162.22 159.332V150.7H159.23V159.696C159.23 163.336 160.582 165.364 163.624 165.364ZM175.535 165H178.551V154.86C179.695 153.56 180.787 152.936 181.749 152.936C183.387 152.936 184.141 153.898 184.141 156.394V165H187.131V154.86C188.327 153.56 189.367 152.936 190.355 152.936C191.967 152.936 192.721 153.898 192.721 156.394V165H195.711V156.004C195.711 152.39 194.333 150.336 191.343 150.336C189.549 150.336 188.093 151.48 186.663 152.962C186.065 151.324 184.869 150.336 182.737 150.336C180.969 150.336 179.539 151.402 178.317 152.702H178.239L177.979 150.7H175.535V165ZM206.162 165H209.048V156.004C209.048 153.898 208.788 151.714 208.658 149.712H208.788L210.79 153.742L217.108 165H220.228V145.864H217.342V154.808C217.342 156.862 217.576 159.202 217.758 161.152H217.628L215.626 157.122L209.256 145.864H206.162V165ZM230.742 165.364C234.278 165.364 237.476 162.608 237.476 157.876C237.476 153.092 234.278 150.336 230.742 150.336C227.18 150.336 224.008 153.092 224.008 157.876C224.008 162.608 227.18 165.364 230.742 165.364ZM230.742 162.894C228.48 162.894 227.102 160.892 227.102 157.876C227.102 154.834 228.48 152.832 230.742 152.832C232.978 152.832 234.408 154.834 234.408 157.876C234.408 160.892 232.978 162.894 230.742 162.894ZM245.116 165.364C246.182 165.364 247.144 165.078 247.95 164.818L247.404 162.608C246.962 162.79 246.364 162.972 245.87 162.972C244.388 162.972 243.764 162.062 243.764 160.372V153.092H247.508V150.7H243.764V146.748H241.268L240.93 150.7L238.694 150.856V153.092H240.774V160.346C240.774 163.336 241.918 165.364 245.116 165.364ZM255.828 165.364C259.364 165.364 262.562 162.608 262.562 157.876C262.562 153.092 259.364 150.336 255.828 150.336C252.266 150.336 249.094 153.092 249.094 157.876C249.094 162.608 252.266 165.364 255.828 165.364ZM255.828 162.894C253.566 162.894 252.188 160.892 252.188 157.876C252.188 154.834 253.566 152.832 255.828 152.832C258.064 152.832 259.494 154.834 259.494 157.876C259.494 160.892 258.064 162.894 255.828 162.894ZM277.664 165.364C281.85 165.364 284.398 162.842 284.398 159.774C284.398 156.966 282.76 155.562 280.498 154.6L277.872 153.508C276.312 152.858 274.778 152.234 274.778 150.596C274.778 149.088 276.026 148.152 277.976 148.152C279.666 148.152 281.018 148.802 282.214 149.842L283.774 147.944C282.344 146.462 280.238 145.526 277.976 145.526C274.336 145.526 271.71 147.788 271.71 150.804C271.71 153.586 273.738 155.042 275.584 155.796L278.236 156.966C280.004 157.72 281.304 158.266 281.304 160.008C281.304 161.646 280.004 162.712 277.716 162.712C275.87 162.712 273.972 161.828 272.62 160.45L270.852 162.556C272.594 164.324 275.012 165.364 277.664 165.364ZM291.116 165.364C292.832 165.364 294.366 164.506 295.666 163.388H295.77L296.004 165H298.474V156.42C298.474 152.598 296.836 150.336 293.274 150.336C290.986 150.336 288.958 151.298 287.502 152.208L288.62 154.262C289.816 153.482 291.246 152.78 292.754 152.78C294.834 152.78 295.432 154.236 295.458 155.9C289.53 156.55 286.93 158.136 286.93 161.204C286.93 163.726 288.672 165.364 291.116 165.364ZM292.052 162.972C290.778 162.972 289.816 162.4 289.816 160.996C289.816 159.384 291.22 158.318 295.458 157.824V161.308C294.288 162.4 293.3 162.972 292.052 162.972ZM302.691 165H305.707V154.86C306.955 153.612 307.865 152.936 309.191 152.936C310.855 152.936 311.583 153.898 311.583 156.394V165H314.599V156.004C314.599 152.39 313.247 150.336 310.205 150.336C308.255 150.336 306.773 151.402 305.473 152.702H305.395L305.135 150.7H302.691V165ZM322.816 165.364C326.326 165.364 328.224 163.414 328.224 160.996C328.224 158.318 326.04 157.408 324.038 156.654C322.452 156.082 321.074 155.614 321.074 154.392C321.074 153.404 321.802 152.624 323.388 152.624C324.558 152.624 325.572 153.17 326.56 153.872L327.964 152.026C326.82 151.116 325.234 150.336 323.336 150.336C320.138 150.336 318.214 152.13 318.214 154.522C318.214 156.966 320.32 157.98 322.244 158.708C323.778 159.28 325.39 159.878 325.39 161.152C325.39 162.244 324.584 163.076 322.894 163.076C321.334 163.076 320.112 162.426 318.838 161.438L317.434 163.388C318.812 164.532 320.84 165.364 322.816 165.364ZM341.33 165.364C345.23 165.364 346.894 162.582 346.894 159.15V145.864H343.852V158.89C343.852 161.672 342.89 162.712 340.992 162.712C339.744 162.712 338.678 162.114 337.898 160.632L335.766 162.192C336.962 164.298 338.756 165.364 341.33 165.364ZM351.777 165H354.819V157.746H357.705C361.865 157.746 364.907 155.848 364.907 151.662C364.907 147.32 361.865 145.864 357.601 145.864H351.777V165ZM354.819 155.328V148.308H357.289C360.357 148.308 361.917 149.114 361.917 151.662C361.917 154.158 360.461 155.328 357.419 155.328H354.819Z" fill="#1A1A1C"/>
<path d="M99.366 220H106.23C110.442 220 113.666 218.206 113.666 214.332C113.666 211.758 112.132 210.276 110.078 209.782V209.678C111.716 209.08 112.678 207.286 112.678 205.518C112.678 201.93 109.662 200.76 105.71 200.76H99.366V220ZM103.214 208.586V203.724H105.502C107.816 203.724 108.934 204.374 108.934 206.064C108.934 207.624 107.894 208.586 105.45 208.586H103.214ZM103.214 217.036V211.446H105.892C108.544 211.446 109.922 212.252 109.922 214.124C109.922 216.1 108.492 217.036 105.892 217.036H103.214ZM122.835 220.364C126.475 220.364 129.803 217.556 129.803 212.746C129.803 207.91 126.475 205.102 122.835 205.102C119.169 205.102 115.841 207.91 115.841 212.746C115.841 217.556 119.169 220.364 122.835 220.364ZM122.835 217.27C120.833 217.27 119.741 215.476 119.741 212.746C119.741 209.99 120.833 208.222 122.835 208.222C124.811 208.222 125.903 209.99 125.903 212.746C125.903 215.476 124.811 217.27 122.835 217.27ZM136.615 220.364C137.525 220.364 138.123 220.208 138.565 220.052L138.097 217.218C137.837 217.27 137.733 217.27 137.603 217.27C137.239 217.27 136.849 216.984 136.849 216.074V199.278H133.027V215.918C133.027 218.622 133.937 220.364 136.615 220.364ZM146.35 220.364C147.858 220.364 149.314 219.558 150.38 218.492H150.458L150.744 220H153.864V199.278H150.042V204.374L150.198 206.662C149.132 205.7 148.118 205.102 146.48 205.102C143.36 205.102 140.37 207.988 140.37 212.746C140.37 217.53 142.71 220.364 146.35 220.364ZM147.312 217.218C145.414 217.218 144.296 215.736 144.296 212.694C144.296 209.782 145.7 208.222 147.338 208.222C148.248 208.222 149.184 208.534 150.042 209.34V215.736C149.21 216.802 148.352 217.218 147.312 217.218ZM164.163 220H167.803V212.304C167.803 210.068 167.491 207.65 167.309 205.596H167.439L169.389 209.704L174.953 220H178.879V200.76H175.213V208.43C175.213 210.614 175.525 213.188 175.733 215.19H175.603L173.653 211.03L168.063 200.76H164.163V220ZM189.409 220.364C193.049 220.364 196.377 217.556 196.377 212.746C196.377 207.91 193.049 205.102 189.409 205.102C185.743 205.102 182.415 207.91 182.415 212.746C182.415 217.556 185.743 220.364 189.409 220.364ZM189.409 217.27C187.407 217.27 186.315 215.476 186.315 212.746C186.315 209.99 187.407 208.222 189.409 208.222C191.385 208.222 192.477 209.99 192.477 212.746C192.477 215.476 191.385 217.27 189.409 217.27ZM204.067 220.364C205.367 220.364 206.381 220.078 207.161 219.818L206.537 217.036C206.121 217.192 205.575 217.374 205.081 217.374C203.807 217.374 203.105 216.594 203.105 214.93V208.456H206.719V205.466H203.105V201.514H199.933L199.517 205.466L197.255 205.622V208.456H199.283V214.93C199.283 218.18 200.609 220.364 204.067 220.364ZM215.156 220.364C218.796 220.364 222.124 217.556 222.124 212.746C222.124 207.91 218.796 205.102 215.156 205.102C211.49 205.102 208.162 207.91 208.162 212.746C208.162 217.556 211.49 220.364 215.156 220.364ZM215.156 217.27C213.154 217.27 212.062 215.476 212.062 212.746C212.062 209.99 213.154 208.222 215.156 208.222C217.132 208.222 218.224 209.99 218.224 212.746C218.224 215.476 217.132 217.27 215.156 217.27ZM237.296 220.364C241.716 220.364 244.342 217.686 244.342 214.54C244.342 211.784 242.808 210.276 240.494 209.314L237.972 208.274C236.334 207.624 234.956 207.104 234.956 205.726C234.956 204.478 236.022 203.724 237.712 203.724C239.298 203.724 240.572 204.296 241.82 205.31L243.744 202.892C242.184 201.306 239.948 200.422 237.712 200.422C233.838 200.422 231.056 202.84 231.056 205.986C231.056 208.768 233.032 210.354 234.956 211.134L237.53 212.226C239.246 212.954 240.416 213.422 240.416 214.852C240.416 216.178 239.376 217.036 237.374 217.036C235.684 217.036 233.838 216.204 232.486 214.93L230.276 217.582C232.148 219.376 234.696 220.364 237.296 220.364ZM251.024 220.364C252.688 220.364 254.144 219.558 255.418 218.466H255.522L255.808 220H258.928V211.524C258.928 207.286 257.03 205.102 253.338 205.102C251.024 205.102 248.97 205.96 247.254 207L248.632 209.548C249.958 208.742 251.284 208.17 252.636 208.17C254.43 208.17 255.028 209.236 255.106 210.666C249.256 211.316 246.734 212.954 246.734 216.048C246.734 218.544 248.424 220.364 251.024 220.364ZM252.272 217.374C251.154 217.374 250.374 216.88 250.374 215.762C250.374 214.436 251.544 213.474 255.106 213.032V215.97C254.17 216.88 253.364 217.374 252.272 217.374ZM262.824 220H266.646V209.99C267.712 208.95 268.466 208.378 269.662 208.378C271.066 208.378 271.716 209.132 271.716 211.42V220H275.538V210.926C275.538 207.286 274.16 205.102 271.04 205.102C269.064 205.102 267.556 206.142 266.308 207.39H266.23L265.918 205.466H262.824V220ZM283.64 220.364C287.41 220.364 289.412 218.336 289.412 215.762C289.412 213.084 287.306 212.096 285.382 211.368C283.822 210.822 282.496 210.406 282.496 209.366C282.496 208.508 283.094 207.936 284.42 207.936C285.486 207.936 286.526 208.456 287.54 209.184L289.282 206.896C288.086 205.96 286.422 205.102 284.316 205.102C280.988 205.102 278.908 206.948 278.908 209.522C278.908 211.992 280.962 213.084 282.808 213.812C284.316 214.384 285.85 214.904 285.85 215.97C285.85 216.88 285.174 217.53 283.718 217.53C282.366 217.53 281.144 216.932 279.818 215.918L278.102 218.336C279.532 219.532 281.69 220.364 283.64 220.364ZM302.741 220.364C306.849 220.364 308.695 217.426 308.695 213.812V200.76H304.847V213.5C304.847 216.152 303.963 217.036 302.247 217.036C301.155 217.036 300.141 216.438 299.413 215.034L296.761 217.01C298.061 219.246 299.933 220.364 302.741 220.364ZM313.333 220H317.181V213.162H319.755C323.889 213.162 327.165 211.212 327.165 206.818C327.165 202.242 323.889 200.76 319.651 200.76H313.333V220ZM317.181 210.12V203.828H319.365C322.017 203.828 323.421 204.556 323.421 206.818C323.421 209.002 322.147 210.12 319.495 210.12H317.181Z" fill="#1A1A1C"/>
<path d="M512.644 86.436C514.949 86.436 516.648 86.878 517.74 87.762C518.849 88.6287 519.404 89.946 519.404 91.714C519.404 92.702 519.222 93.5253 518.858 94.184C518.494 94.8427 518.026 95.3713 517.454 95.77C516.899 96.1687 516.31 96.472 515.686 96.68L520.782 105H518.052L513.554 97.33H509.862V105H507.522V86.436H512.644ZM512.514 88.464H509.862V95.354H512.644C514.152 95.354 515.253 95.0593 515.946 94.47C516.639 93.8633 516.986 92.9793 516.986 91.818C516.986 90.6047 516.622 89.7467 515.894 89.244C515.166 88.724 514.039 88.464 512.514 88.464ZM528.766 90.804C529.944 90.804 530.967 91.064 531.834 91.584C532.7 92.104 533.359 92.8407 533.81 93.794C534.278 94.73 534.512 95.8307 534.512 97.096V98.474H524.97C525.004 100.051 525.403 101.256 526.166 102.088C526.946 102.903 528.029 103.31 529.416 103.31C530.3 103.31 531.08 103.232 531.756 103.076C532.449 102.903 533.16 102.66 533.888 102.348V104.35C533.177 104.662 532.475 104.887 531.782 105.026C531.088 105.182 530.265 105.26 529.312 105.26C527.977 105.26 526.807 104.991 525.802 104.454C524.796 103.917 524.008 103.119 523.436 102.062C522.881 101.005 522.604 99.696 522.604 98.136C522.604 96.6107 522.855 95.302 523.358 94.21C523.878 93.118 524.597 92.2773 525.516 91.688C526.452 91.0987 527.535 90.804 528.766 90.804ZM528.74 92.676C527.648 92.676 526.781 93.0313 526.14 93.742C525.516 94.4353 525.143 95.406 525.022 96.654H532.12C532.102 95.4753 531.825 94.522 531.288 93.794C530.75 93.0487 529.901 92.676 528.74 92.676ZM543 90.804C543.918 90.804 544.742 90.9773 545.47 91.324C546.215 91.6707 546.848 92.1993 547.368 92.91H547.498L547.81 91.064H549.63V105.234C549.63 107.227 549.118 108.727 548.096 109.732C547.09 110.737 545.522 111.24 543.39 111.24C541.344 111.24 539.672 110.945 538.372 110.356V108.25C539.741 108.978 541.457 109.342 543.52 109.342C544.716 109.342 545.652 108.987 546.328 108.276C547.021 107.583 547.368 106.629 547.368 105.416V104.87C547.368 104.662 547.376 104.367 547.394 103.986C547.411 103.587 547.428 103.31 547.446 103.154H547.342C546.406 104.558 544.967 105.26 543.026 105.26C541.223 105.26 539.81 104.627 538.788 103.362C537.782 102.097 537.28 100.329 537.28 98.058C537.28 95.8393 537.782 94.08 538.788 92.78C539.81 91.4627 541.214 90.804 543 90.804ZM543.312 92.728C542.15 92.728 541.249 93.196 540.608 94.132C539.966 95.0507 539.646 96.368 539.646 98.084C539.646 99.8 539.958 101.117 540.582 102.036C541.206 102.937 542.133 103.388 543.364 103.388C544.768 103.388 545.79 103.015 546.432 102.27C547.073 101.507 547.394 100.285 547.394 98.604V98.058C547.394 96.1687 547.064 94.808 546.406 93.976C545.747 93.144 544.716 92.728 543.312 92.728ZM565.704 91.064V105H563.832L563.494 103.154H563.39C562.939 103.882 562.315 104.419 561.518 104.766C560.72 105.095 559.871 105.26 558.97 105.26C557.288 105.26 556.023 104.861 555.174 104.064C554.324 103.249 553.9 101.958 553.9 100.19V91.064H556.214V100.034C556.214 102.253 557.245 103.362 559.308 103.362C560.85 103.362 561.916 102.929 562.506 102.062C563.112 101.195 563.416 99.9473 563.416 98.318V91.064H565.704ZM572.416 105H570.128V85.24H572.416V105ZM582.109 90.83C583.808 90.83 585.064 91.2027 585.879 91.948C586.694 92.6933 587.101 93.8807 587.101 95.51V105H585.437L584.995 103.024H584.891C584.284 103.787 583.643 104.35 582.967 104.714C582.291 105.078 581.372 105.26 580.211 105.26C578.946 105.26 577.897 104.931 577.065 104.272C576.233 103.596 575.817 102.547 575.817 101.126C575.817 99.7393 576.363 98.6733 577.455 97.928C578.547 97.1653 580.228 96.7493 582.499 96.68L584.865 96.602V95.77C584.865 94.6087 584.614 93.8027 584.111 93.352C583.608 92.9013 582.898 92.676 581.979 92.676C581.251 92.676 580.558 92.7887 579.899 93.014C579.24 93.222 578.625 93.4647 578.053 93.742L577.351 92.026C577.958 91.6967 578.677 91.4193 579.509 91.194C580.341 90.9513 581.208 90.83 582.109 90.83ZM584.839 98.188L582.785 98.266C581.052 98.3353 579.847 98.6127 579.171 99.098C578.512 99.5833 578.183 100.268 578.183 101.152C578.183 101.932 578.417 102.504 578.885 102.868C579.37 103.232 579.986 103.414 580.731 103.414C581.892 103.414 582.863 103.093 583.643 102.452C584.44 101.793 584.839 100.788 584.839 99.436V98.188ZM597.905 90.804C598.165 90.804 598.443 90.8213 598.737 90.856C599.032 90.8733 599.301 90.908 599.543 90.96L599.257 93.066C599.032 93.014 598.781 92.9707 598.503 92.936C598.226 92.9013 597.975 92.884 597.749 92.884C597.039 92.884 596.371 93.0833 595.747 93.482C595.123 93.8633 594.621 94.4093 594.239 95.12C593.875 95.8133 593.693 96.628 593.693 97.564V105H591.405V91.064H593.277L593.537 93.612H593.641C594.075 92.8493 594.647 92.1907 595.357 91.636C596.085 91.0813 596.935 90.804 597.905 90.804ZM623.927 105H621.197L611.265 89.582H611.161C611.196 90.1887 611.239 90.9427 611.291 91.844C611.343 92.7453 611.369 93.6727 611.369 94.626V105H609.211V86.436H611.915L621.821 101.802H621.925C621.908 101.525 621.882 101.109 621.847 100.554C621.83 99.9993 621.804 99.4013 621.769 98.76C621.752 98.1013 621.743 97.486 621.743 96.914V86.436H623.927V105ZM640.769 98.006C640.769 100.311 640.18 102.097 639.001 103.362C637.84 104.627 636.263 105.26 634.269 105.26C633.039 105.26 631.938 104.983 630.967 104.428C630.014 103.856 629.26 103.033 628.705 101.958C628.151 100.866 627.873 99.5487 627.873 98.006C627.873 95.7007 628.445 93.924 629.589 92.676C630.751 91.428 632.337 90.804 634.347 90.804C635.595 90.804 636.705 91.09 637.675 91.662C638.646 92.2167 639.4 93.0313 639.937 94.106C640.492 95.1633 640.769 96.4633 640.769 98.006ZM630.239 98.006C630.239 99.6527 630.56 100.961 631.201 101.932C631.86 102.885 632.9 103.362 634.321 103.362C635.725 103.362 636.757 102.885 637.415 101.932C638.074 100.961 638.403 99.6527 638.403 98.006C638.403 96.3593 638.074 95.068 637.415 94.132C636.757 93.196 635.717 92.728 634.295 92.728C632.874 92.728 631.843 93.196 631.201 94.132C630.56 95.068 630.239 96.3593 630.239 98.006ZM649.05 103.388C649.396 103.388 649.752 103.362 650.116 103.31C650.48 103.258 650.774 103.189 651 103.102V104.844C650.757 104.965 650.41 105.061 649.96 105.13C649.509 105.217 649.076 105.26 648.66 105.26C647.932 105.26 647.256 105.139 646.632 104.896C646.025 104.636 645.531 104.194 645.15 103.57C644.768 102.946 644.578 102.071 644.578 100.944V92.832H642.602V91.74L644.604 90.83L645.514 87.866H646.866V91.064H650.896V92.832H646.866V100.892C646.866 101.741 647.065 102.374 647.464 102.79C647.88 103.189 648.408 103.388 649.05 103.388ZM665.906 98.006C665.906 100.311 665.317 102.097 664.138 103.362C662.977 104.627 661.399 105.26 659.406 105.26C658.175 105.26 657.075 104.983 656.104 104.428C655.151 103.856 654.397 103.033 653.842 101.958C653.287 100.866 653.01 99.5487 653.01 98.006C653.01 95.7007 653.582 93.924 654.726 92.676C655.887 91.428 657.473 90.804 659.484 90.804C660.732 90.804 661.841 91.09 662.812 91.662C663.783 92.2167 664.537 93.0313 665.074 94.106C665.629 95.1633 665.906 96.4633 665.906 98.006ZM655.376 98.006C655.376 99.6527 655.697 100.961 656.338 101.932C656.997 102.885 658.037 103.362 659.458 103.362C660.862 103.362 661.893 102.885 662.552 101.932C663.211 100.961 663.54 99.6527 663.54 98.006C663.54 96.3593 663.211 95.068 662.552 94.132C661.893 93.196 660.853 92.728 659.432 92.728C658.011 92.728 656.979 93.196 656.338 94.132C655.697 95.068 655.376 96.3593 655.376 98.006ZM687.128 100.034C687.128 101.681 686.53 102.963 685.334 103.882C684.138 104.801 682.526 105.26 680.498 105.26C679.458 105.26 678.496 105.182 677.612 105.026C676.728 104.87 675.992 104.653 675.402 104.376V102.14C676.026 102.417 676.798 102.669 677.716 102.894C678.652 103.119 679.614 103.232 680.602 103.232C681.972 103.232 683.012 102.963 683.722 102.426C684.433 101.889 684.788 101.161 684.788 100.242C684.788 99.6353 684.658 99.124 684.398 98.708C684.138 98.292 683.688 97.9107 683.046 97.564C682.405 97.2173 681.53 96.836 680.42 96.42C678.826 95.848 677.63 95.146 676.832 94.314C676.035 93.482 675.636 92.3467 675.636 90.908C675.636 89.9373 675.888 89.0967 676.39 88.386C676.893 87.6753 677.586 87.1293 678.47 86.748C679.354 86.3667 680.386 86.176 681.564 86.176C682.57 86.176 683.497 86.2713 684.346 86.462C685.196 86.6527 685.976 86.904 686.686 87.216L685.958 89.218C685.317 88.9407 684.615 88.7067 683.852 88.516C683.09 88.3253 682.31 88.23 681.512 88.23C680.351 88.23 679.476 88.4813 678.886 88.984C678.297 89.4693 678.002 90.1193 678.002 90.934C678.002 91.558 678.132 92.078 678.392 92.494C678.652 92.91 679.077 93.2913 679.666 93.638C680.256 93.9673 681.053 94.314 682.058 94.678C683.15 95.0767 684.069 95.51 684.814 95.978C685.577 96.4287 686.149 96.9747 686.53 97.616C686.929 98.2573 687.128 99.0633 687.128 100.034ZM695.834 90.83C697.532 90.83 698.789 91.2027 699.604 91.948C700.418 92.6933 700.826 93.8807 700.826 95.51V105H699.162L698.72 103.024H698.616C698.009 103.787 697.368 104.35 696.692 104.714C696.016 105.078 695.097 105.26 693.936 105.26C692.67 105.26 691.622 104.931 690.79 104.272C689.958 103.596 689.542 102.547 689.542 101.126C689.542 99.7393 690.088 98.6733 691.18 97.928C692.272 97.1653 693.953 96.7493 696.224 96.68L698.59 96.602V95.77C698.59 94.6087 698.338 93.8027 697.836 93.352C697.333 92.9013 696.622 92.676 695.704 92.676C694.976 92.676 694.282 92.7887 693.624 93.014C692.965 93.222 692.35 93.4647 691.778 93.742L691.076 92.026C691.682 91.6967 692.402 91.4193 693.234 91.194C694.066 90.9513 694.932 90.83 695.834 90.83ZM698.564 98.188L696.51 98.266C694.776 98.3353 693.572 98.6127 692.896 99.098C692.237 99.5833 691.908 100.268 691.908 101.152C691.908 101.932 692.142 102.504 692.61 102.868C693.095 103.232 693.71 103.414 694.456 103.414C695.617 103.414 696.588 103.093 697.368 102.452C698.165 101.793 698.564 100.788 698.564 99.436V98.188ZM711.838 90.804C713.502 90.804 714.759 91.2113 715.608 92.026C716.457 92.8407 716.882 94.1407 716.882 95.926V105H714.62V96.082C714.62 93.846 713.58 92.728 711.5 92.728C709.957 92.728 708.891 93.1613 708.302 94.028C707.713 94.8947 707.418 96.1427 707.418 97.772V105H705.13V91.064H706.976L707.314 92.962H707.444C707.895 92.234 708.519 91.6967 709.316 91.35C710.113 90.986 710.954 90.804 711.838 90.804ZM730.276 101.152C730.276 102.504 729.774 103.527 728.768 104.22C727.763 104.913 726.411 105.26 724.712 105.26C723.742 105.26 722.901 105.182 722.19 105.026C721.497 104.87 720.882 104.653 720.344 104.376V102.296C720.899 102.573 721.566 102.833 722.346 103.076C723.144 103.301 723.95 103.414 724.764 103.414C725.926 103.414 726.766 103.232 727.286 102.868C727.806 102.487 728.066 101.984 728.066 101.36C728.066 101.013 727.971 100.701 727.78 100.424C727.59 100.147 727.243 99.8693 726.74 99.592C726.255 99.3147 725.553 99.0027 724.634 98.656C723.733 98.3093 722.962 97.9627 722.32 97.616C721.679 97.2693 721.185 96.8533 720.838 96.368C720.492 95.8827 720.318 95.2587 720.318 94.496C720.318 93.3173 720.795 92.4073 721.748 91.766C722.719 91.1247 723.984 90.804 725.544 90.804C726.394 90.804 727.182 90.8907 727.91 91.064C728.656 91.2373 729.349 91.4627 729.99 91.74L729.21 93.56C728.621 93.3173 728.006 93.1093 727.364 92.936C726.723 92.7627 726.064 92.676 725.388 92.676C724.452 92.676 723.733 92.832 723.23 93.144C722.745 93.4387 722.502 93.846 722.502 94.366C722.502 94.7647 722.615 95.094 722.84 95.354C723.066 95.614 723.438 95.874 723.958 96.134C724.496 96.394 725.206 96.6887 726.09 97.018C726.974 97.3473 727.728 97.6853 728.352 98.032C728.976 98.3787 729.453 98.8033 729.782 99.306C730.112 99.7913 730.276 100.407 730.276 101.152Z" fill="#1A1A1C"/>
<path d="M515.556 164L509.94 148.218H509.836C509.853 148.565 509.879 149.033 509.914 149.622C509.949 150.211 509.975 150.844 509.992 151.52C510.009 152.196 510.018 152.863 510.018 153.522V164H507.47V145.436H511.474L516.804 160.334H516.908L522.394 145.436H526.398V164H523.668V153.366C523.668 152.759 523.677 152.135 523.694 151.494C523.729 150.835 523.755 150.22 523.772 149.648C523.807 149.076 523.833 148.608 523.85 148.244H523.746L517.974 164H515.556ZM536.537 149.726C537.768 149.726 538.825 149.986 539.709 150.506C540.593 151.009 541.269 151.737 541.737 152.69C542.223 153.643 542.465 154.77 542.465 156.07V157.578H533.053C533.088 159.017 533.461 160.117 534.171 160.88C534.899 161.643 535.913 162.024 537.213 162.024C538.115 162.024 538.912 161.946 539.605 161.79C540.316 161.617 541.044 161.365 541.789 161.036V163.324C541.096 163.636 540.385 163.87 539.657 164.026C538.947 164.182 538.097 164.26 537.109 164.26C535.757 164.26 534.561 163.991 533.521 163.454C532.481 162.917 531.667 162.119 531.077 161.062C530.505 159.987 530.219 158.67 530.219 157.11C530.219 155.533 530.479 154.198 530.999 153.106C531.537 152.014 532.273 151.182 533.209 150.61C534.163 150.021 535.272 149.726 536.537 149.726ZM536.537 151.858C535.549 151.858 534.752 152.179 534.145 152.82C533.556 153.461 533.209 154.371 533.105 155.55H539.709C539.709 154.822 539.597 154.181 539.371 153.626C539.146 153.071 538.799 152.638 538.331 152.326C537.863 152.014 537.265 151.858 536.537 151.858ZM550.714 164.26C549.033 164.26 547.672 163.653 546.632 162.44C545.609 161.227 545.098 159.424 545.098 157.032C545.098 154.623 545.618 152.803 546.658 151.572C547.698 150.341 549.067 149.726 550.766 149.726C551.477 149.726 552.092 149.821 552.612 150.012C553.149 150.185 553.609 150.428 553.99 150.74C554.389 151.052 554.727 151.399 555.004 151.78H555.16C555.125 151.537 555.082 151.191 555.03 150.74C554.978 150.272 554.952 149.856 554.952 149.492V144.24H557.708V164H555.55L555.082 162.128H554.952C554.692 162.527 554.363 162.891 553.964 163.22C553.583 163.532 553.123 163.783 552.586 163.974C552.049 164.165 551.425 164.26 550.714 164.26ZM551.364 161.998C552.716 161.998 553.669 161.625 554.224 160.88C554.779 160.117 555.056 158.982 555.056 157.474V157.058C555.056 155.411 554.787 154.155 554.25 153.288C553.73 152.421 552.759 151.988 551.338 151.988C550.211 151.988 549.362 152.447 548.79 153.366C548.218 154.267 547.932 155.507 547.932 157.084C547.932 158.661 548.218 159.875 548.79 160.724C549.362 161.573 550.22 161.998 551.364 161.998ZM564.783 149.986V164H562.027V149.986H564.783ZM563.431 144.656C563.847 144.656 564.211 144.777 564.523 145.02C564.835 145.263 564.991 145.67 564.991 146.242C564.991 146.797 564.835 147.204 564.523 147.464C564.211 147.707 563.847 147.828 563.431 147.828C562.98 147.828 562.599 147.707 562.287 147.464C561.992 147.204 561.845 146.797 561.845 146.242C561.845 145.67 561.992 145.263 562.287 145.02C562.599 144.777 562.98 144.656 563.431 144.656ZM581.175 149.986V164H578.965L578.575 162.154H578.445C578.15 162.639 577.769 163.038 577.301 163.35C576.833 163.662 576.322 163.887 575.767 164.026C575.212 164.182 574.64 164.26 574.051 164.26C572.959 164.26 572.032 164.087 571.269 163.74C570.524 163.376 569.952 162.821 569.553 162.076C569.172 161.313 568.981 160.343 568.981 159.164V149.986H571.763V158.748C571.763 159.84 571.988 160.655 572.439 161.192C572.907 161.729 573.626 161.998 574.597 161.998C575.568 161.998 576.33 161.807 576.885 161.426C577.44 161.045 577.83 160.49 578.055 159.762C578.298 159.017 578.419 158.124 578.419 157.084V149.986H581.175ZM601.192 149.726C602.769 149.726 603.957 150.133 604.754 150.948C605.551 151.763 605.95 153.071 605.95 154.874V164H603.194V155.238C603.194 154.163 602.977 153.357 602.544 152.82C602.128 152.265 601.469 151.988 600.568 151.988C599.32 151.988 598.427 152.378 597.89 153.158C597.353 153.921 597.084 155.03 597.084 156.486V164H594.354V155.238C594.354 154.527 594.25 153.929 594.042 153.444C593.851 152.959 593.565 152.595 593.184 152.352C592.803 152.109 592.309 151.988 591.702 151.988C590.835 151.988 590.151 152.179 589.648 152.56C589.145 152.941 588.781 153.505 588.556 154.25C588.348 154.978 588.244 155.871 588.244 156.928V164H585.488V149.986H587.672L588.062 151.858H588.218C588.513 151.373 588.868 150.974 589.284 150.662C589.717 150.35 590.194 150.116 590.714 149.96C591.234 149.804 591.771 149.726 592.326 149.726C593.383 149.726 594.276 149.917 595.004 150.298C595.732 150.662 596.261 151.225 596.59 151.988H596.798C597.249 151.208 597.873 150.636 598.67 150.272C599.467 149.908 600.308 149.726 601.192 149.726ZM632.47 164H629.064L619.678 148.998H619.574C619.591 149.345 619.608 149.717 619.626 150.116C619.66 150.515 619.686 150.939 619.704 151.39C619.721 151.823 619.738 152.274 619.756 152.742C619.773 153.193 619.782 153.652 619.782 154.12V164H617.234V145.436H620.614L629.974 160.36H630.052C630.034 160.1 630.017 159.779 630 159.398C629.982 158.999 629.965 158.575 629.948 158.124C629.948 157.673 629.939 157.214 629.922 156.746C629.904 156.278 629.887 155.836 629.87 155.42V145.436H632.47V164ZM649.457 156.98C649.457 158.141 649.301 159.173 648.989 160.074C648.677 160.975 648.235 161.738 647.663 162.362C647.091 162.986 646.398 163.463 645.583 163.792C644.769 164.104 643.85 164.26 642.827 164.26C641.891 164.26 641.025 164.104 640.227 163.792C639.43 163.463 638.737 162.986 638.147 162.362C637.575 161.738 637.125 160.975 636.795 160.074C636.466 159.173 636.301 158.133 636.301 156.954C636.301 155.411 636.561 154.103 637.081 153.028C637.619 151.953 638.381 151.139 639.369 150.584C640.375 150.012 641.553 149.726 642.905 149.726C644.188 149.726 645.315 150.012 646.285 150.584C647.273 151.139 648.045 151.953 648.599 153.028C649.171 154.103 649.457 155.42 649.457 156.98ZM639.135 156.98C639.135 158.02 639.265 158.921 639.525 159.684C639.785 160.429 640.193 161.001 640.747 161.4C641.302 161.799 642.013 161.998 642.879 161.998C643.746 161.998 644.457 161.799 645.011 161.4C645.566 161.001 645.973 160.429 646.233 159.684C646.493 158.921 646.623 158.02 646.623 156.98C646.623 155.905 646.485 155.004 646.207 154.276C645.947 153.548 645.54 152.993 644.985 152.612C644.448 152.213 643.737 152.014 642.853 152.014C641.553 152.014 640.609 152.447 640.019 153.314C639.43 154.181 639.135 155.403 639.135 156.98ZM657.995 162.024C658.359 162.024 658.732 161.989 659.113 161.92C659.494 161.851 659.824 161.773 660.101 161.686V163.766C659.806 163.905 659.408 164.017 658.905 164.104C658.402 164.208 657.9 164.26 657.397 164.26C656.634 164.26 655.932 164.13 655.291 163.87C654.667 163.61 654.164 163.159 653.783 162.518C653.402 161.877 653.211 160.984 653.211 159.84V152.092H651.261V150.844L653.315 149.804L654.277 146.84H655.967V149.986H659.971V152.092H655.967V159.788C655.967 160.551 656.149 161.114 656.513 161.478C656.894 161.842 657.388 162.024 657.995 162.024ZM675.254 156.98C675.254 158.141 675.098 159.173 674.786 160.074C674.474 160.975 674.032 161.738 673.46 162.362C672.888 162.986 672.195 163.463 671.38 163.792C670.565 164.104 669.647 164.26 668.624 164.26C667.688 164.26 666.821 164.104 666.024 163.792C665.227 163.463 664.533 162.986 663.944 162.362C663.372 161.738 662.921 160.975 662.592 160.074C662.263 159.173 662.098 158.133 662.098 156.954C662.098 155.411 662.358 154.103 662.878 153.028C663.415 151.953 664.178 151.139 665.166 150.584C666.171 150.012 667.35 149.726 668.702 149.726C669.985 149.726 671.111 150.012 672.082 150.584C673.07 151.139 673.841 151.953 674.396 153.028C674.968 154.103 675.254 155.42 675.254 156.98ZM664.932 156.98C664.932 158.02 665.062 158.921 665.322 159.684C665.582 160.429 665.989 161.001 666.544 161.4C667.099 161.799 667.809 161.998 668.676 161.998C669.543 161.998 670.253 161.799 670.808 161.4C671.363 161.001 671.77 160.429 672.03 159.684C672.29 158.921 672.42 158.02 672.42 156.98C672.42 155.905 672.281 155.004 672.004 154.276C671.744 153.548 671.337 152.993 670.782 152.612C670.245 152.213 669.534 152.014 668.65 152.014C667.35 152.014 666.405 152.447 665.816 153.314C665.227 154.181 664.932 155.403 664.932 156.98ZM696.474 158.982C696.474 160.091 696.205 161.036 695.668 161.816C695.13 162.596 694.359 163.203 693.354 163.636C692.348 164.052 691.152 164.26 689.766 164.26C689.09 164.26 688.44 164.217 687.816 164.13C687.192 164.061 686.611 163.957 686.074 163.818C685.536 163.679 685.06 163.506 684.644 163.298V160.646C685.337 160.958 686.152 161.244 687.088 161.504C688.024 161.747 688.977 161.868 689.948 161.868C690.78 161.868 691.473 161.755 692.028 161.53C692.582 161.305 692.998 160.993 693.276 160.594C693.553 160.195 693.692 159.727 693.692 159.19C693.692 158.618 693.544 158.141 693.25 157.76C692.972 157.361 692.53 156.997 691.924 156.668C691.334 156.321 690.537 155.957 689.532 155.576C688.838 155.316 688.206 155.03 687.634 154.718C687.079 154.389 686.585 154.007 686.152 153.574C685.736 153.141 685.415 152.638 685.19 152.066C684.964 151.494 684.852 150.827 684.852 150.064C684.852 149.041 685.103 148.166 685.606 147.438C686.126 146.71 686.836 146.155 687.738 145.774C688.639 145.375 689.688 145.176 690.884 145.176C691.889 145.176 692.816 145.28 693.666 145.488C694.532 145.679 695.356 145.947 696.136 146.294L695.252 148.608C694.541 148.313 693.822 148.071 693.094 147.88C692.366 147.689 691.603 147.594 690.806 147.594C690.112 147.594 689.532 147.698 689.064 147.906C688.596 148.114 688.24 148.4 687.998 148.764C687.772 149.128 687.66 149.553 687.66 150.038C687.66 150.61 687.79 151.087 688.05 151.468C688.31 151.849 688.726 152.205 689.298 152.534C689.87 152.846 690.624 153.193 691.56 153.574C692.6 153.973 693.484 154.406 694.212 154.874C694.957 155.342 695.52 155.905 695.902 156.564C696.283 157.205 696.474 158.011 696.474 158.982ZM705.231 149.726C706.999 149.726 708.316 150.116 709.183 150.896C710.049 151.659 710.483 152.863 710.483 154.51V164H708.533L707.987 162.05H707.883C707.484 162.553 707.068 162.969 706.635 163.298C706.219 163.627 705.733 163.87 705.179 164.026C704.641 164.182 703.983 164.26 703.203 164.26C702.371 164.26 701.617 164.113 700.941 163.818C700.282 163.506 699.762 163.038 699.381 162.414C698.999 161.773 698.809 160.975 698.809 160.022C698.809 158.601 699.346 157.517 700.421 156.772C701.513 156.027 703.168 155.619 705.387 155.55L707.779 155.472V154.692C707.779 153.652 707.545 152.924 707.077 152.508C706.609 152.092 705.95 151.884 705.101 151.884C704.373 151.884 703.679 151.988 703.021 152.196C702.362 152.404 701.738 152.655 701.149 152.95L700.265 150.948C700.923 150.601 701.677 150.315 702.527 150.09C703.393 149.847 704.295 149.726 705.231 149.726ZM705.881 157.318C704.286 157.387 703.177 157.656 702.553 158.124C701.946 158.575 701.643 159.216 701.643 160.048C701.643 160.776 701.859 161.305 702.293 161.634C702.743 161.963 703.307 162.128 703.983 162.128C705.075 162.128 705.976 161.825 706.687 161.218C707.397 160.611 707.753 159.701 707.753 158.488V157.266L705.881 157.318ZM721.824 149.726C723.454 149.726 724.702 150.133 725.568 150.948C726.435 151.763 726.868 153.071 726.868 154.874V164H724.138V155.264C724.138 154.172 723.904 153.357 723.436 152.82C722.986 152.265 722.258 151.988 721.252 151.988C719.831 151.988 718.843 152.413 718.288 153.262C717.751 154.111 717.482 155.333 717.482 156.928V164H714.726V149.986H716.91L717.3 151.858H717.456C717.768 151.373 718.15 150.974 718.6 150.662C719.051 150.35 719.554 150.116 720.108 149.96C720.663 149.804 721.235 149.726 721.824 149.726ZM740.411 160.048C740.411 160.967 740.186 161.738 739.735 162.362C739.285 162.986 738.635 163.463 737.785 163.792C736.936 164.104 735.913 164.26 734.717 164.26C733.729 164.26 732.88 164.182 732.169 164.026C731.476 163.887 730.835 163.679 730.245 163.402V160.984C730.869 161.279 731.589 161.547 732.403 161.79C733.218 162.015 734.015 162.128 734.795 162.128C735.835 162.128 736.581 161.963 737.031 161.634C737.499 161.305 737.733 160.863 737.733 160.308C737.733 159.996 737.647 159.719 737.473 159.476C737.3 159.216 736.971 158.956 736.485 158.696C736.017 158.419 735.324 158.107 734.405 157.76C733.521 157.396 732.767 157.041 732.143 156.694C731.519 156.33 731.043 155.905 730.713 155.42C730.384 154.917 730.219 154.276 730.219 153.496C730.219 152.283 730.705 151.355 731.675 150.714C732.663 150.055 733.963 149.726 735.575 149.726C736.425 149.726 737.222 149.813 737.967 149.986C738.73 150.142 739.467 150.385 740.177 150.714L739.267 152.82C738.869 152.629 738.453 152.473 738.019 152.352C737.603 152.213 737.179 152.101 736.745 152.014C736.329 151.927 735.896 151.884 735.445 151.884C734.613 151.884 733.981 152.014 733.547 152.274C733.114 152.534 732.897 152.898 732.897 153.366C732.897 153.695 732.993 153.981 733.183 154.224C733.391 154.467 733.747 154.709 734.249 154.952C734.752 155.195 735.437 155.489 736.303 155.836C737.17 156.165 737.907 156.503 738.513 156.85C739.137 157.197 739.605 157.621 739.917 158.124C740.247 158.627 740.411 159.268 740.411 160.048Z" fill="#1A1A1C"/>
<path d="M512.8 200.436C514.412 200.436 515.738 200.592 516.778 200.904C517.818 201.199 518.589 201.693 519.092 202.386C519.595 203.062 519.846 203.981 519.846 205.142C519.846 205.835 519.725 206.468 519.482 207.04C519.239 207.612 518.91 208.08 518.494 208.444C518.095 208.808 517.645 209.042 517.142 209.146V209.276C517.662 209.397 518.156 209.614 518.624 209.926C519.109 210.238 519.499 210.689 519.794 211.278C520.089 211.867 520.236 212.647 520.236 213.618C520.236 214.745 519.967 215.715 519.43 216.53C518.91 217.327 518.165 217.943 517.194 218.376C516.223 218.792 515.062 219 513.71 219H507.054V200.436H512.8ZM513.034 207.794C513.97 207.794 514.62 207.612 514.984 207.248C515.348 206.884 515.53 206.355 515.53 205.662C515.53 204.951 515.313 204.44 514.88 204.128C514.464 203.816 513.805 203.66 512.904 203.66H511.266V207.794H513.034ZM511.266 210.914V215.75H513.294C514.265 215.75 514.941 215.525 515.322 215.074C515.703 214.606 515.894 213.991 515.894 213.228C515.894 212.76 515.807 212.353 515.634 212.006C515.478 211.659 515.201 211.391 514.802 211.2C514.421 211.009 513.883 210.914 513.19 210.914H511.266ZM535.727 211.876C535.727 213.055 535.571 214.103 535.259 215.022C534.964 215.941 534.531 216.721 533.959 217.362C533.387 217.986 532.685 218.463 531.853 218.792C531.038 219.104 530.12 219.26 529.097 219.26C528.144 219.26 527.26 219.104 526.445 218.792C525.63 218.463 524.928 217.986 524.339 217.362C523.767 216.721 523.316 215.941 522.987 215.022C522.675 214.103 522.519 213.055 522.519 211.876C522.519 210.299 522.788 208.973 523.325 207.898C523.862 206.806 524.625 205.974 525.613 205.402C526.601 204.83 527.788 204.544 529.175 204.544C530.458 204.544 531.584 204.83 532.555 205.402C533.543 205.974 534.314 206.806 534.869 207.898C535.441 208.973 535.727 210.299 535.727 211.876ZM526.757 211.876C526.757 212.812 526.835 213.601 526.991 214.242C527.164 214.866 527.424 215.343 527.771 215.672C528.135 215.984 528.594 216.14 529.149 216.14C529.721 216.14 530.172 215.984 530.501 215.672C530.848 215.343 531.099 214.866 531.255 214.242C531.411 213.601 531.489 212.812 531.489 211.876C531.489 210.94 531.411 210.16 531.255 209.536C531.099 208.912 530.839 208.444 530.475 208.132C530.128 207.82 529.678 207.664 529.123 207.664C528.274 207.664 527.667 208.019 527.303 208.73C526.939 209.423 526.757 210.472 526.757 211.876ZM542.717 219H538.557V199.24H542.717V219ZM550.462 219.26C549.024 219.26 547.845 218.645 546.926 217.414C546.008 216.166 545.548 214.337 545.548 211.928C545.548 209.501 546.016 207.664 546.952 206.416C547.888 205.168 549.102 204.544 550.592 204.544C551.216 204.544 551.754 204.639 552.204 204.83C552.672 205.003 553.071 205.246 553.4 205.558C553.747 205.87 554.042 206.225 554.284 206.624H554.388C554.336 206.347 554.284 205.948 554.232 205.428C554.18 204.891 554.154 204.345 554.154 203.79V199.24H558.314V219H555.168L554.31 217.154H554.154C553.929 217.535 553.652 217.891 553.322 218.22C552.993 218.532 552.594 218.783 552.126 218.974C551.658 219.165 551.104 219.26 550.462 219.26ZM552.048 216.166C552.915 216.166 553.53 215.854 553.894 215.23C554.276 214.589 554.466 213.635 554.466 212.37V211.954C554.466 210.567 554.293 209.51 553.946 208.782C553.6 208.054 552.95 207.69 551.996 207.69C551.32 207.69 550.774 208.063 550.358 208.808C549.96 209.536 549.76 210.593 549.76 211.98C549.76 213.367 549.96 214.415 550.358 215.126C550.774 215.819 551.338 216.166 552.048 216.166ZM584.516 219H579.082L572.088 204.96H571.984C572.001 205.393 572.019 205.835 572.036 206.286C572.053 206.719 572.071 207.161 572.088 207.612C572.123 208.045 572.149 208.487 572.166 208.938C572.183 209.371 572.201 209.813 572.218 210.264V219H568.474V200.436H573.882L580.85 214.346H580.928C580.928 213.913 580.919 213.488 580.902 213.072C580.885 212.639 580.859 212.214 580.824 211.798C580.807 211.365 580.789 210.94 580.772 210.524C580.755 210.091 580.746 209.657 580.746 209.224V200.436H584.516V219ZM600.854 211.876C600.854 213.055 600.698 214.103 600.386 215.022C600.091 215.941 599.658 216.721 599.086 217.362C598.514 217.986 597.812 218.463 596.98 218.792C596.165 219.104 595.247 219.26 594.224 219.26C593.271 219.26 592.387 219.104 591.572 218.792C590.757 218.463 590.055 217.986 589.466 217.362C588.894 216.721 588.443 215.941 588.114 215.022C587.802 214.103 587.646 213.055 587.646 211.876C587.646 210.299 587.915 208.973 588.452 207.898C588.989 206.806 589.752 205.974 590.74 205.402C591.728 204.83 592.915 204.544 594.302 204.544C595.585 204.544 596.711 204.83 597.682 205.402C598.67 205.974 599.441 206.806 599.996 207.898C600.568 208.973 600.854 210.299 600.854 211.876ZM591.884 211.876C591.884 212.812 591.962 213.601 592.118 214.242C592.291 214.866 592.551 215.343 592.898 215.672C593.262 215.984 593.721 216.14 594.276 216.14C594.848 216.14 595.299 215.984 595.628 215.672C595.975 215.343 596.226 214.866 596.382 214.242C596.538 213.601 596.616 212.812 596.616 211.876C596.616 210.94 596.538 210.16 596.382 209.536C596.226 208.912 595.966 208.444 595.602 208.132C595.255 207.82 594.805 207.664 594.25 207.664C593.401 207.664 592.794 208.019 592.43 208.73C592.066 209.423 591.884 210.472 591.884 211.876ZM609.794 216.166C610.21 216.166 610.591 216.123 610.938 216.036C611.302 215.949 611.675 215.845 612.056 215.724V218.61C611.623 218.783 611.111 218.931 610.522 219.052C609.95 219.191 609.274 219.26 608.494 219.26C607.662 219.26 606.917 219.121 606.258 218.844C605.617 218.567 605.114 218.09 604.75 217.414C604.386 216.721 604.204 215.767 604.204 214.554V207.716H602.514V206.078L604.542 204.778L605.686 201.788H608.364V204.804H611.9V207.716H608.364V214.554C608.364 215.091 608.494 215.499 608.754 215.776C609.014 216.036 609.361 216.166 609.794 216.166ZM627.108 211.876C627.108 213.055 626.952 214.103 626.64 215.022C626.345 215.941 625.912 216.721 625.34 217.362C624.768 217.986 624.066 218.463 623.234 218.792C622.419 219.104 621.501 219.26 620.478 219.26C619.525 219.26 618.641 219.104 617.826 218.792C617.011 218.463 616.309 217.986 615.72 217.362C615.148 216.721 614.697 215.941 614.368 215.022C614.056 214.103 613.9 213.055 613.9 211.876C613.9 210.299 614.169 208.973 614.706 207.898C615.243 206.806 616.006 205.974 616.994 205.402C617.982 204.83 619.169 204.544 620.556 204.544C621.839 204.544 622.965 204.83 623.936 205.402C624.924 205.974 625.695 206.806 626.25 207.898C626.822 208.973 627.108 210.299 627.108 211.876ZM618.138 211.876C618.138 212.812 618.216 213.601 618.372 214.242C618.545 214.866 618.805 215.343 619.152 215.672C619.516 215.984 619.975 216.14 620.53 216.14C621.102 216.14 621.553 215.984 621.882 215.672C622.229 215.343 622.48 214.866 622.636 214.242C622.792 213.601 622.87 212.812 622.87 211.876C622.87 210.94 622.792 210.16 622.636 209.536C622.48 208.912 622.22 208.444 621.856 208.132C621.509 207.82 621.059 207.664 620.504 207.664C619.655 207.664 619.048 208.019 618.684 208.73C618.32 209.423 618.138 210.472 618.138 211.876ZM647.388 213.852C647.388 214.944 647.145 215.897 646.66 216.712C646.174 217.527 645.438 218.159 644.45 218.61C643.479 219.043 642.248 219.26 640.758 219.26C640.064 219.26 639.423 219.217 638.834 219.13C638.244 219.043 637.69 218.922 637.17 218.766C636.65 218.593 636.13 218.385 635.61 218.142V214.476C636.494 214.857 637.395 215.213 638.314 215.542C639.25 215.854 640.134 216.01 640.966 216.01C641.503 216.01 641.936 215.923 642.266 215.75C642.595 215.577 642.838 215.343 642.994 215.048C643.15 214.753 643.228 214.415 643.228 214.034C643.228 213.566 643.098 213.167 642.838 212.838C642.595 212.509 642.231 212.205 641.746 211.928C641.26 211.633 640.662 211.339 639.952 211.044C639.432 210.819 638.92 210.559 638.418 210.264C637.915 209.969 637.464 209.614 637.066 209.198C636.667 208.765 636.346 208.245 636.104 207.638C635.878 207.031 635.766 206.303 635.766 205.454C635.766 204.345 636.026 203.4 636.546 202.62C637.066 201.823 637.794 201.216 638.73 200.8C639.666 200.384 640.758 200.176 642.006 200.176C643.028 200.176 643.973 200.289 644.84 200.514C645.724 200.739 646.564 201.06 647.362 201.476L646.036 204.544C645.273 204.197 644.545 203.929 643.852 203.738C643.176 203.547 642.517 203.452 641.876 203.452C641.442 203.452 641.078 203.53 640.784 203.686C640.489 203.842 640.264 204.059 640.108 204.336C639.969 204.613 639.9 204.943 639.9 205.324C639.9 205.757 640.012 206.13 640.238 206.442C640.48 206.737 640.853 207.031 641.356 207.326C641.858 207.603 642.5 207.941 643.28 208.34C644.146 208.773 644.883 209.233 645.49 209.718C646.114 210.186 646.582 210.749 646.894 211.408C647.223 212.067 647.388 212.881 647.388 213.852ZM656.079 204.518C657.83 204.518 659.182 204.934 660.135 205.766C661.106 206.581 661.591 207.837 661.591 209.536V219H658.705L657.899 217.076H657.795C657.414 217.579 657.024 217.995 656.625 218.324C656.227 218.653 655.767 218.887 655.247 219.026C654.727 219.182 654.095 219.26 653.349 219.26C652.569 219.26 651.867 219.104 651.243 218.792C650.637 218.463 650.151 217.969 649.787 217.31C649.423 216.634 649.241 215.785 649.241 214.762C649.241 213.254 649.735 212.145 650.723 211.434C651.729 210.706 653.202 210.307 655.143 210.238L657.431 210.16V209.536C657.431 208.791 657.267 208.245 656.937 207.898C656.608 207.551 656.157 207.378 655.585 207.378C654.996 207.378 654.381 207.482 653.739 207.69C653.098 207.881 652.457 208.123 651.815 208.418L650.541 205.792C651.304 205.393 652.145 205.081 653.063 204.856C653.999 204.631 655.005 204.518 656.079 204.518ZM656.235 212.474C655.213 212.509 654.493 212.734 654.077 213.15C653.679 213.566 653.479 214.112 653.479 214.788C653.479 215.377 653.618 215.802 653.895 216.062C654.19 216.305 654.571 216.426 655.039 216.426C655.698 216.426 656.261 216.183 656.729 215.698C657.215 215.195 657.457 214.493 657.457 213.592V212.422L656.235 212.474ZM673.061 204.544C674.482 204.544 675.626 204.96 676.493 205.792C677.377 206.607 677.819 207.924 677.819 209.744V219H673.659V210.706C673.659 209.683 673.503 208.921 673.191 208.418C672.896 207.898 672.42 207.638 671.761 207.638C670.756 207.638 670.08 208.045 669.733 208.86C669.386 209.657 669.213 210.81 669.213 212.318V219H665.053V204.804H668.199L668.771 206.624H668.953C669.248 206.139 669.594 205.749 669.993 205.454C670.409 205.142 670.877 204.917 671.397 204.778C671.917 204.622 672.472 204.544 673.061 204.544ZM690.95 214.788C690.95 215.741 690.742 216.556 690.326 217.232C689.927 217.891 689.312 218.393 688.48 218.74C687.648 219.087 686.573 219.26 685.256 219.26C684.302 219.26 683.47 219.191 682.76 219.052C682.049 218.931 681.33 218.723 680.602 218.428V215.23C681.399 215.577 682.222 215.863 683.072 216.088C683.921 216.313 684.632 216.426 685.204 216.426C685.828 216.426 686.27 216.313 686.53 216.088C686.807 215.863 686.946 215.568 686.946 215.204C686.946 214.961 686.876 214.745 686.738 214.554C686.599 214.363 686.322 214.147 685.906 213.904C685.49 213.661 684.874 213.349 684.06 212.968C683.262 212.587 682.604 212.214 682.084 211.85C681.581 211.469 681.2 211.018 680.94 210.498C680.697 209.961 680.576 209.293 680.576 208.496C680.576 207.179 681.07 206.191 682.058 205.532C683.063 204.873 684.38 204.544 686.01 204.544C686.876 204.544 687.691 204.631 688.454 204.804C689.216 204.977 690.005 205.263 690.82 205.662L689.65 208.444C689.199 208.236 688.757 208.054 688.324 207.898C687.89 207.742 687.474 207.621 687.076 207.534C686.694 207.447 686.33 207.404 685.984 207.404C685.533 207.404 685.186 207.482 684.944 207.638C684.718 207.794 684.606 208.028 684.606 208.34C684.606 208.565 684.675 208.773 684.814 208.964C684.952 209.137 685.221 209.337 685.62 209.562C686.018 209.77 686.599 210.039 687.362 210.368C688.142 210.697 688.792 211.044 689.312 211.408C689.849 211.755 690.256 212.197 690.534 212.734C690.811 213.254 690.95 213.939 690.95 214.788Z" fill="#1A1A1C"/>
<path opacity="0.9" d="M506.982 57H512.178V56.064H508.098V52.848H511.422V51.9H508.098V49.14H512.046V48.204H506.982V57ZM514.528 57H515.584V52.392C515.584 51.456 515.5 50.532 515.44 49.644H515.5L516.448 51.456L519.64 57H520.792V48.204H519.724V52.776C519.724 53.688 519.808 54.684 519.88 55.572H519.82L518.872 53.748L515.668 48.204H514.528V57Z" fill="#1A1A1C"/>
<path opacity="0.9" d="M99.3364 53.168C101.052 53.168 101.76 51.944 101.76 50.42V44.204H100.644V50.324C100.644 51.656 100.188 52.184 99.2284 52.184C98.6044 52.184 98.1004 51.908 97.7164 51.2L96.9124 51.764C97.4404 52.688 98.2204 53.168 99.3364 53.168ZM104.606 53H105.722V49.508H107.162C109.094 49.508 110.414 48.644 110.414 46.796C110.414 44.864 109.082 44.204 107.114 44.204H104.606V53ZM105.722 48.608V45.116H106.97C108.53 45.116 109.31 45.512 109.31 46.796C109.31 48.044 108.566 48.608 107.03 48.608H105.722Z" fill="#1A1A1C"/>
</svg>
