<svg width="260" height="144" viewBox="0 0 260 144" fill="none" xmlns="http://www.w3.org/2000/svg">
<g opacity="0.9">
<path d="M10.136 58.152C8.568 62.954 5.53 65.698 0.532 67.126C0.756 67.378 1.092 67.882 1.204 68.148C6.3 66.496 9.478 63.612 11.242 58.474L10.136 58.152ZM3.78 58.222L2.744 58.544C4.466 63.444 7.546 66.776 12.74 68.134C12.908 67.826 13.244 67.35 13.496 67.098C8.442 65.922 5.292 62.702 3.78 58.222ZM0.7 57.62V58.656H13.356V57.62H0.7ZM6.44 55.24V58.25H7.518V55.24H6.44ZM15.204 65.544V66.412H27.846V65.544H15.204ZM20.986 64.228V68.12H22.078V64.228H20.986ZM17.878 62.856H25.214V63.864H17.878V62.856ZM17.878 61.134H25.214V62.128H17.878V61.134ZM16.856 60.364V64.634H26.264V60.364H16.856ZM16.17 56.388V57.242H26.978V56.388H16.17ZM15.232 58.768V59.636H27.874V58.768H15.232ZM20.972 55.24V56.948H22.064V55.24H20.972ZM23.912 57.046C23.716 57.55 23.324 58.306 23.03 58.782L23.996 59.006C24.304 58.558 24.682 57.928 25.004 57.298L23.912 57.046ZM18.186 57.326C18.536 57.83 18.872 58.53 18.984 59.006L20.034 58.74C19.908 58.278 19.544 57.592 19.166 57.102L18.186 57.326ZM30.464 57.746V64.41H31.514V58.782H40.656V64.34H41.748V57.746H30.464ZM31.024 62.506V63.528H41.286V62.506H31.024ZM35.532 55.24V68.106H36.624V55.24H35.532ZM50.05 57.55L50.064 58.684C51.59 58.852 54.306 58.852 55.804 58.684V57.55C54.418 57.76 51.576 57.816 50.05 57.55ZM50.596 63.262L49.588 63.164C49.434 63.836 49.364 64.34 49.364 64.802C49.364 66.118 50.414 66.902 52.752 66.902C54.208 66.902 55.384 66.79 56.252 66.608L56.224 65.432C55.104 65.698 54.012 65.81 52.766 65.81C50.848 65.81 50.4 65.18 50.4 64.536C50.4 64.158 50.47 63.766 50.596 63.262ZM47.39 56.472L46.144 56.374C46.13 56.682 46.088 57.032 46.046 57.354C45.878 58.516 45.416 60.91 45.416 62.968C45.416 64.872 45.654 66.482 45.934 67.476L46.928 67.406C46.914 67.252 46.9 67.056 46.886 66.916C46.886 66.748 46.914 66.482 46.956 66.286C47.082 65.614 47.6 64.144 47.95 63.15L47.362 62.688C47.124 63.262 46.802 64.102 46.564 64.732C46.48 64.046 46.438 63.458 46.438 62.786C46.438 61.204 46.872 58.712 47.138 57.41C47.194 57.158 47.306 56.71 47.39 56.472ZM58.786 62.66L59.094 63.71C60.508 63.304 62.384 62.73 64.148 62.198L64.022 61.218C62.118 61.75 60.116 62.324 58.786 62.66ZM58.912 58.068V59.076H64.008V58.068H58.912ZM61.012 55.254V66.734C61.012 66.93 60.942 67 60.746 67C60.564 67 59.948 67 59.29 66.986C59.43 67.266 59.584 67.7 59.612 67.98C60.592 67.98 61.166 67.966 61.558 67.784C61.922 67.616 62.062 67.336 62.062 66.734V55.254H61.012ZM64.078 56.43V57.466H71.694V56.43H64.078ZM68.068 56.794V66.58C68.068 66.832 67.984 66.916 67.704 66.93C67.396 66.944 66.388 66.944 65.352 66.902C65.52 67.21 65.716 67.728 65.772 68.05C67.102 68.05 67.984 68.036 68.502 67.84C69.02 67.658 69.188 67.308 69.188 66.58V56.794H68.068ZM78.722 56.038L77.462 55.982C77.49 56.36 77.462 56.696 77.406 57.144C77.238 58.488 76.496 61.96 75.432 64.046L76.468 64.41C76.608 64.172 76.734 63.976 76.902 63.766C77.826 62.66 79.38 62.086 81.046 62.086C82.684 62.086 83.538 62.898 83.538 63.934C83.538 66.244 80.402 66.79 77.154 66.342L77.448 67.462C81.704 67.91 84.686 66.832 84.686 63.906C84.686 62.268 83.384 61.134 81.158 61.134C79.702 61.134 78.442 61.484 77.224 62.338C77.7 61.036 78.26 58.334 78.456 57.214C78.54 56.85 78.61 56.416 78.722 56.038ZM74.368 57.83L74.382 58.922C75.18 58.992 76.076 59.062 77.028 59.062C78.946 59.062 81.802 58.782 83.79 58.432L83.762 57.354C81.564 57.844 78.806 58.054 77.014 58.054C76.174 58.054 75.11 57.956 74.368 57.83ZM93.338 61.722V62.646H99.33V61.722H93.338ZM93.31 64.158V65.068H99.33V64.158H93.31ZM99.428 55.632C99.092 56.458 98.448 57.592 97.958 58.306L98.84 58.684C99.344 57.984 99.946 56.962 100.45 56.038L99.428 55.632ZM92.274 56.108C92.862 56.934 93.464 58.026 93.688 58.754L94.626 58.292C94.388 57.578 93.758 56.5 93.156 55.716L92.274 56.108ZM92.666 59.244V68.12H93.702V60.224H99.386V59.244H92.666ZM98.868 59.244V66.804C98.868 66.986 98.798 67.056 98.574 67.07C98.364 67.07 97.622 67.07 96.81 67.042C96.95 67.336 97.104 67.77 97.16 68.05C98.224 68.05 98.924 68.05 99.344 67.882C99.764 67.7 99.89 67.392 99.89 66.804V59.244H98.868ZM95.802 55.24V59.86H96.852V55.24H95.802ZM88.55 56.122C89.418 56.584 90.468 57.312 90.958 57.83L91.602 57.018C91.084 56.5 90.034 55.828 89.166 55.394L88.55 56.122ZM87.892 59.86C88.774 60.322 89.838 61.036 90.37 61.54L91 60.714C90.454 60.21 89.362 59.538 88.494 59.118L87.892 59.86ZM88.326 67.308L89.236 67.98C89.978 66.65 90.846 64.886 91.49 63.388L90.706 62.758C89.978 64.368 89.012 66.216 88.326 67.308ZM106.68 56.094H105.252C105.336 56.5 105.378 56.99 105.378 57.508C105.378 58.978 105.238 62.52 105.238 64.592C105.238 66.888 106.624 67.714 108.64 67.714C111.706 67.714 113.526 65.964 114.478 64.634L113.694 63.682C112.686 65.138 111.23 66.566 108.668 66.566C107.338 66.566 106.372 66.034 106.372 64.494C106.372 62.408 106.484 59.09 106.54 57.508C106.568 57.046 106.61 56.556 106.68 56.094ZM128.982 62.254C128.422 62.884 127.442 63.794 126.742 64.326L127.386 64.83C128.114 64.34 129.066 63.556 129.822 62.87L128.982 62.254ZM125.51 55.226C125.342 55.786 125.006 56.57 124.74 57.088L125.622 57.312C125.944 56.85 126.336 56.122 126.672 55.45L125.51 55.226ZM123.606 59.566H128.324V60.784H123.606V59.566ZM123.606 57.536H128.324V58.754H123.606V57.536ZM122.64 56.696V61.638H129.332V56.696H122.64ZM125.468 61.176V67C125.468 67.154 125.426 67.196 125.244 67.196C125.076 67.21 124.516 67.21 123.886 67.196C124.012 67.462 124.138 67.854 124.166 68.12C125.048 68.12 125.608 68.106 125.972 67.952C126.322 67.798 126.42 67.532 126.42 67V61.176H125.468ZM122.108 62.856V63.738H124.446V62.856H122.108ZM124.208 62.856V63.024C123.802 64.858 122.794 66.146 121.478 66.832C121.688 66.986 122.01 67.336 122.136 67.56C123.536 66.762 124.642 65.292 125.146 63.066L124.572 62.828L124.39 62.856H124.208ZM126.294 61.246L125.72 61.96C126.098 63.78 127.106 66.314 129.5 67.546C129.64 67.28 129.948 66.888 130.144 66.692C127.694 65.628 126.686 63.22 126.294 61.246ZM119.224 55.254C118.86 56.178 118.202 57.55 117.698 58.362L118.412 58.67C118.958 57.9 119.616 56.64 120.148 55.604L119.224 55.254ZM120.792 56.85C120.022 58.32 118.706 60.406 117.656 61.652L118.3 62.016C119.35 60.798 120.708 58.81 121.674 57.256L120.792 56.85ZM116.984 58.166C117.726 58.88 118.566 59.874 118.916 60.546L119.518 59.762C119.154 59.118 118.3 58.18 117.544 57.494L116.984 58.166ZM120.246 60.056C120.806 60.98 121.352 62.226 121.534 63.01L122.36 62.632C122.164 61.862 121.59 60.658 121.002 59.734L120.246 60.056ZM116.872 61.442L116.984 62.38C118.258 62.296 119.938 62.198 121.604 62.086V61.204C119.84 61.302 118.09 61.386 116.872 61.442ZM120.61 63.444C120.946 64.242 121.24 65.292 121.31 65.964L122.122 65.712C122.038 65.04 121.744 64.004 121.38 63.206L120.61 63.444ZM117.712 63.248C117.558 64.466 117.292 65.726 116.844 66.58C117.054 66.678 117.474 66.86 117.642 66.972C118.09 66.076 118.412 64.732 118.594 63.402L117.712 63.248ZM119.196 61.848V68.12H120.12V61.848H119.196ZM137.48 55.94L136.332 55.842C136.29 56.5 136.094 57.34 135.786 58.11C135.31 59.3 134.372 60.924 132.356 62.856L133.322 63.57C133.784 62.996 134.176 62.492 134.582 62.1C135.226 61.526 136.108 61.078 137.004 61.078C137.732 61.078 138.292 61.456 138.306 62.268C138.32 62.996 138.306 64.438 138.25 65.18H139.328C139.314 64.312 139.286 62.702 139.286 61.974C139.286 60.84 138.446 60.196 137.368 60.196C136.752 60.196 135.954 60.392 135.408 60.714C135.968 59.986 136.486 59.048 136.836 58.194C137.2 57.256 137.354 56.486 137.48 55.94ZM132.678 57.452V58.502C133.462 58.558 134.386 58.586 134.988 58.586C136.766 58.586 139.37 58.46 141.33 58.166V57.13C139.356 57.48 136.934 57.592 135.044 57.592C134.4 57.592 133.434 57.55 132.678 57.452ZM143.374 60.826L142.926 59.79C142.534 59.986 142.184 60.14 141.764 60.336C140.84 60.77 139.706 61.204 138.376 61.89C136.71 62.744 134.974 63.794 134.974 65.502C134.974 67.196 136.584 67.63 138.572 67.63C139.79 67.63 141.344 67.518 142.408 67.392L142.45 66.258C141.218 66.482 139.706 66.608 138.614 66.608C137.172 66.608 136.094 66.44 136.094 65.348C136.094 64.382 137.074 63.626 138.46 62.898C139.818 62.198 141.148 61.666 142.142 61.274C142.52 61.134 143.024 60.938 143.374 60.826ZM150.08 56.794V57.774H159.068V56.794H150.08ZM151.466 60.028H157.584V62.128H151.466V60.028ZM150.5 59.132V63.024H158.606V59.132H150.5ZM151.368 63.304L150.5 63.598C151.984 66.16 154.854 67.616 158.564 68.148C158.704 67.854 158.97 67.434 159.194 67.21C155.554 66.804 152.684 65.502 151.368 63.304ZM153.972 55.296V61.484C153.972 63.85 153.734 66.244 149.576 67.294C149.786 67.518 150.08 67.938 150.206 68.176C154.546 66.888 155.008 64.2 155.008 61.498V55.296H153.972ZM149.478 55.212C148.666 57.34 147.294 59.426 145.88 60.756C146.076 61.008 146.37 61.554 146.468 61.792C148.022 60.238 149.52 57.886 150.472 55.52L149.478 55.212ZM148.008 58.88V68.19H149.016V57.9L149.002 57.886L148.008 58.88ZM162.89 56.234V57.242H171.948V56.234H162.89ZM162.89 59.496V60.49H171.934V59.496H162.89ZM162.82 62.842V63.836H171.962V62.842H162.82ZM162.302 56.234V61.302C162.302 63.276 162.148 65.768 160.608 67.504C160.832 67.644 161.252 67.994 161.42 68.204C163.086 66.342 163.338 63.444 163.338 61.316V56.234H162.302ZM171.528 56.234V66.692C171.528 66.958 171.43 67.042 171.164 67.056C170.898 67.056 169.946 67.07 168.952 67.028C169.106 67.308 169.274 67.77 169.316 68.05C170.646 68.064 171.458 68.05 171.934 67.882C172.396 67.7 172.564 67.378 172.564 66.692V56.234H171.528ZM166.698 56.612V67.994H167.762V56.612H166.698ZM183.498 55.912H182.21C182.238 56.038 182.28 56.43 182.308 56.808C182.35 57.578 182.364 60.364 182.364 60.98L183.428 61.526C183.414 60.406 183.386 57.704 183.428 56.794C183.428 56.626 183.47 56.08 183.498 55.912ZM176.05 57.872L176.078 58.95C178.192 58.796 181.188 58.698 183.596 58.698C185.654 58.698 186.914 58.726 187.698 58.768L187.712 57.732C187.054 57.718 185.318 57.718 183.61 57.718C181.454 57.718 177.954 57.844 176.05 57.872ZM183.4 61.932L182.63 61.54C182.854 63.038 182.294 63.766 181.426 63.766C180.656 63.766 179.998 63.262 179.998 62.38C179.998 61.47 180.684 60.896 181.426 60.896C182.182 60.896 182.798 61.428 182.798 62.688C182.798 64.998 181.314 66.244 178.766 66.846L179.704 67.756C182.952 66.79 183.876 64.69 183.876 62.786C183.876 61.176 183.05 59.972 181.426 59.972C180.096 59.972 178.948 61.008 178.948 62.394C178.948 63.92 180.082 64.746 181.258 64.746C182.532 64.746 183.4 63.808 183.4 61.932ZM192.612 56.696L192.64 57.844C192.948 57.802 193.256 57.788 193.578 57.76C194.306 57.718 197.106 57.606 197.848 57.564C197.148 58.194 195.384 59.664 194.6 60.308C193.802 60.994 191.996 62.506 190.834 63.458L191.646 64.27C193.41 62.464 194.67 61.484 196.994 61.484C198.828 61.484 200.144 62.506 200.144 63.892C200.144 65.642 198.646 66.622 196.266 66.622C195.16 66.622 194.39 66.216 194.39 65.53C194.39 65.04 194.88 64.648 195.524 64.648C196.644 64.648 197.33 65.502 197.414 66.692L198.422 66.524C198.324 65.11 197.386 63.794 195.524 63.794C194.236 63.794 193.368 64.662 193.368 65.614C193.368 66.79 194.53 67.616 196.434 67.616C199.402 67.616 201.264 66.146 201.264 63.892C201.264 62.002 199.598 60.616 197.274 60.616C196.644 60.616 195.972 60.686 195.328 60.896C196.42 60 198.324 58.362 199.01 57.83C199.276 57.62 199.556 57.438 199.808 57.27L199.164 56.444C199.01 56.5 198.814 56.528 198.394 56.57C197.652 56.64 194.334 56.738 193.592 56.738C193.312 56.738 192.92 56.724 192.612 56.696ZM208.46 60.994V61.918H217.28V60.994H208.46ZM210.042 62.898V63.752H216.146V62.898H210.042ZM210.728 61.344C210.084 62.73 208.922 63.948 207.634 64.718C207.844 64.872 208.208 65.194 208.348 65.376C209.65 64.508 210.924 63.136 211.638 61.582L210.728 61.344ZM215.95 62.898V63.052C215.754 65.796 215.53 66.846 215.264 67.112C215.152 67.252 215.04 67.266 214.83 67.266C214.634 67.266 214.172 67.252 213.64 67.21C213.78 67.434 213.878 67.812 213.878 68.078C214.438 68.106 214.97 68.092 215.278 68.078C215.614 68.05 215.866 67.966 216.09 67.728C216.468 67.322 216.692 66.216 216.902 63.318C216.93 63.164 216.944 62.898 216.944 62.898H215.95ZM210.798 58.306H215.306V59.426H210.798V58.306ZM210.798 56.444H215.306V57.55H210.798V56.444ZM209.846 55.66V60.21H216.286V55.66H209.846ZM204.568 58.278V59.286H208.726V58.278H204.568ZM206.206 55.352V63.962H207.2V55.352H206.206ZM204.302 64.522L204.708 65.572C205.898 64.998 207.424 64.242 208.852 63.514L208.628 62.59C207.032 63.332 205.38 64.074 204.302 64.522ZM214.158 63.052C213.654 64.788 212.478 66.692 211.162 67.574C211.428 67.728 211.75 67.966 211.932 68.176C213.206 67.21 214.368 65.222 214.9 63.444L214.158 63.052ZM211.974 63.094C211.288 64.564 209.818 66.174 208.432 66.93C208.684 67.084 208.978 67.35 209.146 67.574C210.504 66.706 211.974 65.04 212.688 63.514L211.974 63.094ZM221.872 59.818V60.756H228.942V59.818H221.872ZM221.62 66.622V67.56H229.124V66.622H221.62ZM221.144 62.52V68.134H222.166V63.472H228.648V68.134H229.712V62.52H221.144ZM225.358 56.318C226.674 58.11 229.138 60.084 231.336 61.232C231.518 60.924 231.77 60.56 232.036 60.308C229.796 59.314 227.346 57.368 225.834 55.282H224.77C223.664 57.088 221.326 59.23 218.862 60.476C219.1 60.7 219.38 61.078 219.52 61.316C221.914 60.014 224.21 58.026 225.358 56.318ZM238.532 58.726L238.546 59.79C239.358 59.846 240.086 59.874 240.898 59.874C242.536 59.874 244.244 59.762 245.728 59.51V58.432C244.314 58.726 242.592 58.852 240.912 58.852C240.086 58.852 239.33 58.81 238.532 58.726ZM243.432 56.22H242.172C242.214 56.472 242.228 56.836 242.228 57.088C242.228 57.578 242.242 58.46 242.242 59.426C242.242 61.274 242.424 63.892 242.424 64.9C242.424 65.838 242.088 66.426 240.912 66.426C239.89 66.426 239.204 66.048 239.204 65.32C239.204 64.648 239.932 64.186 240.982 64.186C242.76 64.186 244.174 65.138 245.644 66.51L246.246 65.586C245.07 64.522 243.432 63.332 241.08 63.332C239.232 63.332 238.196 64.256 238.196 65.432C238.196 66.692 239.218 67.448 241.094 67.448C242.984 67.448 243.516 66.328 243.516 65.18C243.516 63.738 243.306 61.554 243.306 59.398C243.306 58.572 243.32 57.578 243.348 57.06C243.362 56.794 243.39 56.5 243.432 56.22ZM236.53 56.318L235.298 56.206C235.284 56.514 235.256 56.878 235.2 57.214C235.032 58.362 234.556 61.036 234.556 63.094C234.556 64.984 234.822 66.524 235.088 67.532L236.082 67.448C236.068 67.308 236.054 67.098 236.04 66.958C236.026 66.804 236.054 66.524 236.096 66.328C236.236 65.642 236.754 64.214 237.104 63.234L236.53 62.786C236.292 63.36 235.942 64.214 235.718 64.858C235.62 64.172 235.578 63.584 235.578 62.898C235.578 61.33 235.998 58.558 236.278 57.256C236.334 57.004 236.446 56.542 236.53 56.318ZM0.616 92H7.056V90.908H4.214C3.696 90.908 3.08 90.95 2.534 91.006C4.956 88.724 6.566 86.638 6.566 84.58C6.566 82.746 5.418 81.556 3.584 81.556C2.282 81.556 1.386 82.158 0.546 83.068L1.288 83.782C1.862 83.11 2.59 82.592 3.43 82.592C4.704 82.592 5.306 83.46 5.306 84.636C5.306 86.386 3.836 88.444 0.616 91.258V92ZM12.2176 92.196C14.1496 92.196 15.3956 90.418 15.3956 86.834C15.3956 83.278 14.1496 81.556 12.2176 81.556C10.2576 81.556 9.01163 83.278 9.01163 86.834C9.01163 90.418 10.2576 92.196 12.2176 92.196ZM12.2176 91.16C11.0416 91.16 10.2436 89.858 10.2436 86.834C10.2436 83.852 11.0416 82.578 12.2176 82.578C13.3796 82.578 14.1636 83.852 14.1636 86.834C14.1636 89.858 13.3796 91.16 12.2176 91.16ZM17.2673 92H23.7073V90.908H20.8653C20.3473 90.908 19.7313 90.95 19.1853 91.006C21.6073 88.724 23.2173 86.638 23.2173 84.58C23.2173 82.746 22.0693 81.556 20.2353 81.556C18.9333 81.556 18.0373 82.158 17.1973 83.068L17.9393 83.782C18.5133 83.11 19.2413 82.592 20.0813 82.592C21.3553 82.592 21.9573 83.46 21.9573 84.636C21.9573 86.386 20.4873 88.444 17.2673 91.258V92ZM26.2089 92H31.8369V90.936H29.7649V81.738H28.7849C28.2389 82.074 27.5809 82.312 26.6569 82.466V83.292H28.4909V90.936H26.2089V92ZM37.1805 80.198C36.4945 82.088 35.3325 83.908 34.0025 85.07C34.2685 85.21 34.7025 85.56 34.9125 85.742C36.2145 84.482 37.4605 82.536 38.2305 80.464L37.1805 80.198ZM36.9565 81.934L36.4525 82.956H45.9865V81.934H36.9565ZM36.2705 85.112V89.41H37.3205V86.092H45.6785V85.112H36.2705ZM33.9605 88.878V89.9H46.6445V88.878H33.9605ZM40.4705 82.466V93.134H41.5485V82.466H40.4705ZM51.7685 92.196C53.6865 92.196 54.9885 91.034 54.9885 89.536C54.9885 88.136 54.1485 87.352 53.2525 86.834V86.764C53.8685 86.288 54.6245 85.378 54.6245 84.286C54.6245 82.718 53.5605 81.598 51.8105 81.598C50.2005 81.598 48.9825 82.634 48.9825 84.188C48.9825 85.266 49.6265 86.05 50.3825 86.568V86.624C49.4445 87.128 48.4925 88.08 48.4925 89.466C48.4925 91.048 49.8785 92.196 51.7685 92.196ZM52.4685 86.442C51.2645 85.966 50.1585 85.42 50.1585 84.188C50.1585 83.208 50.8445 82.536 51.7825 82.536C52.8885 82.536 53.5325 83.348 53.5325 84.356C53.5325 85.126 53.1685 85.826 52.4685 86.442ZM51.7965 91.23C50.5645 91.23 49.6405 90.432 49.6405 89.34C49.6405 88.36 50.2145 87.548 51.0545 87.016C52.4965 87.604 53.7565 88.122 53.7565 89.494C53.7565 90.516 52.9725 91.23 51.7965 91.23ZM59.7301 80.982V82.004H67.0381V80.982H59.7301ZM59.7301 84.356V85.364H67.0941V84.356H59.7301ZM59.6181 87.744V88.752H67.0241V87.744H59.6181ZM59.0861 80.982V85.308C59.0861 87.562 58.8481 90.404 56.5941 92.378C56.8181 92.532 57.2381 92.91 57.3921 93.134C59.8001 91.034 60.1501 87.73 60.1501 85.308V80.982H59.0861ZM66.5761 80.982V91.566C66.5761 91.874 66.4641 91.972 66.1421 91.986C65.8201 91.986 64.6721 92 63.5101 91.958C63.6921 92.252 63.8881 92.756 63.9581 93.064C65.4701 93.064 66.3941 93.05 66.9401 92.868C67.4721 92.686 67.6681 92.322 67.6681 91.58V80.982H66.5761ZM71.3641 92H77.8041V90.908H74.9621C74.4441 90.908 73.8281 90.95 73.2821 91.006C75.7041 88.724 77.3141 86.638 77.3141 84.58C77.3141 82.746 76.1661 81.556 74.3321 81.556C73.0301 81.556 72.1341 82.158 71.2941 83.068L72.0361 83.782C72.6101 83.11 73.3381 82.592 74.1781 82.592C75.4521 82.592 76.0541 83.46 76.0541 84.636C76.0541 86.386 74.5841 88.444 71.3641 91.258V92ZM82.7278 92.196C84.4498 92.196 86.0878 90.908 86.0878 88.668C86.0878 86.4 84.7018 85.392 82.9938 85.392C82.3778 85.392 81.9158 85.546 81.4538 85.798L81.7198 82.83H85.5978V81.738H80.5998L80.2778 86.54L80.9638 86.974C81.5518 86.582 81.9858 86.358 82.6718 86.358C83.9458 86.358 84.7858 87.24 84.7858 88.71C84.7858 90.194 83.8198 91.132 82.6018 91.132C81.4258 91.132 80.6698 90.586 80.0958 89.984L79.4518 90.824C80.1518 91.524 81.1318 92.196 82.7278 92.196ZM89.8634 81.192V92.966H90.9414V82.256H97.9274V92.91H99.0334V81.192H89.8634ZM90.5774 86.05V87.086H98.3894V86.05H90.5774ZM90.5634 91.006V92.056H98.4174V91.006H90.5634ZM109.841 82.452L108.679 82.424C108.539 83.88 108.245 85.462 107.839 86.792C107.125 89.158 106.369 90.11 105.711 90.11C105.081 90.11 104.283 89.326 104.283 87.562C104.283 85.504 106.201 82.97 109.281 82.97C111.969 82.97 113.523 84.818 113.523 87.058C113.523 89.48 111.759 90.824 109.967 91.23C109.631 91.3 109.211 91.356 108.763 91.398L109.407 92.434C112.739 92 114.671 90.04 114.671 87.114C114.671 84.272 112.585 81.962 109.309 81.962C105.879 81.962 103.177 84.608 103.177 87.646C103.177 89.97 104.423 91.398 105.683 91.398C106.971 91.398 108.091 89.914 108.945 87.044C109.379 85.546 109.659 83.908 109.841 82.452ZM122.049 82.018V82.886H129.693V82.018H122.049ZM122.469 83.866V84.706H129.371V83.866H122.469ZM121.769 85.77V86.666H129.889V85.77H121.769ZM127.677 80.226C127.495 80.73 127.145 81.5 126.851 81.99L127.677 82.242C127.985 81.808 128.363 81.15 128.713 80.52L127.677 80.226ZM123.099 80.576C123.435 81.094 123.771 81.808 123.897 82.256L124.793 81.92C124.653 81.472 124.275 80.8 123.939 80.296L123.099 80.576ZM128.923 87.184C128.475 87.786 127.677 88.626 127.117 89.144L127.803 89.662C128.377 89.172 129.133 88.43 129.721 87.744L128.923 87.184ZM122.217 87.702C122.763 88.276 123.365 89.074 123.645 89.592L124.401 89.06C124.121 88.556 123.491 87.786 122.945 87.24L122.217 87.702ZM121.223 91.454L121.713 92.35C122.665 91.818 123.883 91.118 124.989 90.46L124.709 89.606C123.421 90.306 122.105 91.02 121.223 91.454ZM125.325 82.606V91.944C125.325 92.126 125.269 92.182 125.087 92.182C124.905 92.196 124.303 92.196 123.687 92.182C123.813 92.448 123.953 92.882 123.981 93.148C124.849 93.148 125.493 93.134 125.857 92.966C126.221 92.798 126.333 92.518 126.333 91.944V82.606H125.325ZM126.277 87.072L125.549 87.254C126.249 89.606 127.593 91.58 129.469 92.532C129.623 92.252 129.931 91.888 130.155 91.692C128.279 90.922 126.935 89.158 126.277 87.072ZM117.233 83.278V84.272H121.783V83.278H117.233ZM119.207 80.24V93.106H120.173V80.24H119.207ZM119.179 83.866C118.787 85.868 117.877 88.304 116.953 89.564C117.121 89.788 117.373 90.194 117.485 90.46C118.465 89.06 119.389 86.302 119.823 84.09L119.179 83.866ZM120.103 85.056L119.627 85.504C119.977 86.05 120.971 87.73 121.279 88.444L121.867 87.66C121.601 87.24 120.411 85.448 120.103 85.056ZM137.449 82.55L137.463 83.684C138.989 83.852 141.705 83.852 143.203 83.684V82.55C141.817 82.76 138.975 82.816 137.449 82.55ZM137.995 88.262L136.987 88.164C136.833 88.836 136.763 89.34 136.763 89.802C136.763 91.118 137.813 91.902 140.151 91.902C141.607 91.902 142.783 91.79 143.651 91.608L143.623 90.432C142.503 90.698 141.411 90.81 140.165 90.81C138.247 90.81 137.799 90.18 137.799 89.536C137.799 89.158 137.869 88.766 137.995 88.262ZM134.789 81.472L133.543 81.374C133.529 81.682 133.487 82.032 133.445 82.354C133.277 83.516 132.815 85.91 132.815 87.968C132.815 89.872 133.053 91.482 133.333 92.476L134.327 92.406C134.313 92.252 134.299 92.056 134.285 91.916C134.285 91.748 134.313 91.482 134.355 91.286C134.481 90.614 134.999 89.144 135.349 88.15L134.761 87.688C134.523 88.262 134.201 89.102 133.963 89.732C133.879 89.046 133.837 88.458 133.837 87.786C133.837 86.204 134.271 83.712 134.537 82.41C134.593 82.158 134.705 81.71 134.789 81.472ZM151.393 82.13V83.096H159.121V82.13H151.393ZM154.683 80.254V82.592H155.747V80.254H154.683ZM157.021 83.936C155.817 85.994 153.591 87.926 151.351 89.018C151.603 89.228 151.897 89.564 152.065 89.816C154.389 88.598 156.615 86.582 157.959 84.342L157.021 83.936ZM157.931 86.764C156.573 89.228 153.969 91.216 150.945 92.266C151.211 92.504 151.505 92.882 151.659 93.134C154.753 91.944 157.371 89.844 158.897 87.198L157.931 86.764ZM154.473 82.774C154.011 83.656 153.157 84.874 152.499 85.63L153.311 85.994C153.997 85.252 154.837 84.146 155.509 83.152L154.473 82.774ZM151.505 85.238C152.527 85.938 153.787 86.974 154.389 87.66L155.075 86.876C154.459 86.218 153.171 85.224 152.149 84.566L151.505 85.238ZM155.397 90.348C156.447 91.188 157.791 92.406 158.421 93.162L159.233 92.434C158.561 91.678 157.189 90.53 156.139 89.704L155.397 90.348ZM146.801 84.482V85.322H150.777V84.482H146.801ZM146.857 80.744V81.584H150.721V80.744H146.857ZM146.801 86.358V87.198H150.777V86.358H146.801ZM146.171 82.578V83.446H151.141V82.578H146.171ZM147.263 88.248V89.116H149.867V91.454H147.263V92.336H150.777V88.248H147.263ZM146.787 88.248V92.98H147.683V88.248H146.787ZM166.611 80.24V85.77H167.745V80.24H166.611ZM161.879 81.248C162.621 82.228 163.391 83.586 163.699 84.496L164.693 84.048C164.371 83.166 163.615 81.836 162.831 80.856L161.879 81.248ZM171.413 80.744C170.993 81.808 170.223 83.306 169.607 84.23L170.517 84.594C171.147 83.684 171.945 82.312 172.533 81.122L171.413 80.744ZM162.075 85.196V86.246H171.245V93.134H172.351V85.196H162.075ZM162.551 88.276V89.298H171.665V88.276H162.551ZM161.809 91.482V92.518H171.805V91.482H161.809ZM176.999 91.762V92.63H186.533V91.762H176.999ZM176.439 83.908V93.134H177.489V84.776H186.169V93.036H187.247V83.908H176.439ZM181.227 85.14V88.43H182.193V85.14H181.227ZM178.455 86.008V86.806H185.077V86.008H178.455ZM179.995 88.654H183.537V90.152H179.995V88.654ZM179.113 87.926V90.908H184.461V87.926H179.113ZM177.041 81.486V82.312H181.563V81.486H177.041ZM182.473 81.486V82.312H188.129V81.486H182.473ZM177.335 80.184C176.887 81.416 176.131 82.648 175.263 83.46C175.515 83.6 175.935 83.88 176.131 84.034C176.957 83.152 177.797 81.808 178.315 80.436L177.335 80.184ZM182.851 80.184C182.389 81.43 181.535 82.592 180.555 83.362C180.807 83.488 181.227 83.796 181.423 83.964C182.375 83.124 183.313 81.822 183.845 80.436L182.851 80.184ZM177.825 82.102C178.161 82.662 178.525 83.404 178.651 83.88L179.575 83.488C179.421 83.026 179.029 82.298 178.679 81.78L177.825 82.102ZM183.677 82.102C184.139 82.662 184.629 83.418 184.825 83.922L185.763 83.544C185.553 83.04 185.035 82.298 184.587 81.766L183.677 82.102ZM190.173 81.024V81.99H196.207V81.024H190.173ZM197.201 85.014V86.022H202.829V85.014H197.201ZM200.239 85.672V93.134H201.275V85.672H200.239ZM196.795 81.626V85.364C196.795 87.506 196.599 90.32 194.653 92.392C194.905 92.518 195.283 92.868 195.437 93.092C197.537 90.838 197.831 87.632 197.831 85.364V82.158C198.027 82.13 198.097 82.074 198.111 81.976L196.795 81.626ZM190.691 83.446V87.226C190.691 88.836 190.593 90.992 189.613 92.504C189.837 92.63 190.271 92.952 190.439 93.148C191.517 91.496 191.685 89.018 191.685 87.226V83.446H190.691ZM201.625 80.408C200.575 81.01 198.685 81.612 197.019 82.004C197.159 82.242 197.327 82.62 197.383 82.858C199.133 82.452 201.163 81.878 202.549 81.206L201.625 80.408ZM191.265 83.446V84.412H194.835V86.862H191.265V87.814H195.857V83.446H191.265ZM210.249 82.55L210.263 83.684C211.789 83.852 214.505 83.852 216.003 83.684V82.55C214.617 82.76 211.775 82.816 210.249 82.55ZM210.795 88.262L209.787 88.164C209.633 88.836 209.563 89.34 209.563 89.802C209.563 91.118 210.613 91.902 212.951 91.902C214.407 91.902 215.583 91.79 216.451 91.608L216.423 90.432C215.303 90.698 214.211 90.81 212.965 90.81C211.047 90.81 210.599 90.18 210.599 89.536C210.599 89.158 210.669 88.766 210.795 88.262ZM207.589 81.472L206.343 81.374C206.329 81.682 206.287 82.032 206.245 82.354C206.077 83.516 205.615 85.91 205.615 87.968C205.615 89.872 205.853 91.482 206.133 92.476L207.127 92.406C207.113 92.252 207.099 92.056 207.085 91.916C207.085 91.748 207.113 91.482 207.155 91.286C207.281 90.614 207.799 89.144 208.149 88.15L207.561 87.688C207.323 88.262 207.001 89.102 206.763 89.732C206.679 89.046 206.637 88.458 206.637 87.786C206.637 86.204 207.071 83.712 207.337 82.41C207.393 82.158 207.505 81.71 207.589 81.472ZM230.941 87.254C230.381 87.884 229.401 88.794 228.701 89.326L229.345 89.83C230.073 89.34 231.025 88.556 231.781 87.87L230.941 87.254ZM227.469 80.226C227.301 80.786 226.965 81.57 226.699 82.088L227.581 82.312C227.903 81.85 228.295 81.122 228.631 80.45L227.469 80.226ZM225.565 84.566H230.283V85.784H225.565V84.566ZM225.565 82.536H230.283V83.754H225.565V82.536ZM224.599 81.696V86.638H231.291V81.696H224.599ZM227.427 86.176V92C227.427 92.154 227.385 92.196 227.203 92.196C227.035 92.21 226.475 92.21 225.845 92.196C225.971 92.462 226.097 92.854 226.125 93.12C227.007 93.12 227.567 93.106 227.931 92.952C228.281 92.798 228.379 92.532 228.379 92V86.176H227.427ZM224.067 87.856V88.738H226.405V87.856H224.067ZM226.167 87.856V88.024C225.761 89.858 224.753 91.146 223.437 91.832C223.647 91.986 223.969 92.336 224.095 92.56C225.495 91.762 226.601 90.292 227.105 88.066L226.531 87.828L226.349 87.856H226.167ZM228.253 86.246L227.679 86.96C228.057 88.78 229.065 91.314 231.459 92.546C231.599 92.28 231.907 91.888 232.103 91.692C229.653 90.628 228.645 88.22 228.253 86.246ZM221.183 80.254C220.819 81.178 220.161 82.55 219.657 83.362L220.371 83.67C220.917 82.9 221.575 81.64 222.107 80.604L221.183 80.254ZM222.751 81.85C221.981 83.32 220.665 85.406 219.615 86.652L220.259 87.016C221.309 85.798 222.667 83.81 223.633 82.256L222.751 81.85ZM218.943 83.166C219.685 83.88 220.525 84.874 220.875 85.546L221.477 84.762C221.113 84.118 220.259 83.18 219.503 82.494L218.943 83.166ZM222.205 85.056C222.765 85.98 223.311 87.226 223.493 88.01L224.319 87.632C224.123 86.862 223.549 85.658 222.961 84.734L222.205 85.056ZM218.831 86.442L218.943 87.38C220.217 87.296 221.897 87.198 223.563 87.086V86.204C221.799 86.302 220.049 86.386 218.831 86.442ZM222.569 88.444C222.905 89.242 223.199 90.292 223.269 90.964L224.081 90.712C223.997 90.04 223.703 89.004 223.339 88.206L222.569 88.444ZM219.671 88.248C219.517 89.466 219.251 90.726 218.803 91.58C219.013 91.678 219.433 91.86 219.601 91.972C220.049 91.076 220.371 89.732 220.553 88.402L219.671 88.248ZM221.155 86.848V93.12H222.079V86.848H221.155ZM239.439 80.94L238.291 80.842C238.249 81.5 238.053 82.34 237.745 83.11C237.269 84.3 236.331 85.924 234.315 87.856L235.281 88.57C235.743 87.996 236.135 87.492 236.541 87.1C237.185 86.526 238.067 86.078 238.963 86.078C239.691 86.078 240.251 86.456 240.265 87.268C240.279 87.996 240.265 89.438 240.209 90.18H241.287C241.273 89.312 241.245 87.702 241.245 86.974C241.245 85.84 240.405 85.196 239.327 85.196C238.711 85.196 237.913 85.392 237.367 85.714C237.927 84.986 238.445 84.048 238.795 83.194C239.159 82.256 239.313 81.486 239.439 80.94ZM234.637 82.452V83.502C235.421 83.558 236.345 83.586 236.947 83.586C238.725 83.586 241.329 83.46 243.289 83.166V82.13C241.315 82.48 238.893 82.592 237.003 82.592C236.359 82.592 235.393 82.55 234.637 82.452ZM245.333 85.826L244.885 84.79C244.493 84.986 244.143 85.14 243.723 85.336C242.799 85.77 241.665 86.204 240.335 86.89C238.669 87.744 236.933 88.794 236.933 90.502C236.933 92.196 238.543 92.63 240.531 92.63C241.749 92.63 243.303 92.518 244.367 92.392L244.409 91.258C243.177 91.482 241.665 91.608 240.573 91.608C239.131 91.608 238.053 91.44 238.053 90.348C238.053 89.382 239.033 88.626 240.419 87.898C241.777 87.198 243.107 86.666 244.101 86.274C244.479 86.134 244.983 85.938 245.333 85.826ZM253.537 87.016L253.523 87.184C253.313 90.32 253.075 91.594 252.697 91.916C252.529 92.056 252.375 92.07 252.067 92.07C251.731 92.07 250.793 92.056 249.855 91.972C250.065 92.28 250.219 92.728 250.247 93.064C251.143 93.106 252.025 93.12 252.459 93.092C252.977 93.05 253.299 92.952 253.593 92.63C254.083 92.14 254.335 90.824 254.573 87.506C254.601 87.366 254.615 87.016 254.615 87.016H253.537ZM249.379 84.048C249.197 85.476 248.847 87.338 248.553 88.5L249.603 88.668C249.883 87.492 250.219 85.56 250.457 84.048H249.379ZM258.395 80.394V93.12H259.445V80.394H258.395ZM249.407 87.016L249.267 87.996H253.859V87.016H249.407ZM249.771 84.048V85.042H254.545V80.828H248.917V81.808H253.509V84.048H249.771ZM2.506 107.41L2.576 108.432C4.578 108.628 6.538 108.628 7.952 108.488C9.072 108.39 10.262 108.152 11.172 107.886L11.018 106.864C10.01 107.2 8.862 107.438 7.714 107.536C6.286 107.676 4.452 107.648 2.506 107.41ZM2.226 110.28L2.296 111.33C4.704 111.512 7.294 111.47 9.016 111.246C10.192 111.106 11.256 110.896 12.026 110.686L11.844 109.65C11.102 109.874 9.968 110.154 8.638 110.294C7 110.49 4.62 110.532 2.226 110.28ZM7.014 107.228C7.21 107.928 7.42 108.67 7.77 109.636C8.176 110.77 8.764 112.114 9.534 113.318C9.1 113.262 8.19 113.164 7.434 113.094L7.35 113.948C8.316 114.046 9.618 114.186 10.402 114.382L10.99 113.528C10.78 113.346 10.612 113.15 10.458 112.926C9.73 111.848 9.114 110.504 8.736 109.412C8.386 108.418 7.952 107.004 7.812 105.828L6.622 105.982C6.776 106.388 6.902 106.822 7.014 107.228ZM4.27 113.304L3.178 113.066C2.856 113.682 2.618 114.27 2.618 115.068C2.646 116.874 4.186 117.686 6.916 117.686C8.12 117.686 9.212 117.602 10.192 117.434L10.248 116.328C9.226 116.524 8.204 116.622 6.902 116.622C4.704 116.622 3.682 116.034 3.682 114.886C3.682 114.256 3.934 113.78 4.27 113.304ZM22.568 105.898H21.378C21.42 106.08 21.434 106.5 21.434 106.738C21.434 107.718 21.434 109.188 21.434 110.448C21.434 111.68 21.574 114.368 21.574 115.446C21.574 116.426 20.888 116.664 20.076 116.664C18.69 116.664 18.144 116.188 18.144 115.53C18.144 114.886 18.858 114.368 20.202 114.368C22.694 114.368 24.766 115.768 26.026 116.93L26.67 115.936C25.592 115.054 23.282 113.458 20.328 113.458C18.312 113.458 17.094 114.312 17.094 115.586C17.094 116.944 18.2 117.658 20.216 117.658C22.036 117.658 22.68 116.664 22.68 115.684C22.68 114.746 22.47 112.296 22.47 110.448C22.47 109.272 22.47 107.396 22.498 106.836C22.512 106.416 22.54 106.136 22.568 105.898ZM17.22 107.41L17.234 108.446C18.116 108.558 19.838 108.684 20.804 108.684C22.68 108.684 24.682 108.502 26.264 108.32V107.298C24.444 107.592 22.568 107.718 20.79 107.718C19.866 107.718 18.116 107.578 17.22 107.41ZM17.15 110.392L17.164 111.442C18.158 111.554 19.698 111.624 20.664 111.624C22.764 111.624 24.472 111.526 26.376 111.288V110.238C24.556 110.504 22.694 110.644 20.664 110.644C19.74 110.644 18.144 110.546 17.15 110.392ZM37.898 105.912H36.61C36.638 106.038 36.68 106.43 36.708 106.808C36.75 107.578 36.764 110.364 36.764 110.98L37.828 111.526C37.814 110.406 37.786 107.704 37.828 106.794C37.828 106.626 37.87 106.08 37.898 105.912ZM30.45 107.872L30.478 108.95C32.592 108.796 35.588 108.698 37.996 108.698C40.054 108.698 41.314 108.726 42.098 108.768L42.112 107.732C41.454 107.718 39.718 107.718 38.01 107.718C35.854 107.718 32.354 107.844 30.45 107.872ZM37.8 111.932L37.03 111.54C37.254 113.038 36.694 113.766 35.826 113.766C35.056 113.766 34.398 113.262 34.398 112.38C34.398 111.47 35.084 110.896 35.826 110.896C36.582 110.896 37.198 111.428 37.198 112.688C37.198 114.998 35.714 116.244 33.166 116.846L34.104 117.756C37.352 116.79 38.276 114.69 38.276 112.786C38.276 111.176 37.45 109.972 35.826 109.972C34.496 109.972 33.348 111.008 33.348 112.394C33.348 113.92 34.482 114.746 35.658 114.746C36.932 114.746 37.8 113.808 37.8 111.932ZM45.0015 113.598C43.8255 113.598 42.8595 114.55 42.8595 115.726C42.8595 116.902 43.8255 117.854 45.0015 117.854C46.1775 117.854 47.1295 116.902 47.1295 115.726C47.1295 114.55 46.1775 113.598 45.0015 113.598ZM45.0015 117.14C44.2175 117.14 43.5735 116.51 43.5735 115.726C43.5735 114.942 44.2175 114.312 45.0015 114.312C45.7855 114.312 46.4155 114.942 46.4155 115.726C46.4155 116.51 45.7855 117.14 45.0015 117.14ZM58.7775 105.814V106.766H61.9695V110.77H58.7775V111.75H62.9775V105.814H58.7775ZM58.3015 105.814V116.076L59.3095 115.656V105.814H58.3015ZM57.3635 115.782L57.6435 116.818C59.0295 116.398 60.9055 115.824 62.6835 115.264L62.5435 114.298C60.6255 114.858 58.6515 115.432 57.3635 115.782ZM60.7515 112.912C61.5635 113.948 62.4035 115.39 62.7395 116.342L63.6635 115.894C63.3135 114.956 62.4595 113.57 61.6335 112.534L60.7515 112.912ZM64.4895 106.122V111.092H65.4555V106.122H64.4895ZM67.8355 106.29C67.2475 111.988 65.8895 115.488 61.7175 117.378C61.9695 117.56 62.4035 117.952 62.5715 118.148C66.7435 116.006 68.2135 112.422 68.8855 106.388L67.8355 106.29ZM66.9115 111.75V116.552C66.9115 117.602 67.1495 117.924 68.1015 117.924C68.2975 117.924 69.0815 117.924 69.2915 117.924C70.1455 117.924 70.3975 117.392 70.4815 115.362C70.2155 115.292 69.7955 115.124 69.5855 114.942C69.5435 116.72 69.4875 116.972 69.1795 116.972C69.0115 116.972 68.3815 116.972 68.2415 116.972C67.9475 116.972 67.8915 116.916 67.8915 116.552V111.75H66.9115ZM58.7635 108.306V109.202H62.3895V108.306H58.7635ZM63.5795 105.8V106.794H70.0335V105.8H63.5795ZM63.2995 110.658V111.652H70.2855V110.658H63.2995ZM77.7755 107.55L77.7895 108.684C79.3155 108.852 82.0315 108.852 83.5295 108.684V107.55C82.1435 107.76 79.3015 107.816 77.7755 107.55ZM78.3215 113.262L77.3135 113.164C77.1595 113.836 77.0895 114.34 77.0895 114.802C77.0895 116.118 78.1395 116.902 80.4775 116.902C81.9335 116.902 83.1095 116.79 83.9775 116.608L83.9495 115.432C82.8295 115.698 81.7375 115.81 80.4915 115.81C78.5735 115.81 78.1255 115.18 78.1255 114.536C78.1255 114.158 78.1955 113.766 78.3215 113.262ZM75.1155 106.472L73.8695 106.374C73.8555 106.682 73.8135 107.032 73.7715 107.354C73.6035 108.516 73.1415 110.91 73.1415 112.968C73.1415 114.872 73.3795 116.482 73.6595 117.476L74.6535 117.406C74.6395 117.252 74.6255 117.056 74.6115 116.916C74.6115 116.748 74.6395 116.482 74.6815 116.286C74.8075 115.614 75.3255 114.144 75.6755 113.15L75.0875 112.688C74.8495 113.262 74.5275 114.102 74.2895 114.732C74.2055 114.046 74.1635 113.458 74.1635 112.786C74.1635 111.204 74.5975 108.712 74.8635 107.41C74.9195 107.158 75.0315 106.71 75.1155 106.472ZM93.8475 113.304C94.8275 113.71 96.0455 114.424 96.6895 114.928L97.3335 114.214C96.6895 113.71 95.4715 113.038 94.4775 112.646L93.8475 113.304ZM92.3215 115.964C94.2115 116.496 96.5215 117.448 97.7535 118.204L98.3835 117.364C97.1095 116.664 94.8135 115.726 92.9515 115.222L92.3215 115.964ZM94.1275 105.24C93.6095 106.528 92.5735 108.124 91.0895 109.314C91.3135 109.454 91.6495 109.762 91.8035 109.972C93.4135 108.642 94.4775 106.948 95.1635 105.422L94.1275 105.24ZM93.9455 106.71L93.4835 107.634H97.7535V106.71H93.9455ZM97.4455 106.71V106.906C96.4375 109.468 93.9875 111.456 91.4675 112.464C91.6775 112.646 91.9995 113.052 92.1255 113.29C94.7155 112.156 97.2775 110.028 98.4955 107.032L97.8375 106.668L97.6555 106.71H97.4455ZM93.7635 107.508L92.9235 107.83C94.1835 110.28 96.4375 112.436 98.9015 113.458C99.0555 113.192 99.3635 112.8 99.5875 112.604C97.1655 111.722 94.8975 109.706 93.7635 107.508ZM88.6955 105.254C88.3315 106.178 87.6875 107.522 87.1555 108.32L87.8835 108.656C88.4295 107.886 89.0875 106.64 89.6195 105.618L88.6955 105.254ZM90.2635 106.85C89.5215 108.362 88.2055 110.49 87.1695 111.75L87.8135 112.114C88.8495 110.882 90.1935 108.852 91.1455 107.242L90.2635 106.85ZM86.4835 108.194C87.2395 108.866 88.1215 109.846 88.4995 110.504L89.0595 109.706C88.6815 109.076 87.7995 108.166 87.0155 107.508L86.4835 108.194ZM89.7735 110.098C90.3055 111.008 90.8375 112.212 91.0055 112.968L91.8035 112.604C91.6215 111.862 91.0615 110.686 90.5015 109.804L89.7735 110.098ZM86.4415 111.526L86.5255 112.478C87.7995 112.394 89.4935 112.296 91.1735 112.184L91.1875 111.316C89.4095 111.414 87.6595 111.484 86.4415 111.526ZM90.1375 113.402C90.4875 114.214 90.8655 115.292 90.9915 115.992L91.8035 115.712C91.6635 115.012 91.2855 113.948 90.8935 113.164L90.1375 113.402ZM87.2255 113.248C87.0575 114.48 86.7775 115.726 86.3155 116.58C86.5395 116.678 86.9595 116.874 87.1415 116.986C87.5895 116.09 87.9395 114.732 88.1355 113.416L87.2255 113.248ZM88.7375 111.918V118.162H89.6755V111.918H88.7375ZM106.993 110.014V116.748C106.993 117 106.895 117.084 106.587 117.098C106.265 117.112 105.187 117.112 104.025 117.07C104.193 117.378 104.389 117.826 104.459 118.134C105.873 118.134 106.811 118.12 107.357 117.952C107.903 117.798 108.085 117.476 108.085 116.776V110.014H106.993ZM101.897 106.346V107.368H112.005V106.346H101.897ZM111.627 106.346V106.598C110.745 107.76 108.897 109.37 107.301 110.252C107.525 110.406 107.861 110.756 108.015 110.98C109.751 110 111.725 108.348 112.971 106.864L112.159 106.276L111.907 106.346H111.627ZM119.845 106.094H118.417C118.501 106.5 118.543 106.99 118.543 107.508C118.543 108.978 118.403 112.52 118.403 114.592C118.403 116.888 119.789 117.714 121.805 117.714C124.871 117.714 126.691 115.964 127.643 114.634L126.859 113.682C125.851 115.138 124.395 116.566 121.833 116.566C120.503 116.566 119.537 116.034 119.537 114.494C119.537 112.408 119.649 109.09 119.705 107.508C119.733 107.046 119.775 106.556 119.845 106.094ZM130.398 107.704L130.524 108.936C132.05 108.614 135.606 108.264 137.118 108.11C135.83 108.866 134.5 110.644 134.5 112.828C134.5 115.964 137.44 117.336 140.044 117.434L140.436 116.286C138.168 116.188 135.606 115.32 135.606 112.59C135.606 110.938 136.824 108.796 138.826 108.152C139.54 107.956 140.758 107.928 141.57 107.942L141.556 106.822C140.618 106.85 139.316 106.934 137.79 107.06C135.2 107.284 132.568 107.536 131.658 107.634C131.378 107.662 130.93 107.69 130.398 107.704ZM146.904 107.242L145.546 107.214C145.63 107.536 145.63 108.138 145.63 108.46C145.63 109.272 145.658 110.98 145.784 112.184C146.176 115.81 147.436 117.126 148.766 117.126C149.718 117.126 150.558 116.314 151.412 113.948L150.53 112.954C150.166 114.354 149.508 115.796 148.794 115.796C147.786 115.796 147.114 114.242 146.876 111.904C146.778 110.756 146.764 109.468 146.778 108.6C146.792 108.236 146.834 107.564 146.904 107.242ZM154.184 107.62L153.106 107.998C154.436 109.636 155.29 112.52 155.528 115.04L156.662 114.592C156.452 112.226 155.444 109.244 154.184 107.62ZM161.674 106.696L161.702 107.844C162.01 107.802 162.318 107.788 162.64 107.76C163.368 107.718 166.168 107.606 166.91 107.564C166.21 108.194 164.446 109.664 163.662 110.308C162.864 110.994 161.058 112.506 159.896 113.458L160.708 114.27C162.472 112.464 163.732 111.484 166.056 111.484C167.89 111.484 169.206 112.506 169.206 113.892C169.206 115.642 167.708 116.622 165.328 116.622C164.222 116.622 163.452 116.216 163.452 115.53C163.452 115.04 163.942 114.648 164.586 114.648C165.706 114.648 166.392 115.502 166.476 116.692L167.484 116.524C167.386 115.11 166.448 113.794 164.586 113.794C163.298 113.794 162.43 114.662 162.43 115.614C162.43 116.79 163.592 117.616 165.496 117.616C168.464 117.616 170.326 116.146 170.326 113.892C170.326 112.002 168.66 110.616 166.336 110.616C165.706 110.616 165.034 110.686 164.39 110.896C165.482 110 167.386 108.362 168.072 107.83C168.338 107.62 168.618 107.438 168.87 107.27L168.226 106.444C168.072 106.5 167.876 106.528 167.456 106.57C166.714 106.64 163.396 106.738 162.654 106.738C162.374 106.738 161.982 106.724 161.674 106.696ZM174.106 111.946L174.652 113.038C176.906 112.338 179.132 111.316 180.672 110.364C182.31 109.342 183.78 108.166 184.984 106.92L184.046 106.038C183.08 107.214 181.68 108.418 180.21 109.342C178.656 110.308 176.528 111.302 174.106 111.946ZM179.986 109.916V115.95C179.986 116.468 179.944 117.168 179.902 117.434H181.288C181.218 117.168 181.19 116.468 181.19 115.95V109.552L179.986 109.916ZM197.122 107.508L196.324 107.858C196.786 108.488 197.29 109.37 197.626 110.098L198.452 109.734C198.13 109.062 197.486 108.026 197.122 107.508ZM198.928 106.794L198.144 107.172C198.606 107.788 199.11 108.642 199.488 109.37L200.3 108.978C199.964 108.334 199.292 107.284 198.928 106.794ZM188.204 113.318L189.24 114.382C189.464 114.102 189.758 113.668 190.052 113.304C190.682 112.534 191.858 110.994 192.53 110.182C193.006 109.594 193.272 109.552 193.818 110.07C194.406 110.658 195.694 112.044 196.506 112.954C197.416 113.976 198.648 115.418 199.642 116.622L200.608 115.6C199.53 114.438 198.13 112.926 197.178 111.918C196.366 111.05 195.162 109.79 194.308 108.992C193.356 108.082 192.698 108.236 191.956 109.118C191.074 110.168 189.856 111.722 189.184 112.394C188.82 112.758 188.554 113.01 188.204 113.318ZM205.2 106.752L204.388 107.606C205.438 108.292 207.174 109.804 207.888 110.532L208.756 109.636C207.986 108.866 206.18 107.41 205.2 106.752ZM203.996 116.132L204.724 117.28C207.062 116.846 208.826 115.978 210.24 115.096C212.354 113.766 213.978 111.862 214.93 110.126L214.258 108.922C213.446 110.658 211.752 112.73 209.582 114.088C208.252 114.914 206.432 115.768 203.996 116.132ZM221.286 115.768C221.286 116.286 221.272 116.986 221.202 117.434H222.56C222.504 116.972 222.476 116.216 222.476 115.768C222.476 115.11 222.462 109.804 222.462 107.634C222.462 107.2 222.504 106.598 222.56 106.164H221.188C221.258 106.612 221.286 107.228 221.286 107.634C221.286 108.796 221.286 114.984 221.286 115.768ZM222.21 109.846V111.078C223.736 111.554 226.354 112.548 227.95 113.402L228.44 112.212C226.886 111.456 224.058 110.378 222.21 109.846ZM239.024 107.452L237.862 107.424C237.722 108.88 237.428 110.462 237.022 111.792C236.308 114.158 235.552 115.11 234.894 115.11C234.264 115.11 233.466 114.326 233.466 112.562C233.466 110.504 235.384 107.97 238.464 107.97C241.152 107.97 242.706 109.818 242.706 112.058C242.706 114.48 240.942 115.824 239.15 116.23C238.814 116.3 238.394 116.356 237.946 116.398L238.59 117.434C241.922 117 243.854 115.04 243.854 112.114C243.854 109.272 241.768 106.962 238.492 106.962C235.062 106.962 232.36 109.608 232.36 112.646C232.36 114.97 233.606 116.398 234.866 116.398C236.154 116.398 237.274 114.914 238.128 112.044C238.562 110.546 238.842 108.908 239.024 107.452ZM248.166 106.192V117.966H249.244V107.256H256.23V117.91H257.336V106.192H248.166ZM248.88 111.05V112.086H256.692V111.05H248.88ZM248.866 116.006V117.056H256.72V116.006H248.866ZM4.816 133.362V134.426H13.356V133.362H4.816ZM10.514 130.408V141.692C10.514 142.014 10.388 142.098 10.052 142.126C9.73 142.14 8.568 142.14 7.378 142.098C7.546 142.392 7.742 142.868 7.798 143.148C9.324 143.162 10.276 143.148 10.822 142.966C11.354 142.812 11.578 142.49 11.578 141.692V130.408H10.514ZM5.698 136.33C6.412 137.45 7.322 138.962 7.742 139.83L8.722 139.298C8.274 138.444 7.336 136.988 6.608 135.896L5.698 136.33ZM2.59 134.062V143.092H3.654V133.026L3.64 132.998L2.59 134.062ZM4.116 130.338C3.304 132.522 1.96 134.664 0.518 136.036C0.714 136.288 1.05 136.82 1.176 137.072C2.73 135.49 4.2 133.082 5.138 130.646L4.116 130.338ZM21 133.446V137.114H22.078V133.446H21ZM16.604 134.412V135.308H26.6V134.412H16.604ZM15.218 136.554V137.478H27.93V136.554H15.218ZM15.666 138.71V139.634H27.566V138.71H15.666ZM23.856 137.296V141.874C23.856 142.07 23.8 142.126 23.548 142.126C23.282 142.154 22.456 142.154 21.504 142.126C21.658 142.406 21.84 142.812 21.896 143.12C23.058 143.12 23.842 143.106 24.304 142.952C24.794 142.784 24.934 142.504 24.934 141.888V137.296H23.856ZM16.842 131.43V132.312H21.392V131.43H16.842ZM22.246 131.43V132.312H27.79V131.43H22.246ZM17.15 130.184C16.688 131.416 15.904 132.648 15.008 133.46C15.26 133.6 15.694 133.894 15.89 134.048C16.758 133.18 17.612 131.822 18.158 130.45L17.15 130.184ZM22.652 130.184C22.246 131.36 21.49 132.494 20.608 133.222C20.846 133.362 21.28 133.656 21.476 133.824C22.344 133.012 23.184 131.752 23.66 130.422L22.652 130.184ZM17.682 132.102C17.99 132.676 18.298 133.432 18.396 133.908L19.334 133.572C19.208 133.096 18.872 132.354 18.564 131.794L17.682 132.102ZM23.506 132.102C23.968 132.69 24.472 133.474 24.668 133.978L25.564 133.6C25.354 133.082 24.822 132.312 24.36 131.766L23.506 132.102ZM17.682 140.25C18.592 140.852 19.6 141.748 20.048 142.406L20.86 141.734C20.384 141.076 19.348 140.208 18.452 139.648L17.682 140.25ZM35.49 132.55L35.504 133.684C37.03 133.852 39.746 133.852 41.244 133.684V132.55C39.858 132.76 37.016 132.816 35.49 132.55ZM36.036 138.262L35.028 138.164C34.874 138.836 34.804 139.34 34.804 139.802C34.804 141.118 35.854 141.902 38.192 141.902C39.648 141.902 40.824 141.79 41.692 141.608L41.664 140.432C40.544 140.698 39.452 140.81 38.206 140.81C36.288 140.81 35.84 140.18 35.84 139.536C35.84 139.158 35.91 138.766 36.036 138.262ZM32.83 131.472L31.584 131.374C31.57 131.682 31.528 132.032 31.486 132.354C31.318 133.516 30.856 135.91 30.856 137.968C30.856 139.872 31.094 141.482 31.374 142.476L32.368 142.406C32.354 142.252 32.34 142.056 32.326 141.916C32.326 141.748 32.354 141.482 32.396 141.286C32.522 140.614 33.04 139.144 33.39 138.15L32.802 137.688C32.564 138.262 32.242 139.102 32.004 139.732C31.92 139.046 31.878 138.458 31.878 137.786C31.878 136.204 32.312 133.712 32.578 132.41C32.634 132.158 32.746 131.71 32.83 131.472ZM48.16 131.794V132.774H57.148V131.794H48.16ZM49.546 135.028H55.664V137.128H49.546V135.028ZM48.58 134.132V138.024H56.686V134.132H48.58ZM49.448 138.304L48.58 138.598C50.064 141.16 52.934 142.616 56.644 143.148C56.784 142.854 57.05 142.434 57.274 142.21C53.634 141.804 50.764 140.502 49.448 138.304ZM52.052 130.296V136.484C52.052 138.85 51.814 141.244 47.656 142.294C47.866 142.518 48.16 142.938 48.286 143.176C52.626 141.888 53.088 139.2 53.088 136.498V130.296H52.052ZM47.558 130.212C46.746 132.34 45.374 134.426 43.96 135.756C44.156 136.008 44.45 136.554 44.548 136.792C46.102 135.238 47.6 132.886 48.552 130.52L47.558 130.212ZM46.088 133.88V143.19H47.096V132.9L47.082 132.886L46.088 133.88ZM60.97 131.234V132.242H70.028V131.234H60.97ZM60.97 134.496V135.49H70.014V134.496H60.97ZM60.9 137.842V138.836H70.042V137.842H60.9ZM60.382 131.234V136.302C60.382 138.276 60.228 140.768 58.688 142.504C58.912 142.644 59.332 142.994 59.5 143.204C61.166 141.342 61.418 138.444 61.418 136.316V131.234H60.382ZM69.608 131.234V141.692C69.608 141.958 69.51 142.042 69.244 142.056C68.978 142.056 68.026 142.07 67.032 142.028C67.186 142.308 67.354 142.77 67.396 143.05C68.726 143.064 69.538 143.05 70.014 142.882C70.476 142.7 70.644 142.378 70.644 141.692V131.234H69.608ZM64.778 131.612V142.994H65.842V131.612H64.778ZM77.56 131.094H76.132C76.216 131.5 76.258 131.99 76.258 132.508C76.258 133.978 76.118 137.52 76.118 139.592C76.118 141.888 77.504 142.714 79.52 142.714C82.586 142.714 84.406 140.964 85.358 139.634L84.574 138.682C83.566 140.138 82.11 141.566 79.548 141.566C78.218 141.566 77.252 141.034 77.252 139.494C77.252 137.408 77.364 134.09 77.42 132.508C77.448 132.046 77.49 131.556 77.56 131.094ZM88.1122 132.704L88.2382 133.936C89.7642 133.614 93.3202 133.264 94.8322 133.11C93.5442 133.866 92.2142 135.644 92.2142 137.828C92.2142 140.964 95.1542 142.336 97.7582 142.434L98.1502 141.286C95.8822 141.188 93.3202 140.32 93.3202 137.59C93.3202 135.938 94.5382 133.796 96.5402 133.152C97.2542 132.956 98.4722 132.928 99.2842 132.942L99.2702 131.822C98.3322 131.85 97.0302 131.934 95.5042 132.06C92.9142 132.284 90.2822 132.536 89.3722 132.634C89.0922 132.662 88.6442 132.69 88.1122 132.704ZM102.266 131.276V132.34H114.726V131.276H102.266ZM107.656 132.116V143.106H108.762V132.116H107.656ZM108.272 135.434C109.966 136.302 112.15 137.632 113.228 138.5L113.97 137.548C112.85 136.708 110.638 135.434 108.958 134.622L108.272 135.434ZM123.378 132.088C123.532 132.522 123.728 133.166 124.036 133.964C124.498 135.238 125.268 136.624 125.856 137.52C125.352 137.464 124.316 137.38 123.532 137.31L123.448 138.234C124.456 138.304 126.164 138.458 126.836 138.626L127.396 137.828C127.186 137.604 126.976 137.366 126.794 137.086C126.192 136.274 125.478 134.972 125.044 133.768C124.722 132.858 124.358 131.654 124.232 130.842L123.028 130.982C123.168 131.36 123.294 131.78 123.378 132.088ZM118.254 133.18L118.282 134.286C120.76 134.496 122.986 134.482 124.764 134.272C125.786 134.146 127.116 133.922 128.11 133.642L127.984 132.536C126.892 132.914 125.506 133.166 124.4 133.292C122.804 133.46 120.592 133.446 118.254 133.18ZM120.424 137.632L119.332 137.38C118.926 138.206 118.646 138.934 118.646 139.718C118.646 141.622 120.326 142.574 122.986 142.588C124.554 142.602 125.73 142.448 126.612 142.294L126.654 141.174C125.688 141.384 124.47 141.524 123.056 141.524C120.97 141.496 119.752 140.922 119.752 139.578C119.752 138.92 120.004 138.318 120.424 137.632ZM133.738 132.242L132.38 132.214C132.464 132.536 132.464 133.138 132.464 133.46C132.464 134.272 132.492 135.98 132.618 137.184C133.01 140.81 134.27 142.126 135.6 142.126C136.552 142.126 137.392 141.314 138.246 138.948L137.364 137.954C137 139.354 136.342 140.796 135.628 140.796C134.62 140.796 133.948 139.242 133.71 136.904C133.612 135.756 133.598 134.468 133.612 133.6C133.626 133.236 133.668 132.564 133.738 132.242ZM141.018 132.62L139.94 132.998C141.27 134.636 142.124 137.52 142.362 140.04L143.496 139.592C143.286 137.226 142.278 134.244 141.018 132.62ZM147.892 138.598C146.716 138.598 145.75 139.55 145.75 140.726C145.75 141.902 146.716 142.854 147.892 142.854C149.068 142.854 150.02 141.902 150.02 140.726C150.02 139.55 149.068 138.598 147.892 138.598ZM147.892 142.14C147.108 142.14 146.464 141.51 146.464 140.726C146.464 139.942 147.108 139.312 147.892 139.312C148.676 139.312 149.306 139.942 149.306 140.726C149.306 141.51 148.676 142.14 147.892 142.14Z" fill="#1A1A1C"/>
<path d="M0 87.45H101.959V88.15H0V87.45Z" fill="#1A1A1C"/>
</g>
<path d="M0.84 18H10.76V15.52H7.56C6.86 15.52 5.88 15.62 5.14 15.7C7.84 13.06 10.08 10.18 10.08 7.48C10.08 4.72 8.2 2.94 5.42 2.94C3.4 2.94 2.06 3.72 0.7 5.18L2.32 6.78C3.08 5.94 3.94 5.24 5.04 5.24C6.46 5.24 7.24 6.16 7.24 7.64C7.24 9.92 4.88 12.7 0.84 16.32V18ZM18.4969 18.28C21.4969 18.28 23.4969 15.66 23.4969 10.54C23.4969 5.44 21.4969 2.94 18.4969 2.94C15.4769 2.94 13.4769 5.44 13.4769 10.54C13.4769 15.66 15.4769 18.28 18.4969 18.28ZM18.4969 15.98C17.2169 15.98 16.2569 14.7 16.2569 10.54C16.2569 6.4 17.2169 5.2 18.4969 5.2C19.7769 5.2 20.7169 6.4 20.7169 10.54C20.7169 14.7 19.7769 15.98 18.4969 15.98ZM26.0338 18H35.9538V15.52H32.7538C32.0538 15.52 31.0738 15.62 30.3338 15.7C33.0338 13.06 35.2738 10.18 35.2738 7.48C35.2738 4.72 33.3938 2.94 30.6138 2.94C28.5938 2.94 27.2538 3.72 25.8938 5.18L27.5138 6.78C28.2738 5.94 29.1338 5.24 30.2338 5.24C31.6538 5.24 32.4338 6.16 32.4338 7.64C32.4338 9.92 30.0738 12.7 26.0338 16.32V18ZM39.4106 18H48.3306V15.62H45.5506V3.2H43.3706C42.4106 3.78 41.4106 4.16 39.9106 4.44V6.26H42.6106V15.62H39.4106V18ZM55.3475 0.939999C54.4875 3.54 52.9275 6.1 51.1275 7.66C51.7075 8 52.7275 8.8 53.1875 9.22C54.9675 7.42 56.7275 4.54 57.7875 1.56L55.3475 0.939999ZM55.7675 3.22L54.6075 5.54H68.4875V3.22H55.7675ZM54.3475 7.94V14.38H56.7675V10.18H68.0275V7.94H54.3475ZM51.1875 13.2V15.52H69.5875V13.2H51.1875ZM60.2275 4.42V19.8H62.7075V4.42H60.2275ZM77.0675 18.28C80.0475 18.28 82.0475 16.58 82.0475 14.34C82.0475 12.3 80.9275 11.12 79.5675 10.38V10.28C80.5275 9.58 81.4675 8.36 81.4675 6.88C81.4675 4.52 79.7875 2.96 77.1675 2.96C74.5875 2.96 72.6875 4.48 72.6875 6.86C72.6875 8.42 73.5275 9.56 74.6475 10.38V10.46C73.2875 11.18 72.1275 12.44 72.1275 14.34C72.1275 16.66 74.2275 18.28 77.0675 18.28ZM78.0075 9.56C76.4475 8.94 75.2875 8.24 75.2875 6.86C75.2875 5.68 76.0875 5.02 77.1075 5.02C78.3275 5.02 79.0675 5.86 79.0675 7.08C79.0675 7.96 78.7275 8.8 78.0075 9.56ZM77.1275 16.2C75.7475 16.2 74.6475 15.34 74.6475 14C74.6475 12.9 75.2075 11.9 76.0275 11.26C77.9275 12.06 79.3075 12.68 79.3075 14.22C79.3075 15.5 78.4075 16.2 77.1275 16.2ZM89.1644 1.96V4.3H99.1644V1.96H89.1644ZM89.1844 6.74V9.02H99.2644V6.74H89.1844ZM89.0844 11.48V13.8H99.1244V11.48H89.0844ZM87.5244 1.96V8.58C87.5244 11.64 87.2444 15.5 84.2044 18.08C84.7244 18.4 85.7044 19.3 86.0644 19.8C89.4444 16.96 89.9844 12.06 89.9844 8.58V1.96H87.5244ZM98.0444 1.96V16.72C98.0444 17.14 97.8844 17.28 97.4244 17.3C96.9444 17.3 95.2844 17.32 93.8644 17.24C94.2644 17.88 94.7244 19.04 94.8644 19.76C96.9444 19.76 98.3644 19.72 99.3244 19.3C100.244 18.9 100.584 18.18 100.584 16.76V1.96H98.0444ZM105.424 18H115.344V15.52H112.144C111.444 15.52 110.464 15.62 109.724 15.7C112.424 13.06 114.664 10.18 114.664 7.48C114.664 4.72 112.784 2.94 110.004 2.94C107.984 2.94 106.644 3.72 105.284 5.18L106.904 6.78C107.664 5.94 108.524 5.24 109.624 5.24C111.044 5.24 111.824 6.16 111.824 7.64C111.824 9.92 109.464 12.7 105.424 16.32V18ZM122.701 18.28C125.421 18.28 127.881 16.38 127.881 13.1C127.881 9.86 125.801 8.4 123.321 8.4C122.641 8.4 122.121 8.54 121.541 8.8L121.821 5.66H127.201V3.2H119.281L118.861 10.38L120.221 11.26C121.081 10.7 121.561 10.48 122.441 10.48C123.921 10.48 124.921 11.44 124.921 13.16C124.921 14.92 123.861 15.9 122.301 15.9C120.941 15.9 119.881 15.22 119.061 14.4L117.681 16.26C118.801 17.36 120.361 18.28 122.701 18.28ZM132.838 2.22V19.56H135.318V4.64H144.218V19.54H146.798V2.22H132.838ZM134.538 8.94V11.32H145.298V8.94H134.538ZM134.518 15.84V18.26H145.298V15.84H134.518Z" fill="#1A1A1C"/>
<path d="M0 11.5H149.778V12.5H0V11.5Z" fill="#1A1A1C"/>
</svg>
