<svg width="367" height="224" viewBox="0 0 367 224" fill="none" xmlns="http://www.w3.org/2000/svg">
<path d="M1.024 8.936V10.152H14.992V8.936H1.024ZM4.224 16.072V17.288H11.68V16.072H4.224ZM7.344 5.576V20.28H8.608V5.576H7.344ZM6.976 9.336C5.696 12.408 3.152 15.384 0.48 16.776C0.752 17.016 1.152 17.464 1.344 17.768C4.112 16.152 6.624 13.096 8.048 9.704L6.976 9.336ZM9.008 9.384L7.936 9.752C9.344 13.112 11.808 16.168 14.64 17.736C14.832 17.4 15.248 16.92 15.552 16.664C12.784 15.336 10.272 12.424 9.008 9.384ZM28.224 8.888C26.432 14.376 22.96 17.512 17.248 19.144C17.504 19.432 17.888 20.008 18.016 20.312C23.84 18.424 27.472 15.128 29.488 9.256L28.224 8.888ZM20.96 8.968L19.776 9.336C21.744 14.936 25.264 18.744 31.2 20.296C31.392 19.944 31.776 19.4 32.064 19.112C26.288 17.768 22.688 14.088 20.96 8.968ZM17.44 8.28V9.464H31.904V8.28H17.44ZM24 5.56V9H25.232V5.56H24ZM42.038 8.088L40.71 8.056C40.55 9.72 40.214 11.528 39.75 13.048C38.934 15.752 38.07 16.84 37.318 16.84C36.598 16.84 35.686 15.944 35.686 13.928C35.686 11.576 37.878 8.68 41.398 8.68C44.47 8.68 46.246 10.792 46.246 13.352C46.246 16.12 44.23 17.656 42.182 18.12C41.798 18.2 41.318 18.264 40.806 18.312L41.542 19.496C45.35 19 47.558 16.76 47.558 13.416C47.558 10.168 45.174 7.528 41.43 7.528C37.51 7.528 34.422 10.552 34.422 14.024C34.422 16.68 35.846 18.312 37.286 18.312C38.758 18.312 40.038 16.616 41.014 13.336C41.51 11.624 41.83 9.752 42.038 8.088ZM50.8779 8.424V16.04H52.0779V9.608H62.5259V15.96H63.7739V8.424H50.8779ZM51.5179 13.864V15.032H63.2459V13.864H51.5179ZM56.6699 5.56V20.264H57.9179V5.56H56.6699ZM74.7399 8.088L73.4119 8.056C73.2519 9.72 72.9159 11.528 72.4519 13.048C71.6359 15.752 70.7719 16.84 70.0199 16.84C69.2999 16.84 68.3879 15.944 68.3879 13.928C68.3879 11.576 70.5799 8.68 74.0999 8.68C77.1719 8.68 78.9479 10.792 78.9479 13.352C78.9479 16.12 76.9319 17.656 74.8839 18.12C74.4999 18.2 74.0199 18.264 73.5079 18.312L74.2439 19.496C78.0519 19 80.2599 16.76 80.2599 13.416C80.2599 10.168 77.8759 7.528 74.1319 7.528C70.2119 7.528 67.1239 10.552 67.1239 14.024C67.1239 16.68 68.5479 18.312 69.9879 18.312C71.4599 18.312 72.7399 16.616 73.7159 13.336C74.2119 11.624 74.5319 9.752 74.7399 8.088ZM82.7477 12.104V13.416H97.3877V12.104H82.7477ZM102.06 10.456V11.608H111.388V10.456H102.06ZM106.668 14.28V15.416H112.06V14.28H106.668ZM106.028 11.048V18.984L107.276 19.144V11.048H106.028ZM102.236 12.984C101.884 15.88 101.02 18.168 99.2277 19.56C99.5157 19.736 100.028 20.152 100.22 20.36C102.028 18.792 103.036 16.344 103.484 13.112L102.236 12.984ZM102.988 15.048L102.012 15.416C103.388 19.32 105.996 20.072 109.804 20.072H113.564C113.612 19.72 113.82 19.144 114.012 18.856C113.228 18.872 110.46 18.872 109.868 18.872C106.62 18.872 104.124 18.312 102.988 15.048ZM106.012 5.576V8.168H107.276V5.576H106.012ZM99.9957 7.4V10.888H101.18V8.552H112.14V10.888H113.372V7.4H99.9957ZM117.884 18.728V19.72H128.78V18.728H117.884ZM117.244 9.752V20.296H118.444V10.744H128.364V20.184H129.596V9.752H117.244ZM122.716 11.16V14.92H123.82V11.16H122.716ZM119.548 12.152V13.064H127.116V12.152H119.548ZM121.308 15.176H125.356V16.888H121.308V15.176ZM120.3 14.344V17.752H126.412V14.344H120.3ZM117.932 6.984V7.928H123.1V6.984H117.932ZM124.14 6.984V7.928H130.604V6.984H124.14ZM118.268 5.496C117.756 6.904 116.892 8.312 115.9 9.24C116.188 9.4 116.668 9.72 116.892 9.896C117.836 8.888 118.796 7.352 119.388 5.784L118.268 5.496ZM124.572 5.496C124.044 6.92 123.068 8.248 121.948 9.128C122.236 9.272 122.716 9.624 122.94 9.816C124.028 8.856 125.1 7.368 125.708 5.784L124.572 5.496ZM118.828 7.688C119.212 8.328 119.628 9.176 119.772 9.72L120.828 9.272C120.652 8.744 120.204 7.912 119.804 7.32L118.828 7.688ZM125.516 7.688C126.044 8.328 126.604 9.192 126.828 9.768L127.9 9.336C127.66 8.76 127.068 7.912 126.556 7.304L125.516 7.688ZM132.94 6.456V7.56H139.836V6.456H132.94ZM140.972 11.016V12.168H147.404V11.016H140.972ZM144.444 11.768V20.296H145.628V11.768H144.444ZM140.508 7.144V11.416C140.508 13.864 140.284 17.08 138.06 19.448C138.348 19.592 138.78 19.992 138.956 20.248C141.356 17.672 141.692 14.008 141.692 11.416V7.752C141.916 7.72 141.996 7.656 142.012 7.544L140.508 7.144ZM133.532 9.224V13.544C133.532 15.384 133.42 17.848 132.3 19.576C132.556 19.72 133.052 20.088 133.244 20.312C134.476 18.424 134.668 15.592 134.668 13.544V9.224H133.532ZM146.028 5.752C144.828 6.44 142.668 7.128 140.764 7.576C140.924 7.848 141.116 8.28 141.18 8.552C143.18 8.088 145.5 7.432 147.084 6.664L146.028 5.752ZM134.188 9.224V10.328H138.268V13.128H134.188V14.216H139.436V9.224H134.188ZM155.727 8.2L155.743 9.496C157.487 9.688 160.591 9.688 162.303 9.496V8.2C160.719 8.44 157.471 8.504 155.727 8.2ZM156.351 14.728L155.199 14.616C155.023 15.384 154.943 15.96 154.943 16.488C154.943 17.992 156.143 18.888 158.815 18.888C160.479 18.888 161.823 18.76 162.815 18.552L162.783 17.208C161.503 17.512 160.255 17.64 158.831 17.64C156.639 17.64 156.127 16.92 156.127 16.184C156.127 15.752 156.207 15.304 156.351 14.728ZM152.687 6.968L151.263 6.856C151.247 7.208 151.199 7.608 151.151 7.976C150.959 9.304 150.431 12.04 150.431 14.392C150.431 16.568 150.703 18.408 151.023 19.544L152.159 19.464C152.143 19.288 152.127 19.064 152.111 18.904C152.111 18.712 152.143 18.408 152.191 18.184C152.335 17.416 152.927 15.736 153.327 14.6L152.655 14.072C152.383 14.728 152.015 15.688 151.743 16.408C151.647 15.624 151.599 14.952 151.599 14.184C151.599 12.376 152.095 9.528 152.399 8.04C152.463 7.752 152.591 7.24 152.687 6.968ZM172.09 6.424C173.418 7.128 175.018 8.248 175.754 9.048L176.602 8.04C175.818 7.256 174.186 6.2 172.874 5.528L172.09 6.424ZM170.634 13.608V14.76H179.098V13.608H170.634ZM169.498 18.648V19.8H180.026V18.648H169.498ZM170.042 9.016V10.168H179.69V9.016H170.042ZM174.154 9.432V19.176H175.386V9.432H174.154ZM166.186 6.568C167.258 7.032 168.554 7.784 169.194 8.376L169.898 7.368C169.242 6.808 167.898 6.088 166.842 5.688L166.186 6.568ZM165.258 10.936C166.346 11.336 167.706 12.008 168.378 12.536L169.018 11.512C168.33 11 166.954 10.376 165.882 10.024L165.258 10.936ZM165.85 19.256L166.858 20.072C167.802 18.584 168.922 16.584 169.77 14.888L168.906 14.104C167.978 15.928 166.714 18.04 165.85 19.256ZM182.106 11.528V12.552H188.81V11.528H182.106ZM185.05 6.808V20.296H186.09V6.52L185.05 6.808ZM187.93 5.704C186.586 6.104 184.154 6.44 182.106 6.6C182.234 6.856 182.378 7.24 182.426 7.496C184.538 7.368 187.066 7.064 188.746 6.584L187.93 5.704ZM182.634 8.28C182.986 9.16 183.306 10.344 183.418 11.096L184.314 10.776C184.218 10.024 183.866 8.872 183.514 7.992L182.634 8.28ZM189.498 6.264V11.368C189.498 13.88 189.306 17.224 187.37 19.576C187.626 19.72 188.09 20.088 188.282 20.296C190.314 17.816 190.602 14.056 190.602 11.368V6.264H189.498ZM184.89 11.944C184.282 13.8 182.938 16.2 181.786 17.416C181.994 17.688 182.282 18.152 182.394 18.472C183.594 17.064 184.954 14.392 185.658 12.28L184.89 11.944ZM186.01 13.24L185.418 13.784C185.994 14.296 187.418 15.752 187.93 16.376L188.57 15.528C188.17 15.144 186.506 13.608 186.01 13.24ZM187.658 7.704C187.434 8.616 187.002 9.96 186.65 10.776L187.45 11.096C187.834 10.328 188.282 9.096 188.682 8.088L187.658 7.704ZM192.826 12.152L191.85 12.328C192.49 15.88 193.738 18.824 195.994 20.312C196.154 19.992 196.522 19.56 196.778 19.336C194.65 18.088 193.418 15.336 192.826 12.152ZM190.026 6.264V7.336H194.778V11.832H190.026V12.904H195.93V6.264H190.026ZM205.102 6.36L203.79 6.248C203.742 7 203.518 7.96 203.166 8.84C202.622 10.2 201.55 12.056 199.246 14.264L200.35 15.08C200.878 14.424 201.326 13.848 201.79 13.4C202.526 12.744 203.534 12.232 204.558 12.232C205.39 12.232 206.03 12.664 206.046 13.592C206.062 14.424 206.046 16.072 205.982 16.92H207.214C207.198 15.928 207.166 14.088 207.166 13.256C207.166 11.96 206.206 11.224 204.974 11.224C204.27 11.224 203.358 11.448 202.734 11.816C203.374 10.984 203.966 9.912 204.366 8.936C204.782 7.864 204.958 6.984 205.102 6.36ZM199.614 8.088V9.288C200.51 9.352 201.566 9.384 202.254 9.384C204.286 9.384 207.262 9.24 209.502 8.904V7.72C207.246 8.12 204.478 8.248 202.318 8.248C201.582 8.248 200.478 8.2 199.614 8.088ZM211.838 11.944L211.326 10.76C210.878 10.984 210.478 11.16 209.998 11.384C208.942 11.88 207.646 12.376 206.126 13.16C204.222 14.136 202.238 15.336 202.238 17.288C202.238 19.224 204.078 19.72 206.35 19.72C207.742 19.72 209.518 19.592 210.734 19.448L210.782 18.152C209.374 18.408 207.646 18.552 206.398 18.552C204.75 18.552 203.518 18.36 203.518 17.112C203.518 16.008 204.638 15.144 206.222 14.312C207.774 13.512 209.294 12.904 210.43 12.456C210.862 12.296 211.438 12.072 211.838 11.944ZM218.456 7.336V8.456H228.728V7.336H218.456ZM220.04 11.032H227.032V13.432H220.04V11.032ZM218.936 10.008V14.456H228.2V10.008H218.936ZM219.928 14.776L218.936 15.112C220.632 18.04 223.912 19.704 228.152 20.312C228.312 19.976 228.616 19.496 228.872 19.24C224.712 18.776 221.432 17.288 219.928 14.776ZM222.904 5.624V12.696C222.904 15.4 222.632 18.136 217.88 19.336C218.12 19.592 218.456 20.072 218.6 20.344C223.56 18.872 224.088 15.8 224.088 12.712V5.624H222.904ZM217.768 5.528C216.84 7.96 215.272 10.344 213.656 11.864C213.88 12.152 214.216 12.776 214.328 13.048C216.104 11.272 217.816 8.584 218.904 5.88L217.768 5.528ZM216.088 9.72V20.36H217.24V8.6L217.224 8.584L216.088 9.72ZM233.096 6.696V7.848H243.448V6.696H233.096ZM233.096 10.424V11.56H243.432V10.424H233.096ZM233.016 14.248V15.384H243.464V14.248H233.016ZM232.424 6.696V12.488C232.424 14.744 232.248 17.592 230.488 19.576C230.744 19.736 231.224 20.136 231.416 20.376C233.32 18.248 233.608 14.936 233.608 12.504V6.696H232.424ZM242.968 6.696V18.648C242.968 18.952 242.856 19.048 242.552 19.064C242.248 19.064 241.16 19.08 240.024 19.032C240.2 19.352 240.392 19.88 240.44 20.2C241.96 20.216 242.888 20.2 243.432 20.008C243.96 19.8 244.152 19.432 244.152 18.648V6.696H242.968ZM237.448 7.128V20.136H238.664V7.128H237.448ZM255.788 6.328H254.316C254.348 6.472 254.396 6.92 254.428 7.352C254.476 8.232 254.492 11.416 254.492 12.12L255.708 12.744C255.692 11.464 255.66 8.376 255.708 7.336C255.708 7.144 255.756 6.52 255.788 6.328ZM247.276 8.568L247.308 9.8C249.724 9.624 253.148 9.512 255.9 9.512C258.252 9.512 259.692 9.544 260.588 9.592L260.604 8.408C259.852 8.392 257.868 8.392 255.916 8.392C253.452 8.392 249.452 8.536 247.276 8.568ZM255.676 13.208L254.796 12.76C255.052 14.472 254.412 15.304 253.42 15.304C252.54 15.304 251.788 14.728 251.788 13.72C251.788 12.68 252.572 12.024 253.42 12.024C254.284 12.024 254.988 12.632 254.988 14.072C254.988 16.712 253.292 18.136 250.38 18.824L251.452 19.864C255.164 18.76 256.22 16.36 256.22 14.184C256.22 12.344 255.276 10.968 253.42 10.968C251.9 10.968 250.588 12.152 250.588 13.736C250.588 15.48 251.884 16.424 253.228 16.424C254.684 16.424 255.676 15.352 255.676 13.208ZM264.798 7.224L264.83 8.536C265.182 8.488 265.534 8.472 265.902 8.44C266.734 8.392 269.934 8.264 270.782 8.216C269.982 8.936 267.966 10.616 267.07 11.352C266.158 12.136 264.094 13.864 262.766 14.952L263.694 15.88C265.71 13.816 267.15 12.696 269.806 12.696C271.902 12.696 273.406 13.864 273.406 15.448C273.406 17.448 271.694 18.568 268.974 18.568C267.71 18.568 266.83 18.104 266.83 17.32C266.83 16.76 267.39 16.312 268.126 16.312C269.406 16.312 270.19 17.288 270.286 18.648L271.438 18.456C271.326 16.84 270.254 15.336 268.126 15.336C266.654 15.336 265.662 16.328 265.662 17.416C265.662 18.76 266.99 19.704 269.166 19.704C272.558 19.704 274.686 18.024 274.686 15.448C274.686 13.288 272.782 11.704 270.126 11.704C269.406 11.704 268.638 11.784 267.902 12.024C269.15 11 271.326 9.128 272.11 8.52C272.414 8.28 272.734 8.072 273.022 7.88L272.286 6.936C272.11 7 271.886 7.032 271.406 7.08C270.558 7.16 266.766 7.272 265.918 7.272C265.598 7.272 265.15 7.256 264.798 7.224ZM282.004 12.136V13.192H292.084V12.136H282.004ZM283.812 14.312V15.288H290.788V14.312H283.812ZM284.596 12.536C283.86 14.12 282.532 15.512 281.06 16.392C281.3 16.568 281.716 16.936 281.876 17.144C283.364 16.152 284.82 14.584 285.636 12.808L284.596 12.536ZM290.564 14.312V14.488C290.34 17.624 290.084 18.824 289.78 19.128C289.652 19.288 289.524 19.304 289.284 19.304C289.06 19.304 288.532 19.288 287.924 19.24C288.084 19.496 288.196 19.928 288.196 20.232C288.836 20.264 289.444 20.248 289.796 20.232C290.18 20.2 290.468 20.104 290.724 19.832C291.156 19.368 291.412 18.104 291.652 14.792C291.684 14.616 291.7 14.312 291.7 14.312H290.564ZM284.676 9.064H289.828V10.344H284.676V9.064ZM284.676 6.936H289.828V8.2H284.676V6.936ZM283.588 6.04V11.24H290.948V6.04H283.588ZM277.556 9.032V10.184H282.308V9.032H277.556ZM279.428 5.688V15.528H280.564V5.688H279.428ZM277.252 16.168L277.716 17.368C279.076 16.712 280.82 15.848 282.452 15.016L282.196 13.96C280.372 14.808 278.484 15.656 277.252 16.168ZM288.516 14.488C287.94 16.472 286.596 18.648 285.092 19.656C285.396 19.832 285.764 20.104 285.972 20.344C287.428 19.24 288.756 16.968 289.364 14.936L288.516 14.488ZM286.02 14.536C285.236 16.216 283.556 18.056 281.972 18.92C282.26 19.096 282.596 19.4 282.788 19.656C284.34 18.664 286.02 16.76 286.836 15.016L286.02 14.536ZM297.332 10.792V11.864H305.412V10.792H297.332ZM297.044 18.568V19.64H305.62V18.568H297.044ZM296.5 13.88V20.296H297.668V14.968H305.076V20.296H306.292V13.88H296.5ZM301.316 6.792C302.82 8.84 305.636 11.096 308.148 12.408C308.356 12.056 308.644 11.64 308.948 11.352C306.388 10.216 303.588 7.992 301.86 5.608H300.644C299.38 7.672 296.708 10.12 293.892 11.544C294.164 11.8 294.484 12.232 294.644 12.504C297.38 11.016 300.004 8.744 301.316 6.792ZM316.372 9.544L316.388 10.76C317.316 10.824 318.148 10.856 319.076 10.856C320.948 10.856 322.9 10.728 324.596 10.44V9.208C322.98 9.544 321.012 9.688 319.092 9.688C318.148 9.688 317.284 9.64 316.372 9.544ZM321.972 6.68H320.532C320.58 6.968 320.596 7.384 320.596 7.672C320.596 8.232 320.612 9.24 320.612 10.344C320.612 12.456 320.82 15.448 320.82 16.6C320.82 17.672 320.436 18.344 319.092 18.344C317.924 18.344 317.14 17.912 317.14 17.08C317.14 16.312 317.972 15.784 319.172 15.784C321.204 15.784 322.82 16.872 324.5 18.44L325.188 17.384C323.844 16.168 321.972 14.808 319.284 14.808C317.172 14.808 315.988 15.864 315.988 17.208C315.988 18.648 317.156 19.512 319.3 19.512C321.46 19.512 322.068 18.232 322.068 16.92C322.068 15.272 321.828 12.776 321.828 10.312C321.828 9.368 321.844 8.232 321.876 7.64C321.892 7.336 321.924 7 321.972 6.68ZM314.084 6.792L312.676 6.664C312.66 7.016 312.628 7.432 312.564 7.816C312.372 9.128 311.828 12.184 311.828 14.536C311.828 16.696 312.132 18.456 312.436 19.608L313.572 19.512C313.556 19.352 313.54 19.112 313.524 18.952C313.508 18.776 313.54 18.456 313.588 18.232C313.748 17.448 314.34 15.816 314.74 14.696L314.084 14.184C313.812 14.84 313.412 15.816 313.156 16.552C313.044 15.768 312.996 15.096 312.996 14.312C312.996 12.52 313.476 9.352 313.796 7.864C313.86 7.576 313.988 7.048 314.084 6.792ZM330.871 19.896L331.959 18.968C330.951 17.8 329.511 16.36 328.359 15.432L327.319 16.344C328.455 17.272 329.831 18.632 330.871 19.896ZM2.619 31.784V33.08C3.883 33.192 5.259 33.256 6.859 33.256C8.331 33.256 10.075 33.144 11.163 33.064V31.752C10.011 31.88 8.395 31.976 6.859 31.976C5.243 31.976 3.771 31.912 2.619 31.784ZM3.259 38.232L1.963 38.104C1.819 38.744 1.643 39.496 1.643 40.328C1.643 42.344 3.531 43.4 6.779 43.4C9.051 43.4 11.083 43.16 12.235 42.856L12.219 41.48C11.003 41.864 8.939 42.104 6.747 42.104C4.187 42.104 2.939 41.272 2.939 40.04C2.939 39.448 3.067 38.856 3.259 38.232ZM23.2418 32.088L21.9138 32.056C21.7538 33.72 21.4178 35.528 20.9538 37.048C20.1378 39.752 19.2738 40.84 18.5218 40.84C17.8018 40.84 16.8898 39.944 16.8898 37.928C16.8898 35.576 19.0818 32.68 22.6018 32.68C25.6738 32.68 27.4498 34.792 27.4498 37.352C27.4498 40.12 25.4338 41.656 23.3858 42.12C23.0018 42.2 22.5218 42.264 22.0098 42.312L22.7458 43.496C26.5538 43 28.7618 40.76 28.7618 37.416C28.7618 34.168 26.3778 31.528 22.6338 31.528C18.7138 31.528 15.6258 34.552 15.6258 38.024C15.6258 40.68 17.0498 42.312 18.4898 42.312C19.9618 42.312 21.2418 40.616 22.2178 37.336C22.7138 35.624 23.0338 33.752 23.2418 32.088ZM38.2954 30.44H36.7754C36.8394 30.744 36.8874 31.448 36.9034 32.04C36.9034 32.728 36.9194 34.04 36.9194 34.968C36.9194 36.6 37.1114 39.704 37.1114 40.888C37.1114 41.992 36.5354 42.552 35.3674 42.552C33.8154 42.552 32.9194 42.056 32.9194 41.176C32.9194 40.28 33.8634 39.72 35.5274 39.72C38.3274 39.72 40.9514 41.288 42.5514 42.888L43.3194 41.688C41.6874 40.2 38.8394 38.6 35.6714 38.6C32.9034 38.6 31.6554 39.768 31.6554 41.224C31.6554 43.048 33.2714 43.736 35.4954 43.736C37.6234 43.736 38.4234 42.616 38.4234 41.32C38.4234 39.912 38.1674 36.712 38.1674 34.968C38.1674 33.864 38.1674 32.76 38.1674 32.04C38.1834 31.56 38.2314 30.792 38.2954 30.44ZM37.4634 33.672V34.856C38.6154 34.856 41.2234 34.744 42.9514 34.584L42.9034 33.384C41.1754 33.592 38.5674 33.672 37.4634 33.672ZM55.4552 37.688C55.4552 40.552 52.7192 42.072 48.8312 42.568L49.5672 43.784C53.7112 43.144 56.8152 41.208 56.8152 37.736C56.8152 35.448 55.1352 34.184 52.8632 34.184C51.0072 34.184 49.1992 34.696 48.0792 34.952C47.5832 35.048 47.0552 35.16 46.6072 35.192L47.0072 36.664C47.3912 36.504 47.8712 36.328 48.3672 36.184C49.2952 35.912 50.8792 35.384 52.7192 35.384C54.3672 35.384 55.4552 36.328 55.4552 37.688ZM48.7352 30.472L48.5432 31.688C50.3512 32.008 53.5672 32.328 55.3432 32.456L55.5352 31.224C53.9832 31.208 50.5112 30.872 48.7352 30.472ZM87.0731 32.2L87.0891 33.496C88.8331 33.688 91.9371 33.688 93.6491 33.496V32.2C92.0651 32.44 88.8171 32.504 87.0731 32.2ZM87.6971 38.728L86.5451 38.616C86.3691 39.384 86.2891 39.96 86.2891 40.488C86.2891 41.992 87.4891 42.888 90.1611 42.888C91.8251 42.888 93.1691 42.76 94.1611 42.552L94.1291 41.208C92.8491 41.512 91.6011 41.64 90.1771 41.64C87.9851 41.64 87.4731 40.92 87.4731 40.184C87.4731 39.752 87.5531 39.304 87.6971 38.728ZM84.0331 30.968L82.6091 30.856C82.5931 31.208 82.5451 31.608 82.4971 31.976C82.3051 33.304 81.7771 36.04 81.7771 38.392C81.7771 40.568 82.0491 42.408 82.3691 43.544L83.5051 43.464C83.4891 43.288 83.4731 43.064 83.4571 42.904C83.4571 42.712 83.4891 42.408 83.5371 42.184C83.6811 41.416 84.2731 39.736 84.6731 38.6L84.0011 38.072C83.7291 38.728 83.3611 39.688 83.0891 40.408C82.9931 39.624 82.9451 38.952 82.9451 38.184C82.9451 36.376 83.4411 33.528 83.7451 32.04C83.8091 31.752 83.9371 31.24 84.0331 30.968ZM97.5629 32.92L97.6589 34.12C98.2509 34.136 98.9389 34.152 99.5309 34.152C101.483 34.168 103.579 33.816 105.147 33.384L105.115 32.2C103.275 32.808 101.259 33.016 99.5309 33.016C98.8429 33.016 98.1549 32.984 97.5629 32.92ZM103.243 30.312L101.835 30.168C101.787 31.288 101.435 32.696 101.083 33.704C100.427 35.592 98.9389 38.44 97.5149 40.104L98.7469 40.744C100.075 38.952 101.547 36.04 102.315 33.736C102.699 32.6 103.035 31.096 103.243 30.312ZM107.019 35.256H105.755C105.819 37.016 105.995 39.88 105.995 41.096C105.995 41.96 105.547 42.664 104.219 42.664C102.971 42.664 102.347 42.152 102.347 41.416C102.347 40.68 103.147 40.136 104.331 40.136C106.683 40.136 108.523 41.56 109.755 42.68L110.427 41.592C109.115 40.456 107.051 39.112 104.363 39.112C102.571 39.112 101.179 40.04 101.179 41.512C101.179 43.112 102.603 43.816 104.363 43.816C106.347 43.816 107.163 42.776 107.163 41.496C107.163 40.44 107.019 38.008 106.987 36.968C106.971 36.392 106.971 35.912 107.019 35.256ZM110.219 35.672L110.939 34.616C110.171 34.04 108.363 33 107.195 32.504L106.555 33.464C107.611 33.96 109.355 34.936 110.219 35.672ZM116.794 30.376L115.402 30.328C115.37 30.776 115.338 31.224 115.274 31.704C115.082 33.016 114.778 35.368 114.778 36.888C114.778 37.928 114.858 38.824 114.938 39.432L116.186 39.336C116.074 38.536 116.074 37.976 116.154 37.368C116.346 35.272 118.202 32.36 120.202 32.36C121.882 32.36 122.73 34.184 122.73 36.712C122.73 40.728 120.026 42.136 116.538 42.664L117.306 43.816C121.258 43.096 124.058 41.128 124.058 36.696C124.058 33.336 122.522 31.192 120.41 31.192C118.378 31.192 116.714 33.192 116.058 34.84C116.154 33.72 116.458 31.56 116.794 30.376ZM135.006 30.312H133.646C133.694 30.52 133.71 31 133.71 31.272C133.71 32.392 133.71 34.072 133.71 35.512C133.71 36.92 133.87 39.992 133.87 41.224C133.87 42.344 133.086 42.616 132.158 42.616C130.574 42.616 129.95 42.072 129.95 41.32C129.95 40.584 130.766 39.992 132.302 39.992C135.15 39.992 137.518 41.592 138.958 42.92L139.694 41.784C138.462 40.776 135.822 38.952 132.446 38.952C130.142 38.952 128.75 39.928 128.75 41.384C128.75 42.936 130.014 43.752 132.318 43.752C134.398 43.752 135.134 42.616 135.134 41.496C135.134 40.424 134.894 37.624 134.894 35.512C134.894 34.168 134.894 32.024 134.926 31.384C134.942 30.904 134.974 30.584 135.006 30.312ZM128.894 32.04L128.91 33.224C129.918 33.352 131.886 33.496 132.99 33.496C135.134 33.496 137.422 33.288 139.23 33.08V31.912C137.15 32.248 135.006 32.392 132.974 32.392C131.918 32.392 129.918 32.232 128.894 32.04ZM128.814 35.448L128.83 36.648C129.966 36.776 131.726 36.856 132.83 36.856C135.23 36.856 137.182 36.744 139.358 36.472V35.272C137.278 35.576 135.15 35.736 132.83 35.736C131.774 35.736 129.95 35.624 128.814 35.448ZM150.869 30.328H149.397C149.429 30.472 149.477 30.92 149.509 31.352C149.557 32.232 149.573 35.416 149.573 36.12L150.789 36.744C150.773 35.464 150.741 32.376 150.789 31.336C150.789 31.144 150.837 30.52 150.869 30.328ZM142.357 32.568L142.389 33.8C144.805 33.624 148.229 33.512 150.981 33.512C153.333 33.512 154.773 33.544 155.669 33.592L155.685 32.408C154.933 32.392 152.949 32.392 150.997 32.392C148.533 32.392 144.533 32.536 142.357 32.568ZM150.757 37.208L149.877 36.76C150.133 38.472 149.493 39.304 148.501 39.304C147.621 39.304 146.869 38.728 146.869 37.72C146.869 36.68 147.653 36.024 148.501 36.024C149.365 36.024 150.069 36.632 150.069 38.072C150.069 40.712 148.373 42.136 145.461 42.824L146.533 43.864C150.245 42.76 151.301 40.36 151.301 38.184C151.301 36.344 150.357 34.968 148.501 34.968C146.981 34.968 145.669 36.152 145.669 37.736C145.669 39.48 146.965 40.424 148.309 40.424C149.765 40.424 150.757 39.352 150.757 37.208ZM158.503 39.112C157.159 39.112 156.055 40.2 156.055 41.544C156.055 42.888 157.159 43.976 158.503 43.976C159.847 43.976 160.935 42.888 160.935 41.544C160.935 40.2 159.847 39.112 158.503 39.112ZM158.503 43.16C157.607 43.16 156.871 42.44 156.871 41.544C156.871 40.648 157.607 39.928 158.503 39.928C159.399 39.928 160.119 40.648 160.119 41.544C160.119 42.44 159.399 43.16 158.503 43.16Z" fill="#1A1A1C"/>
<path d="M66 33.92C65.508 33.92 65.1 33.512 65.1 33.02C65.1 32.528 65.508 32.12 66 32.12C66.492 32.12 66.9 32.528 66.9 33.02C66.9 33.512 66.492 33.92 66 33.92ZM66 36.092L69.96 32.132L70.308 32.48L66.348 36.44L70.308 40.4L69.96 40.748L66 36.788L62.028 40.76L61.68 40.412L65.652 36.44L61.692 32.48L62.04 32.132L66 36.092ZM63.48 36.44C63.48 36.932 63.072 37.34 62.58 37.34C62.088 37.34 61.68 36.932 61.68 36.44C61.68 35.948 62.088 35.54 62.58 35.54C63.072 35.54 63.48 35.948 63.48 36.44ZM68.52 36.44C68.52 35.948 68.928 35.54 69.42 35.54C69.912 35.54 70.32 35.948 70.32 36.44C70.32 36.932 69.912 37.34 69.42 37.34C68.928 37.34 68.52 36.932 68.52 36.44ZM66 38.96C66.492 38.96 66.9 39.368 66.9 39.86C66.9 40.352 66.492 40.76 66 40.76C65.508 40.76 65.1 40.352 65.1 39.86C65.1 39.368 65.508 38.96 66 38.96ZM73.056 41V40.088H75.012V33.536H73.44V32.828C74.232 32.696 74.796 32.492 75.264 32.204H76.104V40.088H77.88V41H73.056Z" fill="#1A1A1C"/>
<path d="M7 85.74C7.574 85.74 8.05 85.264 8.05 84.69C8.05 84.116 7.574 83.64 7 83.64C6.426 83.64 5.95 84.116 5.95 84.69C5.95 85.264 6.426 85.74 7 85.74ZM7 88.274L2.38 83.654L1.974 84.06L6.594 88.68L1.96 93.314L2.366 93.72L7 89.086L11.62 93.706L12.026 93.3L7.406 88.68L12.026 84.06L11.62 83.654L7 88.274ZM4.06 88.68C4.06 88.106 3.584 87.63 3.01 87.63C2.436 87.63 1.96 88.106 1.96 88.68C1.96 89.254 2.436 89.73 3.01 89.73C3.584 89.73 4.06 89.254 4.06 88.68ZM9.94 88.68C9.94 89.254 10.416 89.73 10.99 89.73C11.564 89.73 12.04 89.254 12.04 88.68C12.04 88.106 11.564 87.63 10.99 87.63C10.416 87.63 9.94 88.106 9.94 88.68ZM7 91.62C6.426 91.62 5.95 92.096 5.95 92.67C5.95 93.244 6.426 93.72 7 93.72C7.574 93.72 8.05 93.244 8.05 92.67C8.05 92.096 7.574 91.62 7 91.62Z" fill="#1A1A1C"/>
<path d="M29.278 92.196C30.608 92.196 31.602 91.664 32.414 90.712L31.714 89.9C31.056 90.628 30.3 91.048 29.334 91.048C27.374 91.048 26.142 89.438 26.142 86.848C26.142 84.286 27.43 82.69 29.376 82.69C30.244 82.69 30.93 83.082 31.462 83.656L32.176 82.816C31.574 82.158 30.608 81.556 29.362 81.556C26.758 81.556 24.812 83.572 24.812 86.876C24.812 90.208 26.716 92.196 29.278 92.196ZM36.5257 92.196C37.4637 92.196 38.3177 91.706 39.0317 91.104H39.0877L39.1997 92H40.2497V87.338C40.2497 85.448 39.4657 84.216 37.6037 84.216C36.3857 84.216 35.3217 84.748 34.6217 85.196L35.1257 86.092C35.7137 85.686 36.5117 85.266 37.4077 85.266C38.6537 85.266 38.9617 86.204 38.9617 87.184C35.7277 87.548 34.2997 88.374 34.2997 90.026C34.2997 91.398 35.2517 92.196 36.5257 92.196ZM36.8757 91.16C36.1337 91.16 35.5457 90.81 35.5457 89.942C35.5457 88.962 36.3997 88.332 38.9617 88.038V90.152C38.2337 90.81 37.6177 91.16 36.8757 91.16ZM43.2244 95.206H44.4984V92.644L44.4704 91.314C45.1564 91.874 45.8704 92.196 46.5564 92.196C48.3064 92.196 49.8604 90.684 49.8604 88.094C49.8604 85.742 48.8104 84.216 46.8364 84.216C45.9544 84.216 45.1144 84.706 44.4284 85.28H44.3864L44.2604 84.398H43.2244V95.206ZM46.3604 91.118C45.8564 91.118 45.1844 90.908 44.4984 90.334V86.33C45.2404 85.644 45.8844 85.28 46.5284 85.28C47.9704 85.28 48.5444 86.414 48.5444 88.108C48.5444 89.984 47.6064 91.118 46.3604 91.118ZM54.5453 92.196C55.0213 92.196 55.5253 92.056 55.9453 91.902L55.6933 90.95C55.4553 91.048 55.1053 91.16 54.8393 91.16C53.9573 91.16 53.6633 90.614 53.6633 89.69V85.434H55.7213V84.398H53.6633V82.256H52.5853L52.4453 84.398L51.2553 84.482V85.434H52.3893V89.662C52.3893 91.174 52.9213 92.196 54.5453 92.196ZM58.0026 92H59.2766V84.398H58.0026V92ZM58.6466 82.83C59.1366 82.83 59.5006 82.508 59.5006 81.976C59.5006 81.486 59.1366 81.164 58.6466 81.164C58.1426 81.164 57.7926 81.486 57.7926 81.976C57.7926 82.508 58.1426 82.83 58.6466 82.83ZM65.3721 92.196C67.2341 92.196 68.8861 90.726 68.8861 88.22C68.8861 85.672 67.2341 84.216 65.3721 84.216C63.4961 84.216 61.8441 85.672 61.8441 88.22C61.8441 90.726 63.4961 92.196 65.3721 92.196ZM65.3721 91.132C64.0421 91.132 63.1601 89.956 63.1601 88.22C63.1601 86.456 64.0421 85.28 65.3721 85.28C66.6881 85.28 67.5701 86.456 67.5701 88.22C67.5701 89.956 66.6881 91.132 65.3721 91.132ZM71.4683 92H72.7423V86.484C73.4983 85.728 74.0443 85.322 74.8143 85.322C75.8223 85.322 76.2563 85.924 76.2563 87.352V92H77.5443V87.184C77.5443 85.252 76.8163 84.216 75.2203 84.216C74.1703 84.216 73.3863 84.79 72.6723 85.504H72.6303L72.5043 84.398H71.4683V92ZM83.1301 94.506H84.0541L88.2401 80.884H87.3301L83.1301 94.506ZM93.9414 92H99.5694V90.936H97.4974V82.032H96.5174C95.9714 82.354 95.3134 82.592 94.3894 82.76V83.586H96.2234V90.936H93.9414V92ZM101.651 92H108.091V90.908H105.193C104.675 90.908 104.045 90.95 103.513 91.006C105.879 88.514 107.601 86.652 107.601 84.776C107.601 82.998 106.453 81.85 104.619 81.85C103.317 81.85 102.421 82.438 101.581 83.348L102.323 84.076C102.897 83.404 103.625 82.872 104.465 82.872C105.739 82.872 106.341 83.684 106.341 84.818C106.341 86.456 104.661 88.262 101.651 91.258V92ZM110.649 95.206H111.923V92.644L111.895 91.314C112.581 91.874 113.295 92.196 113.981 92.196C115.731 92.196 117.285 90.684 117.285 88.094C117.285 85.742 116.235 84.216 114.261 84.216C113.379 84.216 112.539 84.706 111.853 85.28H111.811L111.685 84.398H110.649V95.206ZM113.785 91.118C113.281 91.118 112.609 90.908 111.923 90.334V86.33C112.665 85.644 113.309 85.28 113.953 85.28C115.395 85.28 115.969 86.414 115.969 88.108C115.969 89.984 115.031 91.118 113.785 91.118ZM118.511 92H119.855L120.877 90.222C121.129 89.76 121.381 89.298 121.647 88.864H121.717C121.997 89.298 122.277 89.774 122.543 90.222L123.663 92H125.049L122.557 88.164L124.853 84.398H123.523L122.599 86.064C122.361 86.498 122.137 86.918 121.913 87.352H121.857C121.591 86.918 121.339 86.498 121.101 86.064L120.079 84.398H118.707L121.003 88.038L118.511 92ZM129.679 94.506H130.603L134.789 80.884H133.879L129.679 94.506ZM140.658 92H141.96V87.66H143.864C145.95 87.66 147.448 86.68 147.448 84.622C147.448 82.494 145.95 81.738 143.864 81.738H140.658V92ZM141.96 86.61V82.802H143.682C145.278 82.802 146.16 83.278 146.16 84.622C146.16 85.952 145.278 86.61 143.682 86.61H141.96ZM146.3 92H147.756L144.62 86.638L143.612 87.31L146.3 92ZM152.868 92.196C153.904 92.196 154.702 91.846 155.374 91.412L154.912 90.558C154.352 90.936 153.75 91.174 153.022 91.174C151.566 91.174 150.586 90.124 150.488 88.514H155.612C155.654 88.318 155.668 88.052 155.668 87.786C155.668 85.602 154.576 84.216 152.644 84.216C150.894 84.216 149.228 85.742 149.228 88.22C149.228 90.712 150.838 92.196 152.868 92.196ZM150.474 87.59C150.642 86.092 151.594 85.238 152.658 85.238C153.862 85.238 154.548 86.064 154.548 87.59H150.474ZM160.484 95.5C162.822 95.5 164.32 94.296 164.32 92.882C164.32 91.622 163.438 91.076 161.674 91.076H160.19C159.168 91.076 158.846 90.726 158.846 90.236C158.846 89.83 159.07 89.564 159.336 89.34C159.686 89.508 160.106 89.592 160.47 89.592C162.024 89.592 163.256 88.584 163.256 86.96C163.256 86.302 163.004 85.742 162.64 85.392H164.194V84.398H161.548C161.282 84.3 160.904 84.216 160.47 84.216C158.93 84.216 157.614 85.252 157.614 86.932C157.614 87.842 158.118 88.57 158.622 88.976V89.032C158.216 89.312 157.768 89.802 157.768 90.432C157.768 91.034 158.062 91.44 158.454 91.692V91.748C157.754 92.196 157.334 92.826 157.334 93.47C157.334 94.772 158.622 95.5 160.484 95.5ZM160.47 88.738C159.588 88.738 158.846 88.024 158.846 86.932C158.846 85.798 159.574 85.14 160.47 85.14C161.366 85.14 162.094 85.812 162.094 86.932C162.094 88.024 161.352 88.738 160.47 88.738ZM160.652 94.632C159.28 94.632 158.454 94.114 158.454 93.288C158.454 92.854 158.678 92.392 159.224 92C159.574 92.098 159.924 92.126 160.218 92.126H161.534C162.528 92.126 163.074 92.364 163.074 93.078C163.074 93.862 162.122 94.632 160.652 94.632ZM168.596 92.196C169.646 92.196 170.402 91.636 171.116 90.81H171.144L171.256 92H172.306V84.398H171.032V89.802C170.318 90.698 169.758 91.076 168.988 91.076C167.98 91.076 167.546 90.474 167.546 89.06V84.398H166.272V89.214C166.272 91.16 167 92.196 168.596 92.196ZM176.792 92.196C177.142 92.196 177.338 92.14 177.52 92.084L177.352 91.104C177.198 91.132 177.142 91.132 177.086 91.132C176.89 91.132 176.722 90.978 176.722 90.572V80.87H175.448V90.488C175.448 91.58 175.826 92.196 176.792 92.196ZM181.737 92.196C182.675 92.196 183.529 91.706 184.243 91.104H184.299L184.411 92H185.461V87.338C185.461 85.448 184.677 84.216 182.815 84.216C181.597 84.216 180.533 84.748 179.833 85.196L180.337 86.092C180.925 85.686 181.723 85.266 182.619 85.266C183.865 85.266 184.173 86.204 184.173 87.184C180.939 87.548 179.511 88.374 179.511 90.026C179.511 91.398 180.463 92.196 181.737 92.196ZM182.087 91.16C181.345 91.16 180.757 90.81 180.757 89.942C180.757 88.962 181.611 88.332 184.173 88.038V90.152C183.445 90.81 182.829 91.16 182.087 91.16ZM188.436 92H189.71V87.128C190.214 85.826 190.998 85.364 191.628 85.364C191.936 85.364 192.104 85.406 192.37 85.49L192.608 84.37C192.356 84.258 192.132 84.216 191.796 84.216C190.942 84.216 190.158 84.818 189.64 85.784H189.598L189.472 84.398H188.436V92ZM196.481 94.758L197.265 94.394C196.061 92.406 195.473 90.04 195.473 87.66C195.473 85.28 196.061 82.914 197.265 80.926L196.481 80.548C195.179 82.648 194.409 84.916 194.409 87.66C194.409 90.418 195.179 92.658 196.481 94.758ZM203.172 92H204.376V82.032H202.962L198.692 88.402V89.242H205.748V88.234H200.036L202.374 84.804C202.654 84.314 202.934 83.866 203.186 83.404H203.256C203.214 83.922 203.172 84.79 203.172 85.308V92ZM210.643 92.196C212.617 92.196 213.821 90.334 213.821 86.988C213.821 83.642 212.617 81.85 210.643 81.85C208.641 81.85 207.437 83.642 207.437 86.988C207.437 90.334 208.641 92.196 210.643 92.196ZM210.643 91.16C209.467 91.16 208.669 89.914 208.669 86.988C208.669 84.048 209.467 82.872 210.643 82.872C211.805 82.872 212.589 84.048 212.589 86.988C212.589 89.914 211.805 91.16 210.643 91.16ZM218.969 92.196C220.943 92.196 222.147 90.334 222.147 86.988C222.147 83.642 220.943 81.85 218.969 81.85C216.967 81.85 215.763 83.642 215.763 86.988C215.763 90.334 216.967 92.196 218.969 92.196ZM218.969 91.16C217.793 91.16 216.995 89.914 216.995 86.988C216.995 84.048 217.793 82.872 218.969 82.872C220.131 82.872 220.915 84.048 220.915 86.988C220.915 89.914 220.131 91.16 218.969 91.16ZM224.789 94.758C226.077 92.658 226.847 90.418 226.847 87.66C226.847 84.916 226.077 82.648 224.789 80.548L223.991 80.926C225.195 82.914 225.783 85.28 225.783 87.66C225.783 90.04 225.195 92.406 223.991 94.394L224.789 94.758ZM232.538 94.506H233.462L237.648 80.884H236.738L232.538 94.506ZM243.349 92H248.977V90.936H246.905V82.032H245.925C245.379 82.354 244.721 82.592 243.797 82.76V83.586H245.631V90.936H243.349V92ZM253.201 92H254.531C254.699 88.108 255.189 85.826 257.541 82.816V82.032H251.129V83.124H256.099C254.139 85.854 253.383 88.248 253.201 92ZM262.661 92.196C264.635 92.196 265.839 90.334 265.839 86.988C265.839 83.642 264.635 81.85 262.661 81.85C260.659 81.85 259.455 83.642 259.455 86.988C259.455 90.334 260.659 92.196 262.661 92.196ZM262.661 91.16C261.485 91.16 260.687 89.914 260.687 86.988C260.687 84.048 261.485 82.872 262.661 82.872C263.823 82.872 264.607 84.048 264.607 86.988C264.607 89.914 263.823 91.16 262.661 91.16ZM270.51 87.842C271.924 87.842 272.848 86.652 272.848 84.58C272.848 82.522 271.924 81.36 270.51 81.36C269.096 81.36 268.172 82.522 268.172 84.58C268.172 86.652 269.096 87.842 270.51 87.842ZM270.51 87.044C269.712 87.044 269.138 86.232 269.138 84.58C269.138 82.942 269.712 82.144 270.51 82.144C271.336 82.144 271.882 82.942 271.882 84.58C271.882 86.232 271.336 87.044 270.51 87.044ZM277.678 92.014C279.078 92.014 280.016 90.838 280.016 88.752C280.016 86.694 279.078 85.532 277.678 85.532C276.264 85.532 275.34 86.694 275.34 88.752C275.34 90.838 276.264 92.014 277.678 92.014ZM277.678 91.216C276.866 91.216 276.306 90.404 276.306 88.752C276.306 87.114 276.866 86.316 277.678 86.316C278.504 86.316 279.05 87.114 279.05 88.752C279.05 90.404 278.504 91.216 277.678 91.216ZM270.818 92.014H271.672L277.356 81.36H276.488L270.818 92.014ZM285.499 94.506H286.423L290.609 80.884H289.699L285.499 94.506ZM296.492 92H297.318L297.71 88.808H299.768L299.404 92H300.23L300.608 88.808H302.064V87.912H300.72L301.014 85.602H302.372V84.706H301.112L301.476 81.836H300.65L300.272 84.706H298.2L298.564 81.836H297.738L297.374 84.706H295.946V85.602H297.276L296.982 87.912H295.624V88.808H296.87L296.492 92ZM297.808 87.912L298.088 85.602H300.174L299.894 87.912H297.808ZM304.02 92H310.46V90.908H307.562C307.044 90.908 306.414 90.95 305.882 91.006C308.248 88.514 309.97 86.652 309.97 84.776C309.97 82.998 308.822 81.85 306.988 81.85C305.686 81.85 304.79 82.438 303.95 83.348L304.692 84.076C305.266 83.404 305.994 82.872 306.834 82.872C308.108 82.872 308.71 83.684 308.71 84.818C308.71 86.456 307.03 88.262 304.02 91.258V92ZM312.346 92H318.786V90.908H315.888C315.37 90.908 314.74 90.95 314.208 91.006C316.574 88.514 318.296 86.652 318.296 84.776C318.296 82.998 317.148 81.85 315.314 81.85C314.012 81.85 313.116 82.438 312.276 83.348L313.018 84.076C313.592 83.404 314.32 82.872 315.16 82.872C316.434 82.872 317.036 83.684 317.036 84.818C317.036 86.456 315.356 88.262 312.346 91.258V92ZM320.671 92H327.111V90.908H324.213C323.695 90.908 323.065 90.95 322.533 91.006C324.899 88.514 326.621 86.652 326.621 84.776C326.621 82.998 325.473 81.85 323.639 81.85C322.337 81.85 321.441 82.438 320.601 83.348L321.343 84.076C321.917 83.404 322.645 82.872 323.485 82.872C324.759 82.872 325.361 83.684 325.361 84.818C325.361 86.456 323.681 88.262 320.671 91.258V92ZM328.997 92H335.437V90.908H332.539C332.021 90.908 331.391 90.95 330.859 91.006C333.225 88.514 334.947 86.652 334.947 84.776C334.947 82.998 333.799 81.85 331.965 81.85C330.663 81.85 329.767 82.438 328.927 83.348L329.669 84.076C330.243 83.404 330.971 82.872 331.811 82.872C333.085 82.872 333.687 83.684 333.687 84.818C333.687 86.456 332.007 88.262 328.997 91.258V92ZM337.322 92H343.762V90.908H340.864C340.346 90.908 339.716 90.95 339.184 91.006C341.55 88.514 343.272 86.652 343.272 84.776C343.272 82.998 342.124 81.85 340.29 81.85C338.988 81.85 338.092 82.438 337.252 83.348L337.994 84.076C338.568 83.404 339.296 82.872 340.136 82.872C341.41 82.872 342.012 83.684 342.012 84.818C342.012 86.456 340.332 88.262 337.322 91.258V92ZM345.648 92H352.088V90.908H349.19C348.672 90.908 348.042 90.95 347.51 91.006C349.876 88.514 351.598 86.652 351.598 84.776C351.598 82.998 350.45 81.85 348.616 81.85C347.314 81.85 346.418 82.438 345.578 83.348L346.32 84.076C346.894 83.404 347.622 82.872 348.462 82.872C349.736 82.872 350.338 83.684 350.338 84.818C350.338 86.456 348.658 88.262 345.648 91.258V92ZM357.203 94.506H358.127L362.313 80.884H361.403L357.203 94.506ZM30.51 101.996C31.672 102.612 33.072 103.592 33.716 104.292L34.458 103.41C33.772 102.724 32.344 101.8 31.196 101.212L30.51 101.996ZM29.236 108.282V109.29H36.642V108.282H29.236ZM28.242 112.692V113.7H37.454V112.692H28.242ZM28.718 104.264V105.272H37.16V104.264H28.718ZM32.316 104.628V113.154H33.394V104.628H32.316ZM25.344 102.122C26.282 102.528 27.416 103.186 27.976 103.704L28.592 102.822C28.018 102.332 26.842 101.702 25.918 101.352L25.344 102.122ZM24.532 105.944C25.484 106.294 26.674 106.882 27.262 107.344L27.822 106.448C27.22 106 26.016 105.454 25.078 105.146L24.532 105.944ZM25.05 113.224L25.932 113.938C26.758 112.636 27.738 110.886 28.48 109.402L27.724 108.716C26.912 110.312 25.806 112.16 25.05 113.224ZM39.274 106.462V107.358H45.14V106.462H39.274ZM41.85 102.332V114.134H42.76V102.08L41.85 102.332ZM44.37 101.366C43.194 101.716 41.066 102.01 39.274 102.15C39.386 102.374 39.512 102.71 39.554 102.934C41.402 102.822 43.614 102.556 45.084 102.136L44.37 101.366ZM39.736 103.62C40.044 104.39 40.324 105.426 40.422 106.084L41.206 105.804C41.122 105.146 40.814 104.138 40.506 103.368L39.736 103.62ZM45.742 101.856V106.322C45.742 108.52 45.574 111.446 43.88 113.504C44.104 113.63 44.51 113.952 44.678 114.134C46.456 111.964 46.708 108.674 46.708 106.322V101.856H45.742ZM41.71 106.826C41.178 108.45 40.002 110.55 38.994 111.614C39.176 111.852 39.428 112.258 39.526 112.538C40.576 111.306 41.766 108.968 42.382 107.12L41.71 106.826ZM42.69 107.96L42.172 108.436C42.676 108.884 43.922 110.158 44.37 110.704L44.93 109.962C44.58 109.626 43.124 108.282 42.69 107.96ZM44.132 103.116C43.936 103.914 43.558 105.09 43.25 105.804L43.95 106.084C44.286 105.412 44.678 104.334 45.028 103.452L44.132 103.116ZM48.654 107.008L47.8 107.162C48.36 110.27 49.452 112.846 51.426 114.148C51.566 113.868 51.888 113.49 52.112 113.294C50.25 112.202 49.172 109.794 48.654 107.008ZM46.204 101.856V102.794H50.362V106.728H46.204V107.666H51.37V101.856H46.204ZM54.4913 104.18L54.5753 105.23C55.0933 105.244 55.6953 105.258 56.2133 105.258C57.9213 105.272 59.7553 104.964 61.1273 104.586L61.0993 103.55C59.4893 104.082 57.7253 104.264 56.2133 104.264C55.6113 104.264 55.0093 104.236 54.4913 104.18ZM59.4613 101.898L58.2293 101.772C58.1873 102.752 57.8793 103.984 57.5713 104.866C56.9973 106.518 55.6953 109.01 54.4493 110.466L55.5273 111.026C56.6893 109.458 57.9773 106.91 58.6493 104.894C58.9853 103.9 59.2793 102.584 59.4613 101.898ZM62.7653 106.224H61.6593C61.7153 107.764 61.8693 110.27 61.8693 111.334C61.8693 112.09 61.4773 112.706 60.3153 112.706C59.2233 112.706 58.6773 112.258 58.6773 111.614C58.6773 110.97 59.3773 110.494 60.4133 110.494C62.4713 110.494 64.0813 111.74 65.1593 112.72L65.7473 111.768C64.5993 110.774 62.7933 109.598 60.4413 109.598C58.8733 109.598 57.6553 110.41 57.6553 111.698C57.6553 113.098 58.9013 113.714 60.4413 113.714C62.1773 113.714 62.8913 112.804 62.8913 111.684C62.8913 110.76 62.7653 108.632 62.7373 107.722C62.7233 107.218 62.7233 106.798 62.7653 106.224ZM65.5653 106.588L66.1953 105.664C65.5233 105.16 63.9413 104.25 62.9193 103.816L62.3593 104.656C63.2833 105.09 64.8093 105.944 65.5653 106.588ZM77.9098 105.02L77.3498 103.998C77.0558 104.25 76.7478 104.432 76.3418 104.67C75.4318 105.174 73.7938 105.944 72.3658 106.896C70.7278 107.988 69.7058 109.178 69.7058 110.69C69.7058 112.79 71.6098 113.574 74.2418 113.574C75.9918 113.574 77.6158 113.42 78.6658 113.238L78.6798 111.978C77.5878 112.258 75.7118 112.454 74.1858 112.454C71.9738 112.454 70.8678 111.726 70.8678 110.564C70.8678 109.514 71.6518 108.59 72.9538 107.736C74.3258 106.826 75.8798 106.098 76.8318 105.608C77.2378 105.398 77.5878 105.216 77.9098 105.02ZM71.2038 102.29L70.0978 102.766C70.8538 104.502 71.6938 106.392 72.3938 107.54L73.3598 106.952C72.7018 105.832 71.8478 104.082 71.2038 102.29ZM78.1478 102.15L77.3918 102.472C77.7838 103.004 78.2458 103.858 78.5258 104.432L79.2818 104.082C79.0018 103.508 78.4978 102.668 78.1478 102.15ZM79.6878 101.59L78.9458 101.912C79.3518 102.43 79.7998 103.242 80.1078 103.844L80.8638 103.508C80.5978 102.99 80.0518 102.108 79.6878 101.59ZM87.2445 101.94L86.0965 101.842C86.0545 102.5 85.8585 103.34 85.5505 104.11C85.0745 105.3 84.1365 106.924 82.1205 108.856L83.0865 109.57C83.5485 108.996 83.9405 108.492 84.3465 108.1C84.9905 107.526 85.8725 107.078 86.7685 107.078C87.4965 107.078 88.0565 107.456 88.0705 108.268C88.0845 108.996 88.0705 110.438 88.0145 111.18H89.0925C89.0785 110.312 89.0505 108.702 89.0505 107.974C89.0505 106.84 88.2105 106.196 87.1325 106.196C86.5165 106.196 85.7185 106.392 85.1725 106.714C85.7325 105.986 86.2505 105.048 86.6005 104.194C86.9645 103.256 87.1185 102.486 87.2445 101.94ZM82.4425 103.452V104.502C83.2265 104.558 84.1505 104.586 84.7525 104.586C86.5305 104.586 89.1345 104.46 91.0945 104.166V103.13C89.1205 103.48 86.6985 103.592 84.8085 103.592C84.1645 103.592 83.1985 103.55 82.4425 103.452ZM93.1385 106.826L92.6905 105.79C92.2985 105.986 91.9485 106.14 91.5285 106.336C90.6045 106.77 89.4705 107.204 88.1405 107.89C86.4745 108.744 84.7385 109.794 84.7385 111.502C84.7385 113.196 86.3485 113.63 88.3365 113.63C89.5545 113.63 91.1085 113.518 92.1725 113.392L92.2145 112.258C90.9825 112.482 89.4705 112.608 88.3785 112.608C86.9365 112.608 85.8585 112.44 85.8585 111.348C85.8585 110.382 86.8385 109.626 88.2245 108.898C89.5825 108.198 90.9125 107.666 91.9065 107.274C92.2845 107.134 92.7885 106.938 93.1385 106.826ZM101.812 106.602V107.596H106.642V106.602H101.812ZM101.35 106.602V112.3C101.35 113.644 101.784 113.98 103.24 113.98C103.562 113.98 105.704 113.98 106.054 113.98C107.454 113.98 107.776 113.35 107.93 111.096C107.636 111.026 107.188 110.844 106.936 110.662C106.852 112.608 106.74 112.972 105.984 112.972C105.508 112.972 103.688 112.972 103.324 112.972C102.554 112.972 102.4 112.86 102.4 112.314V106.602H101.35ZM101.196 102.038V103.032H106.124V108.38H107.188V102.038H101.196ZM95.6384 105.482V106.322H100.006V105.482H95.6384ZM95.7224 101.744V102.584H100.062V101.744H95.7224ZM95.6384 107.358V108.198H100.006V107.358H95.6384ZM94.9804 103.578V104.446H100.552V103.578H94.9804ZM96.1284 109.248V110.116H99.0264V112.454H96.1284V113.336H99.9644V109.248H96.1284ZM95.6244 109.248V113.98H96.5624V109.248H95.6244ZM119.228 101.954C119.942 102.528 120.768 103.368 121.146 103.928L121.944 103.354C121.538 102.78 120.698 101.996 119.97 101.422L119.228 101.954ZM109.75 104.348V105.23H122.308V104.348H109.75ZM110.38 102.374V103.214H116.47V102.374H110.38ZM110.142 106.168V106.952H116.722V106.168H110.142ZM109.918 111.922V112.734H116.778V111.922H109.918ZM112.928 101.24V105.09H113.936V101.24H112.928ZM111.262 109.724H115.602V110.522H111.262V109.724ZM111.262 108.338H115.602V109.122H111.262V108.338ZM110.464 107.722V111.138H116.414V107.722H110.464ZM112.998 108.086V110.914H112.942V114.134H113.88V110.914H113.81V108.086H112.998ZM112.928 105.272V107.932H113.894V105.272H112.928ZM117.24 101.268C117.282 108.226 118.178 114.12 120.922 114.12C121.958 114.12 122.322 113.462 122.49 111.236C122.224 111.138 121.86 110.928 121.636 110.704C121.552 112.426 121.398 113.098 121.02 113.098C119.284 113.098 118.234 107.946 118.304 101.268H117.24ZM120.74 106C119.788 109.08 117.996 111.81 115.518 113.35C115.784 113.56 116.106 113.882 116.26 114.134C118.822 112.412 120.642 109.556 121.678 106.294L120.74 106ZM127.235 102.094H125.807C125.891 102.5 125.933 102.99 125.933 103.508C125.933 104.978 125.793 108.52 125.793 110.592C125.793 112.888 127.179 113.714 129.195 113.714C132.261 113.714 134.081 111.964 135.033 110.634L134.249 109.682C133.241 111.138 131.785 112.566 129.223 112.566C127.893 112.566 126.927 112.034 126.927 110.494C126.927 108.408 127.039 105.09 127.095 103.508C127.123 103.046 127.165 102.556 127.235 102.094ZM143.566 101.898H142.376C142.418 102.08 142.432 102.5 142.432 102.738C142.432 103.718 142.432 105.188 142.432 106.448C142.432 107.68 142.572 110.368 142.572 111.446C142.572 112.426 141.886 112.664 141.074 112.664C139.688 112.664 139.142 112.188 139.142 111.53C139.142 110.886 139.856 110.368 141.2 110.368C143.692 110.368 145.764 111.768 147.024 112.93L147.668 111.936C146.59 111.054 144.28 109.458 141.326 109.458C139.31 109.458 138.092 110.312 138.092 111.586C138.092 112.944 139.198 113.658 141.214 113.658C143.034 113.658 143.678 112.664 143.678 111.684C143.678 110.746 143.468 108.296 143.468 106.448C143.468 105.272 143.468 103.396 143.496 102.836C143.51 102.416 143.538 102.136 143.566 101.898ZM138.218 103.41L138.232 104.446C139.114 104.558 140.836 104.684 141.802 104.684C143.678 104.684 145.68 104.502 147.262 104.32V103.298C145.442 103.592 143.566 103.718 141.788 103.718C140.864 103.718 139.114 103.578 138.218 103.41ZM138.148 106.392L138.162 107.442C139.156 107.554 140.696 107.624 141.662 107.624C143.762 107.624 145.47 107.526 147.374 107.288V106.238C145.554 106.504 143.692 106.644 141.662 106.644C140.738 106.644 139.142 106.546 138.148 106.392ZM157.447 101.912H156.159C156.187 102.038 156.229 102.43 156.257 102.808C156.299 103.578 156.313 106.364 156.313 106.98L157.377 107.526C157.363 106.406 157.335 103.704 157.377 102.794C157.377 102.626 157.419 102.08 157.447 101.912ZM149.999 103.872L150.027 104.95C152.141 104.796 155.137 104.698 157.545 104.698C159.603 104.698 160.863 104.726 161.647 104.768L161.661 103.732C161.003 103.718 159.267 103.718 157.559 103.718C155.403 103.718 151.903 103.844 149.999 103.872ZM157.349 107.932L156.579 107.54C156.803 109.038 156.243 109.766 155.375 109.766C154.605 109.766 153.947 109.262 153.947 108.38C153.947 107.47 154.633 106.896 155.375 106.896C156.131 106.896 156.747 107.428 156.747 108.688C156.747 110.998 155.263 112.244 152.715 112.846L153.653 113.756C156.901 112.79 157.825 110.69 157.825 108.786C157.825 107.176 156.999 105.972 155.375 105.972C154.045 105.972 152.897 107.008 152.897 108.394C152.897 109.92 154.031 110.746 155.207 110.746C156.481 110.746 157.349 109.808 157.349 107.932ZM164.127 109.598C162.951 109.598 161.985 110.55 161.985 111.726C161.985 112.902 162.951 113.854 164.127 113.854C165.303 113.854 166.255 112.902 166.255 111.726C166.255 110.55 165.303 109.598 164.127 109.598ZM164.127 113.14C163.343 113.14 162.699 112.51 162.699 111.726C162.699 110.942 163.343 110.312 164.127 110.312C164.911 110.312 165.541 110.942 165.541 111.726C165.541 112.51 164.911 113.14 164.127 113.14Z" fill="#1A1A1C"/>
<path d="M7 151.74C7.574 151.74 8.05 151.264 8.05 150.69C8.05 150.116 7.574 149.64 7 149.64C6.426 149.64 5.95 150.116 5.95 150.69C5.95 151.264 6.426 151.74 7 151.74ZM7 154.274L2.38 149.654L1.974 150.06L6.594 154.68L1.96 159.314L2.366 159.72L7 155.086L11.62 159.706L12.026 159.3L7.406 154.68L12.026 150.06L11.62 149.654L7 154.274ZM4.06 154.68C4.06 154.106 3.584 153.63 3.01 153.63C2.436 153.63 1.96 154.106 1.96 154.68C1.96 155.254 2.436 155.73 3.01 155.73C3.584 155.73 4.06 155.254 4.06 154.68ZM9.94 154.68C9.94 155.254 10.416 155.73 10.99 155.73C11.564 155.73 12.04 155.254 12.04 154.68C12.04 154.106 11.564 153.63 10.99 153.63C10.416 153.63 9.94 154.106 9.94 154.68ZM7 157.62C6.426 157.62 5.95 158.096 5.95 158.67C5.95 159.244 6.426 159.72 7 159.72C7.574 159.72 8.05 159.244 8.05 158.67C8.05 158.096 7.574 157.62 7 157.62ZM15.232 160H20.86V158.936H18.788V149.738H17.808C17.262 150.074 16.604 150.312 15.68 150.466V151.292H17.514V158.936H15.232V160Z" fill="#1A1A1C"/>
<path d="M38.51 148.996C39.672 149.612 41.072 150.592 41.716 151.292L42.458 150.41C41.772 149.724 40.344 148.8 39.196 148.212L38.51 148.996ZM37.236 155.282V156.29H44.642V155.282H37.236ZM36.242 159.692V160.7H45.454V159.692H36.242ZM36.718 151.264V152.272H45.16V151.264H36.718ZM40.316 151.628V160.154H41.394V151.628H40.316ZM33.344 149.122C34.282 149.528 35.416 150.186 35.976 150.704L36.592 149.822C36.018 149.332 34.842 148.702 33.918 148.352L33.344 149.122ZM32.532 152.944C33.484 153.294 34.674 153.882 35.262 154.344L35.822 153.448C35.22 153 34.016 152.454 33.078 152.146L32.532 152.944ZM33.05 160.224L33.932 160.938C34.758 159.636 35.738 157.886 36.48 156.402L35.724 155.716C34.912 157.312 33.806 159.16 33.05 160.224ZM47.274 153.462V154.358H53.14V153.462H47.274ZM49.85 149.332V161.134H50.76V149.08L49.85 149.332ZM52.37 148.366C51.194 148.716 49.066 149.01 47.274 149.15C47.386 149.374 47.512 149.71 47.554 149.934C49.402 149.822 51.614 149.556 53.084 149.136L52.37 148.366ZM47.736 150.62C48.044 151.39 48.324 152.426 48.422 153.084L49.206 152.804C49.122 152.146 48.814 151.138 48.506 150.368L47.736 150.62ZM53.742 148.856V153.322C53.742 155.52 53.574 158.446 51.88 160.504C52.104 160.63 52.51 160.952 52.678 161.134C54.456 158.964 54.708 155.674 54.708 153.322V148.856H53.742ZM49.71 153.826C49.178 155.45 48.002 157.55 46.994 158.614C47.176 158.852 47.428 159.258 47.526 159.538C48.576 158.306 49.766 155.968 50.382 154.12L49.71 153.826ZM50.69 154.96L50.172 155.436C50.676 155.884 51.922 157.158 52.37 157.704L52.93 156.962C52.58 156.626 51.124 155.282 50.69 154.96ZM52.132 150.116C51.936 150.914 51.558 152.09 51.25 152.804L51.95 153.084C52.286 152.412 52.678 151.334 53.028 150.452L52.132 150.116ZM56.654 154.008L55.8 154.162C56.36 157.27 57.452 159.846 59.426 161.148C59.566 160.868 59.888 160.49 60.112 160.294C58.25 159.202 57.172 156.794 56.654 154.008ZM54.204 148.856V149.794H58.362V153.728H54.204V154.666H59.37V148.856H54.204ZM70.9583 149.388H69.6423C69.6843 149.724 69.7263 150.13 69.7263 150.606C69.7263 151.096 69.7263 152.272 69.7263 152.818C69.7263 155.45 69.5443 156.598 68.5503 157.746C67.6823 158.74 66.4923 159.286 65.2043 159.622L66.1283 160.588C67.1503 160.238 68.5503 159.622 69.4463 158.53C70.4683 157.34 70.9163 156.234 70.9163 152.86C70.9163 152.342 70.9163 151.152 70.9163 150.606C70.9163 150.13 70.9303 149.724 70.9583 149.388ZM64.4623 149.5H63.1883C63.2303 149.766 63.2443 150.256 63.2443 150.494C63.2443 150.914 63.2443 154.568 63.2443 155.17C63.2443 155.576 63.2163 156.024 63.1883 156.248H64.4623C64.4343 155.996 64.4203 155.534 64.4203 155.17C64.4203 154.582 64.4203 150.914 64.4203 150.494C64.4203 150.172 64.4343 149.766 64.4623 149.5ZM83.6394 150.648L82.9394 150.102C82.7154 150.172 82.3374 150.214 81.8894 150.214C81.3574 150.214 77.0314 150.214 76.4854 150.214C76.0514 150.214 75.2534 150.158 75.0714 150.13V151.39C75.2254 151.376 75.9814 151.32 76.4854 151.32C76.9614 151.32 81.4414 151.32 81.9454 151.32C81.5814 152.482 80.5594 154.148 79.6074 155.226C78.1654 156.822 76.1074 158.502 73.8394 159.37L74.7354 160.308C76.9474 159.3 78.9494 157.634 80.5174 155.884C81.6794 154.596 82.7434 152.636 83.3034 151.25C83.3734 151.068 83.5554 150.76 83.6394 150.648ZM80.6994 155.156L79.9014 155.94C81.4134 157.27 83.0514 159.062 84.0594 160.392L85.0254 159.538C84.0734 158.376 82.2114 156.416 80.6994 155.156ZM88.9147 158.768C88.9147 159.286 88.9007 159.986 88.8307 160.434H90.1887C90.1327 159.972 90.1047 159.216 90.1047 158.768C90.1047 158.11 90.0907 152.804 90.0907 150.634C90.0907 150.2 90.1327 149.598 90.1887 149.164H88.8167C88.8867 149.612 88.9147 150.228 88.9147 150.634C88.9147 151.796 88.9147 157.984 88.9147 158.768ZM89.8387 152.846V154.078C91.3647 154.554 93.9827 155.548 95.5787 156.402L96.0687 155.212C94.5147 154.456 91.6867 153.378 89.8387 152.846ZM99.4533 160H106.761V158.95H103.849V149.724H102.883C102.211 150.144 101.343 150.27 100.195 150.452V151.278H102.561V158.95H99.4533V160Z" fill="#1A1A1C"/>
<path d="M7 180.74C7.574 180.74 8.05 180.264 8.05 179.69C8.05 179.116 7.574 178.64 7 178.64C6.426 178.64 5.95 179.116 5.95 179.69C5.95 180.264 6.426 180.74 7 180.74ZM7 183.274L2.38 178.654L1.974 179.06L6.594 183.68L1.96 188.314L2.366 188.72L7 184.086L11.62 188.706L12.026 188.3L7.406 183.68L12.026 179.06L11.62 178.654L7 183.274ZM4.06 183.68C4.06 183.106 3.584 182.63 3.01 182.63C2.436 182.63 1.96 183.106 1.96 183.68C1.96 184.254 2.436 184.73 3.01 184.73C3.584 184.73 4.06 184.254 4.06 183.68ZM9.94 183.68C9.94 184.254 10.416 184.73 10.99 184.73C11.564 184.73 12.04 184.254 12.04 183.68C12.04 183.106 11.564 182.63 10.99 182.63C10.416 182.63 9.94 183.106 9.94 183.68ZM7 186.62C6.426 186.62 5.95 187.096 5.95 187.67C5.95 188.244 6.426 188.72 7 188.72C7.574 188.72 8.05 188.244 8.05 187.67C8.05 187.096 7.574 186.62 7 186.62ZM14.616 189H21.056V187.908H18.214C17.696 187.908 17.08 187.95 16.534 188.006C18.956 185.724 20.566 183.638 20.566 181.58C20.566 179.746 19.418 178.556 17.584 178.556C16.282 178.556 15.386 179.158 14.546 180.068L15.288 180.782C15.862 180.11 16.59 179.592 17.43 179.592C18.704 179.592 19.306 180.46 19.306 181.636C19.306 183.386 17.836 185.444 14.616 188.258V189Z" fill="#1A1A1C"/>
<path d="M38.51 177.996C39.672 178.612 41.072 179.592 41.716 180.292L42.458 179.41C41.772 178.724 40.344 177.8 39.196 177.212L38.51 177.996ZM37.236 184.282V185.29H44.642V184.282H37.236ZM36.242 188.692V189.7H45.454V188.692H36.242ZM36.718 180.264V181.272H45.16V180.264H36.718ZM40.316 180.628V189.154H41.394V180.628H40.316ZM33.344 178.122C34.282 178.528 35.416 179.186 35.976 179.704L36.592 178.822C36.018 178.332 34.842 177.702 33.918 177.352L33.344 178.122ZM32.532 181.944C33.484 182.294 34.674 182.882 35.262 183.344L35.822 182.448C35.22 182 34.016 181.454 33.078 181.146L32.532 181.944ZM33.05 189.224L33.932 189.938C34.758 188.636 35.738 186.886 36.48 185.402L35.724 184.716C34.912 186.312 33.806 188.16 33.05 189.224ZM47.274 182.462V183.358H53.14V182.462H47.274ZM49.85 178.332V190.134H50.76V178.08L49.85 178.332ZM52.37 177.366C51.194 177.716 49.066 178.01 47.274 178.15C47.386 178.374 47.512 178.71 47.554 178.934C49.402 178.822 51.614 178.556 53.084 178.136L52.37 177.366ZM47.736 179.62C48.044 180.39 48.324 181.426 48.422 182.084L49.206 181.804C49.122 181.146 48.814 180.138 48.506 179.368L47.736 179.62ZM53.742 177.856V182.322C53.742 184.52 53.574 187.446 51.88 189.504C52.104 189.63 52.51 189.952 52.678 190.134C54.456 187.964 54.708 184.674 54.708 182.322V177.856H53.742ZM49.71 182.826C49.178 184.45 48.002 186.55 46.994 187.614C47.176 187.852 47.428 188.258 47.526 188.538C48.576 187.306 49.766 184.968 50.382 183.12L49.71 182.826ZM50.69 183.96L50.172 184.436C50.676 184.884 51.922 186.158 52.37 186.704L52.93 185.962C52.58 185.626 51.124 184.282 50.69 183.96ZM52.132 179.116C51.936 179.914 51.558 181.09 51.25 181.804L51.95 182.084C52.286 181.412 52.678 180.334 53.028 179.452L52.132 179.116ZM56.654 183.008L55.8 183.162C56.36 186.27 57.452 188.846 59.426 190.148C59.566 189.868 59.888 189.49 60.112 189.294C58.25 188.202 57.172 185.794 56.654 183.008ZM54.204 177.856V178.794H58.362V182.728H54.204V183.666H59.37V177.856H54.204ZM70.9583 178.388H69.6423C69.6843 178.724 69.7263 179.13 69.7263 179.606C69.7263 180.096 69.7263 181.272 69.7263 181.818C69.7263 184.45 69.5443 185.598 68.5503 186.746C67.6823 187.74 66.4923 188.286 65.2043 188.622L66.1283 189.588C67.1503 189.238 68.5503 188.622 69.4463 187.53C70.4683 186.34 70.9163 185.234 70.9163 181.86C70.9163 181.342 70.9163 180.152 70.9163 179.606C70.9163 179.13 70.9303 178.724 70.9583 178.388ZM64.4623 178.5H63.1883C63.2303 178.766 63.2443 179.256 63.2443 179.494C63.2443 179.914 63.2443 183.568 63.2443 184.17C63.2443 184.576 63.2163 185.024 63.1883 185.248H64.4623C64.4343 184.996 64.4203 184.534 64.4203 184.17C64.4203 183.582 64.4203 179.914 64.4203 179.494C64.4203 179.172 64.4343 178.766 64.4623 178.5ZM83.6394 179.648L82.9394 179.102C82.7154 179.172 82.3374 179.214 81.8894 179.214C81.3574 179.214 77.0314 179.214 76.4854 179.214C76.0514 179.214 75.2534 179.158 75.0714 179.13V180.39C75.2254 180.376 75.9814 180.32 76.4854 180.32C76.9614 180.32 81.4414 180.32 81.9454 180.32C81.5814 181.482 80.5594 183.148 79.6074 184.226C78.1654 185.822 76.1074 187.502 73.8394 188.37L74.7354 189.308C76.9474 188.3 78.9494 186.634 80.5174 184.884C81.6794 183.596 82.7434 181.636 83.3034 180.25C83.3734 180.068 83.5554 179.76 83.6394 179.648ZM80.6994 184.156L79.9014 184.94C81.4134 186.27 83.0514 188.062 84.0594 189.392L85.0254 188.538C84.0734 187.376 82.2114 185.416 80.6994 184.156ZM88.9147 187.768C88.9147 188.286 88.9007 188.986 88.8307 189.434H90.1887C90.1327 188.972 90.1047 188.216 90.1047 187.768C90.1047 187.11 90.0907 181.804 90.0907 179.634C90.0907 179.2 90.1327 178.598 90.1887 178.164H88.8167C88.8867 178.612 88.9147 179.228 88.9147 179.634C88.9147 180.796 88.9147 186.984 88.9147 187.768ZM89.8387 181.846V183.078C91.3647 183.554 93.9827 184.548 95.5787 185.402L96.0687 184.212C94.5147 183.456 91.6867 182.378 89.8387 181.846ZM98.2519 189H104.692V187.908H101.85C101.332 187.908 100.716 187.95 100.17 188.006C102.592 185.724 104.202 183.638 104.202 181.58C104.202 179.746 103.054 178.556 101.22 178.556C99.9179 178.556 99.0219 179.158 98.1819 180.068L98.9239 180.782C99.4979 180.11 100.226 179.592 101.066 179.592C102.34 179.592 102.942 180.46 102.942 181.636C102.942 183.386 101.472 185.444 98.2519 188.258V189Z" fill="#1A1A1C"/>
<path d="M7 209.74C7.574 209.74 8.05 209.264 8.05 208.69C8.05 208.116 7.574 207.64 7 207.64C6.426 207.64 5.95 208.116 5.95 208.69C5.95 209.264 6.426 209.74 7 209.74ZM7 212.274L2.38 207.654L1.974 208.06L6.594 212.68L1.96 217.314L2.366 217.72L7 213.086L11.62 217.706L12.026 217.3L7.406 212.68L12.026 208.06L11.62 207.654L7 212.274ZM4.06 212.68C4.06 212.106 3.584 211.63 3.01 211.63C2.436 211.63 1.96 212.106 1.96 212.68C1.96 213.254 2.436 213.73 3.01 213.73C3.584 213.73 4.06 213.254 4.06 212.68ZM9.94 212.68C9.94 213.254 10.416 213.73 10.99 213.73C11.564 213.73 12.04 213.254 12.04 212.68C12.04 212.106 11.564 211.63 10.99 211.63C10.416 211.63 9.94 212.106 9.94 212.68ZM7 215.62C6.426 215.62 5.95 216.096 5.95 216.67C5.95 217.244 6.426 217.72 7 217.72C7.574 217.72 8.05 217.244 8.05 216.67C8.05 216.096 7.574 215.62 7 215.62ZM17.682 218.196C19.516 218.196 20.986 217.09 20.986 215.27C20.986 213.856 20.006 212.946 18.802 212.652V212.596C19.894 212.204 20.622 211.378 20.622 210.132C20.622 208.494 19.362 207.556 17.64 207.556C16.464 207.556 15.554 208.074 14.784 208.774L15.47 209.6C16.044 209.012 16.772 208.592 17.598 208.592C18.662 208.592 19.32 209.236 19.32 210.216C19.32 211.336 18.606 212.176 16.492 212.176V213.17C18.858 213.17 19.684 213.982 19.684 215.214C19.684 216.39 18.816 217.132 17.598 217.132C16.422 217.132 15.652 216.572 15.05 215.942L14.406 216.782C15.078 217.524 16.072 218.196 17.682 218.196Z" fill="#1A1A1C"/>
<path d="M38.51 206.996C39.672 207.612 41.072 208.592 41.716 209.292L42.458 208.41C41.772 207.724 40.344 206.8 39.196 206.212L38.51 206.996ZM37.236 213.282V214.29H44.642V213.282H37.236ZM36.242 217.692V218.7H45.454V217.692H36.242ZM36.718 209.264V210.272H45.16V209.264H36.718ZM40.316 209.628V218.154H41.394V209.628H40.316ZM33.344 207.122C34.282 207.528 35.416 208.186 35.976 208.704L36.592 207.822C36.018 207.332 34.842 206.702 33.918 206.352L33.344 207.122ZM32.532 210.944C33.484 211.294 34.674 211.882 35.262 212.344L35.822 211.448C35.22 211 34.016 210.454 33.078 210.146L32.532 210.944ZM33.05 218.224L33.932 218.938C34.758 217.636 35.738 215.886 36.48 214.402L35.724 213.716C34.912 215.312 33.806 217.16 33.05 218.224ZM47.274 211.462V212.358H53.14V211.462H47.274ZM49.85 207.332V219.134H50.76V207.08L49.85 207.332ZM52.37 206.366C51.194 206.716 49.066 207.01 47.274 207.15C47.386 207.374 47.512 207.71 47.554 207.934C49.402 207.822 51.614 207.556 53.084 207.136L52.37 206.366ZM47.736 208.62C48.044 209.39 48.324 210.426 48.422 211.084L49.206 210.804C49.122 210.146 48.814 209.138 48.506 208.368L47.736 208.62ZM53.742 206.856V211.322C53.742 213.52 53.574 216.446 51.88 218.504C52.104 218.63 52.51 218.952 52.678 219.134C54.456 216.964 54.708 213.674 54.708 211.322V206.856H53.742ZM49.71 211.826C49.178 213.45 48.002 215.55 46.994 216.614C47.176 216.852 47.428 217.258 47.526 217.538C48.576 216.306 49.766 213.968 50.382 212.12L49.71 211.826ZM50.69 212.96L50.172 213.436C50.676 213.884 51.922 215.158 52.37 215.704L52.93 214.962C52.58 214.626 51.124 213.282 50.69 212.96ZM52.132 208.116C51.936 208.914 51.558 210.09 51.25 210.804L51.95 211.084C52.286 210.412 52.678 209.334 53.028 208.452L52.132 208.116ZM56.654 212.008L55.8 212.162C56.36 215.27 57.452 217.846 59.426 219.148C59.566 218.868 59.888 218.49 60.112 218.294C58.25 217.202 57.172 214.794 56.654 212.008ZM54.204 206.856V207.794H58.362V211.728H54.204V212.666H59.37V206.856H54.204ZM70.9583 207.388H69.6423C69.6843 207.724 69.7263 208.13 69.7263 208.606C69.7263 209.096 69.7263 210.272 69.7263 210.818C69.7263 213.45 69.5443 214.598 68.5503 215.746C67.6823 216.74 66.4923 217.286 65.2043 217.622L66.1283 218.588C67.1503 218.238 68.5503 217.622 69.4463 216.53C70.4683 215.34 70.9163 214.234 70.9163 210.86C70.9163 210.342 70.9163 209.152 70.9163 208.606C70.9163 208.13 70.9303 207.724 70.9583 207.388ZM64.4623 207.5H63.1883C63.2303 207.766 63.2443 208.256 63.2443 208.494C63.2443 208.914 63.2443 212.568 63.2443 213.17C63.2443 213.576 63.2163 214.024 63.1883 214.248H64.4623C64.4343 213.996 64.4203 213.534 64.4203 213.17C64.4203 212.582 64.4203 208.914 64.4203 208.494C64.4203 208.172 64.4343 207.766 64.4623 207.5ZM83.6394 208.648L82.9394 208.102C82.7154 208.172 82.3374 208.214 81.8894 208.214C81.3574 208.214 77.0314 208.214 76.4854 208.214C76.0514 208.214 75.2534 208.158 75.0714 208.13V209.39C75.2254 209.376 75.9814 209.32 76.4854 209.32C76.9614 209.32 81.4414 209.32 81.9454 209.32C81.5814 210.482 80.5594 212.148 79.6074 213.226C78.1654 214.822 76.1074 216.502 73.8394 217.37L74.7354 218.308C76.9474 217.3 78.9494 215.634 80.5174 213.884C81.6794 212.596 82.7434 210.636 83.3034 209.25C83.3734 209.068 83.5554 208.76 83.6394 208.648ZM80.6994 213.156L79.9014 213.94C81.4134 215.27 83.0514 217.062 84.0594 218.392L85.0254 217.538C84.0734 216.376 82.2114 214.416 80.6994 213.156ZM88.9147 216.768C88.9147 217.286 88.9007 217.986 88.8307 218.434H90.1887C90.1327 217.972 90.1047 217.216 90.1047 216.768C90.1047 216.11 90.0907 210.804 90.0907 208.634C90.0907 208.2 90.1327 207.598 90.1887 207.164H88.8167C88.8867 207.612 88.9147 208.228 88.9147 208.634C88.9147 209.796 88.9147 215.984 88.9147 216.768ZM89.8387 210.846V212.078C91.3647 212.554 93.9827 213.548 95.5787 214.402L96.0687 213.212C94.5147 212.456 91.6867 211.378 89.8387 210.846ZM101.318 218.196C103.152 218.196 104.622 217.09 104.622 215.27C104.622 213.856 103.642 212.946 102.438 212.652V212.596C103.53 212.204 104.258 211.378 104.258 210.132C104.258 208.494 102.998 207.556 101.276 207.556C100.1 207.556 99.1899 208.074 98.4199 208.774L99.1059 209.6C99.6799 209.012 100.408 208.592 101.234 208.592C102.298 208.592 102.956 209.236 102.956 210.216C102.956 211.336 102.242 212.176 100.128 212.176V213.17C102.494 213.17 103.32 213.982 103.32 215.214C103.32 216.39 102.452 217.132 101.234 217.132C100.058 217.132 99.2879 216.572 98.6859 215.942L98.0419 216.782C98.7139 217.524 99.7079 218.196 101.318 218.196Z" fill="#1A1A1C"/>
</svg>
