<svg width="307" height="408" viewBox="0 0 307 408" fill="none" xmlns="http://www.w3.org/2000/svg">
<rect x="203" y="304" width="104" height="104" fill="#E1E1E1"/>
<rect x="203" y="216" width="64" height="64" fill="#E1E1E1"/>
<rect x="203" y="152" width="40" height="40" fill="#E1E1E1"/>
<rect x="203" y="104" width="24" height="24" fill="#E1E1E1"/>
<rect x="203" y="64" width="16" height="16" fill="#E1E1E1"/>
<rect x="203" y="32" width="8" height="8" fill="#E1E1E1"/>
<rect x="203" y="4" width="4" height="4" fill="#E1E1E1"/>
<g opacity="0.9">
<path d="M5.808 39.168C7.344 39.168 8.172 38.292 8.172 37.224C8.172 35.988 7.14 35.604 6.192 35.244C5.448 34.98 4.788 34.74 4.788 34.116C4.788 33.612 5.16 33.18 5.988 33.18C6.564 33.18 7.032 33.432 7.476 33.756L8.004 33.06C7.5 32.652 6.78 32.328 5.976 32.328C4.56 32.328 3.732 33.132 3.732 34.164C3.732 35.28 4.728 35.712 5.628 36.06C6.348 36.324 7.128 36.624 7.128 37.284C7.128 37.86 6.696 38.316 5.832 38.316C5.052 38.316 4.476 37.992 3.912 37.536L3.372 38.268C3.984 38.772 4.884 39.168 5.808 39.168ZM9.71728 41.748H10.8093V39.552L10.7853 38.412C11.3733 38.892 11.9853 39.168 12.5733 39.168C14.0733 39.168 15.4053 37.872 15.4053 35.652C15.4053 33.636 14.5053 32.328 12.8133 32.328C12.0573 32.328 11.3373 32.748 10.7493 33.24H10.7133L10.6053 32.484H9.71728V41.748ZM12.4053 38.244C11.9733 38.244 11.3973 38.064 10.8093 37.572V34.14C11.4453 33.552 11.9973 33.24 12.5493 33.24C13.7853 33.24 14.2773 34.212 14.2773 35.664C14.2773 37.272 13.4733 38.244 12.4053 38.244ZM18.436 39.168C19.24 39.168 19.972 38.748 20.584 38.232H20.632L20.728 39H21.628V35.004C21.628 33.384 20.956 32.328 19.36 32.328C18.316 32.328 17.404 32.784 16.804 33.168L17.236 33.936C17.74 33.588 18.424 33.228 19.192 33.228C20.26 33.228 20.524 34.032 20.524 34.872C17.752 35.184 16.528 35.892 16.528 37.308C16.528 38.484 17.344 39.168 18.436 39.168ZM18.736 38.28C18.1 38.28 17.596 37.98 17.596 37.236C17.596 36.396 18.328 35.856 20.524 35.604V37.416C19.9 37.98 19.372 38.28 18.736 38.28ZM26.2538 39.168C27.0338 39.168 27.7898 38.856 28.3658 38.34L27.8978 37.608C27.4898 37.968 26.9498 38.256 26.3618 38.256C25.1618 38.256 24.3338 37.248 24.3338 35.76C24.3338 34.248 25.1978 33.24 26.3978 33.24C26.9018 33.24 27.3098 33.468 27.6938 33.816L28.2458 33.096C27.7898 32.676 27.1898 32.328 26.3378 32.328C24.6698 32.328 23.2058 33.576 23.2058 35.76C23.2058 37.908 24.5258 39.168 26.2538 39.168ZM29.8149 39H30.9069V32.484H29.8149V39ZM30.3669 31.14C30.7869 31.14 31.0989 30.864 31.0989 30.408C31.0989 29.988 30.7869 29.712 30.3669 29.712C29.9349 29.712 29.6349 29.988 29.6349 30.408C29.6349 30.864 29.9349 31.14 30.3669 31.14ZM33.1196 39H34.2116V34.272C34.8596 33.624 35.3276 33.276 35.9876 33.276C36.8516 33.276 37.2236 33.792 37.2236 35.016V39H38.3276V34.872C38.3276 33.216 37.7036 32.328 36.3356 32.328C35.4356 32.328 34.7636 32.82 34.1516 33.432H34.1156L34.0076 32.484H33.1196V39ZM42.6398 42C44.6438 42 45.9278 40.968 45.9278 39.756C45.9278 38.676 45.1718 38.208 43.6598 38.208H42.3878C41.5118 38.208 41.2358 37.908 41.2358 37.488C41.2358 37.14 41.4278 36.912 41.6558 36.72C41.9558 36.864 42.3158 36.936 42.6278 36.936C43.9598 36.936 45.0158 36.072 45.0158 34.68C45.0158 34.116 44.7998 33.636 44.4878 33.336H45.8198V32.484H43.5518C43.3238 32.4 42.9998 32.328 42.6278 32.328C41.3078 32.328 40.1798 33.216 40.1798 34.656C40.1798 35.436 40.6118 36.06 41.0438 36.408V36.456C40.6958 36.696 40.3118 37.116 40.3118 37.656C40.3118 38.172 40.5638 38.52 40.8998 38.736V38.784C40.2998 39.168 39.9398 39.708 39.9398 40.26C39.9398 41.376 41.0438 42 42.6398 42ZM42.6278 36.204C41.8718 36.204 41.2358 35.592 41.2358 34.656C41.2358 33.684 41.8598 33.12 42.6278 33.12C43.3958 33.12 44.0198 33.696 44.0198 34.656C44.0198 35.592 43.3838 36.204 42.6278 36.204ZM42.7838 41.256C41.6078 41.256 40.8998 40.812 40.8998 40.104C40.8998 39.732 41.0918 39.336 41.5598 39C41.8598 39.084 42.1598 39.108 42.4118 39.108H43.5398C44.3918 39.108 44.8598 39.312 44.8598 39.924C44.8598 40.596 44.0438 41.256 42.7838 41.256ZM51.7969 39.168C52.6969 39.168 53.3449 38.688 53.9569 37.98H53.9809L54.0769 39H54.9769V32.484H53.8849V37.116C53.2729 37.884 52.7929 38.208 52.1329 38.208C51.2689 38.208 50.8969 37.692 50.8969 36.48V32.484H49.8049V36.612C49.8049 38.28 50.4289 39.168 51.7969 39.168ZM57.1899 39H58.2819V34.272C58.9299 33.624 59.3979 33.276 60.0579 33.276C60.9219 33.276 61.2939 33.792 61.2939 35.016V39H62.3979V34.872C62.3979 33.216 61.7739 32.328 60.4059 32.328C59.5059 32.328 58.8339 32.82 58.2219 33.432H58.1859L58.0779 32.484H57.1899V39ZM64.5142 39H65.6062V32.484H64.5142V39ZM65.0662 31.14C65.4862 31.14 65.7982 30.864 65.7982 30.408C65.7982 29.988 65.4862 29.712 65.0662 29.712C64.6342 29.712 64.3342 29.988 64.3342 30.408C64.3342 30.864 64.6342 31.14 65.0662 31.14ZM69.8588 39.168C70.2668 39.168 70.6988 39.048 71.0588 38.916L70.8428 38.1C70.6388 38.184 70.3388 38.28 70.1108 38.28C69.3548 38.28 69.1028 37.812 69.1028 37.02V33.372H70.8668V32.484H69.1028V30.648H68.1788L68.0588 32.484L67.0388 32.556V33.372H68.0108V36.996C68.0108 38.292 68.4668 39.168 69.8588 39.168ZM83.2099 38.364L83.7859 37.776L80.4979 34.5L83.7859 31.212L83.2099 30.636L79.9219 33.912L76.6459 30.636L76.0579 31.224L79.3339 34.5L76.0579 37.776L76.6339 38.364L79.9219 35.076L83.2099 38.364ZM89.6615 39H94.4855V38.088H92.7095V30.456H91.8695C91.4015 30.732 90.8375 30.936 90.0455 31.08V31.788H91.6175V38.088H89.6615V39ZM108.301 32.652H99.5773V33.48H108.301V32.652ZM99.5773 35.364V36.192H108.301V35.364H99.5773ZM116.157 39.168C117.945 39.168 119.145 38.148 119.145 36.804C119.145 35.58 118.473 34.872 117.657 34.428V34.368C118.233 33.948 118.797 33.216 118.797 32.328C118.797 30.912 117.789 29.976 116.217 29.976C114.669 29.976 113.529 30.888 113.529 32.316C113.529 33.252 114.033 33.936 114.705 34.428V34.476C113.889 34.908 113.193 35.664 113.193 36.804C113.193 38.196 114.453 39.168 116.157 39.168ZM116.721 33.936C115.785 33.564 115.089 33.144 115.089 32.316C115.089 31.608 115.569 31.212 116.181 31.212C116.913 31.212 117.357 31.716 117.357 32.448C117.357 32.976 117.153 33.48 116.721 33.936ZM116.193 37.92C115.365 37.92 114.705 37.404 114.705 36.6C114.705 35.94 115.041 35.34 115.533 34.956C116.673 35.436 117.501 35.808 117.501 36.732C117.501 37.5 116.961 37.92 116.193 37.92ZM120.811 41.748H121.903V39.552L121.879 38.412C122.467 38.892 123.079 39.168 123.667 39.168C125.167 39.168 126.499 37.872 126.499 35.652C126.499 33.636 125.599 32.328 123.907 32.328C123.151 32.328 122.431 32.748 121.843 33.24H121.807L121.699 32.484H120.811V41.748ZM123.499 38.244C123.067 38.244 122.491 38.064 121.903 37.572V34.14C122.539 33.552 123.091 33.24 123.643 33.24C124.879 33.24 125.371 34.212 125.371 35.664C125.371 37.272 124.567 38.244 123.499 38.244ZM127.071 39H128.223L129.099 37.476C129.315 37.08 129.531 36.684 129.759 36.312H129.819C130.059 36.684 130.299 37.092 130.527 37.476L131.487 39H132.675L130.539 35.712L132.507 32.484H131.367L130.575 33.912C130.371 34.284 130.179 34.644 129.987 35.016H129.939C129.711 34.644 129.495 34.284 129.291 33.912L128.415 32.484H127.239L129.207 35.604L127.071 39Z" fill="#1A1A1C"/>
</g>
<path opacity="0.9" d="M5.808 11.156C7.344 11.156 8.184 10.28 8.184 9.224C8.184 7.988 7.14 7.604 6.192 7.244C5.46 6.968 4.788 6.74 4.788 6.116C4.788 5.612 5.172 5.18 6 5.18C6.576 5.18 7.032 5.42 7.476 5.756L8.004 5.048C7.5 4.652 6.792 4.316 5.988 4.316C4.572 4.316 3.732 5.132 3.732 6.164C3.732 7.268 4.728 7.712 5.64 8.048C6.36 8.324 7.128 8.612 7.128 9.284C7.128 9.848 6.708 10.304 5.844 10.304C5.064 10.304 4.476 9.992 3.912 9.536L3.372 10.256C3.996 10.772 4.884 11.156 5.808 11.156ZM9.71728 13.748H10.8093V11.54L10.7853 10.4C11.3733 10.88 11.9973 11.156 12.5853 11.156C14.0853 11.156 15.4173 9.872 15.4173 7.64C15.4173 5.636 14.5053 4.316 12.8253 4.316C12.0693 4.316 11.3373 4.748 10.7493 5.228H10.7133L10.6173 4.484H9.71728V13.748ZM12.4053 10.244C11.9733 10.244 11.3973 10.064 10.8093 9.56V6.14C11.4453 5.552 12.0093 5.24 12.5613 5.24C13.7973 5.24 14.2773 6.212 14.2773 7.652C14.2773 9.272 13.4853 10.244 12.4053 10.244ZM18.4712 11.156C19.2752 11.156 20.0072 10.736 20.6312 10.22H20.6672L20.7632 11H21.6632V6.992C21.6632 5.384 20.9912 4.316 19.4072 4.316C18.3632 4.316 17.4392 4.784 16.8392 5.168L17.2712 5.924C17.7872 5.576 18.4712 5.228 19.2272 5.228C20.2952 5.228 20.5712 6.032 20.5712 6.872C17.7992 7.184 16.5632 7.892 16.5632 9.308C16.5632 10.484 17.3792 11.156 18.4712 11.156ZM18.7832 10.28C18.1352 10.28 17.6312 9.98 17.6312 9.236C17.6312 8.396 18.3752 7.856 20.5712 7.592V9.416C19.9352 9.98 19.4192 10.28 18.7832 10.28ZM26.3126 11.156C27.0926 11.156 27.8366 10.856 28.4246 10.328L27.9446 9.596C27.5366 9.968 27.0086 10.244 26.4086 10.244C25.2086 10.244 24.3926 9.248 24.3926 7.748C24.3926 6.248 25.2566 5.228 26.4446 5.228C26.9606 5.228 27.3566 5.468 27.7406 5.804L28.3046 5.084C27.8366 4.676 27.2486 4.316 26.3966 4.316C24.7286 4.316 23.2526 5.576 23.2526 7.748C23.2526 9.908 24.5846 11.156 26.3126 11.156ZM29.8501 11H30.9421V4.484H29.8501V11ZM30.4021 3.14C30.8341 3.14 31.1341 2.852 31.1341 2.408C31.1341 1.988 30.8341 1.7 30.4021 1.7C29.9701 1.7 29.6701 1.988 29.6701 2.408C29.6701 2.852 29.9701 3.14 30.4021 3.14ZM33.1548 11H34.2468V6.272C34.9068 5.612 35.3628 5.276 36.0348 5.276C36.8988 5.276 37.2708 5.792 37.2708 7.016V11H38.3628V6.872C38.3628 5.204 37.7388 4.316 36.3708 4.316C35.4828 4.316 34.8108 4.808 34.1868 5.42H34.1508L34.0548 4.484H33.1548V11ZM42.6867 14C44.7027 14 45.9867 12.956 45.9867 11.744C45.9867 10.676 45.2187 10.196 43.7067 10.196H42.4347C41.5587 10.196 41.2947 9.908 41.2947 9.488C41.2947 9.128 41.4747 8.912 41.7147 8.708C42.0027 8.852 42.3627 8.936 42.6867 8.936C44.0067 8.936 45.0627 8.06 45.0627 6.668C45.0627 6.104 44.8467 5.624 44.5347 5.324H45.8667V4.484H43.5987C43.3707 4.4 43.0467 4.316 42.6867 4.316C41.3667 4.316 40.2387 5.216 40.2387 6.644C40.2387 7.424 40.6587 8.048 41.0907 8.396V8.444C40.7547 8.684 40.3587 9.116 40.3587 9.656C40.3587 10.172 40.6107 10.52 40.9587 10.724V10.772C40.3467 11.168 39.9987 11.696 39.9987 12.248C39.9987 13.376 41.0907 14 42.6867 14ZM42.6867 8.192C41.9307 8.192 41.2947 7.592 41.2947 6.644C41.2947 5.684 41.9187 5.12 42.6867 5.12C43.4547 5.12 44.0787 5.696 44.0787 6.644C44.0787 7.592 43.4307 8.192 42.6867 8.192ZM42.8427 13.256C41.6667 13.256 40.9587 12.8 40.9587 12.104C40.9587 11.72 41.1507 11.336 41.6187 11C41.9067 11.072 42.2187 11.108 42.4587 11.108H43.5867C44.4507 11.108 44.9187 11.312 44.9187 11.912C44.9187 12.596 44.0907 13.256 42.8427 13.256ZM51.832 11.156C52.732 11.156 53.38 10.688 53.992 9.98H54.028L54.112 11H55.024V4.484H53.932V9.104C53.308 9.884 52.84 10.208 52.168 10.208C51.304 10.208 50.944 9.692 50.944 8.48V4.484H49.852V8.612C49.852 10.268 50.464 11.156 51.832 11.156ZM57.2251 11H58.3171V6.272C58.9771 5.612 59.4331 5.276 60.1051 5.276C60.9691 5.276 61.3411 5.792 61.3411 7.016V11H62.4331V6.872C62.4331 5.204 61.8091 4.316 60.4411 4.316C59.5531 4.316 58.8811 4.808 58.2571 5.42H58.2211L58.1251 4.484H57.2251V11ZM64.561 11H65.653V4.484H64.561V11ZM65.113 3.14C65.545 3.14 65.845 2.852 65.845 2.408C65.845 1.988 65.545 1.7 65.113 1.7C64.681 1.7 64.381 1.988 64.381 2.408C64.381 2.852 64.681 3.14 65.113 3.14ZM69.9177 11.156C70.3137 11.156 70.7457 11.036 71.1177 10.916L70.9017 10.1C70.6857 10.184 70.3857 10.268 70.1577 10.268C69.4017 10.268 69.1497 9.812 69.1497 9.008V5.372H70.9137V4.484H69.1497V2.648H68.2377L68.1057 4.484L67.0857 4.544V5.372H68.0577V8.984C68.0577 10.28 68.5257 11.156 69.9177 11.156ZM79.9688 7.064L83.2568 10.352L83.8328 9.776L80.5568 6.488L83.8328 3.2L83.2568 2.624L79.9688 5.912L76.6928 2.624L76.1048 3.212L79.3928 6.488L76.1048 9.776L76.6928 10.352L79.9688 7.064ZM90.6443 7.424H91.4843V2.192H90.7883C90.4283 2.468 90.0803 2.624 89.5043 2.732V3.296H90.6443V7.424ZM90.8003 11.156H91.5323L96.3923 2.036H95.6483L90.8003 11.156ZM95.2643 11H98.8523V10.268H96.6323C97.7483 9.128 98.5763 8.312 98.5763 7.304C98.5763 6.2 97.8803 5.612 96.8363 5.612C96.1283 5.612 95.4923 6.02 95.0963 6.62L95.6123 7.088C95.9003 6.656 96.2843 6.32 96.7283 6.32C97.3523 6.32 97.7363 6.752 97.7363 7.424C97.7363 8.228 96.8843 9.044 95.2643 10.508V11ZM112.532 5.48V4.652H103.82V5.48H112.532ZM112.532 7.364H103.82V8.192H112.532V7.364ZM118.827 7.352L120.207 5.144C120.459 4.664 120.699 4.172 120.915 3.692H120.963C120.939 4.22 120.903 5.024 120.903 5.54V7.352H118.827ZM120.903 11H122.547V8.696H123.591V7.352H122.547V2.108H120.423L117.111 7.496V8.696H120.903V11ZM125.03 13.748H126.122V11.54L126.098 10.4C126.686 10.88 127.31 11.156 127.898 11.156C129.398 11.156 130.73 9.872 130.73 7.64C130.73 5.636 129.818 4.316 128.138 4.316C127.382 4.316 126.65 4.748 126.062 5.228H126.026L125.93 4.484H125.03V13.748ZM127.718 10.244C127.286 10.244 126.71 10.064 126.122 9.56V6.14C126.758 5.552 127.322 5.24 127.874 5.24C129.11 5.24 129.59 6.212 129.59 7.652C129.59 9.272 128.798 10.244 127.718 10.244ZM131.325 11H132.477L133.353 9.476C133.581 9.08 133.797 8.684 134.025 8.312H134.085C134.325 8.684 134.565 9.08 134.781 9.476L135.741 11H136.941L134.793 7.712L136.773 4.484H135.633L134.829 5.912C134.637 6.284 134.445 6.644 134.241 7.004H134.193C133.977 6.644 133.749 6.284 133.545 5.912L132.669 4.484H131.493L133.473 7.604L131.325 11Z" fill="black"/>
<path opacity="0.9" d="M5.808 77.156C7.344 77.156 8.184 76.28 8.184 75.224C8.184 73.988 7.14 73.604 6.192 73.244C5.46 72.968 4.788 72.74 4.788 72.116C4.788 71.612 5.172 71.18 6 71.18C6.576 71.18 7.032 71.42 7.476 71.756L8.004 71.048C7.5 70.652 6.792 70.316 5.988 70.316C4.572 70.316 3.732 71.132 3.732 72.164C3.732 73.268 4.728 73.712 5.64 74.048C6.36 74.324 7.128 74.612 7.128 75.284C7.128 75.848 6.708 76.304 5.844 76.304C5.064 76.304 4.476 75.992 3.912 75.536L3.372 76.256C3.996 76.772 4.884 77.156 5.808 77.156ZM9.71728 79.748H10.8093V77.54L10.7853 76.4C11.3733 76.88 11.9973 77.156 12.5853 77.156C14.0853 77.156 15.4173 75.872 15.4173 73.64C15.4173 71.636 14.5053 70.316 12.8253 70.316C12.0693 70.316 11.3373 70.748 10.7493 71.228H10.7133L10.6173 70.484H9.71728V79.748ZM12.4053 76.244C11.9733 76.244 11.3973 76.064 10.8093 75.56V72.14C11.4453 71.552 12.0093 71.24 12.5613 71.24C13.7973 71.24 14.2773 72.212 14.2773 73.652C14.2773 75.272 13.4853 76.244 12.4053 76.244ZM18.4712 77.156C19.2752 77.156 20.0072 76.736 20.6312 76.22H20.6672L20.7632 77H21.6632V72.992C21.6632 71.384 20.9912 70.316 19.4072 70.316C18.3632 70.316 17.4392 70.784 16.8392 71.168L17.2712 71.924C17.7872 71.576 18.4712 71.228 19.2272 71.228C20.2952 71.228 20.5712 72.032 20.5712 72.872C17.7992 73.184 16.5632 73.892 16.5632 75.308C16.5632 76.484 17.3792 77.156 18.4712 77.156ZM18.7832 76.28C18.1352 76.28 17.6312 75.98 17.6312 75.236C17.6312 74.396 18.3752 73.856 20.5712 73.592V75.416C19.9352 75.98 19.4192 76.28 18.7832 76.28ZM26.3126 77.156C27.0926 77.156 27.8366 76.856 28.4246 76.328L27.9446 75.596C27.5366 75.968 27.0086 76.244 26.4086 76.244C25.2086 76.244 24.3926 75.248 24.3926 73.748C24.3926 72.248 25.2566 71.228 26.4446 71.228C26.9606 71.228 27.3566 71.468 27.7406 71.804L28.3046 71.084C27.8366 70.676 27.2486 70.316 26.3966 70.316C24.7286 70.316 23.2526 71.576 23.2526 73.748C23.2526 75.908 24.5846 77.156 26.3126 77.156ZM29.8501 77H30.9421V70.484H29.8501V77ZM30.4021 69.14C30.8341 69.14 31.1341 68.852 31.1341 68.408C31.1341 67.988 30.8341 67.7 30.4021 67.7C29.9701 67.7 29.6701 67.988 29.6701 68.408C29.6701 68.852 29.9701 69.14 30.4021 69.14ZM33.1548 77H34.2468V72.272C34.9068 71.612 35.3628 71.276 36.0348 71.276C36.8988 71.276 37.2708 71.792 37.2708 73.016V77H38.3628V72.872C38.3628 71.204 37.7388 70.316 36.3708 70.316C35.4828 70.316 34.8108 70.808 34.1868 71.42H34.1508L34.0548 70.484H33.1548V77ZM42.6867 80C44.7027 80 45.9867 78.956 45.9867 77.744C45.9867 76.676 45.2187 76.196 43.7067 76.196H42.4347C41.5587 76.196 41.2947 75.908 41.2947 75.488C41.2947 75.128 41.4747 74.912 41.7147 74.708C42.0027 74.852 42.3627 74.936 42.6867 74.936C44.0067 74.936 45.0627 74.06 45.0627 72.668C45.0627 72.104 44.8467 71.624 44.5347 71.324H45.8667V70.484H43.5987C43.3707 70.4 43.0467 70.316 42.6867 70.316C41.3667 70.316 40.2387 71.216 40.2387 72.644C40.2387 73.424 40.6587 74.048 41.0907 74.396V74.444C40.7547 74.684 40.3587 75.116 40.3587 75.656C40.3587 76.172 40.6107 76.52 40.9587 76.724V76.772C40.3467 77.168 39.9987 77.696 39.9987 78.248C39.9987 79.376 41.0907 80 42.6867 80ZM42.6867 74.192C41.9307 74.192 41.2947 73.592 41.2947 72.644C41.2947 71.684 41.9187 71.12 42.6867 71.12C43.4547 71.12 44.0787 71.696 44.0787 72.644C44.0787 73.592 43.4307 74.192 42.6867 74.192ZM42.8427 79.256C41.6667 79.256 40.9587 78.8 40.9587 78.104C40.9587 77.72 41.1507 77.336 41.6187 77C41.9067 77.072 42.2187 77.108 42.4587 77.108H43.5867C44.4507 77.108 44.9187 77.312 44.9187 77.912C44.9187 78.596 44.0907 79.256 42.8427 79.256ZM51.832 77.156C52.732 77.156 53.38 76.688 53.992 75.98H54.028L54.112 77H55.024V70.484H53.932V75.104C53.308 75.884 52.84 76.208 52.168 76.208C51.304 76.208 50.944 75.692 50.944 74.48V70.484H49.852V74.612C49.852 76.268 50.464 77.156 51.832 77.156ZM57.2251 77H58.3171V72.272C58.9771 71.612 59.4331 71.276 60.1051 71.276C60.9691 71.276 61.3411 71.792 61.3411 73.016V77H62.4331V72.872C62.4331 71.204 61.8091 70.316 60.4411 70.316C59.5531 70.316 58.8811 70.808 58.2571 71.42H58.2211L58.1251 70.484H57.2251V77ZM64.561 77H65.653V70.484H64.561V77ZM65.113 69.14C65.545 69.14 65.845 68.852 65.845 68.408C65.845 67.988 65.545 67.7 65.113 67.7C64.681 67.7 64.381 67.988 64.381 68.408C64.381 68.852 64.681 69.14 65.113 69.14ZM69.9177 77.156C70.3137 77.156 70.7457 77.036 71.1177 76.916L70.9017 76.1C70.6857 76.184 70.3857 76.268 70.1577 76.268C69.4017 76.268 69.1497 75.812 69.1497 75.008V71.372H70.9137V70.484H69.1497V68.648H68.2377L68.1057 70.484L67.0857 70.544V71.372H68.0577V74.984C68.0577 76.28 68.5257 77.156 69.9177 77.156ZM83.2568 76.352L83.8328 75.776L80.5568 72.488L83.8328 69.2L83.2568 68.624L79.9688 71.912L76.6928 68.624L76.1048 69.212L79.3928 72.488L76.1048 75.776L76.6928 76.352L79.9688 73.064L83.2568 76.352ZM89.1803 77H94.7123V76.052H92.2283C91.7723 76.052 91.2443 76.1 90.7883 76.136C92.8163 74 94.2803 72.404 94.2803 70.796C94.2803 69.284 93.2963 68.288 91.7243 68.288C90.6083 68.288 89.8523 68.804 89.1323 69.584L89.7683 70.196C90.2483 69.632 90.8723 69.176 91.5923 69.176C92.6843 69.176 93.2123 69.872 93.2123 70.844C93.2123 72.248 91.7603 73.784 89.1803 76.352V77ZM108.348 70.652H99.6362V71.48H108.348V70.652ZM99.6362 73.364V74.192H108.348V73.364H99.6362ZM113.66 77H119V75.572H117.332V68.108H116.024C115.46 68.468 114.848 68.696 113.96 68.864V69.956H115.568V75.572H113.66V77ZM123.438 72.656C124.206 72.656 124.71 73.148 124.71 74.192C124.71 75.284 124.158 75.836 123.498 75.836C122.754 75.836 122.154 75.212 121.986 73.592C122.394 72.92 122.958 72.656 123.438 72.656ZM123.534 77.168C125.046 77.168 126.318 76.016 126.318 74.192C126.318 72.296 125.262 71.408 123.774 71.408C123.198 71.408 122.43 71.768 121.95 72.368C122.022 70.136 122.862 69.368 123.882 69.368C124.398 69.368 124.938 69.656 125.25 70.016L126.186 68.96C125.646 68.408 124.866 67.952 123.774 67.952C121.986 67.952 120.342 69.368 120.342 72.68C120.342 75.812 121.842 77.168 123.534 77.168ZM127.913 79.748H129.005V77.54L128.981 76.4C129.569 76.88 130.193 77.156 130.781 77.156C132.281 77.156 133.613 75.872 133.613 73.64C133.613 71.636 132.701 70.316 131.021 70.316C130.265 70.316 129.533 70.748 128.945 71.228H128.909L128.813 70.484H127.913V79.748ZM130.601 76.244C130.169 76.244 129.593 76.064 129.005 75.56V72.14C129.641 71.552 130.205 71.24 130.757 71.24C131.993 71.24 132.473 72.212 132.473 73.652C132.473 75.272 131.681 76.244 130.601 76.244ZM134.207 77H135.359L136.235 75.476C136.463 75.08 136.679 74.684 136.907 74.312H136.967C137.207 74.684 137.447 75.08 137.663 75.476L138.623 77H139.823L137.675 73.712L139.655 70.484H138.515L137.711 71.912C137.519 72.284 137.327 72.644 137.123 73.004H137.075C136.859 72.644 136.631 72.284 136.427 71.912L135.551 70.484H134.375L136.355 73.604L134.207 77Z" fill="black"/>
<path opacity="0.9" d="M5.808 121.156C7.344 121.156 8.184 120.28 8.184 119.224C8.184 117.988 7.14 117.604 6.192 117.244C5.46 116.968 4.788 116.74 4.788 116.116C4.788 115.612 5.172 115.18 6 115.18C6.576 115.18 7.032 115.42 7.476 115.756L8.004 115.048C7.5 114.652 6.792 114.316 5.988 114.316C4.572 114.316 3.732 115.132 3.732 116.164C3.732 117.268 4.728 117.712 5.64 118.048C6.36 118.324 7.128 118.612 7.128 119.284C7.128 119.848 6.708 120.304 5.844 120.304C5.064 120.304 4.476 119.992 3.912 119.536L3.372 120.256C3.996 120.772 4.884 121.156 5.808 121.156ZM9.71728 123.748H10.8093V121.54L10.7853 120.4C11.3733 120.88 11.9973 121.156 12.5853 121.156C14.0853 121.156 15.4173 119.872 15.4173 117.64C15.4173 115.636 14.5053 114.316 12.8253 114.316C12.0693 114.316 11.3373 114.748 10.7493 115.228H10.7133L10.6173 114.484H9.71728V123.748ZM12.4053 120.244C11.9733 120.244 11.3973 120.064 10.8093 119.56V116.14C11.4453 115.552 12.0093 115.24 12.5613 115.24C13.7973 115.24 14.2773 116.212 14.2773 117.652C14.2773 119.272 13.4853 120.244 12.4053 120.244ZM18.4712 121.156C19.2752 121.156 20.0072 120.736 20.6312 120.22H20.6672L20.7632 121H21.6632V116.992C21.6632 115.384 20.9912 114.316 19.4072 114.316C18.3632 114.316 17.4392 114.784 16.8392 115.168L17.2712 115.924C17.7872 115.576 18.4712 115.228 19.2272 115.228C20.2952 115.228 20.5712 116.032 20.5712 116.872C17.7992 117.184 16.5632 117.892 16.5632 119.308C16.5632 120.484 17.3792 121.156 18.4712 121.156ZM18.7832 120.28C18.1352 120.28 17.6312 119.98 17.6312 119.236C17.6312 118.396 18.3752 117.856 20.5712 117.592V119.416C19.9352 119.98 19.4192 120.28 18.7832 120.28ZM26.3126 121.156C27.0926 121.156 27.8366 120.856 28.4246 120.328L27.9446 119.596C27.5366 119.968 27.0086 120.244 26.4086 120.244C25.2086 120.244 24.3926 119.248 24.3926 117.748C24.3926 116.248 25.2566 115.228 26.4446 115.228C26.9606 115.228 27.3566 115.468 27.7406 115.804L28.3046 115.084C27.8366 114.676 27.2486 114.316 26.3966 114.316C24.7286 114.316 23.2526 115.576 23.2526 117.748C23.2526 119.908 24.5846 121.156 26.3126 121.156ZM29.8501 121H30.9421V114.484H29.8501V121ZM30.4021 113.14C30.8341 113.14 31.1341 112.852 31.1341 112.408C31.1341 111.988 30.8341 111.7 30.4021 111.7C29.9701 111.7 29.6701 111.988 29.6701 112.408C29.6701 112.852 29.9701 113.14 30.4021 113.14ZM33.1548 121H34.2468V116.272C34.9068 115.612 35.3628 115.276 36.0348 115.276C36.8988 115.276 37.2708 115.792 37.2708 117.016V121H38.3628V116.872C38.3628 115.204 37.7388 114.316 36.3708 114.316C35.4828 114.316 34.8108 114.808 34.1868 115.42H34.1508L34.0548 114.484H33.1548V121ZM42.6867 124C44.7027 124 45.9867 122.956 45.9867 121.744C45.9867 120.676 45.2187 120.196 43.7067 120.196H42.4347C41.5587 120.196 41.2947 119.908 41.2947 119.488C41.2947 119.128 41.4747 118.912 41.7147 118.708C42.0027 118.852 42.3627 118.936 42.6867 118.936C44.0067 118.936 45.0627 118.06 45.0627 116.668C45.0627 116.104 44.8467 115.624 44.5347 115.324H45.8667V114.484H43.5987C43.3707 114.4 43.0467 114.316 42.6867 114.316C41.3667 114.316 40.2387 115.216 40.2387 116.644C40.2387 117.424 40.6587 118.048 41.0907 118.396V118.444C40.7547 118.684 40.3587 119.116 40.3587 119.656C40.3587 120.172 40.6107 120.52 40.9587 120.724V120.772C40.3467 121.168 39.9987 121.696 39.9987 122.248C39.9987 123.376 41.0907 124 42.6867 124ZM42.6867 118.192C41.9307 118.192 41.2947 117.592 41.2947 116.644C41.2947 115.684 41.9187 115.12 42.6867 115.12C43.4547 115.12 44.0787 115.696 44.0787 116.644C44.0787 117.592 43.4307 118.192 42.6867 118.192ZM42.8427 123.256C41.6667 123.256 40.9587 122.8 40.9587 122.104C40.9587 121.72 41.1507 121.336 41.6187 121C41.9067 121.072 42.2187 121.108 42.4587 121.108H43.5867C44.4507 121.108 44.9187 121.312 44.9187 121.912C44.9187 122.596 44.0907 123.256 42.8427 123.256ZM51.832 121.156C52.732 121.156 53.38 120.688 53.992 119.98H54.028L54.112 121H55.024V114.484H53.932V119.104C53.308 119.884 52.84 120.208 52.168 120.208C51.304 120.208 50.944 119.692 50.944 118.48V114.484H49.852V118.612C49.852 120.268 50.464 121.156 51.832 121.156ZM57.2251 121H58.3171V116.272C58.9771 115.612 59.4331 115.276 60.1051 115.276C60.9691 115.276 61.3411 115.792 61.3411 117.016V121H62.4331V116.872C62.4331 115.204 61.8091 114.316 60.4411 114.316C59.5531 114.316 58.8811 114.808 58.2571 115.42H58.2211L58.1251 114.484H57.2251V121ZM64.561 121H65.653V114.484H64.561V121ZM65.113 113.14C65.545 113.14 65.845 112.852 65.845 112.408C65.845 111.988 65.545 111.7 65.113 111.7C64.681 111.7 64.381 111.988 64.381 112.408C64.381 112.852 64.681 113.14 65.113 113.14ZM69.9177 121.156C70.3137 121.156 70.7457 121.036 71.1177 120.916L70.9017 120.1C70.6857 120.184 70.3857 120.268 70.1577 120.268C69.4017 120.268 69.1497 119.812 69.1497 119.008V115.372H70.9137V114.484H69.1497V112.648H68.2377L68.1057 114.484L67.0857 114.544V115.372H68.0577V118.984C68.0577 120.28 68.5257 121.156 69.9177 121.156ZM83.2568 120.352L83.8328 119.776L80.5568 116.488L83.8328 113.2L83.2568 112.624L79.9688 115.912L76.6928 112.624L76.1048 113.212L79.3928 116.488L76.1048 119.776L76.6928 120.352L79.9688 117.064L83.2568 120.352ZM91.8203 121.156C93.3803 121.156 94.6403 120.244 94.6403 118.72C94.6403 117.544 93.8123 116.788 92.7803 116.536V116.488C93.7043 116.152 94.3403 115.492 94.3403 114.46C94.3403 113.068 93.2603 112.288 91.7843 112.288C90.7643 112.288 89.9843 112.732 89.3243 113.356L89.9123 114.04C90.4043 113.536 91.0283 113.176 91.7363 113.176C92.6483 113.176 93.2243 113.704 93.2243 114.532C93.2243 115.432 92.6003 116.14 90.7883 116.14V116.98C92.8163 116.98 93.5243 117.652 93.5243 118.672C93.5243 119.632 92.7803 120.244 91.7363 120.244C90.7403 120.244 90.0683 119.776 89.5523 119.236L89.0003 119.956C89.5763 120.58 90.4403 121.156 91.8203 121.156ZM108.348 114.652H99.6362V115.48H108.348V114.652ZM99.6362 117.364V118.192H108.348V117.364H99.6362ZM113.192 121H119.144V119.512H117.224C116.804 119.512 116.216 119.56 115.772 119.608C117.392 118.024 118.724 116.296 118.724 114.688C118.724 113.032 117.608 111.952 115.928 111.952C114.716 111.952 113.924 112.42 113.108 113.296L114.068 114.256C114.524 113.764 115.052 113.344 115.7 113.344C116.552 113.344 117.032 113.884 117.032 114.784C117.032 116.152 115.604 117.82 113.192 119.98V121ZM121.71 117.352L123.09 115.144C123.342 114.664 123.582 114.172 123.798 113.692H123.846C123.822 114.22 123.786 115.024 123.786 115.54V117.352H121.71ZM123.786 121H125.43V118.696H126.474V117.352H125.43V112.108H123.306L119.994 117.496V118.696H123.786V121ZM127.913 123.748H129.005V121.54L128.981 120.4C129.569 120.88 130.193 121.156 130.781 121.156C132.281 121.156 133.613 119.872 133.613 117.64C133.613 115.636 132.701 114.316 131.021 114.316C130.265 114.316 129.533 114.748 128.945 115.228H128.909L128.813 114.484H127.913V123.748ZM130.601 120.244C130.169 120.244 129.593 120.064 129.005 119.56V116.14C129.641 115.552 130.205 115.24 130.757 115.24C131.993 115.24 132.473 116.212 132.473 117.652C132.473 119.272 131.681 120.244 130.601 120.244ZM134.207 121H135.359L136.235 119.476C136.463 119.08 136.679 118.684 136.907 118.312H136.967C137.207 118.684 137.447 119.08 137.663 119.476L138.623 121H139.823L137.675 117.712L139.655 114.484H138.515L137.711 115.912C137.519 116.284 137.327 116.644 137.123 117.004H137.075C136.859 116.644 136.631 116.284 136.427 115.912L135.551 114.484H134.375L136.355 117.604L134.207 121Z" fill="black"/>
<path opacity="0.9" d="M5.808 177.156C7.344 177.156 8.184 176.28 8.184 175.224C8.184 173.988 7.14 173.604 6.192 173.244C5.46 172.968 4.788 172.74 4.788 172.116C4.788 171.612 5.172 171.18 6 171.18C6.576 171.18 7.032 171.42 7.476 171.756L8.004 171.048C7.5 170.652 6.792 170.316 5.988 170.316C4.572 170.316 3.732 171.132 3.732 172.164C3.732 173.268 4.728 173.712 5.64 174.048C6.36 174.324 7.128 174.612 7.128 175.284C7.128 175.848 6.708 176.304 5.844 176.304C5.064 176.304 4.476 175.992 3.912 175.536L3.372 176.256C3.996 176.772 4.884 177.156 5.808 177.156ZM9.71728 179.748H10.8093V177.54L10.7853 176.4C11.3733 176.88 11.9973 177.156 12.5853 177.156C14.0853 177.156 15.4173 175.872 15.4173 173.64C15.4173 171.636 14.5053 170.316 12.8253 170.316C12.0693 170.316 11.3373 170.748 10.7493 171.228H10.7133L10.6173 170.484H9.71728V179.748ZM12.4053 176.244C11.9733 176.244 11.3973 176.064 10.8093 175.56V172.14C11.4453 171.552 12.0093 171.24 12.5613 171.24C13.7973 171.24 14.2773 172.212 14.2773 173.652C14.2773 175.272 13.4853 176.244 12.4053 176.244ZM18.4712 177.156C19.2752 177.156 20.0072 176.736 20.6312 176.22H20.6672L20.7632 177H21.6632V172.992C21.6632 171.384 20.9912 170.316 19.4072 170.316C18.3632 170.316 17.4392 170.784 16.8392 171.168L17.2712 171.924C17.7872 171.576 18.4712 171.228 19.2272 171.228C20.2952 171.228 20.5712 172.032 20.5712 172.872C17.7992 173.184 16.5632 173.892 16.5632 175.308C16.5632 176.484 17.3792 177.156 18.4712 177.156ZM18.7832 176.28C18.1352 176.28 17.6312 175.98 17.6312 175.236C17.6312 174.396 18.3752 173.856 20.5712 173.592V175.416C19.9352 175.98 19.4192 176.28 18.7832 176.28ZM26.3126 177.156C27.0926 177.156 27.8366 176.856 28.4246 176.328L27.9446 175.596C27.5366 175.968 27.0086 176.244 26.4086 176.244C25.2086 176.244 24.3926 175.248 24.3926 173.748C24.3926 172.248 25.2566 171.228 26.4446 171.228C26.9606 171.228 27.3566 171.468 27.7406 171.804L28.3046 171.084C27.8366 170.676 27.2486 170.316 26.3966 170.316C24.7286 170.316 23.2526 171.576 23.2526 173.748C23.2526 175.908 24.5846 177.156 26.3126 177.156ZM29.8501 177H30.9421V170.484H29.8501V177ZM30.4021 169.14C30.8341 169.14 31.1341 168.852 31.1341 168.408C31.1341 167.988 30.8341 167.7 30.4021 167.7C29.9701 167.7 29.6701 167.988 29.6701 168.408C29.6701 168.852 29.9701 169.14 30.4021 169.14ZM33.1548 177H34.2468V172.272C34.9068 171.612 35.3628 171.276 36.0348 171.276C36.8988 171.276 37.2708 171.792 37.2708 173.016V177H38.3628V172.872C38.3628 171.204 37.7388 170.316 36.3708 170.316C35.4828 170.316 34.8108 170.808 34.1868 171.42H34.1508L34.0548 170.484H33.1548V177ZM42.6867 180C44.7027 180 45.9867 178.956 45.9867 177.744C45.9867 176.676 45.2187 176.196 43.7067 176.196H42.4347C41.5587 176.196 41.2947 175.908 41.2947 175.488C41.2947 175.128 41.4747 174.912 41.7147 174.708C42.0027 174.852 42.3627 174.936 42.6867 174.936C44.0067 174.936 45.0627 174.06 45.0627 172.668C45.0627 172.104 44.8467 171.624 44.5347 171.324H45.8667V170.484H43.5987C43.3707 170.4 43.0467 170.316 42.6867 170.316C41.3667 170.316 40.2387 171.216 40.2387 172.644C40.2387 173.424 40.6587 174.048 41.0907 174.396V174.444C40.7547 174.684 40.3587 175.116 40.3587 175.656C40.3587 176.172 40.6107 176.52 40.9587 176.724V176.772C40.3467 177.168 39.9987 177.696 39.9987 178.248C39.9987 179.376 41.0907 180 42.6867 180ZM42.6867 174.192C41.9307 174.192 41.2947 173.592 41.2947 172.644C41.2947 171.684 41.9187 171.12 42.6867 171.12C43.4547 171.12 44.0787 171.696 44.0787 172.644C44.0787 173.592 43.4307 174.192 42.6867 174.192ZM42.8427 179.256C41.6667 179.256 40.9587 178.8 40.9587 178.104C40.9587 177.72 41.1507 177.336 41.6187 177C41.9067 177.072 42.2187 177.108 42.4587 177.108H43.5867C44.4507 177.108 44.9187 177.312 44.9187 177.912C44.9187 178.596 44.0907 179.256 42.8427 179.256ZM51.832 177.156C52.732 177.156 53.38 176.688 53.992 175.98H54.028L54.112 177H55.024V170.484H53.932V175.104C53.308 175.884 52.84 176.208 52.168 176.208C51.304 176.208 50.944 175.692 50.944 174.48V170.484H49.852V174.612C49.852 176.268 50.464 177.156 51.832 177.156ZM57.2251 177H58.3171V172.272C58.9771 171.612 59.4331 171.276 60.1051 171.276C60.9691 171.276 61.3411 171.792 61.3411 173.016V177H62.4331V172.872C62.4331 171.204 61.8091 170.316 60.4411 170.316C59.5531 170.316 58.8811 170.808 58.2571 171.42H58.2211L58.1251 170.484H57.2251V177ZM64.561 177H65.653V170.484H64.561V177ZM65.113 169.14C65.545 169.14 65.845 168.852 65.845 168.408C65.845 167.988 65.545 167.7 65.113 167.7C64.681 167.7 64.381 167.988 64.381 168.408C64.381 168.852 64.681 169.14 65.113 169.14ZM69.9177 177.156C70.3137 177.156 70.7457 177.036 71.1177 176.916L70.9017 176.1C70.6857 176.184 70.3857 176.268 70.1577 176.268C69.4017 176.268 69.1497 175.812 69.1497 175.008V171.372H70.9137V170.484H69.1497V168.648H68.2377L68.1057 170.484L67.0857 170.544V171.372H68.0577V174.984C68.0577 176.28 68.5257 177.156 69.9177 177.156ZM83.2568 176.352L83.8328 175.776L80.5568 172.488L83.8328 169.2L83.2568 168.624L79.9688 171.912L76.6928 168.624L76.1048 169.212L79.3928 172.488L76.1048 175.776L76.6928 176.352L79.9688 173.064L83.2568 176.352ZM91.7843 177.156C93.2723 177.156 94.6643 176.112 94.6643 174.264C94.6643 172.416 93.4763 171.576 92.0123 171.576C91.4843 171.576 91.1003 171.72 90.7043 171.936L90.9203 169.38H94.2443V168.444H89.9603L89.6843 172.56L90.2723 172.932C90.7763 172.596 91.1483 172.404 91.7363 172.404C92.8403 172.404 93.5603 173.112 93.5603 174.3C93.5603 175.488 92.7203 176.244 91.6883 176.244C90.6683 176.244 90.0323 175.776 89.5283 175.272L88.9883 175.992C89.5763 176.58 90.4163 177.156 91.7843 177.156ZM108.348 170.652H99.6362V171.48H108.348V170.652ZM99.6362 173.364V174.192H108.348V173.364H99.6362ZM114.644 173.352L116.024 171.144C116.276 170.664 116.516 170.172 116.732 169.692H116.78C116.756 170.22 116.72 171.024 116.72 171.54V173.352H114.644ZM116.72 177H118.364V174.696H119.408V173.352H118.364V168.108H116.24L112.928 173.496V174.696H116.72V177ZM123.282 177.168C125.094 177.168 126.282 175.584 126.282 172.524C126.282 169.464 125.094 167.952 123.282 167.952C121.47 167.952 120.27 169.452 120.27 172.524C120.27 175.584 121.47 177.168 123.282 177.168ZM123.282 175.788C122.514 175.788 121.938 175.02 121.938 172.524C121.938 170.04 122.514 169.32 123.282 169.32C124.05 169.32 124.614 170.04 124.614 172.524C124.614 175.02 124.05 175.788 123.282 175.788ZM127.913 179.748H129.005V177.54L128.981 176.4C129.569 176.88 130.193 177.156 130.781 177.156C132.281 177.156 133.613 175.872 133.613 173.64C133.613 171.636 132.701 170.316 131.021 170.316C130.265 170.316 129.533 170.748 128.945 171.228H128.909L128.813 170.484H127.913V179.748ZM130.601 176.244C130.169 176.244 129.593 176.064 129.005 175.56V172.14C129.641 171.552 130.205 171.24 130.757 171.24C131.993 171.24 132.473 172.212 132.473 173.652C132.473 175.272 131.681 176.244 130.601 176.244ZM134.207 177H135.359L136.235 175.476C136.463 175.08 136.679 174.684 136.907 174.312H136.967C137.207 174.684 137.447 175.08 137.663 175.476L138.623 177H139.823L137.675 173.712L139.655 170.484H138.515L137.711 171.912C137.519 172.284 137.327 172.644 137.123 173.004H137.075C136.859 172.644 136.631 172.284 136.427 171.912L135.551 170.484H134.375L136.355 173.604L134.207 177Z" fill="black"/>
<path opacity="0.9" d="M5.808 253.156C7.344 253.156 8.184 252.28 8.184 251.224C8.184 249.988 7.14 249.604 6.192 249.244C5.46 248.968 4.788 248.74 4.788 248.116C4.788 247.612 5.172 247.18 6 247.18C6.576 247.18 7.032 247.42 7.476 247.756L8.004 247.048C7.5 246.652 6.792 246.316 5.988 246.316C4.572 246.316 3.732 247.132 3.732 248.164C3.732 249.268 4.728 249.712 5.64 250.048C6.36 250.324 7.128 250.612 7.128 251.284C7.128 251.848 6.708 252.304 5.844 252.304C5.064 252.304 4.476 251.992 3.912 251.536L3.372 252.256C3.996 252.772 4.884 253.156 5.808 253.156ZM9.71728 255.748H10.8093V253.54L10.7853 252.4C11.3733 252.88 11.9973 253.156 12.5853 253.156C14.0853 253.156 15.4173 251.872 15.4173 249.64C15.4173 247.636 14.5053 246.316 12.8253 246.316C12.0693 246.316 11.3373 246.748 10.7493 247.228H10.7133L10.6173 246.484H9.71728V255.748ZM12.4053 252.244C11.9733 252.244 11.3973 252.064 10.8093 251.56V248.14C11.4453 247.552 12.0093 247.24 12.5613 247.24C13.7973 247.24 14.2773 248.212 14.2773 249.652C14.2773 251.272 13.4853 252.244 12.4053 252.244ZM18.4712 253.156C19.2752 253.156 20.0072 252.736 20.6312 252.22H20.6672L20.7632 253H21.6632V248.992C21.6632 247.384 20.9912 246.316 19.4072 246.316C18.3632 246.316 17.4392 246.784 16.8392 247.168L17.2712 247.924C17.7872 247.576 18.4712 247.228 19.2272 247.228C20.2952 247.228 20.5712 248.032 20.5712 248.872C17.7992 249.184 16.5632 249.892 16.5632 251.308C16.5632 252.484 17.3792 253.156 18.4712 253.156ZM18.7832 252.28C18.1352 252.28 17.6312 251.98 17.6312 251.236C17.6312 250.396 18.3752 249.856 20.5712 249.592V251.416C19.9352 251.98 19.4192 252.28 18.7832 252.28ZM26.3126 253.156C27.0926 253.156 27.8366 252.856 28.4246 252.328L27.9446 251.596C27.5366 251.968 27.0086 252.244 26.4086 252.244C25.2086 252.244 24.3926 251.248 24.3926 249.748C24.3926 248.248 25.2566 247.228 26.4446 247.228C26.9606 247.228 27.3566 247.468 27.7406 247.804L28.3046 247.084C27.8366 246.676 27.2486 246.316 26.3966 246.316C24.7286 246.316 23.2526 247.576 23.2526 249.748C23.2526 251.908 24.5846 253.156 26.3126 253.156ZM29.8501 253H30.9421V246.484H29.8501V253ZM30.4021 245.14C30.8341 245.14 31.1341 244.852 31.1341 244.408C31.1341 243.988 30.8341 243.7 30.4021 243.7C29.9701 243.7 29.6701 243.988 29.6701 244.408C29.6701 244.852 29.9701 245.14 30.4021 245.14ZM33.1548 253H34.2468V248.272C34.9068 247.612 35.3628 247.276 36.0348 247.276C36.8988 247.276 37.2708 247.792 37.2708 249.016V253H38.3628V248.872C38.3628 247.204 37.7388 246.316 36.3708 246.316C35.4828 246.316 34.8108 246.808 34.1868 247.42H34.1508L34.0548 246.484H33.1548V253ZM42.6867 256C44.7027 256 45.9867 254.956 45.9867 253.744C45.9867 252.676 45.2187 252.196 43.7067 252.196H42.4347C41.5587 252.196 41.2947 251.908 41.2947 251.488C41.2947 251.128 41.4747 250.912 41.7147 250.708C42.0027 250.852 42.3627 250.936 42.6867 250.936C44.0067 250.936 45.0627 250.06 45.0627 248.668C45.0627 248.104 44.8467 247.624 44.5347 247.324H45.8667V246.484H43.5987C43.3707 246.4 43.0467 246.316 42.6867 246.316C41.3667 246.316 40.2387 247.216 40.2387 248.644C40.2387 249.424 40.6587 250.048 41.0907 250.396V250.444C40.7547 250.684 40.3587 251.116 40.3587 251.656C40.3587 252.172 40.6107 252.52 40.9587 252.724V252.772C40.3467 253.168 39.9987 253.696 39.9987 254.248C39.9987 255.376 41.0907 256 42.6867 256ZM42.6867 250.192C41.9307 250.192 41.2947 249.592 41.2947 248.644C41.2947 247.684 41.9187 247.12 42.6867 247.12C43.4547 247.12 44.0787 247.696 44.0787 248.644C44.0787 249.592 43.4307 250.192 42.6867 250.192ZM42.8427 255.256C41.6667 255.256 40.9587 254.8 40.9587 254.104C40.9587 253.72 41.1507 253.336 41.6187 253C41.9067 253.072 42.2187 253.108 42.4587 253.108H43.5867C44.4507 253.108 44.9187 253.312 44.9187 253.912C44.9187 254.596 44.0907 255.256 42.8427 255.256ZM51.832 253.156C52.732 253.156 53.38 252.688 53.992 251.98H54.028L54.112 253H55.024V246.484H53.932V251.104C53.308 251.884 52.84 252.208 52.168 252.208C51.304 252.208 50.944 251.692 50.944 250.48V246.484H49.852V250.612C49.852 252.268 50.464 253.156 51.832 253.156ZM57.2251 253H58.3171V248.272C58.9771 247.612 59.4331 247.276 60.1051 247.276C60.9691 247.276 61.3411 247.792 61.3411 249.016V253H62.4331V248.872C62.4331 247.204 61.8091 246.316 60.4411 246.316C59.5531 246.316 58.8811 246.808 58.2571 247.42H58.2211L58.1251 246.484H57.2251V253ZM64.561 253H65.653V246.484H64.561V253ZM65.113 245.14C65.545 245.14 65.845 244.852 65.845 244.408C65.845 243.988 65.545 243.7 65.113 243.7C64.681 243.7 64.381 243.988 64.381 244.408C64.381 244.852 64.681 245.14 65.113 245.14ZM69.9177 253.156C70.3137 253.156 70.7457 253.036 71.1177 252.916L70.9017 252.1C70.6857 252.184 70.3857 252.268 70.1577 252.268C69.4017 252.268 69.1497 251.812 69.1497 251.008V247.372H70.9137V246.484H69.1497V244.648H68.2377L68.1057 246.484L67.0857 246.544V247.372H68.0577V250.984C68.0577 252.28 68.5257 253.156 69.9177 253.156ZM83.2568 252.352L83.8328 251.776L80.5568 248.488L83.8328 245.2L83.2568 244.624L79.9688 247.912L76.6928 244.624L76.1048 245.212L79.3928 248.488L76.1048 251.776L76.6928 252.352L79.9688 249.064L83.2568 252.352ZM92.0003 253.156C93.6563 253.156 94.7603 252.16 94.7603 250.876C94.7603 249.736 94.0283 249.136 93.2723 248.68V248.62C93.7883 248.224 94.4483 247.456 94.4483 246.556C94.4483 245.224 93.5363 244.288 92.0363 244.288C90.6683 244.288 89.6243 245.164 89.6243 246.472C89.6243 247.384 90.1763 248.02 90.8123 248.452V248.5C90.0083 248.932 89.1923 249.7 89.1923 250.816C89.1923 252.172 90.3803 253.156 92.0003 253.156ZM92.6003 248.344C91.5683 247.936 90.6203 247.504 90.6203 246.472C90.6203 245.644 91.2083 245.104 92.0243 245.104C92.9723 245.104 93.5123 245.776 93.5123 246.616C93.5123 247.252 93.1883 247.816 92.6003 248.344ZM92.0243 252.34C90.9683 252.34 90.1883 251.656 90.1883 250.72C90.1883 249.928 90.6923 249.292 91.3883 248.848C92.6363 249.34 93.7163 249.736 93.7163 250.852C93.7163 251.728 93.0323 252.34 92.0243 252.34ZM108.348 246.652H99.6362V247.48H108.348V246.652ZM99.6362 249.364V250.192H108.348V249.364H99.6362ZM116.372 248.656C117.14 248.656 117.644 249.148 117.644 250.192C117.644 251.284 117.092 251.836 116.432 251.836C115.688 251.836 115.088 251.212 114.92 249.592C115.328 248.92 115.892 248.656 116.372 248.656ZM116.468 253.168C117.98 253.168 119.252 252.016 119.252 250.192C119.252 248.296 118.196 247.408 116.708 247.408C116.132 247.408 115.364 247.768 114.884 248.368C114.956 246.136 115.796 245.368 116.816 245.368C117.332 245.368 117.872 245.656 118.184 246.016L119.12 244.96C118.58 244.408 117.8 243.952 116.708 243.952C114.92 243.952 113.276 245.368 113.276 248.68C113.276 251.812 114.776 253.168 116.468 253.168ZM121.71 249.352L123.09 247.144C123.342 246.664 123.582 246.172 123.798 245.692H123.846C123.822 246.22 123.786 247.024 123.786 247.54V249.352H121.71ZM123.786 253H125.43V250.696H126.474V249.352H125.43V244.108H123.306L119.994 249.496V250.696H123.786V253ZM127.913 255.748H129.005V253.54L128.981 252.4C129.569 252.88 130.193 253.156 130.781 253.156C132.281 253.156 133.613 251.872 133.613 249.64C133.613 247.636 132.701 246.316 131.021 246.316C130.265 246.316 129.533 246.748 128.945 247.228H128.909L128.813 246.484H127.913V255.748ZM130.601 252.244C130.169 252.244 129.593 252.064 129.005 251.56V248.14C129.641 247.552 130.205 247.24 130.757 247.24C131.993 247.24 132.473 248.212 132.473 249.652C132.473 251.272 131.681 252.244 130.601 252.244ZM134.207 253H135.359L136.235 251.476C136.463 251.08 136.679 250.684 136.907 250.312H136.967C137.207 250.684 137.447 251.08 137.663 251.476L138.623 253H139.823L137.675 249.712L139.655 246.484H138.515L137.711 247.912C137.519 248.284 137.327 248.644 137.123 249.004H137.075C136.859 248.644 136.631 248.284 136.427 247.912L135.551 246.484H134.375L136.355 249.604L134.207 253Z" fill="black"/>
<path opacity="0.9" d="M2.808 361.156C4.344 361.156 5.184 360.28 5.184 359.224C5.184 357.988 4.14 357.604 3.192 357.244C2.46 356.968 1.788 356.74 1.788 356.116C1.788 355.612 2.172 355.18 3 355.18C3.576 355.18 4.032 355.42 4.476 355.756L5.004 355.048C4.5 354.652 3.792 354.316 2.988 354.316C1.572 354.316 0.732 355.132 0.732 356.164C0.732 357.268 1.728 357.712 2.64 358.048C3.36 358.324 4.128 358.612 4.128 359.284C4.128 359.848 3.708 360.304 2.844 360.304C2.064 360.304 1.476 359.992 0.912 359.536L0.372 360.256C0.996 360.772 1.884 361.156 2.808 361.156ZM6.71728 363.748H7.80928V361.54L7.78528 360.4C8.37328 360.88 8.99728 361.156 9.58528 361.156C11.0853 361.156 12.4173 359.872 12.4173 357.64C12.4173 355.636 11.5053 354.316 9.82528 354.316C9.06928 354.316 8.33728 354.748 7.74928 355.228H7.71328L7.61728 354.484H6.71728V363.748ZM9.40528 360.244C8.97328 360.244 8.39728 360.064 7.80928 359.56V356.14C8.44528 355.552 9.00928 355.24 9.56128 355.24C10.7973 355.24 11.2773 356.212 11.2773 357.652C11.2773 359.272 10.4853 360.244 9.40528 360.244ZM15.4712 361.156C16.2752 361.156 17.0072 360.736 17.6312 360.22H17.6672L17.7632 361H18.6632V356.992C18.6632 355.384 17.9912 354.316 16.4072 354.316C15.3632 354.316 14.4392 354.784 13.8392 355.168L14.2712 355.924C14.7872 355.576 15.4712 355.228 16.2272 355.228C17.2952 355.228 17.5712 356.032 17.5712 356.872C14.7992 357.184 13.5632 357.892 13.5632 359.308C13.5632 360.484 14.3792 361.156 15.4712 361.156ZM15.7832 360.28C15.1352 360.28 14.6312 359.98 14.6312 359.236C14.6312 358.396 15.3752 357.856 17.5712 357.592V359.416C16.9352 359.98 16.4192 360.28 15.7832 360.28ZM23.3126 361.156C24.0926 361.156 24.8366 360.856 25.4246 360.328L24.9446 359.596C24.5366 359.968 24.0086 360.244 23.4086 360.244C22.2086 360.244 21.3926 359.248 21.3926 357.748C21.3926 356.248 22.2566 355.228 23.4446 355.228C23.9606 355.228 24.3566 355.468 24.7406 355.804L25.3046 355.084C24.8366 354.676 24.2486 354.316 23.3966 354.316C21.7286 354.316 20.2526 355.576 20.2526 357.748C20.2526 359.908 21.5846 361.156 23.3126 361.156ZM26.8501 361H27.9421V354.484H26.8501V361ZM27.4021 353.14C27.8341 353.14 28.1341 352.852 28.1341 352.408C28.1341 351.988 27.8341 351.7 27.4021 351.7C26.9701 351.7 26.6701 351.988 26.6701 352.408C26.6701 352.852 26.9701 353.14 27.4021 353.14ZM30.1548 361H31.2468V356.272C31.9068 355.612 32.3628 355.276 33.0348 355.276C33.8988 355.276 34.2708 355.792 34.2708 357.016V361H35.3628V356.872C35.3628 355.204 34.7388 354.316 33.3708 354.316C32.4828 354.316 31.8108 354.808 31.1868 355.42H31.1508L31.0548 354.484H30.1548V361ZM39.6867 364C41.7027 364 42.9867 362.956 42.9867 361.744C42.9867 360.676 42.2187 360.196 40.7067 360.196H39.4347C38.5587 360.196 38.2947 359.908 38.2947 359.488C38.2947 359.128 38.4747 358.912 38.7147 358.708C39.0027 358.852 39.3627 358.936 39.6867 358.936C41.0067 358.936 42.0627 358.06 42.0627 356.668C42.0627 356.104 41.8467 355.624 41.5347 355.324H42.8667V354.484H40.5987C40.3707 354.4 40.0467 354.316 39.6867 354.316C38.3667 354.316 37.2387 355.216 37.2387 356.644C37.2387 357.424 37.6587 358.048 38.0907 358.396V358.444C37.7547 358.684 37.3587 359.116 37.3587 359.656C37.3587 360.172 37.6107 360.52 37.9587 360.724V360.772C37.3467 361.168 36.9987 361.696 36.9987 362.248C36.9987 363.376 38.0907 364 39.6867 364ZM39.6867 358.192C38.9307 358.192 38.2947 357.592 38.2947 356.644C38.2947 355.684 38.9187 355.12 39.6867 355.12C40.4547 355.12 41.0787 355.696 41.0787 356.644C41.0787 357.592 40.4307 358.192 39.6867 358.192ZM39.8427 363.256C38.6667 363.256 37.9587 362.8 37.9587 362.104C37.9587 361.72 38.1507 361.336 38.6187 361C38.9067 361.072 39.2187 361.108 39.4587 361.108H40.5867C41.4507 361.108 41.9187 361.312 41.9187 361.912C41.9187 362.596 41.0907 363.256 39.8427 363.256ZM48.832 361.156C49.732 361.156 50.38 360.688 50.992 359.98H51.028L51.112 361H52.024V354.484H50.932V359.104C50.308 359.884 49.84 360.208 49.168 360.208C48.304 360.208 47.944 359.692 47.944 358.48V354.484H46.852V358.612C46.852 360.268 47.464 361.156 48.832 361.156ZM54.2251 361H55.3171V356.272C55.9771 355.612 56.4331 355.276 57.1051 355.276C57.9691 355.276 58.3411 355.792 58.3411 357.016V361H59.4331V356.872C59.4331 355.204 58.8091 354.316 57.4411 354.316C56.5531 354.316 55.8811 354.808 55.2571 355.42H55.2211L55.1251 354.484H54.2251V361ZM61.561 361H62.653V354.484H61.561V361ZM62.113 353.14C62.545 353.14 62.845 352.852 62.845 352.408C62.845 351.988 62.545 351.7 62.113 351.7C61.681 351.7 61.381 351.988 61.381 352.408C61.381 352.852 61.681 353.14 62.113 353.14ZM66.9177 361.156C67.3137 361.156 67.7457 361.036 68.1177 360.916L67.9017 360.1C67.6857 360.184 67.3857 360.268 67.1577 360.268C66.4017 360.268 66.1497 359.812 66.1497 359.008V355.372H67.9137V354.484H66.1497V352.648H65.2377L65.1057 354.484L64.0857 354.544V355.372H65.0577V358.984C65.0577 360.28 65.5257 361.156 66.9177 361.156ZM80.2568 360.352L80.8328 359.776L77.5568 356.488L80.8328 353.2L80.2568 352.624L76.9688 355.912L73.6928 352.624L73.1048 353.212L76.3928 356.488L73.1048 359.776L73.6928 360.352L76.9688 357.064L80.2568 360.352ZM86.7083 361H91.5323V360.088H89.7683V352.444H88.9283C88.4483 352.732 87.8843 352.936 87.1043 353.068V353.776H88.6643V360.088H86.7083V361ZM95.4766 361.156C97.0366 361.156 98.2966 360.244 98.2966 358.72C98.2966 357.544 97.4686 356.788 96.4366 356.536V356.488C97.3606 356.152 97.9966 355.492 97.9966 354.46C97.9966 353.068 96.9166 352.288 95.4406 352.288C94.4206 352.288 93.6406 352.732 92.9806 353.356L93.5686 354.04C94.0606 353.536 94.6846 353.176 95.3926 353.176C96.3046 353.176 96.8806 353.704 96.8806 354.532C96.8806 355.432 96.2566 356.14 94.4446 356.14V356.98C96.4726 356.98 97.1806 357.652 97.1806 358.672C97.1806 359.632 96.4366 360.244 95.3926 360.244C94.3966 360.244 93.7246 359.776 93.2086 359.236L92.6566 359.956C93.2326 360.58 94.0966 361.156 95.4766 361.156ZM112.004 354.652H103.292V355.48H112.004V354.652ZM103.292 357.364V358.192H112.004V357.364H103.292ZM117.316 361H122.656V359.572H120.988V352.108H119.68C119.116 352.468 118.504 352.696 117.616 352.864V353.956H119.224V359.572H117.316V361ZM126.938 361.168C128.75 361.168 129.938 359.584 129.938 356.524C129.938 353.464 128.75 351.952 126.938 351.952C125.126 351.952 123.926 353.452 123.926 356.524C123.926 359.584 125.126 361.168 126.938 361.168ZM126.938 359.788C126.17 359.788 125.594 359.02 125.594 356.524C125.594 354.04 126.17 353.32 126.938 353.32C127.706 353.32 128.27 354.04 128.27 356.524C128.27 359.02 127.706 359.788 126.938 359.788ZM132.433 357.352L133.813 355.144C134.065 354.664 134.305 354.172 134.521 353.692H134.569C134.545 354.22 134.509 355.024 134.509 355.54V357.352H132.433ZM134.509 361H136.153V358.696H137.197V357.352H136.153V352.108H134.029L130.717 357.496V358.696H134.509V361ZM138.635 363.748H139.727V361.54L139.703 360.4C140.291 360.88 140.915 361.156 141.503 361.156C143.003 361.156 144.335 359.872 144.335 357.64C144.335 355.636 143.423 354.316 141.743 354.316C140.987 354.316 140.255 354.748 139.667 355.228H139.631L139.535 354.484H138.635V363.748ZM141.323 360.244C140.891 360.244 140.315 360.064 139.727 359.56V356.14C140.363 355.552 140.927 355.24 141.479 355.24C142.715 355.24 143.195 356.212 143.195 357.652C143.195 359.272 142.403 360.244 141.323 360.244ZM144.93 361H146.082L146.958 359.476C147.186 359.08 147.402 358.684 147.63 358.312H147.69C147.93 358.684 148.17 359.08 148.386 359.476L149.346 361H150.546L148.398 357.712L150.378 354.484H149.238L148.434 355.912C148.242 356.284 148.05 356.644 147.846 357.004H147.798C147.582 356.644 147.354 356.284 147.15 355.912L146.274 354.484H145.098L147.078 357.604L144.93 361Z" fill="black"/>
</svg>
