<svg width="295" height="176" viewBox="0 0 295 176" fill="none" xmlns="http://www.w3.org/2000/svg">
<rect x="0.5" y="32.5" width="186" height="143" fill="white"/>
<rect width="162" height="64" transform="translate(13 72)" fill="#DDDDDD"/>
<path opacity="0.9" d="M65.7964 110H73.8064V107.858H71.3044V96.662H69.3424C68.4964 97.202 67.5784 97.544 66.2464 97.796V99.434H68.6584V107.858H65.7964V110ZM85.9 95.798C86.89 97.688 88.24 99.668 89.662 101.324H79.942C81.364 99.704 82.624 97.724 83.506 95.654L81.202 94.988C80.122 97.724 78.142 100.208 75.892 101.72C76.414 102.098 77.332 102.962 77.728 103.448C78.214 103.07 78.7 102.638 79.168 102.152V103.412H82.21C81.85 106.04 80.914 108.398 76.846 109.712C77.368 110.198 77.998 111.08 78.268 111.692C82.93 109.946 84.1 106.868 84.55 103.412H88.096C87.934 107.174 87.736 108.776 87.376 109.154C87.178 109.37 86.98 109.406 86.656 109.406C86.206 109.406 85.27 109.388 84.28 109.316C84.658 109.928 84.946 110.828 84.982 111.476C86.044 111.512 87.088 111.512 87.7 111.422C88.402 111.332 88.888 111.152 89.338 110.576C89.968 109.82 90.184 107.696 90.382 102.26V102.134C90.778 102.548 91.156 102.944 91.534 103.286C91.948 102.674 92.776 101.81 93.352 101.36C91.39 99.848 89.14 97.238 88.006 94.952L85.9 95.798ZM111.046 103.664C111.046 99.74 108.238 96.644 103.774 96.644C99.112 96.644 95.512 100.19 95.512 104.348C95.512 107.39 97.168 109.586 99.166 109.586C101.128 109.586 102.676 107.354 103.756 103.718C104.278 102.026 104.584 100.37 104.836 98.84C107.266 99.254 108.616 101.108 108.616 103.592C108.616 106.22 106.816 107.876 104.512 108.416C104.026 108.524 103.522 108.632 102.838 108.704L104.188 110.846C108.724 110.144 111.046 107.462 111.046 103.664ZM97.816 104.114C97.816 102.134 99.418 99.506 102.388 98.894C102.19 100.388 101.848 101.918 101.434 103.25C100.696 105.68 99.994 106.814 99.238 106.814C98.536 106.814 97.816 105.932 97.816 104.114ZM114.556 110H122.566V107.858H120.064V96.662H118.102C117.256 97.202 116.338 97.544 115.006 97.796V99.434H117.418V107.858H114.556V110Z" fill="#4D4D4D"/>
<rect x="0.5" y="32.5" width="186" height="143" stroke="#DDDDDD"/>
<path opacity="0.9" d="M12.784 10.312L11.984 9.688C11.728 9.768 11.296 9.816 10.784 9.816C10.176 9.816 5.232 9.816 4.608 9.816C4.112 9.816 3.2 9.752 2.992 9.72V11.16C3.168 11.144 4.032 11.08 4.608 11.08C5.152 11.08 10.272 11.08 10.848 11.08C10.432 12.408 9.264 14.312 8.176 15.544C6.528 17.368 4.176 19.288 1.584 20.28L2.608 21.352C5.136 20.2 7.424 18.296 9.216 16.296C10.544 14.824 11.76 12.584 12.4 11C12.48 10.792 12.688 10.44 12.784 10.312ZM9.424 15.464L8.512 16.36C10.24 17.88 12.112 19.928 13.264 21.448L14.368 20.472C13.28 19.144 11.152 16.904 9.424 15.464ZM31.0036 10.856L29.9956 10.056C29.7716 10.136 29.4036 10.168 28.9716 10.168C27.3716 10.168 20.2516 10.168 19.4356 10.168C18.8756 10.168 18.2356 10.12 17.8036 10.056V11.48C18.1076 11.448 18.7956 11.4 19.4356 11.4C20.3476 11.4 27.4036 11.4 28.8436 11.4C27.9956 12.92 25.9316 15.512 23.3716 17.288L24.3636 18.184C27.1956 16.136 29.4036 13.32 30.6036 11.352C30.6996 11.208 30.8436 11.032 31.0036 10.856ZM23.4676 18.456C24.4916 19.496 25.7716 20.904 26.3636 21.72L27.5316 20.792C26.8436 19.96 25.5956 18.648 24.5876 17.64C23.4356 16.52 21.5796 15 20.8436 14.472L19.8196 15.304C20.6676 15.912 22.5076 17.496 23.4676 18.456ZM34.4116 14.072V15.64C34.9236 15.608 35.7716 15.576 36.6516 15.576C37.8356 15.576 44.2196 15.576 45.4356 15.576C46.1396 15.576 46.8116 15.624 47.1476 15.64V14.072C46.7796 14.104 46.2196 14.168 45.4196 14.168C44.2356 14.168 37.8196 14.168 36.6516 14.168C35.7396 14.168 34.9076 14.12 34.4116 14.072ZM54.8116 19.592C54.8116 20.184 54.7956 20.984 54.7156 21.496H56.2676C56.2036 20.968 56.1716 20.104 56.1716 19.592C56.1716 18.84 56.1556 12.776 56.1556 10.296C56.1556 9.8 56.2036 9.112 56.2676 8.616H54.6996C54.7796 9.128 54.8116 9.832 54.8116 10.296C54.8116 11.624 54.8116 18.696 54.8116 19.592ZM55.8676 12.824V14.232C57.6116 14.776 60.6036 15.912 62.4276 16.888L62.9876 15.528C61.2116 14.664 57.9796 13.432 55.8676 12.824ZM79.8516 10.376L78.8756 9.752C78.5716 9.816 78.2516 9.832 78.0116 9.832C77.2916 9.832 70.9076 9.832 69.9956 9.832C69.4676 9.832 68.8276 9.784 68.3956 9.72V11.144C68.7956 11.128 69.3396 11.096 69.9796 11.096C70.9076 11.096 77.2436 11.096 78.1716 11.096C77.9476 12.632 77.2116 14.856 76.0756 16.312C74.7316 18.024 72.9396 19.384 69.8356 20.152L70.9236 21.352C73.8516 20.44 75.7556 18.952 77.2116 17.08C78.4916 15.432 79.2596 12.856 79.6116 11.176C79.6756 10.856 79.7396 10.6 79.8516 10.376ZM93.1316 11.224H91.7716C91.8356 11.576 91.8676 11.992 91.8676 12.312C91.9316 13.72 92.0116 18.52 92.0116 20.408C92.0116 20.712 91.8676 20.888 91.5636 20.888C91.0996 20.888 90.2676 20.824 89.6116 20.728L89.6916 21.912C90.3156 21.944 91.3716 21.992 91.9956 21.992C92.6996 21.992 93.2116 21.592 93.2116 20.904C93.1796 18.584 93.0996 13.72 93.0676 12.312C93.0676 11.944 93.0676 11.56 93.1316 11.224ZM85.9156 13.528V14.808C86.2996 14.776 86.7156 14.76 87.1316 14.76C87.7076 14.76 94.8596 14.76 95.4356 14.76C95.7396 14.76 96.1876 14.776 96.4596 14.792V13.528C96.2356 13.576 95.7236 13.608 95.3876 13.608C94.7316 13.608 87.7876 13.608 87.1156 13.608C86.7316 13.608 86.2996 13.592 85.9156 13.528ZM85.4996 19.656L86.3796 20.632C88.8276 19.352 91.4516 16.936 92.2996 15.368L92.2836 14.408L91.6276 14.392C90.6996 16.072 88.0756 18.424 85.4996 19.656ZM102.988 9.288L102.06 10.264C103.26 11.048 105.244 12.776 106.06 13.608L107.052 12.584C106.172 11.704 104.108 10.04 102.988 9.288ZM101.612 20.008L102.444 21.32C105.116 20.824 107.132 19.832 108.748 18.824C111.164 17.304 113.02 15.128 114.108 13.144L113.34 11.768C112.412 13.752 110.476 16.12 107.996 17.672C106.476 18.616 104.396 19.592 101.612 20.008Z" fill="black"/>
<path opacity="0.9" d="M17.032 59.944C17.032 60.388 17.02 60.988 16.96 61.372H18.124C18.076 60.976 18.052 60.328 18.052 59.944C18.052 59.38 18.04 54.832 18.04 52.972C18.04 52.6 18.076 52.084 18.124 51.712H16.948C17.008 52.096 17.032 52.624 17.032 52.972C17.032 53.968 17.032 59.272 17.032 59.944ZM17.824 54.868V55.924C19.132 56.332 21.376 57.184 22.744 57.916L23.164 56.896C21.832 56.248 19.408 55.324 17.824 54.868ZM30.796 54.1L29.908 54.4C30.16 54.928 30.712 56.452 30.844 57.004L31.732 56.68C31.588 56.164 31 54.58 30.796 54.1ZM35.14 54.772L34.108 54.436C33.916 55.972 33.304 57.508 32.452 58.552C31.468 59.776 29.932 60.688 28.552 61.096L29.344 61.9C30.676 61.396 32.14 60.46 33.256 59.056C34.108 57.976 34.636 56.68 34.948 55.36C34.996 55.204 35.056 55.012 35.14 54.772ZM28 54.7L27.112 55.036C27.352 55.456 28 57.124 28.192 57.748L29.092 57.412C28.876 56.776 28.24 55.204 28 54.7ZM46.66 52.384C46.66 51.952 47.008 51.592 47.452 51.592C47.884 51.592 48.244 51.952 48.244 52.384C48.244 52.828 47.884 53.176 47.452 53.176C47.008 53.176 46.66 52.828 46.66 52.384ZM46.108 52.384C46.108 53.128 46.708 53.728 47.452 53.728C48.196 53.728 48.796 53.128 48.796 52.384C48.796 51.64 48.196 51.04 47.452 51.04C46.708 51.04 46.108 51.64 46.108 52.384ZM47.152 53.188L46.42 52.72C46.192 52.78 45.964 52.792 45.772 52.792C45.232 52.792 40.444 52.792 39.76 52.792C39.364 52.792 38.884 52.744 38.56 52.708V53.776C38.86 53.752 39.268 53.728 39.748 53.728C40.444 53.728 45.196 53.728 45.892 53.728C45.724 54.88 45.172 56.56 44.32 57.64C43.312 58.924 41.968 59.944 39.64 60.532L40.456 61.432C42.652 60.736 44.08 59.632 45.172 58.216C46.132 56.992 46.708 55.048 46.972 53.788C47.02 53.56 47.068 53.356 47.152 53.188ZM49.132 63.148H49.924L53.512 51.472H52.732L49.132 63.148ZM58.9912 53.224V54.052H65.0752V53.224H58.9912ZM59.2192 55.624V56.44H64.8232V55.624H59.2192ZM58.6192 58.144V58.984H65.2432V58.144H58.6192ZM61.5232 53.512V61.96H62.3992V53.512H61.5232ZM63.6712 50.908C63.4552 51.544 63.0472 52.48 62.7352 53.056L63.4312 53.308C63.7792 52.768 64.1872 51.928 64.5472 51.196L63.6712 50.908ZM59.5072 51.256C59.8912 51.904 60.2752 52.78 60.4072 53.344L61.1872 53.032C61.0432 52.48 60.6472 51.628 60.2392 50.992L59.5072 51.256ZM54.7192 54.556V55.276H58.2952V54.556H54.7192ZM54.7792 51.352V52.072H58.2712V51.352H54.7792ZM54.7192 56.164V56.884H58.2952V56.164H54.7192ZM54.1552 52.924V53.668H58.7152V52.924H54.1552ZM55.1512 57.784V58.528H57.5032V60.532H55.1512V61.288H58.2952V57.784H55.1512ZM54.7072 57.784V61.84H55.4872V57.784H54.7072ZM73.5472 52.252V60.832H74.3512V52.252H73.5472ZM71.1712 51.88V61.816H71.9872V52.72H76.0072V61.72H76.8472V51.88H71.1712ZM71.6152 56.044V56.872H76.3792V56.044H71.6152ZM71.6152 60.328V61.156H76.3432V60.328H71.6152ZM68.1832 56.572V61.948H68.9872V56.572H68.1832ZM68.0632 50.92C67.7512 51.724 67.1872 52.888 66.7192 53.584L67.3552 53.872C67.8232 53.2 68.4112 52.132 68.8672 51.244L68.0632 50.92ZM69.5392 52.3C68.8792 53.572 67.7152 55.36 66.7912 56.416L67.3552 56.74C68.2792 55.708 69.4672 54.004 70.3072 52.672L69.5392 52.3ZM66.1432 53.488C66.7792 54.04 67.5232 54.856 67.8352 55.408L68.3152 54.712C67.9912 54.196 67.2472 53.428 66.5992 52.888L66.1432 53.488ZM69.2032 55.048C69.7192 55.84 70.2352 56.908 70.4272 57.58L71.1472 57.232C70.9432 56.56 70.4152 55.528 69.8872 54.748L69.2032 55.048ZM66.0592 56.224L66.1912 57.052C67.3552 56.944 68.8912 56.8 70.3912 56.668L70.3792 55.936C68.7712 56.056 67.1512 56.164 66.0592 56.224ZM69.4192 57.952C69.7552 58.696 70.0792 59.68 70.1872 60.316L70.9432 60.064C70.7992 59.428 70.4632 58.468 70.1152 57.736L69.4192 57.952ZM66.8032 57.772C66.6712 58.828 66.4432 59.908 66.0472 60.64C66.2512 60.712 66.6112 60.88 66.7672 60.976C67.1392 60.208 67.4272 59.044 67.5832 57.916L66.8032 57.772ZM77.8312 63.148H78.6232L82.2112 51.472H81.4312L77.8312 63.148ZM92.7304 53.032L91.9984 52.564C91.7704 52.612 91.5304 52.624 91.3504 52.624C90.8104 52.624 86.0224 52.624 85.3384 52.624C84.9424 52.624 84.4624 52.588 84.1384 52.54V53.608C84.4384 53.596 84.8464 53.572 85.3264 53.572C86.0224 53.572 90.7744 53.572 91.4704 53.572C91.3024 54.724 90.7504 56.392 89.8984 57.484C88.8904 58.768 87.5464 59.788 85.2184 60.364L86.0344 61.264C88.2304 60.58 89.6584 59.464 90.7504 58.06C91.7104 56.824 92.2864 54.892 92.5504 53.632C92.5984 53.392 92.6464 53.2 92.7304 53.032ZM102.21 53.668H101.19C101.238 53.932 101.262 54.244 101.262 54.484C101.31 55.54 101.37 59.14 101.37 60.556C101.37 60.784 101.262 60.916 101.034 60.916C100.686 60.916 100.062 60.868 99.5704 60.796L99.6304 61.684C100.098 61.708 100.89 61.744 101.358 61.744C101.886 61.744 102.27 61.444 102.27 60.928C102.246 59.188 102.186 55.54 102.162 54.484C102.162 54.208 102.162 53.92 102.21 53.668ZM96.7984 55.396V56.356C97.0864 56.332 97.3984 56.32 97.7104 56.32C98.1424 56.32 103.506 56.32 103.938 56.32C104.166 56.32 104.502 56.332 104.706 56.344V55.396C104.538 55.432 104.154 55.456 103.902 55.456C103.41 55.456 98.2024 55.456 97.6984 55.456C97.4104 55.456 97.0864 55.444 96.7984 55.396ZM96.4864 59.992L97.1464 60.724C98.9824 59.764 100.95 57.952 101.586 56.776L101.574 56.056L101.082 56.044C100.386 57.304 98.4184 59.068 96.4864 59.992ZM107.61 55.804V56.98C107.994 56.956 108.63 56.932 109.29 56.932C110.178 56.932 114.966 56.932 115.878 56.932C116.406 56.932 116.91 56.968 117.162 56.98V55.804C116.886 55.828 116.466 55.876 115.866 55.876C114.978 55.876 110.166 55.876 109.29 55.876C108.606 55.876 107.982 55.84 107.61 55.804ZM124.299 52.06L123.099 51.808C123.063 52.132 123.015 52.408 122.859 52.96C122.499 54.232 121.107 58.576 120.507 59.956L121.587 59.92C122.103 58.708 123.495 54.4 123.879 53.176C124.047 52.66 124.179 52.348 124.299 52.06ZM126.579 56.08L125.667 56.476C126.531 57.616 127.755 60.112 128.235 61.408L129.231 60.964C128.739 59.728 127.419 57.304 126.579 56.08ZM120.039 59.668C119.691 59.692 119.271 59.704 118.911 59.692L119.103 60.796C119.439 60.748 119.799 60.7 120.099 60.676C121.791 60.508 126.207 60.028 127.875 59.812L127.611 58.876C126.063 59.104 121.767 59.584 120.039 59.668Z" fill="#4D4D4D"/>
<path opacity="0.9" d="M207.805 73.18L206.419 72.046C206.111 72.144 205.649 72.2 205.103 72.2C203.605 72.2 198.229 72.2 197.347 72.2C196.857 72.2 196.101 72.13 195.723 72.06V74.034C196.017 73.992 196.773 73.922 197.347 73.922C198.411 73.922 203.507 73.922 204.739 73.922C204.011 75.21 202.443 77.114 200.595 78.402L201.995 79.69C204.165 78.094 206.237 75.574 207.329 73.768C207.441 73.6 207.609 73.404 207.805 73.18ZM200.427 79.9C201.337 80.824 202.513 82.14 203.087 82.924L204.739 81.608C204.067 80.796 202.961 79.634 202.037 78.738C200.973 77.716 199.573 76.582 198.817 76.008L197.347 77.212C198.173 77.8 199.601 79.074 200.427 79.9ZM210.311 75.518V77.73C210.843 77.688 211.781 77.646 212.565 77.646C214.217 77.646 218.823 77.646 220.097 77.646C220.685 77.646 221.399 77.716 221.735 77.73V75.518C221.357 75.546 220.741 75.616 220.083 75.616C218.837 75.616 214.217 75.616 212.565 75.616C211.837 75.616 210.829 75.56 210.311 75.518ZM233.53 71.262L232.354 71.738C232.872 72.466 233.18 73.068 233.6 73.95L234.804 73.418C234.496 72.774 233.922 71.85 233.53 71.262ZM235.462 70.576L234.272 71.08C234.79 71.78 235.126 72.326 235.574 73.208L236.778 72.676C236.442 72.06 235.896 71.136 235.462 70.576ZM227.454 70.982L226.432 72.522C227.356 73.04 228.826 73.992 229.596 74.538L230.646 72.984C229.918 72.48 228.378 71.486 227.454 70.982ZM224.864 80.922L225.914 82.77C227.146 82.546 229.162 81.846 230.576 81.034C232.872 79.718 234.846 77.94 236.148 76.008L235.07 74.104C233.95 76.106 232.004 78.024 229.624 79.354C228.098 80.194 226.418 80.656 224.864 80.922ZM225.298 74.174L224.276 75.728C225.228 76.218 226.67 77.17 227.468 77.716L228.49 76.148C227.776 75.644 226.236 74.678 225.298 74.174ZM241.258 71.36L239.928 72.774C240.95 73.474 242.714 75 243.442 75.784L244.87 74.328C244.044 73.474 242.224 72.018 241.258 71.36ZM239.494 80.684L240.684 82.532C242.644 82.196 244.45 81.426 245.878 80.572C248.132 79.214 249.994 77.282 251.044 75.378L249.966 73.418C249.07 75.308 247.25 77.436 244.856 78.864C243.498 79.662 241.692 80.376 239.494 80.684ZM261.041 82H267.285V80.334H265.339V71.64H263.813C263.141 72.046 262.441 72.312 261.391 72.508V73.782H263.281V80.334H261.041V82ZM273.135 82.196C274.899 82.196 276.397 80.866 276.397 78.738C276.397 76.512 275.151 75.49 273.415 75.49C272.715 75.49 271.749 75.938 271.203 76.708L271.287 78.108C271.805 77.254 272.463 76.946 273.037 76.946C273.919 76.946 274.507 77.506 274.507 78.738C274.507 79.998 273.877 80.642 273.107 80.642C272.085 80.642 271.301 79.648 271.301 76.96C271.301 74.076 272.295 73.11 273.555 73.11C274.143 73.11 274.787 73.446 275.137 73.852L276.243 72.634C275.613 71.976 274.689 71.458 273.429 71.458C271.329 71.458 269.411 73.11 269.411 76.96C269.411 80.614 271.175 82.196 273.135 82.196ZM278.649 85.01H280.707V82.63L280.637 81.356C281.225 81.902 281.897 82.196 282.569 82.196C284.291 82.196 285.901 80.656 285.901 77.968C285.901 75.546 284.753 73.978 282.821 73.978C281.981 73.978 281.169 74.412 280.525 74.986H280.483L280.315 74.174H278.649V85.01ZM282.121 80.502C281.701 80.502 281.197 80.362 280.707 79.928V76.47C281.239 75.924 281.715 75.658 282.233 75.658C283.325 75.658 283.787 76.484 283.787 77.996C283.787 79.69 283.059 80.502 282.121 80.502ZM286.872 82H289.014L289.728 80.558C289.952 80.096 290.162 79.634 290.386 79.2H290.456C290.722 79.634 290.974 80.11 291.226 80.558L292.094 82H294.306L291.842 78.15L294.138 74.174H292.01L291.366 75.546C291.17 76.008 290.974 76.442 290.792 76.89H290.722C290.484 76.442 290.246 76.008 290.036 75.546L289.238 74.174H287.04L289.336 77.926L286.872 82Z" fill="#1A1A1C"/>
<path d="M174.646 75.6464C174.451 75.8417 174.451 76.1583 174.646 76.3536L177.828 79.5355C178.024 79.7308 178.34 79.7308 178.536 79.5355C178.731 79.3403 178.731 79.0237 178.536 78.8284L175.707 76L178.536 73.1716C178.731 72.9763 178.731 72.6597 178.536 72.4645C178.34 72.2692 178.024 72.2692 177.828 72.4645L174.646 75.6464ZM187.354 76.3536C187.549 76.1583 187.549 75.8417 187.354 75.6464L184.172 72.4645C183.976 72.2692 183.66 72.2692 183.464 72.4645C183.269 72.6597 183.269 72.9763 183.464 73.1716L186.293 76L183.464 78.8284C183.269 79.0237 183.269 79.3403 183.464 79.5355C183.66 79.7308 183.976 79.7308 184.172 79.5355L187.354 76.3536ZM175 76.5L187 76.5L187 75.5L175 75.5L175 76.5Z" fill="#1A1A1C"/>
</svg>
