<svg width="488" height="384" viewBox="0 0 488 384" fill="none" xmlns="http://www.w3.org/2000/svg">
<rect x="0.5" y="32.5" width="383" height="351" fill="white" stroke="#DDDDDD"/>
<path opacity="0.9" d="M404.671 75.18L403.285 74.046C402.977 74.144 402.515 74.2 401.969 74.2C400.471 74.2 395.095 74.2 394.213 74.2C393.723 74.2 392.967 74.13 392.589 74.06V76.034C392.883 75.992 393.639 75.922 394.213 75.922C395.277 75.922 400.373 75.922 401.605 75.922C400.877 77.21 399.309 79.114 397.461 80.402L398.861 81.69C401.031 80.094 403.103 77.574 404.195 75.768C404.307 75.6 404.475 75.404 404.671 75.18ZM397.293 81.9C398.203 82.824 399.379 84.14 399.953 84.924L401.605 83.608C400.933 82.796 399.827 81.634 398.903 80.738C397.839 79.716 396.439 78.582 395.683 78.008L394.213 79.212C395.039 79.8 396.467 81.074 397.293 81.9ZM407.177 77.518V79.73C407.709 79.688 408.647 79.646 409.431 79.646C411.083 79.646 415.689 79.646 416.963 79.646C417.551 79.646 418.265 79.716 418.601 79.73V77.518C418.223 77.546 417.607 77.616 416.949 77.616C415.703 77.616 411.083 77.616 409.431 77.616C408.703 77.616 407.695 77.56 407.177 77.518ZM430.396 73.262L429.22 73.738C429.738 74.466 430.046 75.068 430.466 75.95L431.67 75.418C431.362 74.774 430.788 73.85 430.396 73.262ZM432.328 72.576L431.138 73.08C431.656 73.78 431.992 74.326 432.44 75.208L433.644 74.676C433.308 74.06 432.762 73.136 432.328 72.576ZM424.32 72.982L423.298 74.522C424.222 75.04 425.692 75.992 426.462 76.538L427.512 74.984C426.784 74.48 425.244 73.486 424.32 72.982ZM421.73 82.922L422.78 84.77C424.012 84.546 426.028 83.846 427.442 83.034C429.738 81.718 431.712 79.94 433.014 78.008L431.936 76.104C430.816 78.106 428.87 80.024 426.49 81.354C424.964 82.194 423.284 82.656 421.73 82.922ZM422.164 76.174L421.142 77.728C422.094 78.218 423.536 79.17 424.334 79.716L425.356 78.148C424.642 77.644 423.102 76.678 422.164 76.174ZM438.124 73.36L436.794 74.774C437.816 75.474 439.58 77 440.308 77.784L441.736 76.328C440.91 75.474 439.09 74.018 438.124 73.36ZM436.36 82.684L437.55 84.532C439.51 84.196 441.316 83.426 442.744 82.572C444.998 81.214 446.86 79.282 447.91 77.378L446.832 75.418C445.936 77.308 444.116 79.436 441.722 80.864C440.364 81.662 438.558 82.376 436.36 82.684ZM457.745 84H459.663V73.64H457.185L453.335 79.912V81.326H460.895V79.744H455.337L456.933 77.168C457.227 76.608 457.507 76.034 457.773 75.474H457.829C457.801 76.09 457.745 77.028 457.745 77.63V84ZM465.989 84.196C468.089 84.196 469.489 82.362 469.489 78.778C469.489 75.208 468.089 73.458 465.989 73.458C463.875 73.458 462.475 75.208 462.475 78.778C462.475 82.362 463.875 84.196 465.989 84.196ZM465.989 82.586C465.093 82.586 464.421 81.69 464.421 78.778C464.421 75.88 465.093 75.04 465.989 75.04C466.885 75.04 467.543 75.88 467.543 78.778C467.543 81.69 466.885 82.586 465.989 82.586ZM471.783 87.01H473.841V84.63L473.771 83.356C474.359 83.902 475.031 84.196 475.703 84.196C477.425 84.196 479.035 82.656 479.035 79.968C479.035 77.546 477.887 75.978 475.955 75.978C475.115 75.978 474.303 76.412 473.659 76.986H473.617L473.449 76.174H471.783V87.01ZM475.255 82.502C474.835 82.502 474.331 82.362 473.841 81.928V78.47C474.373 77.924 474.849 77.658 475.367 77.658C476.459 77.658 476.921 78.484 476.921 79.996C476.921 81.69 476.193 82.502 475.255 82.502ZM480.006 84H482.148L482.862 82.558C483.086 82.096 483.296 81.634 483.52 81.2H483.59C483.856 81.634 484.108 82.11 484.36 82.558L485.228 84H487.44L484.976 80.15L487.272 76.174H485.144L484.5 77.546C484.304 78.008 484.108 78.442 483.926 78.89H483.856C483.618 78.442 483.38 78.008 483.17 77.546L482.372 76.174H480.174L482.47 79.926L480.006 84Z" fill="#1A1A1C"/>
<path d="M363.646 77.6464C363.451 77.8417 363.451 78.1583 363.646 78.3536L366.828 81.5355C367.024 81.7308 367.34 81.7308 367.536 81.5355C367.731 81.3403 367.731 81.0237 367.536 80.8284L364.707 78L367.536 75.1716C367.731 74.9763 367.731 74.6597 367.536 74.4645C367.34 74.2692 367.024 74.2692 366.828 74.4645L363.646 77.6464ZM384.354 78.3536C384.549 78.1583 384.549 77.8417 384.354 77.6464L381.172 74.4645C380.976 74.2692 380.66 74.2692 380.464 74.4645C380.269 74.6597 380.269 74.9763 380.464 75.1716L383.293 78L380.464 80.8284C380.269 81.0237 380.269 81.3403 380.464 81.5355C380.66 81.7308 380.976 81.7308 381.172 81.5355L384.354 78.3536ZM364 78.5L384 78.5L384 77.5L364 77.5L364 78.5Z" fill="#1A1A1C"/>
<path opacity="0.9" d="M6.64 13.672L5.76 14.568C7.744 15.8 10.48 17.768 11.952 19.112L12.896 17.992C11.312 16.712 8.688 14.872 6.64 13.672ZM13.952 10.76L12.896 10.12C12.64 10.216 12.288 10.264 11.856 10.264H6.768L6.256 11.416H12.176C11.808 12.904 10.8 14.936 9.568 16.408C8.128 18.12 5.952 19.816 2.976 20.712L4.112 21.72C7.152 20.6 9.232 18.888 10.688 17.096C12.096 15.368 13.104 13.24 13.584 11.608C13.664 11.352 13.824 10.984 13.952 10.76ZM8.56 8.44L7.104 7.976C7.008 8.392 6.752 8.968 6.592 9.24C5.856 10.712 4.208 13.112 1.472 14.824L2.528 15.64C5.088 13.88 6.896 11.464 7.84 9.704C8 9.4 8.288 8.856 8.56 8.44ZM28.72 7.704L27.84 8.072C28.24 8.648 28.784 9.56 29.104 10.216L30 9.816C29.68 9.208 29.104 8.264 28.72 7.704ZM30.784 7.304L29.904 7.672C30.336 8.216 30.848 9.144 31.2 9.8L32.096 9.416C31.76 8.792 31.168 7.848 30.784 7.304ZM30.16 10.584L29.184 9.96C28.896 10.04 28.576 10.056 28.336 10.056C27.6 10.056 21.216 10.056 20.304 10.056C19.776 10.056 19.152 9.992 18.704 9.944V11.368C19.12 11.336 19.664 11.304 20.304 11.304C21.216 11.304 27.568 11.304 28.48 11.304C28.272 12.84 27.52 15.08 26.384 16.52C25.056 18.232 23.248 19.592 20.16 20.376L21.248 21.576C24.176 20.648 26.08 19.176 27.536 17.288C28.8 15.656 29.584 13.064 29.92 11.384C29.984 11.08 30.064 10.808 30.16 10.584ZM36.832 20.504L37.744 21.288C38 21.144 38.256 21.064 38.416 21.016C42.416 19.848 45.712 17.88 47.792 15.304L47.072 14.184C45.072 16.76 41.376 18.856 38.304 19.64C38.304 18.824 38.304 12.072 38.304 10.552C38.304 10.104 38.368 9.496 38.416 9.112H36.848C36.912 9.416 36.976 10.136 36.976 10.568C36.976 12.088 36.976 18.712 36.976 19.72C36.976 20.024 36.944 20.248 36.832 20.504ZM57.648 11.8L56.464 12.2C56.8 12.904 57.536 14.936 57.712 15.672L58.896 15.24C58.704 14.552 57.92 12.44 57.648 11.8ZM63.44 12.696L62.064 12.248C61.808 14.296 60.992 16.344 59.856 17.736C58.544 19.368 56.496 20.584 54.656 21.128L55.712 22.2C57.488 21.528 59.44 20.28 60.928 18.408C62.064 16.968 62.768 15.24 63.184 13.48C63.248 13.272 63.328 13.016 63.44 12.696ZM53.92 12.6L52.736 13.048C53.056 13.608 53.92 15.832 54.176 16.664L55.376 16.216C55.088 15.368 54.24 13.272 53.92 12.6ZM71.936 19.592C71.936 20.184 71.92 20.984 71.84 21.496H73.392C73.328 20.968 73.296 20.104 73.296 19.592C73.296 18.84 73.28 12.776 73.28 10.296C73.28 9.8 73.328 9.112 73.392 8.616H71.824C71.904 9.128 71.936 9.832 71.936 10.296C71.936 11.624 71.936 18.696 71.936 19.592ZM72.992 12.824V14.232C74.736 14.776 77.728 15.912 79.552 16.888L80.112 15.528C78.336 14.664 75.104 13.432 72.992 12.824Z" fill="black"/>
<path opacity="0.9" d="M24.032 59.944C24.032 60.388 24.02 60.988 23.96 61.372H25.124C25.076 60.976 25.052 60.328 25.052 59.944C25.052 59.38 25.04 54.832 25.04 52.972C25.04 52.6 25.076 52.084 25.124 51.712H23.948C24.008 52.096 24.032 52.624 24.032 52.972C24.032 53.968 24.032 59.272 24.032 59.944ZM24.824 54.868V55.924C26.132 56.332 28.376 57.184 29.744 57.916L30.164 56.896C28.832 56.248 26.408 55.324 24.824 54.868ZM37.796 54.1L36.908 54.4C37.16 54.928 37.712 56.452 37.844 57.004L38.732 56.68C38.588 56.164 38 54.58 37.796 54.1ZM42.14 54.772L41.108 54.436C40.916 55.972 40.304 57.508 39.452 58.552C38.468 59.776 36.932 60.688 35.552 61.096L36.344 61.9C37.676 61.396 39.14 60.46 40.256 59.056C41.108 57.976 41.636 56.68 41.948 55.36C41.996 55.204 42.056 55.012 42.14 54.772ZM35 54.7L34.112 55.036C34.352 55.456 35 57.124 35.192 57.748L36.092 57.412C35.876 56.776 35.24 55.204 35 54.7ZM53.66 52.384C53.66 51.952 54.008 51.592 54.452 51.592C54.884 51.592 55.244 51.952 55.244 52.384C55.244 52.828 54.884 53.176 54.452 53.176C54.008 53.176 53.66 52.828 53.66 52.384ZM53.108 52.384C53.108 53.128 53.708 53.728 54.452 53.728C55.196 53.728 55.796 53.128 55.796 52.384C55.796 51.64 55.196 51.04 54.452 51.04C53.708 51.04 53.108 51.64 53.108 52.384ZM54.152 53.188L53.42 52.72C53.192 52.78 52.964 52.792 52.772 52.792C52.232 52.792 47.444 52.792 46.76 52.792C46.364 52.792 45.884 52.744 45.56 52.708V53.776C45.86 53.752 46.268 53.728 46.748 53.728C47.444 53.728 52.196 53.728 52.892 53.728C52.724 54.88 52.172 56.56 51.32 57.64C50.312 58.924 48.968 59.944 46.64 60.532L47.456 61.432C49.652 60.736 51.08 59.632 52.172 58.216C53.132 56.992 53.708 55.048 53.972 53.788C54.02 53.56 54.068 53.356 54.152 53.188ZM56.132 63.148H56.924L60.512 51.472H59.732L56.132 63.148ZM65.9912 53.224V54.052H72.0752V53.224H65.9912ZM66.2192 55.624V56.44H71.8232V55.624H66.2192ZM65.6192 58.144V58.984H72.2432V58.144H65.6192ZM68.5232 53.512V61.96H69.3992V53.512H68.5232ZM70.6712 50.908C70.4552 51.544 70.0472 52.48 69.7352 53.056L70.4312 53.308C70.7792 52.768 71.1872 51.928 71.5472 51.196L70.6712 50.908ZM66.5072 51.256C66.8912 51.904 67.2752 52.78 67.4072 53.344L68.1872 53.032C68.0432 52.48 67.6472 51.628 67.2392 50.992L66.5072 51.256ZM61.7192 54.556V55.276H65.2952V54.556H61.7192ZM61.7792 51.352V52.072H65.2712V51.352H61.7792ZM61.7192 56.164V56.884H65.2952V56.164H61.7192ZM61.1552 52.924V53.668H65.7152V52.924H61.1552ZM62.1512 57.784V58.528H64.5032V60.532H62.1512V61.288H65.2952V57.784H62.1512ZM61.7072 57.784V61.84H62.4872V57.784H61.7072ZM80.5472 52.252V60.832H81.3512V52.252H80.5472ZM78.1712 51.88V61.816H78.9872V52.72H83.0072V61.72H83.8472V51.88H78.1712ZM78.6152 56.044V56.872H83.3792V56.044H78.6152ZM78.6152 60.328V61.156H83.3432V60.328H78.6152ZM75.1832 56.572V61.948H75.9872V56.572H75.1832ZM75.0632 50.92C74.7512 51.724 74.1872 52.888 73.7192 53.584L74.3552 53.872C74.8232 53.2 75.4112 52.132 75.8672 51.244L75.0632 50.92ZM76.5392 52.3C75.8792 53.572 74.7152 55.36 73.7912 56.416L74.3552 56.74C75.2792 55.708 76.4672 54.004 77.3072 52.672L76.5392 52.3ZM73.1432 53.488C73.7792 54.04 74.5232 54.856 74.8352 55.408L75.3152 54.712C74.9912 54.196 74.2472 53.428 73.5992 52.888L73.1432 53.488ZM76.2032 55.048C76.7192 55.84 77.2352 56.908 77.4272 57.58L78.1472 57.232C77.9432 56.56 77.4152 55.528 76.8872 54.748L76.2032 55.048ZM73.0592 56.224L73.1912 57.052C74.3552 56.944 75.8912 56.8 77.3912 56.668L77.3792 55.936C75.7712 56.056 74.1512 56.164 73.0592 56.224ZM76.4192 57.952C76.7552 58.696 77.0792 59.68 77.1872 60.316L77.9432 60.064C77.7992 59.428 77.4632 58.468 77.1152 57.736L76.4192 57.952ZM73.8032 57.772C73.6712 58.828 73.4432 59.908 73.0472 60.64C73.2512 60.712 73.6112 60.88 73.7672 60.976C74.1392 60.208 74.4272 59.044 74.5832 57.916L73.8032 57.772Z" fill="#4D4D4D"/>
<rect x="20" y="72" width="344" height="64" fill="#DDDDDD"/>
<path opacity="0.9" d="M163.761 112H171.789V109.858H169.287V98.68H167.325C166.461 99.202 165.561 99.544 164.211 99.796V101.434H166.641V109.858H163.761V112ZM177.132 103.324V105.43H186.87V103.324H177.132ZM186.168 103.324V103.72C186.006 108.724 185.808 110.74 185.376 111.208C185.178 111.406 184.98 111.46 184.656 111.46C184.206 111.46 183.27 111.442 182.262 111.352C182.658 111.964 182.946 112.9 182.982 113.53C184.044 113.566 185.088 113.584 185.718 113.494C186.402 113.386 186.906 113.224 187.356 112.612C187.986 111.874 188.202 109.732 188.4 104.26C188.418 103.99 188.436 103.324 188.436 103.324H186.168ZM179.166 96.952C178.086 99.688 176.088 102.208 173.82 103.702C174.342 104.116 175.278 104.98 175.692 105.448C177.96 103.666 180.156 100.768 181.506 97.636L179.166 96.952ZM186.024 96.916L183.9 97.762C185.322 100.516 187.536 103.432 189.57 105.304C189.984 104.692 190.812 103.81 191.406 103.342C189.426 101.83 187.158 99.202 186.024 96.916ZM180.354 103.936C180.066 107.14 179.634 110.182 174.81 111.766C175.314 112.234 175.944 113.152 176.214 113.746C181.578 111.748 182.352 107.986 182.694 103.936H180.354ZM202.998 99.67L200.532 99.598C200.352 101.488 199.956 103.558 199.434 105.25C198.678 107.68 197.994 108.832 197.22 108.832C196.536 108.832 195.816 107.95 195.816 106.132C195.816 103.864 197.904 100.75 201.72 100.75C204.834 100.75 206.598 102.766 206.598 105.592C206.598 108.238 204.798 109.876 202.512 110.434C202.026 110.542 201.522 110.632 200.82 110.722L202.188 112.846C206.724 112.144 209.046 109.462 209.046 105.682C209.046 101.74 206.22 98.644 201.774 98.644C197.112 98.644 193.494 102.208 193.494 106.348C193.494 109.39 195.15 111.604 197.166 111.604C199.128 111.604 200.676 109.372 201.756 105.736C202.386 103.612 202.746 101.506 202.998 99.67ZM212.538 112H220.566V109.858H218.064V98.68H216.102C215.238 99.202 214.338 99.544 212.988 99.796V101.434H215.418V109.858H212.538V112Z" fill="#4D4D4D"/>
<path opacity="0.9" d="M30.332 261.032L29.6 260.564C29.372 260.612 29.132 260.624 28.952 260.624C28.412 260.624 23.624 260.624 22.94 260.624C22.544 260.624 22.064 260.588 21.74 260.54V261.608C22.04 261.596 22.448 261.572 22.928 261.572C23.624 261.572 28.376 261.572 29.072 261.572C28.904 262.724 28.352 264.392 27.5 265.484C26.492 266.768 25.148 267.788 22.82 268.364L23.636 269.264C25.832 268.58 27.26 267.464 28.352 266.06C29.312 264.824 29.888 262.892 30.152 261.632C30.2 261.392 30.248 261.2 30.332 261.032ZM39.812 261.668H38.792C38.84 261.932 38.864 262.244 38.864 262.484C38.912 263.54 38.972 267.14 38.972 268.556C38.972 268.784 38.864 268.916 38.636 268.916C38.288 268.916 37.664 268.868 37.172 268.796L37.232 269.684C37.7 269.708 38.492 269.744 38.96 269.744C39.488 269.744 39.872 269.444 39.872 268.928C39.848 267.188 39.788 263.54 39.764 262.484C39.764 262.208 39.764 261.92 39.812 261.668ZM34.4 263.396V264.356C34.688 264.332 35 264.32 35.312 264.32C35.744 264.32 41.108 264.32 41.54 264.32C41.768 264.32 42.104 264.332 42.308 264.344V263.396C42.14 263.432 41.756 263.456 41.504 263.456C41.012 263.456 35.804 263.456 35.3 263.456C35.012 263.456 34.688 263.444 34.4 263.396ZM34.088 267.992L34.748 268.724C36.584 267.764 38.552 265.952 39.188 264.776L39.176 264.056L38.684 264.044C37.988 265.304 36.02 267.068 34.088 267.992ZM45.212 263.804V264.98C45.596 264.956 46.232 264.932 46.892 264.932C47.78 264.932 52.568 264.932 53.48 264.932C54.008 264.932 54.512 264.968 54.764 264.98V263.804C54.488 263.828 54.068 263.876 53.468 263.876C52.58 263.876 47.768 263.876 46.892 263.876C46.208 263.876 45.584 263.84 45.212 263.804ZM61.9007 260.06L60.7007 259.808C60.6647 260.132 60.6167 260.408 60.4607 260.96C60.1007 262.232 58.7087 266.576 58.1087 267.956L59.1887 267.92C59.7047 266.708 61.0967 262.4 61.4807 261.176C61.6487 260.66 61.7807 260.348 61.9007 260.06ZM64.1807 264.08L63.2687 264.476C64.1327 265.616 65.3567 268.112 65.8367 269.408L66.8327 268.964C66.3407 267.728 65.0207 265.304 64.1807 264.08ZM57.6407 267.668C57.2927 267.692 56.8727 267.704 56.5127 267.692L56.7047 268.796C57.0407 268.748 57.4007 268.7 57.7007 268.676C59.3927 268.508 63.8087 268.028 65.4767 267.812L65.2127 266.876C63.6647 267.104 59.3687 267.584 57.6407 267.668Z" fill="#4D4D4D"/>
<rect x="20" y="280" width="344" height="64" fill="#DDDDDD"/>
<path opacity="0.9" d="M163.761 320H171.789V317.858H169.287V306.68H167.325C166.461 307.202 165.561 307.544 164.211 307.796V309.434H166.641V317.858H163.761V320ZM177.132 311.324V313.43H186.87V311.324H177.132ZM186.168 311.324V311.72C186.006 316.724 185.808 318.74 185.376 319.208C185.178 319.406 184.98 319.46 184.656 319.46C184.206 319.46 183.27 319.442 182.262 319.352C182.658 319.964 182.946 320.9 182.982 321.53C184.044 321.566 185.088 321.584 185.718 321.494C186.402 321.386 186.906 321.224 187.356 320.612C187.986 319.874 188.202 317.732 188.4 312.26C188.418 311.99 188.436 311.324 188.436 311.324H186.168ZM179.166 304.952C178.086 307.688 176.088 310.208 173.82 311.702C174.342 312.116 175.278 312.98 175.692 313.448C177.96 311.666 180.156 308.768 181.506 305.636L179.166 304.952ZM186.024 304.916L183.9 305.762C185.322 308.516 187.536 311.432 189.57 313.304C189.984 312.692 190.812 311.81 191.406 311.342C189.426 309.83 187.158 307.202 186.024 304.916ZM180.354 311.936C180.066 315.14 179.634 318.182 174.81 319.766C175.314 320.234 175.944 321.152 176.214 321.746C181.578 319.748 182.352 315.986 182.694 311.936H180.354ZM202.998 307.67L200.532 307.598C200.352 309.488 199.956 311.558 199.434 313.25C198.678 315.68 197.994 316.832 197.22 316.832C196.536 316.832 195.816 315.95 195.816 314.132C195.816 311.864 197.904 308.75 201.72 308.75C204.834 308.75 206.598 310.766 206.598 313.592C206.598 316.238 204.798 317.876 202.512 318.434C202.026 318.542 201.522 318.632 200.82 318.722L202.188 320.846C206.724 320.144 209.046 317.462 209.046 313.682C209.046 309.74 206.22 306.644 201.774 306.644C197.112 306.644 193.494 310.208 193.494 314.348C193.494 317.39 195.15 319.604 197.166 319.604C199.128 319.604 200.676 317.372 201.756 313.736C202.386 311.612 202.746 309.506 202.998 307.67ZM212.538 320H220.566V317.858H218.064V306.68H216.102C215.238 307.202 214.338 307.544 212.988 307.796V309.434H215.418V317.858H212.538V320Z" fill="#4D4D4D"/>
<rect x="20" y="152" width="166" height="64" fill="#DDDDDD"/>
<rect x="198" y="152" width="166" height="64" fill="#DDDDDD"/>
<path opacity="0.9" d="M74.0588 192H82.9868V189.768H80.1068C79.4768 189.768 78.5948 189.858 77.9288 189.93C80.3588 187.554 82.3748 184.962 82.3748 182.532C82.3748 180.048 80.6828 178.446 78.1808 178.446C76.3628 178.446 75.1568 179.148 73.9328 180.462L75.3908 181.902C76.0748 181.146 76.8488 180.516 77.8388 180.516C79.1168 180.516 79.8188 181.344 79.8188 182.676C79.8188 184.728 77.6948 187.23 74.0588 190.488V192ZM88.132 183.324V185.43H97.87V183.324H88.132ZM97.168 183.324V183.72C97.006 188.724 96.808 190.74 96.376 191.208C96.178 191.406 95.98 191.46 95.656 191.46C95.206 191.46 94.27 191.442 93.262 191.352C93.658 191.964 93.946 192.9 93.982 193.53C95.044 193.566 96.088 193.584 96.718 193.494C97.402 193.386 97.906 193.224 98.356 192.612C98.986 191.874 99.202 189.732 99.4 184.26C99.418 183.99 99.436 183.324 99.436 183.324H97.168ZM90.166 176.952C89.086 179.688 87.088 182.208 84.82 183.702C85.342 184.116 86.278 184.98 86.692 185.448C88.96 183.666 91.156 180.768 92.506 177.636L90.166 176.952ZM97.024 176.916L94.9 177.762C96.322 180.516 98.536 183.432 100.57 185.304C100.984 184.692 101.812 183.81 102.406 183.342C100.426 181.83 98.158 179.202 97.024 176.916ZM91.354 183.936C91.066 187.14 90.634 190.182 85.81 191.766C86.314 192.234 86.944 193.152 87.214 193.746C92.578 191.748 93.352 187.986 93.694 183.936H91.354ZM113.998 179.67L111.532 179.598C111.352 181.488 110.956 183.558 110.434 185.25C109.678 187.68 108.994 188.832 108.22 188.832C107.536 188.832 106.816 187.95 106.816 186.132C106.816 183.864 108.904 180.75 112.72 180.75C115.834 180.75 117.598 182.766 117.598 185.592C117.598 188.238 115.798 189.876 113.512 190.434C113.026 190.542 112.522 190.632 111.82 190.722L113.188 192.846C117.724 192.144 120.046 189.462 120.046 185.682C120.046 181.74 117.22 178.644 112.774 178.644C108.112 178.644 104.494 182.208 104.494 186.348C104.494 189.39 106.15 191.604 108.166 191.604C110.128 191.604 111.676 189.372 112.756 185.736C113.386 183.612 113.746 181.506 113.998 179.67ZM123.538 192H131.566V189.858H129.064V178.68H127.102C126.238 179.202 125.338 179.544 123.988 179.796V181.434H126.418V189.858H123.538V192Z" fill="#4D4D4D"/>
<path opacity="0.9" d="M252.059 192H260.987V189.768H258.107C257.477 189.768 256.595 189.858 255.929 189.93C258.359 187.554 260.375 184.962 260.375 182.532C260.375 180.048 258.683 178.446 256.181 178.446C254.363 178.446 253.157 179.148 251.933 180.462L253.391 181.902C254.075 181.146 254.849 180.516 255.839 180.516C257.117 180.516 257.819 181.344 257.819 182.676C257.819 184.728 255.695 187.23 252.059 190.488V192ZM266.132 183.324V185.43H275.87V183.324H266.132ZM275.168 183.324V183.72C275.006 188.724 274.808 190.74 274.376 191.208C274.178 191.406 273.98 191.46 273.656 191.46C273.206 191.46 272.27 191.442 271.262 191.352C271.658 191.964 271.946 192.9 271.982 193.53C273.044 193.566 274.088 193.584 274.718 193.494C275.402 193.386 275.906 193.224 276.356 192.612C276.986 191.874 277.202 189.732 277.4 184.26C277.418 183.99 277.436 183.324 277.436 183.324H275.168ZM268.166 176.952C267.086 179.688 265.088 182.208 262.82 183.702C263.342 184.116 264.278 184.98 264.692 185.448C266.96 183.666 269.156 180.768 270.506 177.636L268.166 176.952ZM275.024 176.916L272.9 177.762C274.322 180.516 276.536 183.432 278.57 185.304C278.984 184.692 279.812 183.81 280.406 183.342C278.426 181.83 276.158 179.202 275.024 176.916ZM269.354 183.936C269.066 187.14 268.634 190.182 263.81 191.766C264.314 192.234 264.944 193.152 265.214 193.746C270.578 191.748 271.352 187.986 271.694 183.936H269.354ZM291.998 179.67L289.532 179.598C289.352 181.488 288.956 183.558 288.434 185.25C287.678 187.68 286.994 188.832 286.22 188.832C285.536 188.832 284.816 187.95 284.816 186.132C284.816 183.864 286.904 180.75 290.72 180.75C293.834 180.75 295.598 182.766 295.598 185.592C295.598 188.238 293.798 189.876 291.512 190.434C291.026 190.542 290.522 190.632 289.82 190.722L291.188 192.846C295.724 192.144 298.046 189.462 298.046 185.682C298.046 181.74 295.22 178.644 290.774 178.644C286.112 178.644 282.494 182.208 282.494 186.348C282.494 189.39 284.15 191.604 286.166 191.604C288.128 191.604 289.676 189.372 290.756 185.736C291.386 183.612 291.746 181.506 291.998 179.67ZM301.538 192H309.566V189.858H307.064V178.68H305.102C304.238 179.202 303.338 179.544 301.988 179.796V181.434H304.418V189.858H301.538V192Z" fill="#4D4D4D"/>
</svg>
