<svg width="671" height="801" viewBox="0 0 671 801" fill="none" xmlns="http://www.w3.org/2000/svg">
<rect x="0.5" y="32.5" width="639" height="768" fill="white"/>
<rect x="64" y="72" width="116" height="64" fill="#DDDDDD"/>
<rect x="196" y="72" width="248" height="64" fill="#DDDDDD"/>
<rect x="460" y="72" width="116" height="64" fill="#DDDDDD"/>
<rect x="64" y="280" width="380" height="64" fill="#DDDDDD"/>
<rect x="460" y="280" width="116" height="64" fill="#DDDDDD"/>
<rect x="64" y="488" width="380" height="64" fill="#DDDDDD"/>
<rect x="460.5" y="488.5" width="115" height="63" stroke="#DDDDDD"/>
<rect x="64" y="152" width="116" height="64" fill="#DDDDDD"/>
<rect x="196" y="152" width="116" height="64" fill="#DDDDDD"/>
<rect x="328" y="152" width="116" height="64" fill="#DDDDDD"/>
<rect x="460" y="152" width="116" height="64" fill="#DDDDDD"/>
<rect x="64" y="360" width="116" height="64" fill="#DDDDDD"/>
<rect x="196" y="360" width="116" height="64" fill="#DDDDDD"/>
<rect x="328" y="360" width="116" height="64" fill="#DDDDDD"/>
<rect x="460" y="360" width="116" height="64" fill="#DDDDDD"/>
<path opacity="0.9" d="M98.3508 112H100.817V98.68H97.6308L92.6808 106.744V108.562H102.401V106.528H95.2548L97.3068 103.216C97.6848 102.496 98.0448 101.758 98.3868 101.038H98.4588C98.4228 101.83 98.3508 103.036 98.3508 103.81V112ZM107.132 103.324V105.43H116.87V103.324H107.132ZM116.168 103.324V103.72C116.006 108.724 115.808 110.74 115.376 111.208C115.178 111.406 114.98 111.46 114.656 111.46C114.206 111.46 113.27 111.442 112.262 111.352C112.658 111.964 112.946 112.9 112.982 113.53C114.044 113.566 115.088 113.584 115.718 113.494C116.402 113.386 116.906 113.224 117.356 112.612C117.986 111.874 118.202 109.732 118.4 104.26C118.418 103.99 118.436 103.324 118.436 103.324H116.168ZM109.166 96.952C108.086 99.688 106.088 102.208 103.82 103.702C104.342 104.116 105.278 104.98 105.692 105.448C107.96 103.666 110.156 100.768 111.506 97.636L109.166 96.952ZM116.024 96.916L113.9 97.762C115.322 100.516 117.536 103.432 119.57 105.304C119.984 104.692 120.812 103.81 121.406 103.342C119.426 101.83 117.158 99.202 116.024 96.916ZM110.354 103.936C110.066 107.14 109.634 110.182 104.81 111.766C105.314 112.234 105.944 113.152 106.214 113.746C111.578 111.748 112.352 107.986 112.694 103.936H110.354ZM132.998 99.67L130.532 99.598C130.352 101.488 129.956 103.558 129.434 105.25C128.678 107.68 127.994 108.832 127.22 108.832C126.536 108.832 125.816 107.95 125.816 106.132C125.816 103.864 127.904 100.75 131.72 100.75C134.834 100.75 136.598 102.766 136.598 105.592C136.598 108.238 134.798 109.876 132.512 110.434C132.026 110.542 131.522 110.632 130.82 110.722L132.188 112.846C136.724 112.144 139.046 109.462 139.046 105.682C139.046 101.74 136.22 98.644 131.774 98.644C127.112 98.644 123.494 102.208 123.494 106.348C123.494 109.39 125.15 111.604 127.166 111.604C129.128 111.604 130.676 109.372 131.756 105.736C132.386 103.612 132.746 101.506 132.998 99.67ZM142.538 112H150.566V109.858H148.064V98.68H146.102C145.238 99.202 144.338 99.544 142.988 99.796V101.434H145.418V109.858H142.538V112Z" fill="#4D4D4D"/>
<path opacity="0.9" d="M98.3508 192H100.817V178.68H97.6308L92.6808 186.744V188.562H102.401V186.528H95.2548L97.3068 183.216C97.6848 182.496 98.0448 181.758 98.3868 181.038H98.4588C98.4228 181.83 98.3508 183.036 98.3508 183.81V192ZM107.132 183.324V185.43H116.87V183.324H107.132ZM116.168 183.324V183.72C116.006 188.724 115.808 190.74 115.376 191.208C115.178 191.406 114.98 191.46 114.656 191.46C114.206 191.46 113.27 191.442 112.262 191.352C112.658 191.964 112.946 192.9 112.982 193.53C114.044 193.566 115.088 193.584 115.718 193.494C116.402 193.386 116.906 193.224 117.356 192.612C117.986 191.874 118.202 189.732 118.4 184.26C118.418 183.99 118.436 183.324 118.436 183.324H116.168ZM109.166 176.952C108.086 179.688 106.088 182.208 103.82 183.702C104.342 184.116 105.278 184.98 105.692 185.448C107.96 183.666 110.156 180.768 111.506 177.636L109.166 176.952ZM116.024 176.916L113.9 177.762C115.322 180.516 117.536 183.432 119.57 185.304C119.984 184.692 120.812 183.81 121.406 183.342C119.426 181.83 117.158 179.202 116.024 176.916ZM110.354 183.936C110.066 187.14 109.634 190.182 104.81 191.766C105.314 192.234 105.944 193.152 106.214 193.746C111.578 191.748 112.352 187.986 112.694 183.936H110.354ZM132.998 179.67L130.532 179.598C130.352 181.488 129.956 183.558 129.434 185.25C128.678 187.68 127.994 188.832 127.22 188.832C126.536 188.832 125.816 187.95 125.816 186.132C125.816 183.864 127.904 180.75 131.72 180.75C134.834 180.75 136.598 182.766 136.598 185.592C136.598 188.238 134.798 189.876 132.512 190.434C132.026 190.542 131.522 190.632 130.82 190.722L132.188 192.846C136.724 192.144 139.046 189.462 139.046 185.682C139.046 181.74 136.22 178.644 131.774 178.644C127.112 178.644 123.494 182.208 123.494 186.348C123.494 189.39 125.15 191.604 127.166 191.604C129.128 191.604 130.676 189.372 131.756 185.736C132.386 183.612 132.746 181.506 132.998 179.67ZM142.538 192H150.566V189.858H148.064V178.68H146.102C145.238 179.202 144.338 179.544 142.988 179.796V181.434H145.418V189.858H142.538V192Z" fill="#4D4D4D"/>
<path opacity="0.9" d="M98.3508 400H100.817V386.68H97.6308L92.6808 394.744V396.562H102.401V394.528H95.2548L97.3068 391.216C97.6848 390.496 98.0448 389.758 98.3868 389.038H98.4588C98.4228 389.83 98.3508 391.036 98.3508 391.81V400ZM107.132 391.324V393.43H116.87V391.324H107.132ZM116.168 391.324V391.72C116.006 396.724 115.808 398.74 115.376 399.208C115.178 399.406 114.98 399.46 114.656 399.46C114.206 399.46 113.27 399.442 112.262 399.352C112.658 399.964 112.946 400.9 112.982 401.53C114.044 401.566 115.088 401.584 115.718 401.494C116.402 401.386 116.906 401.224 117.356 400.612C117.986 399.874 118.202 397.732 118.4 392.26C118.418 391.99 118.436 391.324 118.436 391.324H116.168ZM109.166 384.952C108.086 387.688 106.088 390.208 103.82 391.702C104.342 392.116 105.278 392.98 105.692 393.448C107.96 391.666 110.156 388.768 111.506 385.636L109.166 384.952ZM116.024 384.916L113.9 385.762C115.322 388.516 117.536 391.432 119.57 393.304C119.984 392.692 120.812 391.81 121.406 391.342C119.426 389.83 117.158 387.202 116.024 384.916ZM110.354 391.936C110.066 395.14 109.634 398.182 104.81 399.766C105.314 400.234 105.944 401.152 106.214 401.746C111.578 399.748 112.352 395.986 112.694 391.936H110.354ZM132.998 387.67L130.532 387.598C130.352 389.488 129.956 391.558 129.434 393.25C128.678 395.68 127.994 396.832 127.22 396.832C126.536 396.832 125.816 395.95 125.816 394.132C125.816 391.864 127.904 388.75 131.72 388.75C134.834 388.75 136.598 390.766 136.598 393.592C136.598 396.238 134.798 397.876 132.512 398.434C132.026 398.542 131.522 398.632 130.82 398.722L132.188 400.846C136.724 400.144 139.046 397.462 139.046 393.682C139.046 389.74 136.22 386.644 131.774 386.644C127.112 386.644 123.494 390.208 123.494 394.348C123.494 397.39 125.15 399.604 127.166 399.604C129.128 399.604 130.676 397.372 131.756 393.736C132.386 391.612 132.746 389.506 132.998 387.67ZM142.538 400H150.566V397.858H148.064V386.68H146.102C145.238 387.202 144.338 387.544 142.988 387.796V389.434H145.418V397.858H142.538V400Z" fill="#4D4D4D"/>
<path opacity="0.9" d="M230.351 192H232.817V178.68H229.631L224.681 186.744V188.562H234.401V186.528H227.255L229.307 183.216C229.685 182.496 230.045 181.758 230.387 181.038H230.459C230.423 181.83 230.351 183.036 230.351 183.81V192ZM239.132 183.324V185.43H248.87V183.324H239.132ZM248.168 183.324V183.72C248.006 188.724 247.808 190.74 247.376 191.208C247.178 191.406 246.98 191.46 246.656 191.46C246.206 191.46 245.27 191.442 244.262 191.352C244.658 191.964 244.946 192.9 244.982 193.53C246.044 193.566 247.088 193.584 247.718 193.494C248.402 193.386 248.906 193.224 249.356 192.612C249.986 191.874 250.202 189.732 250.4 184.26C250.418 183.99 250.436 183.324 250.436 183.324H248.168ZM241.166 176.952C240.086 179.688 238.088 182.208 235.82 183.702C236.342 184.116 237.278 184.98 237.692 185.448C239.96 183.666 242.156 180.768 243.506 177.636L241.166 176.952ZM248.024 176.916L245.9 177.762C247.322 180.516 249.536 183.432 251.57 185.304C251.984 184.692 252.812 183.81 253.406 183.342C251.426 181.83 249.158 179.202 248.024 176.916ZM242.354 183.936C242.066 187.14 241.634 190.182 236.81 191.766C237.314 192.234 237.944 193.152 238.214 193.746C243.578 191.748 244.352 187.986 244.694 183.936H242.354ZM264.998 179.67L262.532 179.598C262.352 181.488 261.956 183.558 261.434 185.25C260.678 187.68 259.994 188.832 259.22 188.832C258.536 188.832 257.816 187.95 257.816 186.132C257.816 183.864 259.904 180.75 263.72 180.75C266.834 180.75 268.598 182.766 268.598 185.592C268.598 188.238 266.798 189.876 264.512 190.434C264.026 190.542 263.522 190.632 262.82 190.722L264.188 192.846C268.724 192.144 271.046 189.462 271.046 185.682C271.046 181.74 268.22 178.644 263.774 178.644C259.112 178.644 255.494 182.208 255.494 186.348C255.494 189.39 257.15 191.604 259.166 191.604C261.128 191.604 262.676 189.372 263.756 185.736C264.386 183.612 264.746 181.506 264.998 179.67ZM274.538 192H282.566V189.858H280.064V178.68H278.102C277.238 179.202 276.338 179.544 274.988 179.796V181.434H277.418V189.858H274.538V192Z" fill="#4D4D4D"/>
<path opacity="0.9" d="M230.351 400H232.817V386.68H229.631L224.681 394.744V396.562H234.401V394.528H227.255L229.307 391.216C229.685 390.496 230.045 389.758 230.387 389.038H230.459C230.423 389.83 230.351 391.036 230.351 391.81V400ZM239.132 391.324V393.43H248.87V391.324H239.132ZM248.168 391.324V391.72C248.006 396.724 247.808 398.74 247.376 399.208C247.178 399.406 246.98 399.46 246.656 399.46C246.206 399.46 245.27 399.442 244.262 399.352C244.658 399.964 244.946 400.9 244.982 401.53C246.044 401.566 247.088 401.584 247.718 401.494C248.402 401.386 248.906 401.224 249.356 400.612C249.986 399.874 250.202 397.732 250.4 392.26C250.418 391.99 250.436 391.324 250.436 391.324H248.168ZM241.166 384.952C240.086 387.688 238.088 390.208 235.82 391.702C236.342 392.116 237.278 392.98 237.692 393.448C239.96 391.666 242.156 388.768 243.506 385.636L241.166 384.952ZM248.024 384.916L245.9 385.762C247.322 388.516 249.536 391.432 251.57 393.304C251.984 392.692 252.812 391.81 253.406 391.342C251.426 389.83 249.158 387.202 248.024 384.916ZM242.354 391.936C242.066 395.14 241.634 398.182 236.81 399.766C237.314 400.234 237.944 401.152 238.214 401.746C243.578 399.748 244.352 395.986 244.694 391.936H242.354ZM264.998 387.67L262.532 387.598C262.352 389.488 261.956 391.558 261.434 393.25C260.678 395.68 259.994 396.832 259.22 396.832C258.536 396.832 257.816 395.95 257.816 394.132C257.816 391.864 259.904 388.75 263.72 388.75C266.834 388.75 268.598 390.766 268.598 393.592C268.598 396.238 266.798 397.876 264.512 398.434C264.026 398.542 263.522 398.632 262.82 398.722L264.188 400.846C268.724 400.144 271.046 397.462 271.046 393.682C271.046 389.74 268.22 386.644 263.774 386.644C259.112 386.644 255.494 390.208 255.494 394.348C255.494 397.39 257.15 399.604 259.166 399.604C261.128 399.604 262.676 397.372 263.756 393.736C264.386 391.612 264.746 389.506 264.998 387.67ZM274.538 400H282.566V397.858H280.064V386.68H278.102C277.238 387.202 276.338 387.544 274.988 387.796V389.434H277.418V397.858H274.538V400Z" fill="#4D4D4D"/>
<path opacity="0.9" d="M362.351 192H364.817V178.68H361.631L356.681 186.744V188.562H366.401V186.528H359.255L361.307 183.216C361.685 182.496 362.045 181.758 362.387 181.038H362.459C362.423 181.83 362.351 183.036 362.351 183.81V192ZM371.132 183.324V185.43H380.87V183.324H371.132ZM380.168 183.324V183.72C380.006 188.724 379.808 190.74 379.376 191.208C379.178 191.406 378.98 191.46 378.656 191.46C378.206 191.46 377.27 191.442 376.262 191.352C376.658 191.964 376.946 192.9 376.982 193.53C378.044 193.566 379.088 193.584 379.718 193.494C380.402 193.386 380.906 193.224 381.356 192.612C381.986 191.874 382.202 189.732 382.4 184.26C382.418 183.99 382.436 183.324 382.436 183.324H380.168ZM373.166 176.952C372.086 179.688 370.088 182.208 367.82 183.702C368.342 184.116 369.278 184.98 369.692 185.448C371.96 183.666 374.156 180.768 375.506 177.636L373.166 176.952ZM380.024 176.916L377.9 177.762C379.322 180.516 381.536 183.432 383.57 185.304C383.984 184.692 384.812 183.81 385.406 183.342C383.426 181.83 381.158 179.202 380.024 176.916ZM374.354 183.936C374.066 187.14 373.634 190.182 368.81 191.766C369.314 192.234 369.944 193.152 370.214 193.746C375.578 191.748 376.352 187.986 376.694 183.936H374.354ZM396.998 179.67L394.532 179.598C394.352 181.488 393.956 183.558 393.434 185.25C392.678 187.68 391.994 188.832 391.22 188.832C390.536 188.832 389.816 187.95 389.816 186.132C389.816 183.864 391.904 180.75 395.72 180.75C398.834 180.75 400.598 182.766 400.598 185.592C400.598 188.238 398.798 189.876 396.512 190.434C396.026 190.542 395.522 190.632 394.82 190.722L396.188 192.846C400.724 192.144 403.046 189.462 403.046 185.682C403.046 181.74 400.22 178.644 395.774 178.644C391.112 178.644 387.494 182.208 387.494 186.348C387.494 189.39 389.15 191.604 391.166 191.604C393.128 191.604 394.676 189.372 395.756 185.736C396.386 183.612 396.746 181.506 396.998 179.67ZM406.538 192H414.566V189.858H412.064V178.68H410.102C409.238 179.202 408.338 179.544 406.988 179.796V181.434H409.418V189.858H406.538V192Z" fill="#4D4D4D"/>
<path opacity="0.9" d="M362.351 400H364.817V386.68H361.631L356.681 394.744V396.562H366.401V394.528H359.255L361.307 391.216C361.685 390.496 362.045 389.758 362.387 389.038H362.459C362.423 389.83 362.351 391.036 362.351 391.81V400ZM371.132 391.324V393.43H380.87V391.324H371.132ZM380.168 391.324V391.72C380.006 396.724 379.808 398.74 379.376 399.208C379.178 399.406 378.98 399.46 378.656 399.46C378.206 399.46 377.27 399.442 376.262 399.352C376.658 399.964 376.946 400.9 376.982 401.53C378.044 401.566 379.088 401.584 379.718 401.494C380.402 401.386 380.906 401.224 381.356 400.612C381.986 399.874 382.202 397.732 382.4 392.26C382.418 391.99 382.436 391.324 382.436 391.324H380.168ZM373.166 384.952C372.086 387.688 370.088 390.208 367.82 391.702C368.342 392.116 369.278 392.98 369.692 393.448C371.96 391.666 374.156 388.768 375.506 385.636L373.166 384.952ZM380.024 384.916L377.9 385.762C379.322 388.516 381.536 391.432 383.57 393.304C383.984 392.692 384.812 391.81 385.406 391.342C383.426 389.83 381.158 387.202 380.024 384.916ZM374.354 391.936C374.066 395.14 373.634 398.182 368.81 399.766C369.314 400.234 369.944 401.152 370.214 401.746C375.578 399.748 376.352 395.986 376.694 391.936H374.354ZM396.998 387.67L394.532 387.598C394.352 389.488 393.956 391.558 393.434 393.25C392.678 395.68 391.994 396.832 391.22 396.832C390.536 396.832 389.816 395.95 389.816 394.132C389.816 391.864 391.904 388.75 395.72 388.75C398.834 388.75 400.598 390.766 400.598 393.592C400.598 396.238 398.798 397.876 396.512 398.434C396.026 398.542 395.522 398.632 394.82 398.722L396.188 400.846C400.724 400.144 403.046 397.462 403.046 393.682C403.046 389.74 400.22 386.644 395.774 386.644C391.112 386.644 387.494 390.208 387.494 394.348C387.494 397.39 389.15 399.604 391.166 399.604C393.128 399.604 394.676 397.372 395.756 393.736C396.386 391.612 396.746 389.506 396.998 387.67ZM406.538 400H414.566V397.858H412.064V386.68H410.102C409.238 387.202 408.338 387.544 406.988 387.796V389.434H409.418V397.858H406.538V400Z" fill="#4D4D4D"/>
<path opacity="0.9" d="M494.351 112H496.817V98.68H493.631L488.681 106.744V108.562H498.401V106.528H491.255L493.307 103.216C493.685 102.496 494.045 101.758 494.387 101.038H494.459C494.423 101.83 494.351 103.036 494.351 103.81V112ZM503.132 103.324V105.43H512.87V103.324H503.132ZM512.168 103.324V103.72C512.006 108.724 511.808 110.74 511.376 111.208C511.178 111.406 510.98 111.46 510.656 111.46C510.206 111.46 509.27 111.442 508.262 111.352C508.658 111.964 508.946 112.9 508.982 113.53C510.044 113.566 511.088 113.584 511.718 113.494C512.402 113.386 512.906 113.224 513.356 112.612C513.986 111.874 514.202 109.732 514.4 104.26C514.418 103.99 514.436 103.324 514.436 103.324H512.168ZM505.166 96.952C504.086 99.688 502.088 102.208 499.82 103.702C500.342 104.116 501.278 104.98 501.692 105.448C503.96 103.666 506.156 100.768 507.506 97.636L505.166 96.952ZM512.024 96.916L509.9 97.762C511.322 100.516 513.536 103.432 515.57 105.304C515.984 104.692 516.812 103.81 517.406 103.342C515.426 101.83 513.158 99.202 512.024 96.916ZM506.354 103.936C506.066 107.14 505.634 110.182 500.81 111.766C501.314 112.234 501.944 113.152 502.214 113.746C507.578 111.748 508.352 107.986 508.694 103.936H506.354ZM528.998 99.67L526.532 99.598C526.352 101.488 525.956 103.558 525.434 105.25C524.678 107.68 523.994 108.832 523.22 108.832C522.536 108.832 521.816 107.95 521.816 106.132C521.816 103.864 523.904 100.75 527.72 100.75C530.834 100.75 532.598 102.766 532.598 105.592C532.598 108.238 530.798 109.876 528.512 110.434C528.026 110.542 527.522 110.632 526.82 110.722L528.188 112.846C532.724 112.144 535.046 109.462 535.046 105.682C535.046 101.74 532.22 98.644 527.774 98.644C523.112 98.644 519.494 102.208 519.494 106.348C519.494 109.39 521.15 111.604 523.166 111.604C525.128 111.604 526.676 109.372 527.756 105.736C528.386 103.612 528.746 101.506 528.998 99.67ZM538.538 112H546.566V109.858H544.064V98.68H542.102C541.238 99.202 540.338 99.544 538.988 99.796V101.434H541.418V109.858H538.538V112Z" fill="#4D4D4D"/>
<path opacity="0.9" d="M494.351 320H496.817V306.68H493.631L488.681 314.744V316.562H498.401V314.528H491.255L493.307 311.216C493.685 310.496 494.045 309.758 494.387 309.038H494.459C494.423 309.83 494.351 311.036 494.351 311.81V320ZM503.132 311.324V313.43H512.87V311.324H503.132ZM512.168 311.324V311.72C512.006 316.724 511.808 318.74 511.376 319.208C511.178 319.406 510.98 319.46 510.656 319.46C510.206 319.46 509.27 319.442 508.262 319.352C508.658 319.964 508.946 320.9 508.982 321.53C510.044 321.566 511.088 321.584 511.718 321.494C512.402 321.386 512.906 321.224 513.356 320.612C513.986 319.874 514.202 317.732 514.4 312.26C514.418 311.99 514.436 311.324 514.436 311.324H512.168ZM505.166 304.952C504.086 307.688 502.088 310.208 499.82 311.702C500.342 312.116 501.278 312.98 501.692 313.448C503.96 311.666 506.156 308.768 507.506 305.636L505.166 304.952ZM512.024 304.916L509.9 305.762C511.322 308.516 513.536 311.432 515.57 313.304C515.984 312.692 516.812 311.81 517.406 311.342C515.426 309.83 513.158 307.202 512.024 304.916ZM506.354 311.936C506.066 315.14 505.634 318.182 500.81 319.766C501.314 320.234 501.944 321.152 502.214 321.746C507.578 319.748 508.352 315.986 508.694 311.936H506.354ZM528.998 307.67L526.532 307.598C526.352 309.488 525.956 311.558 525.434 313.25C524.678 315.68 523.994 316.832 523.22 316.832C522.536 316.832 521.816 315.95 521.816 314.132C521.816 311.864 523.904 308.75 527.72 308.75C530.834 308.75 532.598 310.766 532.598 313.592C532.598 316.238 530.798 317.876 528.512 318.434C528.026 318.542 527.522 318.632 526.82 318.722L528.188 320.846C532.724 320.144 535.046 317.462 535.046 313.682C535.046 309.74 532.22 306.644 527.774 306.644C523.112 306.644 519.494 310.208 519.494 314.348C519.494 317.39 521.15 319.604 523.166 319.604C525.128 319.604 526.676 317.372 527.756 313.736C528.386 311.612 528.746 309.506 528.998 307.67ZM538.538 320H546.566V317.858H544.064V306.68H542.102C541.238 307.202 540.338 307.544 538.988 307.796V309.434H541.418V317.858H538.538V320Z" fill="#4D4D4D"/>
<path opacity="0.9" d="M494.351 192H496.817V178.68H493.631L488.681 186.744V188.562H498.401V186.528H491.255L493.307 183.216C493.685 182.496 494.045 181.758 494.387 181.038H494.459C494.423 181.83 494.351 183.036 494.351 183.81V192ZM503.132 183.324V185.43H512.87V183.324H503.132ZM512.168 183.324V183.72C512.006 188.724 511.808 190.74 511.376 191.208C511.178 191.406 510.98 191.46 510.656 191.46C510.206 191.46 509.27 191.442 508.262 191.352C508.658 191.964 508.946 192.9 508.982 193.53C510.044 193.566 511.088 193.584 511.718 193.494C512.402 193.386 512.906 193.224 513.356 192.612C513.986 191.874 514.202 189.732 514.4 184.26C514.418 183.99 514.436 183.324 514.436 183.324H512.168ZM505.166 176.952C504.086 179.688 502.088 182.208 499.82 183.702C500.342 184.116 501.278 184.98 501.692 185.448C503.96 183.666 506.156 180.768 507.506 177.636L505.166 176.952ZM512.024 176.916L509.9 177.762C511.322 180.516 513.536 183.432 515.57 185.304C515.984 184.692 516.812 183.81 517.406 183.342C515.426 181.83 513.158 179.202 512.024 176.916ZM506.354 183.936C506.066 187.14 505.634 190.182 500.81 191.766C501.314 192.234 501.944 193.152 502.214 193.746C507.578 191.748 508.352 187.986 508.694 183.936H506.354ZM528.998 179.67L526.532 179.598C526.352 181.488 525.956 183.558 525.434 185.25C524.678 187.68 523.994 188.832 523.22 188.832C522.536 188.832 521.816 187.95 521.816 186.132C521.816 183.864 523.904 180.75 527.72 180.75C530.834 180.75 532.598 182.766 532.598 185.592C532.598 188.238 530.798 189.876 528.512 190.434C528.026 190.542 527.522 190.632 526.82 190.722L528.188 192.846C532.724 192.144 535.046 189.462 535.046 185.682C535.046 181.74 532.22 178.644 527.774 178.644C523.112 178.644 519.494 182.208 519.494 186.348C519.494 189.39 521.15 191.604 523.166 191.604C525.128 191.604 526.676 189.372 527.756 185.736C528.386 183.612 528.746 181.506 528.998 179.67ZM538.538 192H546.566V189.858H544.064V178.68H542.102C541.238 179.202 540.338 179.544 538.988 179.796V181.434H541.418V189.858H538.538V192Z" fill="#4D4D4D"/>
<path opacity="0.9" d="M494.351 400H496.817V386.68H493.631L488.681 394.744V396.562H498.401V394.528H491.255L493.307 391.216C493.685 390.496 494.045 389.758 494.387 389.038H494.459C494.423 389.83 494.351 391.036 494.351 391.81V400ZM503.132 391.324V393.43H512.87V391.324H503.132ZM512.168 391.324V391.72C512.006 396.724 511.808 398.74 511.376 399.208C511.178 399.406 510.98 399.46 510.656 399.46C510.206 399.46 509.27 399.442 508.262 399.352C508.658 399.964 508.946 400.9 508.982 401.53C510.044 401.566 511.088 401.584 511.718 401.494C512.402 401.386 512.906 401.224 513.356 400.612C513.986 399.874 514.202 397.732 514.4 392.26C514.418 391.99 514.436 391.324 514.436 391.324H512.168ZM505.166 384.952C504.086 387.688 502.088 390.208 499.82 391.702C500.342 392.116 501.278 392.98 501.692 393.448C503.96 391.666 506.156 388.768 507.506 385.636L505.166 384.952ZM512.024 384.916L509.9 385.762C511.322 388.516 513.536 391.432 515.57 393.304C515.984 392.692 516.812 391.81 517.406 391.342C515.426 389.83 513.158 387.202 512.024 384.916ZM506.354 391.936C506.066 395.14 505.634 398.182 500.81 399.766C501.314 400.234 501.944 401.152 502.214 401.746C507.578 399.748 508.352 395.986 508.694 391.936H506.354ZM528.998 387.67L526.532 387.598C526.352 389.488 525.956 391.558 525.434 393.25C524.678 395.68 523.994 396.832 523.22 396.832C522.536 396.832 521.816 395.95 521.816 394.132C521.816 391.864 523.904 388.75 527.72 388.75C530.834 388.75 532.598 390.766 532.598 393.592C532.598 396.238 530.798 397.876 528.512 398.434C528.026 398.542 527.522 398.632 526.82 398.722L528.188 400.846C532.724 400.144 535.046 397.462 535.046 393.682C535.046 389.74 532.22 386.644 527.774 386.644C523.112 386.644 519.494 390.208 519.494 394.348C519.494 397.39 521.15 399.604 523.166 399.604C525.128 399.604 526.676 397.372 527.756 393.736C528.386 391.612 528.746 389.506 528.998 387.67ZM538.538 400H546.566V397.858H544.064V386.68H542.102C541.238 387.202 540.338 387.544 538.988 387.796V389.434H541.418V397.858H538.538V400Z" fill="#4D4D4D"/>
<path opacity="0.9" d="M296.351 112H298.817V98.68H295.631L290.681 106.744V108.562H300.401V106.528H293.255L295.307 103.216C295.685 102.496 296.045 101.758 296.387 101.038H296.459C296.423 101.83 296.351 103.036 296.351 103.81V112ZM305.132 103.324V105.43H314.87V103.324H305.132ZM314.168 103.324V103.72C314.006 108.724 313.808 110.74 313.376 111.208C313.178 111.406 312.98 111.46 312.656 111.46C312.206 111.46 311.27 111.442 310.262 111.352C310.658 111.964 310.946 112.9 310.982 113.53C312.044 113.566 313.088 113.584 313.718 113.494C314.402 113.386 314.906 113.224 315.356 112.612C315.986 111.874 316.202 109.732 316.4 104.26C316.418 103.99 316.436 103.324 316.436 103.324H314.168ZM307.166 96.952C306.086 99.688 304.088 102.208 301.82 103.702C302.342 104.116 303.278 104.98 303.692 105.448C305.96 103.666 308.156 100.768 309.506 97.636L307.166 96.952ZM314.024 96.916L311.9 97.762C313.322 100.516 315.536 103.432 317.57 105.304C317.984 104.692 318.812 103.81 319.406 103.342C317.426 101.83 315.158 99.202 314.024 96.916ZM308.354 103.936C308.066 107.14 307.634 110.182 302.81 111.766C303.314 112.234 303.944 113.152 304.214 113.746C309.578 111.748 310.352 107.986 310.694 103.936H308.354ZM330.998 99.67L328.532 99.598C328.352 101.488 327.956 103.558 327.434 105.25C326.678 107.68 325.994 108.832 325.22 108.832C324.536 108.832 323.816 107.95 323.816 106.132C323.816 103.864 325.904 100.75 329.72 100.75C332.834 100.75 334.598 102.766 334.598 105.592C334.598 108.238 332.798 109.876 330.512 110.434C330.026 110.542 329.522 110.632 328.82 110.722L330.188 112.846C334.724 112.144 337.046 109.462 337.046 105.682C337.046 101.74 334.22 98.644 329.774 98.644C325.112 98.644 321.494 102.208 321.494 106.348C321.494 109.39 323.15 111.604 325.166 111.604C327.128 111.604 328.676 109.372 329.756 105.736C330.386 103.612 330.746 101.506 330.998 99.67ZM339.836 112H348.764V109.768H345.884C345.254 109.768 344.372 109.858 343.706 109.93C346.136 107.554 348.152 104.962 348.152 102.532C348.152 100.048 346.46 98.446 343.958 98.446C342.14 98.446 340.934 99.148 339.71 100.462L341.168 101.902C341.852 101.146 342.626 100.516 343.616 100.516C344.894 100.516 345.596 101.344 345.596 102.676C345.596 104.728 343.472 107.23 339.836 110.488V112Z" fill="#4D4D4D"/>
<path opacity="0.9" d="M230.351 320H232.817V306.68H229.631L224.681 314.744V316.562H234.401V314.528H227.255L229.307 311.216C229.685 310.496 230.045 309.758 230.387 309.038H230.459C230.423 309.83 230.351 311.036 230.351 311.81V320ZM239.132 311.324V313.43H248.87V311.324H239.132ZM248.168 311.324V311.72C248.006 316.724 247.808 318.74 247.376 319.208C247.178 319.406 246.98 319.46 246.656 319.46C246.206 319.46 245.27 319.442 244.262 319.352C244.658 319.964 244.946 320.9 244.982 321.53C246.044 321.566 247.088 321.584 247.718 321.494C248.402 321.386 248.906 321.224 249.356 320.612C249.986 319.874 250.202 317.732 250.4 312.26C250.418 311.99 250.436 311.324 250.436 311.324H248.168ZM241.166 304.952C240.086 307.688 238.088 310.208 235.82 311.702C236.342 312.116 237.278 312.98 237.692 313.448C239.96 311.666 242.156 308.768 243.506 305.636L241.166 304.952ZM248.024 304.916L245.9 305.762C247.322 308.516 249.536 311.432 251.57 313.304C251.984 312.692 252.812 311.81 253.406 311.342C251.426 309.83 249.158 307.202 248.024 304.916ZM242.354 311.936C242.066 315.14 241.634 318.182 236.81 319.766C237.314 320.234 237.944 321.152 238.214 321.746C243.578 319.748 244.352 315.986 244.694 311.936H242.354ZM264.998 307.67L262.532 307.598C262.352 309.488 261.956 311.558 261.434 313.25C260.678 315.68 259.994 316.832 259.22 316.832C258.536 316.832 257.816 315.95 257.816 314.132C257.816 311.864 259.904 308.75 263.72 308.75C266.834 308.75 268.598 310.766 268.598 313.592C268.598 316.238 266.798 317.876 264.512 318.434C264.026 318.542 263.522 318.632 262.82 318.722L264.188 320.846C268.724 320.144 271.046 317.462 271.046 313.682C271.046 309.74 268.22 306.644 263.774 306.644C259.112 306.644 255.494 310.208 255.494 314.348C255.494 317.39 257.15 319.604 259.166 319.604C261.128 319.604 262.676 317.372 263.756 313.736C264.386 311.612 264.746 309.506 264.998 307.67ZM277.994 320.252C280.55 320.252 282.692 318.848 282.692 316.4C282.692 314.636 281.54 313.538 280.028 313.106V313.016C281.45 312.476 282.242 311.414 282.242 309.992C282.242 307.706 280.496 306.446 277.922 306.446C276.374 306.446 275.096 307.076 273.944 308.066L275.294 309.704C276.086 308.966 276.86 308.516 277.814 308.516C278.948 308.516 279.596 309.146 279.596 310.19C279.596 311.378 278.804 312.206 276.356 312.206V314.114C279.254 314.114 280.028 314.924 280.028 316.238C280.028 317.426 279.11 318.11 277.742 318.11C276.536 318.11 275.582 317.498 274.79 316.724L273.53 318.398C274.466 319.478 275.888 320.252 277.994 320.252Z" fill="#4D4D4D"/>
<path opacity="0.9" d="M230.351 528H232.817V514.68H229.631L224.681 522.744V524.562H234.401V522.528H227.255L229.307 519.216C229.685 518.496 230.045 517.758 230.387 517.038H230.459C230.423 517.83 230.351 519.036 230.351 519.81V528ZM239.132 519.324V521.43H248.87V519.324H239.132ZM248.168 519.324V519.72C248.006 524.724 247.808 526.74 247.376 527.208C247.178 527.406 246.98 527.46 246.656 527.46C246.206 527.46 245.27 527.442 244.262 527.352C244.658 527.964 244.946 528.9 244.982 529.53C246.044 529.566 247.088 529.584 247.718 529.494C248.402 529.386 248.906 529.224 249.356 528.612C249.986 527.874 250.202 525.732 250.4 520.26C250.418 519.99 250.436 519.324 250.436 519.324H248.168ZM241.166 512.952C240.086 515.688 238.088 518.208 235.82 519.702C236.342 520.116 237.278 520.98 237.692 521.448C239.96 519.666 242.156 516.768 243.506 513.636L241.166 512.952ZM248.024 512.916L245.9 513.762C247.322 516.516 249.536 519.432 251.57 521.304C251.984 520.692 252.812 519.81 253.406 519.342C251.426 517.83 249.158 515.202 248.024 512.916ZM242.354 519.936C242.066 523.14 241.634 526.182 236.81 527.766C237.314 528.234 237.944 529.152 238.214 529.746C243.578 527.748 244.352 523.986 244.694 519.936H242.354ZM264.998 515.67L262.532 515.598C262.352 517.488 261.956 519.558 261.434 521.25C260.678 523.68 259.994 524.832 259.22 524.832C258.536 524.832 257.816 523.95 257.816 522.132C257.816 519.864 259.904 516.75 263.72 516.75C266.834 516.75 268.598 518.766 268.598 521.592C268.598 524.238 266.798 525.876 264.512 526.434C264.026 526.542 263.522 526.632 262.82 526.722L264.188 528.846C268.724 528.144 271.046 525.462 271.046 521.682C271.046 517.74 268.22 514.644 263.774 514.644C259.112 514.644 255.494 518.208 255.494 522.348C255.494 525.39 257.15 527.604 259.166 527.604C261.128 527.604 262.676 525.372 263.756 521.736C264.386 519.612 264.746 517.506 264.998 515.67ZM277.994 528.252C280.55 528.252 282.692 526.848 282.692 524.4C282.692 522.636 281.54 521.538 280.028 521.106V521.016C281.45 520.476 282.242 519.414 282.242 517.992C282.242 515.706 280.496 514.446 277.922 514.446C276.374 514.446 275.096 515.076 273.944 516.066L275.294 517.704C276.086 516.966 276.86 516.516 277.814 516.516C278.948 516.516 279.596 517.146 279.596 518.19C279.596 519.378 278.804 520.206 276.356 520.206V522.114C279.254 522.114 280.028 522.924 280.028 524.238C280.028 525.426 279.11 526.11 277.742 526.11C276.536 526.11 275.582 525.498 274.79 524.724L273.53 526.398C274.466 527.478 275.888 528.252 277.994 528.252Z" fill="#4D4D4D"/>
<rect x="64" y="616" width="160" height="64" fill="#DDDDDD"/>
<rect x="240" y="616" width="160" height="64" fill="#DDDDDD"/>
<rect x="416" y="616" width="160" height="64" fill="#DDDDDD"/>
<path opacity="0.9" d="M119.217 656.252C121.773 656.252 123.915 654.848 123.915 652.4C123.915 650.636 122.763 649.538 121.251 649.106V649.016C122.673 648.476 123.465 647.414 123.465 645.992C123.465 643.706 121.719 642.446 119.145 642.446C117.597 642.446 116.319 643.076 115.167 644.066L116.517 645.704C117.309 644.966 118.083 644.516 119.037 644.516C120.171 644.516 120.819 645.146 120.819 646.19C120.819 647.378 120.027 648.206 117.579 648.206V650.114C120.477 650.114 121.251 650.924 121.251 652.238C121.251 653.426 120.333 654.11 118.965 654.11C117.759 654.11 116.805 653.498 116.013 652.724L114.753 654.398C115.689 655.478 117.111 656.252 119.217 656.252ZM129.132 647.324V649.43H138.87V647.324H129.132ZM138.168 647.324V647.72C138.006 652.724 137.808 654.74 137.376 655.208C137.178 655.406 136.98 655.46 136.656 655.46C136.206 655.46 135.27 655.442 134.262 655.352C134.658 655.964 134.946 656.9 134.982 657.53C136.044 657.566 137.088 657.584 137.718 657.494C138.402 657.386 138.906 657.224 139.356 656.612C139.986 655.874 140.202 653.732 140.4 648.26C140.418 647.99 140.436 647.324 140.436 647.324H138.168ZM131.166 640.952C130.086 643.688 128.088 646.208 125.82 647.702C126.342 648.116 127.278 648.98 127.692 649.448C129.96 647.666 132.156 644.768 133.506 641.636L131.166 640.952ZM138.024 640.916L135.9 641.762C137.322 644.516 139.536 647.432 141.57 649.304C141.984 648.692 142.812 647.81 143.406 647.342C141.426 645.83 139.158 643.202 138.024 640.916ZM132.354 647.936C132.066 651.14 131.634 654.182 126.81 655.766C127.314 656.234 127.944 657.152 128.214 657.746C133.578 655.748 134.352 651.986 134.694 647.936H132.354ZM154.998 643.67L152.532 643.598C152.352 645.488 151.956 647.558 151.434 649.25C150.678 651.68 149.994 652.832 149.22 652.832C148.536 652.832 147.816 651.95 147.816 650.132C147.816 647.864 149.904 644.75 153.72 644.75C156.834 644.75 158.598 646.766 158.598 649.592C158.598 652.238 156.798 653.876 154.512 654.434C154.026 654.542 153.522 654.632 152.82 654.722L154.188 656.846C158.724 656.144 161.046 653.462 161.046 649.682C161.046 645.74 158.22 642.644 153.774 642.644C149.112 642.644 145.494 646.208 145.494 650.348C145.494 653.39 147.15 655.604 149.166 655.604C151.128 655.604 152.676 653.372 153.756 649.736C154.386 647.612 154.746 645.506 154.998 643.67ZM164.538 656H172.566V653.858H170.064V642.68H168.102C167.238 643.202 166.338 643.544 164.988 643.796V645.434H167.418V653.858H164.538V656Z" fill="#4D4D4D"/>
<path opacity="0.9" d="M295.217 656.252C297.773 656.252 299.915 654.848 299.915 652.4C299.915 650.636 298.763 649.538 297.251 649.106V649.016C298.673 648.476 299.465 647.414 299.465 645.992C299.465 643.706 297.719 642.446 295.145 642.446C293.597 642.446 292.319 643.076 291.167 644.066L292.517 645.704C293.309 644.966 294.083 644.516 295.037 644.516C296.171 644.516 296.819 645.146 296.819 646.19C296.819 647.378 296.027 648.206 293.579 648.206V650.114C296.477 650.114 297.251 650.924 297.251 652.238C297.251 653.426 296.333 654.11 294.965 654.11C293.759 654.11 292.805 653.498 292.013 652.724L290.753 654.398C291.689 655.478 293.111 656.252 295.217 656.252ZM305.132 647.324V649.43H314.87V647.324H305.132ZM314.168 647.324V647.72C314.006 652.724 313.808 654.74 313.376 655.208C313.178 655.406 312.98 655.46 312.656 655.46C312.206 655.46 311.27 655.442 310.262 655.352C310.658 655.964 310.946 656.9 310.982 657.53C312.044 657.566 313.088 657.584 313.718 657.494C314.402 657.386 314.906 657.224 315.356 656.612C315.986 655.874 316.202 653.732 316.4 648.26C316.418 647.99 316.436 647.324 316.436 647.324H314.168ZM307.166 640.952C306.086 643.688 304.088 646.208 301.82 647.702C302.342 648.116 303.278 648.98 303.692 649.448C305.96 647.666 308.156 644.768 309.506 641.636L307.166 640.952ZM314.024 640.916L311.9 641.762C313.322 644.516 315.536 647.432 317.57 649.304C317.984 648.692 318.812 647.81 319.406 647.342C317.426 645.83 315.158 643.202 314.024 640.916ZM308.354 647.936C308.066 651.14 307.634 654.182 302.81 655.766C303.314 656.234 303.944 657.152 304.214 657.746C309.578 655.748 310.352 651.986 310.694 647.936H308.354ZM330.998 643.67L328.532 643.598C328.352 645.488 327.956 647.558 327.434 649.25C326.678 651.68 325.994 652.832 325.22 652.832C324.536 652.832 323.816 651.95 323.816 650.132C323.816 647.864 325.904 644.75 329.72 644.75C332.834 644.75 334.598 646.766 334.598 649.592C334.598 652.238 332.798 653.876 330.512 654.434C330.026 654.542 329.522 654.632 328.82 654.722L330.188 656.846C334.724 656.144 337.046 653.462 337.046 649.682C337.046 645.74 334.22 642.644 329.774 642.644C325.112 642.644 321.494 646.208 321.494 650.348C321.494 653.39 323.15 655.604 325.166 655.604C327.128 655.604 328.676 653.372 329.756 649.736C330.386 647.612 330.746 645.506 330.998 643.67ZM340.538 656H348.566V653.858H346.064V642.68H344.102C343.238 643.202 342.338 643.544 340.988 643.796V645.434H343.418V653.858H340.538V656Z" fill="#4D4D4D"/>
<path opacity="0.9" d="M471.217 656.252C473.773 656.252 475.915 654.848 475.915 652.4C475.915 650.636 474.763 649.538 473.251 649.106V649.016C474.673 648.476 475.465 647.414 475.465 645.992C475.465 643.706 473.719 642.446 471.145 642.446C469.597 642.446 468.319 643.076 467.167 644.066L468.517 645.704C469.309 644.966 470.083 644.516 471.037 644.516C472.171 644.516 472.819 645.146 472.819 646.19C472.819 647.378 472.027 648.206 469.579 648.206V650.114C472.477 650.114 473.251 650.924 473.251 652.238C473.251 653.426 472.333 654.11 470.965 654.11C469.759 654.11 468.805 653.498 468.013 652.724L466.753 654.398C467.689 655.478 469.111 656.252 471.217 656.252ZM481.132 647.324V649.43H490.87V647.324H481.132ZM490.168 647.324V647.72C490.006 652.724 489.808 654.74 489.376 655.208C489.178 655.406 488.98 655.46 488.656 655.46C488.206 655.46 487.27 655.442 486.262 655.352C486.658 655.964 486.946 656.9 486.982 657.53C488.044 657.566 489.088 657.584 489.718 657.494C490.402 657.386 490.906 657.224 491.356 656.612C491.986 655.874 492.202 653.732 492.4 648.26C492.418 647.99 492.436 647.324 492.436 647.324H490.168ZM483.166 640.952C482.086 643.688 480.088 646.208 477.82 647.702C478.342 648.116 479.278 648.98 479.692 649.448C481.96 647.666 484.156 644.768 485.506 641.636L483.166 640.952ZM490.024 640.916L487.9 641.762C489.322 644.516 491.536 647.432 493.57 649.304C493.984 648.692 494.812 647.81 495.406 647.342C493.426 645.83 491.158 643.202 490.024 640.916ZM484.354 647.936C484.066 651.14 483.634 654.182 478.81 655.766C479.314 656.234 479.944 657.152 480.214 657.746C485.578 655.748 486.352 651.986 486.694 647.936H484.354ZM506.998 643.67L504.532 643.598C504.352 645.488 503.956 647.558 503.434 649.25C502.678 651.68 501.994 652.832 501.22 652.832C500.536 652.832 499.816 651.95 499.816 650.132C499.816 647.864 501.904 644.75 505.72 644.75C508.834 644.75 510.598 646.766 510.598 649.592C510.598 652.238 508.798 653.876 506.512 654.434C506.026 654.542 505.522 654.632 504.82 654.722L506.188 656.846C510.724 656.144 513.046 653.462 513.046 649.682C513.046 645.74 510.22 642.644 505.774 642.644C501.112 642.644 497.494 646.208 497.494 650.348C497.494 653.39 499.15 655.604 501.166 655.604C503.128 655.604 504.676 653.372 505.756 649.736C506.386 647.612 506.746 645.506 506.998 643.67ZM516.538 656H524.566V653.858H522.064V642.68H520.102C519.238 643.202 518.338 643.544 516.988 643.796V645.434H519.418V653.858H516.538V656Z" fill="#4D4D4D"/>
<rect x="0.5" y="32.5" width="639" height="768" stroke="#DDDDDD"/>
<path opacity="0.9" d="M3.248 9.32V10.648C3.664 10.616 4.176 10.584 4.72 10.584C5.616 10.584 9.344 10.584 10.24 10.584C10.688 10.584 11.248 10.616 11.728 10.648V9.32C11.264 9.368 10.688 9.4 10.24 9.4C9.344 9.4 5.616 9.4 4.688 9.4C4.176 9.4 3.696 9.368 3.248 9.32ZM1.344 13.336V14.664C1.776 14.632 2.256 14.616 2.736 14.616C3.664 14.616 12.352 14.616 13.2 14.616C13.6 14.616 14.112 14.632 14.464 14.664V13.336C14.064 13.384 13.536 13.416 13.2 13.416C12.352 13.416 3.664 13.416 2.736 13.416C2.24 13.416 1.776 13.384 1.344 13.336ZM8.88 13.976L7.536 13.992C7.52 15.752 7.408 17.32 6.608 18.584C5.968 19.608 4.816 20.52 3.584 21.048L4.768 21.912C6.128 21.224 7.328 20.072 7.92 19C8.624 17.656 8.88 15.992 8.88 13.976ZM12.56 8.008L11.712 8.376C12.144 8.984 12.688 9.944 12.992 10.584L13.856 10.2C13.536 9.56 12.96 8.584 12.56 8.008ZM14.304 7.368L13.472 7.736C13.92 8.328 14.448 9.24 14.8 9.928L15.648 9.544C15.344 8.952 14.736 7.96 14.304 7.368ZM29.424 10.312L28.624 9.688C28.368 9.768 27.936 9.816 27.424 9.816C26.816 9.816 21.872 9.816 21.248 9.816C20.752 9.816 19.84 9.752 19.632 9.72V11.16C19.808 11.144 20.672 11.08 21.248 11.08C21.792 11.08 26.912 11.08 27.488 11.08C27.072 12.408 25.904 14.312 24.816 15.544C23.168 17.368 20.816 19.288 18.224 20.28L19.248 21.352C21.776 20.2 24.064 18.296 25.856 16.296C27.184 14.824 28.4 12.584 29.04 11C29.12 10.792 29.328 10.44 29.424 10.312ZM26.064 15.464L25.152 16.36C26.88 17.88 28.752 19.928 29.904 21.448L31.008 20.472C29.92 19.144 27.792 16.904 26.064 15.464ZM47.216 11L46.16 10.36C45.904 10.456 45.536 10.504 45.104 10.504C44.608 10.504 40.656 10.504 40.016 10.504L39.504 11.656H45.424C45.104 13.112 44.112 15.192 42.88 16.648C41.408 18.36 39.424 19.8 36.48 20.664L37.648 21.72C40.64 20.6 42.56 19.144 44.016 17.368C45.44 15.624 46.416 13.464 46.848 11.848C46.928 11.592 47.088 11.224 47.216 11ZM41.856 8.584L40.384 8.088C40.288 8.504 40.048 9.08 39.888 9.368C39.184 10.792 37.616 13.128 34.848 14.776L35.968 15.592C38.544 13.896 40.208 11.608 41.152 9.832C41.312 9.544 41.6 9 41.856 8.584ZM55.296 19.592C55.296 20.184 55.28 20.984 55.2 21.496H56.752C56.688 20.968 56.656 20.104 56.656 19.592C56.656 18.84 56.64 12.776 56.64 10.296C56.64 9.8 56.688 9.112 56.752 8.616H55.184C55.264 9.128 55.296 9.832 55.296 10.296C55.296 11.624 55.296 18.696 55.296 19.592ZM56.352 12.824V14.232C58.096 14.776 61.088 15.912 62.912 16.888L63.472 15.528C61.696 14.664 58.464 13.432 56.352 12.824ZM74.288 11.8L73.104 12.2C73.44 12.904 74.176 14.936 74.352 15.672L75.536 15.24C75.344 14.552 74.56 12.44 74.288 11.8ZM80.08 12.696L78.704 12.248C78.448 14.296 77.632 16.344 76.496 17.736C75.184 19.368 73.136 20.584 71.296 21.128L72.352 22.2C74.128 21.528 76.08 20.28 77.568 18.408C78.704 16.968 79.408 15.24 79.824 13.48C79.888 13.272 79.968 13.016 80.08 12.696ZM70.56 12.6L69.376 13.048C69.696 13.608 70.56 15.832 70.816 16.664L72.016 16.216C71.728 15.368 70.88 13.272 70.56 12.6ZM96.08 9.512C96.08 8.936 96.544 8.456 97.136 8.456C97.712 8.456 98.192 8.936 98.192 9.512C98.192 10.104 97.712 10.568 97.136 10.568C96.544 10.568 96.08 10.104 96.08 9.512ZM95.344 9.512C95.344 10.504 96.144 11.304 97.136 11.304C98.128 11.304 98.928 10.504 98.928 9.512C98.928 8.52 98.128 7.72 97.136 7.72C96.144 7.72 95.344 8.52 95.344 9.512ZM96.736 10.584L95.76 9.96C95.456 10.04 95.152 10.056 94.896 10.056C94.176 10.056 87.792 10.056 86.88 10.056C86.352 10.056 85.712 9.992 85.28 9.944V11.368C85.68 11.336 86.224 11.304 86.864 11.304C87.792 11.304 94.128 11.304 95.056 11.304C94.832 12.84 94.096 15.08 92.96 16.52C91.616 18.232 89.824 19.592 86.72 20.376L87.808 21.576C90.736 20.648 92.64 19.176 94.096 17.288C95.376 15.656 96.144 13.064 96.496 11.384C96.56 11.08 96.624 10.808 96.736 10.584Z" fill="black"/>
<path opacity="0.9" d="M68.032 59.944C68.032 60.388 68.02 60.988 67.96 61.372H69.124C69.076 60.976 69.052 60.328 69.052 59.944C69.052 59.38 69.04 54.832 69.04 52.972C69.04 52.6 69.076 52.084 69.124 51.712H67.948C68.008 52.096 68.032 52.624 68.032 52.972C68.032 53.968 68.032 59.272 68.032 59.944ZM68.824 54.868V55.924C70.132 56.332 72.376 57.184 73.744 57.916L74.164 56.896C72.832 56.248 70.408 55.324 68.824 54.868ZM81.796 54.1L80.908 54.4C81.16 54.928 81.712 56.452 81.844 57.004L82.732 56.68C82.588 56.164 82 54.58 81.796 54.1ZM86.14 54.772L85.108 54.436C84.916 55.972 84.304 57.508 83.452 58.552C82.468 59.776 80.932 60.688 79.552 61.096L80.344 61.9C81.676 61.396 83.14 60.46 84.256 59.056C85.108 57.976 85.636 56.68 85.948 55.36C85.996 55.204 86.056 55.012 86.14 54.772ZM79 54.7L78.112 55.036C78.352 55.456 79 57.124 79.192 57.748L80.092 57.412C79.876 56.776 79.24 55.204 79 54.7ZM97.66 52.384C97.66 51.952 98.008 51.592 98.452 51.592C98.884 51.592 99.244 51.952 99.244 52.384C99.244 52.828 98.884 53.176 98.452 53.176C98.008 53.176 97.66 52.828 97.66 52.384ZM97.108 52.384C97.108 53.128 97.708 53.728 98.452 53.728C99.196 53.728 99.796 53.128 99.796 52.384C99.796 51.64 99.196 51.04 98.452 51.04C97.708 51.04 97.108 51.64 97.108 52.384ZM98.152 53.188L97.42 52.72C97.192 52.78 96.964 52.792 96.772 52.792C96.232 52.792 91.444 52.792 90.76 52.792C90.364 52.792 89.884 52.744 89.56 52.708V53.776C89.86 53.752 90.268 53.728 90.748 53.728C91.444 53.728 96.196 53.728 96.892 53.728C96.724 54.88 96.172 56.56 95.32 57.64C94.312 58.924 92.968 59.944 90.64 60.532L91.456 61.432C93.652 60.736 95.08 59.632 96.172 58.216C97.132 56.992 97.708 55.048 97.972 53.788C98.02 53.56 98.068 53.356 98.152 53.188Z" fill="#4D4D4D"/>
<path opacity="0.9" d="M69.292 261.224V262.052H75.376V261.224H69.292ZM69.52 263.624V264.44H75.124V263.624H69.52ZM68.92 266.144V266.984H75.544V266.144H68.92ZM71.824 261.512V269.96H72.7V261.512H71.824ZM73.972 258.908C73.756 259.544 73.348 260.48 73.036 261.056L73.732 261.308C74.08 260.768 74.488 259.928 74.848 259.196L73.972 258.908ZM69.808 259.256C70.192 259.904 70.576 260.78 70.708 261.344L71.488 261.032C71.344 260.48 70.948 259.628 70.54 258.992L69.808 259.256ZM65.02 262.556V263.276H68.596V262.556H65.02ZM65.08 259.352V260.072H68.572V259.352H65.08ZM65.02 264.164V264.884H68.596V264.164H65.02ZM64.456 260.924V261.668H69.016V260.924H64.456ZM65.452 265.784V266.528H67.804V268.532H65.452V269.288H68.596V265.784H65.452ZM65.008 265.784V269.84H65.788V265.784H65.008ZM83.848 260.252V268.832H84.652V260.252H83.848ZM81.472 259.88V269.816H82.288V260.72H86.308V269.72H87.148V259.88H81.472ZM81.916 264.044V264.872H86.68V264.044H81.916ZM81.916 268.328V269.156H86.644V268.328H81.916ZM78.484 264.572V269.948H79.288V264.572H78.484ZM78.364 258.92C78.052 259.724 77.488 260.888 77.02 261.584L77.656 261.872C78.124 261.2 78.712 260.132 79.168 259.244L78.364 258.92ZM79.84 260.3C79.18 261.572 78.016 263.36 77.092 264.416L77.656 264.74C78.58 263.708 79.768 262.004 80.608 260.672L79.84 260.3ZM76.444 261.488C77.08 262.04 77.824 262.856 78.136 263.408L78.616 262.712C78.292 262.196 77.548 261.428 76.9 260.888L76.444 261.488ZM79.504 263.048C80.02 263.84 80.536 264.908 80.728 265.58L81.448 265.232C81.244 264.56 80.716 263.528 80.188 262.748L79.504 263.048ZM76.36 264.224L76.492 265.052C77.656 264.944 79.192 264.8 80.692 264.668L80.68 263.936C79.072 264.056 77.452 264.164 76.36 264.224ZM79.72 265.952C80.056 266.696 80.38 267.68 80.488 268.316L81.244 268.064C81.1 267.428 80.764 266.468 80.416 265.736L79.72 265.952ZM77.104 265.772C76.972 266.828 76.744 267.908 76.348 268.64C76.552 268.712 76.912 268.88 77.068 268.976C77.44 268.208 77.728 267.044 77.884 265.916L77.104 265.772Z" fill="#4D4D4D"/>
<path opacity="0.9" d="M74.332 469.032L73.6 468.564C73.372 468.612 73.132 468.624 72.952 468.624C72.412 468.624 67.624 468.624 66.94 468.624C66.544 468.624 66.064 468.588 65.74 468.54V469.608C66.04 469.596 66.448 469.572 66.928 469.572C67.624 469.572 72.376 469.572 73.072 469.572C72.904 470.724 72.352 472.392 71.5 473.484C70.492 474.768 69.148 475.788 66.82 476.364L67.636 477.264C69.832 476.58 71.26 475.464 72.352 474.06C73.312 472.824 73.888 470.892 74.152 469.632C74.2 469.392 74.248 469.2 74.332 469.032ZM83.812 469.668H82.792C82.84 469.932 82.864 470.244 82.864 470.484C82.912 471.54 82.972 475.14 82.972 476.556C82.972 476.784 82.864 476.916 82.636 476.916C82.288 476.916 81.664 476.868 81.172 476.796L81.232 477.684C81.7 477.708 82.492 477.744 82.96 477.744C83.488 477.744 83.872 477.444 83.872 476.928C83.848 475.188 83.788 471.54 83.764 470.484C83.764 470.208 83.764 469.92 83.812 469.668ZM78.4 471.396V472.356C78.688 472.332 79 472.32 79.312 472.32C79.744 472.32 85.108 472.32 85.54 472.32C85.768 472.32 86.104 472.332 86.308 472.344V471.396C86.14 471.432 85.756 471.456 85.504 471.456C85.012 471.456 79.804 471.456 79.3 471.456C79.012 471.456 78.688 471.444 78.4 471.396ZM78.088 475.992L78.748 476.724C80.584 475.764 82.552 473.952 83.188 472.776L83.176 472.056L82.684 472.044C81.988 473.304 80.02 475.068 78.088 475.992ZM89.212 471.804V472.98C89.596 472.956 90.232 472.932 90.892 472.932C91.78 472.932 96.568 472.932 97.48 472.932C98.008 472.932 98.512 472.968 98.764 472.98V471.804C98.488 471.828 98.068 471.876 97.468 471.876C96.58 471.876 91.768 471.876 90.892 471.876C90.208 471.876 89.584 471.84 89.212 471.804ZM105.901 468.06L104.701 467.808C104.665 468.132 104.617 468.408 104.461 468.96C104.101 470.232 102.709 474.576 102.109 475.956L103.189 475.92C103.705 474.708 105.097 470.4 105.481 469.176C105.649 468.66 105.781 468.348 105.901 468.06ZM108.181 472.08L107.269 472.476C108.133 473.616 109.357 476.112 109.837 477.408L110.833 476.964C110.341 475.728 109.021 473.304 108.181 472.08ZM101.641 475.668C101.293 475.692 100.873 475.704 100.513 475.692L100.705 476.796C101.041 476.748 101.401 476.7 101.701 476.676C103.393 476.508 107.809 476.028 109.477 475.812L109.213 474.876C107.665 475.104 103.369 475.584 101.641 475.668Z" fill="#4D4D4D"/>
<path opacity="0.9" d="M67.132 596.048L67.18 597.032C67.444 597.008 67.792 596.972 68.104 596.948C68.62 596.9 70.72 596.804 71.26 596.768C70.492 597.44 68.596 599.108 67.288 600.02C66.676 600.092 65.86 600.188 65.212 600.26L65.296 601.16C66.736 600.92 68.344 600.728 69.628 600.62C69.004 600.992 68.224 601.868 68.224 602.888C68.224 604.736 69.82 605.648 72.76 605.528L72.952 604.544C72.52 604.58 71.944 604.604 71.236 604.52C70.132 604.364 69.16 603.956 69.16 602.744C69.16 601.616 70.312 600.632 71.476 600.464C72.196 600.356 73.348 600.344 74.524 600.404L74.512 599.516C72.796 599.516 70.636 599.672 68.812 599.876C69.772 599.108 71.5 597.656 72.4 596.924C72.568 596.78 72.88 596.576 73.036 596.468L72.436 595.784C72.292 595.832 72.064 595.88 71.776 595.904C71.092 595.976 68.62 596.084 68.092 596.084C67.72 596.084 67.432 596.072 67.132 596.048ZM82.756 596.816L81.76 596.792C81.64 598.04 81.388 599.396 81.04 600.536C80.428 602.564 79.78 603.38 79.216 603.38C78.676 603.38 77.992 602.708 77.992 601.196C77.992 599.432 79.636 597.26 82.276 597.26C84.58 597.26 85.912 598.844 85.912 600.764C85.912 602.84 84.4 603.992 82.864 604.34C82.576 604.4 82.216 604.448 81.832 604.484L82.384 605.372C85.24 605 86.896 603.32 86.896 600.812C86.896 598.376 85.108 596.396 82.3 596.396C79.36 596.396 77.044 598.664 77.044 601.268C77.044 603.26 78.112 604.484 79.192 604.484C80.296 604.484 81.256 603.212 81.988 600.752C82.36 599.468 82.6 598.064 82.756 596.816ZM95.428 594.944V603.284H96.28V594.944H95.428ZM91.252 599.888L91.588 600.68L98.812 597.872L98.464 597.092L91.252 599.888ZM92.764 596.12V604.136C92.764 605.468 93.184 605.804 94.636 605.804C94.96 605.804 97.432 605.804 97.78 605.804C99.112 605.804 99.4 605.264 99.556 603.608C99.292 603.548 98.932 603.392 98.716 603.236C98.62 604.652 98.488 604.988 97.756 604.988C97.228 604.988 95.08 604.988 94.672 604.988C93.82 604.988 93.652 604.832 93.652 604.148V596.12H92.764ZM98.164 597.296C98.164 599.636 98.14 601.208 98.044 601.592C97.96 601.904 97.828 601.952 97.624 601.952C97.468 601.952 97.036 601.952 96.7 601.94C96.808 602.144 96.904 602.516 96.928 602.768C97.288 602.78 97.816 602.768 98.14 602.684C98.512 602.588 98.764 602.36 98.86 601.808C98.98 601.292 99.004 599.564 99.016 597.38L99.052 597.236L98.428 596.972L98.272 597.116L98.056 597.296H98.164ZM91.192 594.968C90.52 596.792 89.404 598.592 88.216 599.756C88.372 599.96 88.624 600.428 88.72 600.632C90.004 599.288 91.24 597.248 92.02 595.232L91.192 594.968ZM89.92 598.064V605.948H90.796V597.2L90.784 597.188L89.92 598.064Z" fill="#4D4D4D"/>
<path opacity="0.9" d="M238.184 745.06V747.02C238.576 746.992 239.332 746.964 239.92 746.964H246.22V753.88C246.22 754.398 246.206 754.902 246.192 755.322H248.222C248.194 754.888 248.152 754.16 248.152 753.67V746.418C248.152 745.998 248.18 745.452 248.194 745.116C247.956 745.13 247.382 745.158 246.976 745.158H239.92C239.43 745.158 238.716 745.116 238.184 745.06ZM238.016 752.662V754.678C238.478 754.622 239.262 754.594 239.808 754.594H247.326V752.746H239.752C239.122 752.746 238.492 752.704 238.016 752.662ZM253.934 744.36L252.604 745.774C253.626 746.474 255.39 748 256.118 748.784L257.546 747.328C256.72 746.474 254.9 745.018 253.934 744.36ZM252.17 753.684L253.36 755.532C255.32 755.196 257.126 754.426 258.554 753.572C260.808 752.214 262.67 750.282 263.72 748.378L262.642 746.418C261.746 748.308 259.926 750.436 257.532 751.864C256.174 752.662 254.368 753.376 252.17 753.684ZM267.934 744.276V746.082C268.354 746.054 268.956 746.026 269.432 746.026C270.314 746.026 274.234 746.026 275.06 746.026C275.536 746.026 276.082 746.054 276.558 746.082V744.276C276.082 744.332 275.522 744.374 275.06 744.374C274.234 744.374 270.314 744.374 269.432 744.374C268.956 744.374 268.382 744.332 267.934 744.276ZM266.296 747.846V749.68C266.688 749.652 267.234 749.638 267.64 749.638C268.522 749.638 275.984 749.638 276.81 749.638C277.202 749.638 277.734 749.652 278.098 749.666V747.846C277.72 747.916 277.104 747.93 276.81 747.93C275.984 747.93 268.522 747.93 267.64 747.93C267.206 747.93 266.716 747.902 266.296 747.846ZM273.464 748.826L271.518 748.84C271.518 750.338 271.322 751.654 270.622 752.718C270.076 753.544 269.082 754.342 268.088 754.734L269.74 755.924C270.972 755.28 272.064 754.202 272.54 753.222C273.142 752.06 273.464 750.66 273.464 748.826ZM283.054 744.36L281.724 745.774C282.746 746.474 284.51 748 285.238 748.784L286.666 747.328C285.84 746.474 284.02 745.018 283.054 744.36ZM281.29 753.684L282.48 755.532C284.44 755.196 286.246 754.426 287.674 753.572C289.928 752.214 291.79 750.282 292.84 748.378L291.762 746.418C290.866 748.308 289.046 750.436 286.652 751.864C285.294 752.662 283.488 753.376 281.29 753.684ZM300.862 744.094L299.112 744.668C299.518 745.536 300.302 747.58 300.568 748.462L302.332 747.846C302.052 746.95 301.198 744.794 300.862 744.094ZM307.246 745.214L305.16 744.626C304.922 746.768 304.054 749.162 303.004 750.492C301.562 752.298 299.378 753.558 297.474 754.104L299.042 755.686C301.03 754.93 303.074 753.516 304.544 751.57C305.692 750.058 306.49 747.832 306.882 746.306C306.966 745.998 307.092 745.564 307.246 745.214ZM296.956 744.962L295.178 745.592C295.57 746.334 296.494 748.644 296.788 749.54L298.58 748.882C298.258 747.944 297.39 745.858 296.956 744.962ZM317.074 745.41L315.156 745.354C315.016 746.824 314.708 748.434 314.302 749.75C313.714 751.64 313.182 752.536 312.58 752.536C312.048 752.536 311.488 751.85 311.488 750.436C311.488 748.672 313.112 746.25 316.08 746.25C318.502 746.25 319.874 747.818 319.874 750.016C319.874 752.074 318.474 753.348 316.696 753.782C316.318 753.866 315.926 753.936 315.38 754.006L316.444 755.658C319.972 755.112 321.778 753.026 321.778 750.086C321.778 747.02 319.58 744.612 316.122 744.612C312.496 744.612 309.682 747.384 309.682 750.604C309.682 752.97 310.97 754.692 312.538 754.692C314.064 754.692 315.268 752.956 316.108 750.128C316.598 748.476 316.878 746.838 317.074 745.41ZM327.35 746.222H333.3V746.81H327.35V746.222ZM327.35 744.64H333.3V745.214H327.35V744.64ZM325.74 743.562V747.888H334.98V743.562H325.74ZM324.088 748.392V749.736H336.604V748.392H324.088ZM330.5 750.254V751.542H335.078V750.254H330.5ZM326.23 750.296V751.458H329.422V750.296H326.23ZM326.23 752.046V753.208H329.422V752.046H326.23ZM332.222 751.416L330.878 751.794C331.83 753.978 333.496 755.546 335.918 756.246C336.128 755.854 336.562 755.238 336.912 754.944C334.658 754.412 333.006 753.124 332.222 751.416ZM334.588 750.254V750.492C333.972 752.648 332.166 754.258 329.996 754.944C330.304 755.252 330.724 755.854 330.906 756.246C333.398 755.308 335.372 753.516 336.198 750.59L335.162 750.198L334.882 750.254H334.588ZM323.962 754.09L324.074 755.532C325.544 755.406 327.504 755.224 329.38 755.042V753.684C327.42 753.852 325.362 754.006 323.962 754.09ZM328.554 748.826V756.26H330.164V748.826H328.554ZM325.18 748.868V754.58H326.72V748.868H325.18ZM338.704 746.88V748.616H351.164V746.88H338.704ZM345.886 747.58L344.192 747.972C345.256 751.822 347.006 754.72 350.212 756.218C350.492 755.728 351.052 755 351.472 754.622C348.504 753.446 346.726 750.786 345.886 747.58ZM343.954 743.114C343.912 746.908 344.164 752.228 338.424 754.79C338.914 755.154 339.432 755.756 339.698 756.218C345.704 753.32 345.732 747.384 345.802 743.114H343.954ZM354.986 743.114V756.26H356.4V743.114H354.986ZM353.166 745.69V753.348H354.384V747.174H357.632V745.69H353.166ZM357.03 745.69V751.64C357.03 751.752 357.002 751.78 356.932 751.78C356.834 751.78 356.638 751.78 356.4 751.78C356.582 752.158 356.764 752.788 356.778 753.18C357.254 753.18 357.576 753.138 357.884 752.9C358.178 752.648 358.234 752.2 358.234 751.682V745.69H357.03ZM358.612 743.716V745.074H365.836V743.716H358.612ZM360.628 747.006H363.806V748.056H360.628V747.006ZM359.2 745.774V749.288H365.276V745.774H359.2ZM359.284 752.27V753.544H365.234V752.27H359.284ZM359.256 754.524V755.826H365.248V754.524H359.256ZM358.598 750.016V756.246H360.096V751.318H364.226V756.232H365.78V750.016H358.598ZM361.398 750.66V755.434H362.812V750.66H361.398ZM371.906 755H378.15V753.334H376.204V744.64H374.678C374.006 745.046 373.306 745.312 372.256 745.508V746.782H374.146V753.334H371.906V755ZM383.72 755.196C385.82 755.196 387.22 753.362 387.22 749.778C387.22 746.208 385.82 744.458 383.72 744.458C381.606 744.458 380.206 746.208 380.206 749.778C380.206 753.362 381.606 755.196 383.72 755.196ZM383.72 753.586C382.824 753.586 382.152 752.69 382.152 749.778C382.152 746.88 382.824 746.04 383.72 746.04C384.616 746.04 385.274 746.88 385.274 749.778C385.274 752.69 384.616 753.586 383.72 753.586ZM388.996 755H395.94V753.264H393.7C393.21 753.264 392.524 753.334 392.006 753.39C393.896 751.542 395.464 749.526 395.464 747.636C395.464 745.704 394.148 744.458 392.202 744.458C390.788 744.458 389.85 745.004 388.898 746.026L390.032 747.146C390.564 746.558 391.166 746.068 391.936 746.068C392.93 746.068 393.476 746.712 393.476 747.748C393.476 749.344 391.824 751.29 388.996 753.824V755ZM401.929 755H403.847V744.64H401.369L397.519 750.912V752.326H405.079V750.744H399.521L401.117 748.168C401.411 747.608 401.691 747.034 401.957 746.474H402.013C401.985 747.09 401.929 748.028 401.929 748.63V755ZM407.149 758.01H409.207V755.63L409.137 754.356C409.725 754.902 410.397 755.196 411.069 755.196C412.791 755.196 414.401 753.656 414.401 750.968C414.401 748.546 413.253 746.978 411.321 746.978C410.481 746.978 409.669 747.412 409.025 747.986H408.983L408.815 747.174H407.149V758.01ZM410.621 753.502C410.201 753.502 409.697 753.362 409.207 752.928V749.47C409.739 748.924 410.215 748.658 410.733 748.658C411.825 748.658 412.287 749.484 412.287 750.996C412.287 752.69 411.559 753.502 410.621 753.502ZM415.372 755H417.514L418.228 753.558C418.452 753.096 418.662 752.634 418.886 752.2H418.956C419.222 752.634 419.474 753.11 419.726 753.558L420.594 755H422.806L420.342 751.15L422.638 747.174H420.51L419.866 748.546C419.67 749.008 419.474 749.442 419.292 749.89H419.222C418.984 749.442 418.746 749.008 418.536 748.546L417.738 747.174H415.54L417.836 750.926L415.372 755Z" fill="#1A1A1C"/>
<path d="M63.6464 727.646C63.4512 727.842 63.4512 728.158 63.6464 728.354L66.8284 731.536C67.0237 731.731 67.3403 731.731 67.5355 731.536C67.7308 731.34 67.7308 731.024 67.5355 730.828L64.7071 728L67.5355 725.172C67.7308 724.976 67.7308 724.66 67.5355 724.464C67.3403 724.269 67.0237 724.269 66.8284 724.464L63.6464 727.646ZM576.354 728.354C576.549 728.158 576.549 727.842 576.354 727.646L573.172 724.464C572.976 724.269 572.66 724.269 572.464 724.464C572.269 724.66 572.269 724.976 572.464 725.172L575.293 728L572.464 730.828C572.269 731.024 572.269 731.34 572.464 731.536C572.66 731.731 572.976 731.731 573.172 731.536L576.354 728.354ZM64 728.5H576V727.5H64V728.5Z" fill="#1A1A1C"/>
<path opacity="0.9" d="M422.752 49.8L421.646 50.248C422.024 50.794 422.458 51.62 422.752 52.194L423.872 51.718C423.606 51.2 423.102 50.318 422.752 49.8ZM424.418 49.17L423.312 49.618C423.69 50.15 424.138 50.962 424.432 51.55L425.538 51.074C425.3 50.584 424.782 49.688 424.418 49.17ZM419.168 49.926H417.096C417.152 50.262 417.208 50.892 417.208 51.214C417.194 54.896 416.55 57.276 414.716 59.096C414.156 59.67 413.456 60.146 412.868 60.468L414.506 61.784C417.6 59.572 418.916 56.744 419.07 51.172C419.084 50.836 419.126 50.248 419.168 49.926ZM423.914 52.922L422.71 52.334C422.374 52.39 422.01 52.432 421.646 52.432H415.164C414.632 52.432 413.918 52.39 413.33 52.334V54.168C413.918 54.112 414.702 54.112 415.178 54.112H422.01C422.01 55.624 421.814 58.424 421.408 59.306C421.268 59.642 421.072 59.796 420.624 59.796C420.064 59.796 419.35 59.726 418.65 59.6L418.874 61.476C419.56 61.532 420.386 61.588 421.198 61.588C422.15 61.588 422.696 61.224 422.99 60.51C423.592 59.082 423.774 55.176 423.83 53.664C423.83 53.51 423.872 53.146 423.914 52.922ZM432.552 54.448L431.306 55.722C432.944 56.758 435.604 58.718 436.822 59.866L438.166 58.27C436.864 57.234 434.274 55.442 432.552 54.448ZM439.146 52.068L437.718 51.186C437.396 51.284 436.934 51.354 436.5 51.354H432.51L431.866 52.936H436.598C436.332 54.028 435.464 55.638 434.526 56.744C433.322 58.144 431.656 59.614 428.73 60.524L430.354 61.924C433.028 60.916 434.82 59.348 436.136 57.71C437.396 56.156 438.25 54.364 438.67 53.076C438.796 52.726 438.978 52.334 439.146 52.068ZM434.512 49.912L432.482 49.282C432.356 49.772 432.062 50.416 431.852 50.752C431.138 51.97 429.85 53.888 427.4 55.4L428.898 56.562C430.914 55.176 432.706 53.034 433.644 51.34C433.812 51.046 434.176 50.402 434.512 49.912ZM442.394 54.518V56.73C442.926 56.688 443.864 56.646 444.648 56.646C446.3 56.646 450.906 56.646 452.18 56.646C452.768 56.646 453.482 56.716 453.818 56.73V54.518C453.44 54.546 452.824 54.616 452.166 54.616C450.92 54.616 446.3 54.616 444.648 54.616C443.92 54.616 442.912 54.56 442.394 54.518ZM463.234 61.196C465.222 61.196 466.888 60.104 466.888 58.2C466.888 56.828 465.992 55.974 464.816 55.638V55.568C465.922 55.148 466.538 54.322 466.538 53.216C466.538 51.438 465.18 50.458 463.178 50.458C461.974 50.458 460.98 50.948 460.084 51.718L461.134 52.992C461.75 52.418 462.352 52.068 463.094 52.068C463.976 52.068 464.48 52.558 464.48 53.37C464.48 54.294 463.864 54.938 461.96 54.938V56.422C464.214 56.422 464.816 57.052 464.816 58.074C464.816 58.998 464.102 59.53 463.038 59.53C462.1 59.53 461.358 59.054 460.742 58.452L459.762 59.754C460.49 60.594 461.596 61.196 463.234 61.196ZM468.818 61H475.762V59.264H473.522C473.032 59.264 472.346 59.334 471.828 59.39C473.718 57.542 475.286 55.526 475.286 53.636C475.286 51.704 473.97 50.458 472.024 50.458C470.61 50.458 469.672 51.004 468.72 52.026L469.854 53.146C470.386 52.558 470.988 52.068 471.758 52.068C472.752 52.068 473.298 52.712 473.298 53.748C473.298 55.344 471.646 57.29 468.818 59.824V61ZM478.154 64.01H480.212V61.63L480.142 60.356C480.73 60.902 481.402 61.196 482.074 61.196C483.796 61.196 485.406 59.656 485.406 56.968C485.406 54.546 484.258 52.978 482.326 52.978C481.486 52.978 480.674 53.412 480.03 53.986H479.988L479.82 53.174H478.154V64.01ZM481.626 59.502C481.206 59.502 480.702 59.362 480.212 58.928V55.47C480.744 54.924 481.22 54.658 481.738 54.658C482.83 54.658 483.292 55.484 483.292 56.996C483.292 58.69 482.564 59.502 481.626 59.502ZM486.376 61H488.518L489.232 59.558C489.456 59.096 489.666 58.634 489.89 58.2H489.96C490.226 58.634 490.478 59.11 490.73 59.558L491.598 61H493.81L491.346 57.15L493.642 53.174H491.514L490.87 54.546C490.674 55.008 490.478 55.442 490.296 55.89H490.226C489.988 55.442 489.75 55.008 489.54 54.546L488.742 53.174H486.544L488.84 56.926L486.376 61Z" fill="#1A1A1C"/>
<path d="M444.146 75.6464C443.951 75.8417 443.951 76.1583 444.146 76.3536L447.328 79.5355C447.524 79.7308 447.84 79.7308 448.036 79.5355C448.231 79.3403 448.231 79.0237 448.036 78.8284L445.207 76L448.036 73.1716C448.231 72.9763 448.231 72.6597 448.036 72.4645C447.84 72.2692 447.524 72.2692 447.328 72.4645L444.146 75.6464ZM460.854 76.3536C461.049 76.1583 461.049 75.8417 460.854 75.6464L457.672 72.4645C457.476 72.2692 457.16 72.2692 456.964 72.4645C456.769 72.6597 456.769 72.9763 456.964 73.1716L459.793 76L456.964 78.8284C456.769 79.0237 456.769 79.3403 456.964 79.5355C457.16 79.7308 457.476 79.7308 457.672 79.5355L460.854 76.3536ZM444.5 76.5H460.5V75.5H444.5V76.5Z" fill="#1A1A1C"/>
<path d="M575.646 75.6464C575.451 75.8417 575.451 76.1583 575.646 76.3536L578.828 79.5355C579.024 79.7308 579.34 79.7308 579.536 79.5355C579.731 79.3403 579.731 79.0237 579.536 78.8284L576.707 76L579.536 73.1716C579.731 72.9763 579.731 72.6597 579.536 72.4645C579.34 72.2692 579.024 72.2692 578.828 72.4645L575.646 75.6464ZM640.354 76.3536C640.549 76.1583 640.549 75.8417 640.354 75.6464L637.172 72.4645C636.976 72.2692 636.66 72.2692 636.464 72.4645C636.269 72.6597 636.269 72.9763 636.464 73.1716L639.293 76L636.464 78.8284C636.269 79.0237 636.269 79.3403 636.464 79.5355C636.66 79.7308 636.976 79.7308 637.172 79.5355L640.354 76.3536ZM576 76.5H640V75.5H576V76.5Z" fill="#1A1A1C"/>
<path opacity="0.9" d="M558.611 52.18L557.225 51.046C556.917 51.144 556.455 51.2 555.909 51.2C554.411 51.2 549.035 51.2 548.153 51.2C547.663 51.2 546.907 51.13 546.529 51.06V53.034C546.823 52.992 547.579 52.922 548.153 52.922C549.217 52.922 554.313 52.922 555.545 52.922C554.817 54.21 553.249 56.114 551.401 57.402L552.801 58.69C554.971 57.094 557.043 54.574 558.135 52.768C558.247 52.6 558.415 52.404 558.611 52.18ZM551.233 58.9C552.143 59.824 553.319 61.14 553.893 61.924L555.545 60.608C554.873 59.796 553.767 58.634 552.843 57.738C551.779 56.716 550.379 55.582 549.623 55.008L548.153 56.212C548.979 56.8 550.407 58.074 551.233 58.9ZM561.117 54.518V56.73C561.649 56.688 562.587 56.646 563.371 56.646C565.023 56.646 569.629 56.646 570.903 56.646C571.491 56.646 572.205 56.716 572.541 56.73V54.518C572.163 54.546 571.547 54.616 570.889 54.616C569.643 54.616 565.023 54.616 563.371 54.616C562.643 54.616 561.635 54.56 561.117 54.518ZM584.336 50.262L583.16 50.738C583.678 51.466 583.986 52.068 584.406 52.95L585.61 52.418C585.302 51.774 584.728 50.85 584.336 50.262ZM586.268 49.576L585.078 50.08C585.596 50.78 585.932 51.326 586.38 52.208L587.584 51.676C587.248 51.06 586.702 50.136 586.268 49.576ZM578.26 49.982L577.238 51.522C578.162 52.04 579.632 52.992 580.402 53.538L581.452 51.984C580.724 51.48 579.184 50.486 578.26 49.982ZM575.67 59.922L576.72 61.77C577.952 61.546 579.968 60.846 581.382 60.034C583.678 58.718 585.652 56.94 586.954 55.008L585.876 53.104C584.756 55.106 582.81 57.024 580.43 58.354C578.904 59.194 577.224 59.656 575.67 59.922ZM576.104 53.174L575.082 54.728C576.034 55.218 577.476 56.17 578.274 56.716L579.296 55.148C578.582 54.644 577.042 53.678 576.104 53.174ZM592.064 50.36L590.734 51.774C591.756 52.474 593.52 54 594.248 54.784L595.676 53.328C594.85 52.474 593.03 51.018 592.064 50.36ZM590.3 59.684L591.49 61.532C593.45 61.196 595.256 60.426 596.684 59.572C598.938 58.214 600.8 56.282 601.85 54.378L600.772 52.418C599.876 54.308 598.056 56.436 595.662 57.864C594.304 58.662 592.498 59.376 590.3 59.684ZM611.685 61H613.603V50.64H611.125L607.275 56.912V58.326H614.835V56.744H609.277L610.873 54.168C611.167 53.608 611.447 53.034 611.713 52.474H611.769C611.741 53.09 611.685 54.028 611.685 54.63V61ZM619.929 61.196C622.029 61.196 623.429 59.362 623.429 55.778C623.429 52.208 622.029 50.458 619.929 50.458C617.815 50.458 616.415 52.208 616.415 55.778C616.415 59.362 617.815 61.196 619.929 61.196ZM619.929 59.586C619.033 59.586 618.361 58.69 618.361 55.778C618.361 52.88 619.033 52.04 619.929 52.04C620.825 52.04 621.483 52.88 621.483 55.778C621.483 58.69 620.825 59.586 619.929 59.586ZM625.723 64.01H627.781V61.63L627.711 60.356C628.299 60.902 628.971 61.196 629.643 61.196C631.365 61.196 632.975 59.656 632.975 56.968C632.975 54.546 631.827 52.978 629.895 52.978C629.055 52.978 628.243 53.412 627.599 53.986H627.557L627.389 53.174H625.723V64.01ZM629.195 59.502C628.775 59.502 628.271 59.362 627.781 58.928V55.47C628.313 54.924 628.789 54.658 629.307 54.658C630.399 54.658 630.861 55.484 630.861 56.996C630.861 58.69 630.133 59.502 629.195 59.502ZM633.946 61H636.088L636.802 59.558C637.026 59.096 637.236 58.634 637.46 58.2H637.53C637.796 58.634 638.048 59.11 638.3 59.558L639.168 61H641.38L638.916 57.15L641.212 53.174H639.084L638.44 54.546C638.244 55.008 638.048 55.442 637.866 55.89H637.796C637.558 55.442 637.32 55.008 637.11 54.546L636.312 53.174H634.114L636.41 56.926L633.946 61ZM647.057 51.522C647.911 52.586 648.807 54.056 649.171 55.036L650.809 54.154C650.403 53.174 649.507 51.802 648.597 50.78L647.057 51.522ZM642.507 58.886L643.095 60.678C644.677 60.006 646.749 59.138 648.611 58.298L648.219 56.646C646.175 57.5 643.949 58.396 642.507 58.886ZM650.711 57.626C651.999 59.054 653.707 61 654.449 62.246L655.877 60.86C655.079 59.642 653.287 57.78 652.013 56.45L650.711 57.626ZM652.615 49.912C652.097 55.694 650.655 59.11 646.189 60.79C646.595 61.154 647.295 61.91 647.533 62.288C652.125 60.216 653.819 56.422 654.477 50.08L652.615 49.912ZM644.103 49.968L644.425 59.068L646.175 58.998L645.867 49.898L644.103 49.968ZM663.311 53.314V55.008H669.135V53.314H663.311ZM657.319 59.88V61.574H670.115V59.88H657.319ZM662.359 49.282V60.818H664.165V49.282H662.359Z" fill="#1A1A1C"/>
</svg>
