<svg width="640" height="548" viewBox="0 0 640 548" fill="none" xmlns="http://www.w3.org/2000/svg">
<path fill-rule="evenodd" clip-rule="evenodd" d="M3.33337 63.9997C3.33337 54.7997 10.8 47.333 20 47.333C29.2 47.333 36.6667 54.7997 36.6667 63.9997C36.6667 73.1997 29.2 80.6663 20 80.6663C10.8 80.6663 3.33337 73.1997 3.33337 63.9997ZM6.66671 63.9997C6.66671 71.3663 12.6334 77.333 20 77.333C27.3667 77.333 33.3334 71.3663 33.3334 63.9997C33.3334 56.633 27.3667 50.6663 20 50.6663C12.6334 50.6663 6.66671 56.633 6.66671 63.9997Z" fill="#197A4B"/>
<g clip-path="url(#clip0_14904_4969)">
<rect y="100" width="640" height="144" fill="white"/>
<rect x="64" y="140" width="116" height="64" fill="#DDDDDD"/>
<rect x="196" y="140" width="116" height="64" fill="#DDDDDD"/>
<rect x="328" y="140" width="116" height="64" fill="#DDDDDD"/>
<rect x="460" y="140" width="116" height="64" fill="#DDDDDD"/>
<rect x="64" y="100" width="28" height="144" fill="black" fill-opacity="0.04"/>
<rect x="108" y="100" width="28" height="144" fill="black" fill-opacity="0.04"/>
<rect x="152" y="100" width="28" height="144" fill="black" fill-opacity="0.04"/>
<rect x="196" y="100" width="28" height="144" fill="black" fill-opacity="0.04"/>
<rect x="240" y="100" width="28" height="144" fill="black" fill-opacity="0.04"/>
<rect x="284" y="100" width="28" height="144" fill="black" fill-opacity="0.04"/>
<rect x="328" y="100" width="28" height="144" fill="black" fill-opacity="0.04"/>
<rect x="372" y="100" width="28" height="144" fill="black" fill-opacity="0.04"/>
<rect x="416" y="100" width="28" height="144" fill="black" fill-opacity="0.04"/>
<rect x="460" y="100" width="28" height="144" fill="black" fill-opacity="0.04"/>
<rect x="504" y="100" width="28" height="144" fill="black" fill-opacity="0.04"/>
<rect x="548" y="100" width="28" height="144" fill="black" fill-opacity="0.04"/>
</g>
<rect x="0.5" y="100.5" width="639" height="143" stroke="#DDDDDD"/>
<path opacity="0.9" d="M7.322 277.706L8.064 278.322C8.176 278.252 8.316 278.126 8.554 278.014C10.178 277.202 12.11 275.774 13.328 274.136L12.656 273.17C11.592 274.752 9.87 276.026 8.568 276.614C8.568 276.194 8.568 269.418 8.568 268.55C8.568 268.018 8.624 267.612 8.638 267.5H7.35C7.35 267.612 7.42 268.004 7.42 268.536C7.42 269.418 7.42 276.278 7.42 276.922C7.42 277.202 7.378 277.496 7.322 277.706ZM0.91 277.65L1.974 278.35C3.15 277.37 4.046 276.012 4.466 274.514C4.844 273.114 4.886 270.104 4.886 268.55C4.886 268.144 4.942 267.71 4.956 267.556H3.668C3.738 267.85 3.766 268.158 3.766 268.564C3.766 270.132 3.766 272.918 3.346 274.206C2.926 275.564 2.1 276.81 0.91 277.65ZM15.974 271.938V273.31C16.422 273.282 17.164 273.254 17.934 273.254C18.97 273.254 24.556 273.254 25.62 273.254C26.236 273.254 26.824 273.296 27.118 273.31V271.938C26.796 271.966 26.306 272.022 25.606 272.022C24.57 272.022 18.956 272.022 17.934 272.022C17.136 272.022 16.408 271.98 15.974 271.938ZM36.442 277.706L37.184 278.322C37.296 278.252 37.436 278.126 37.674 278.014C39.298 277.202 41.23 275.774 42.448 274.136L41.776 273.17C40.712 274.752 38.99 276.026 37.688 276.614C37.688 276.194 37.688 269.418 37.688 268.55C37.688 268.018 37.744 267.612 37.758 267.5H36.47C36.47 267.612 36.54 268.004 36.54 268.536C36.54 269.418 36.54 276.278 36.54 276.922C36.54 277.202 36.498 277.496 36.442 277.706ZM30.03 277.65L31.094 278.35C32.27 277.37 33.166 276.012 33.586 274.514C33.964 273.114 34.006 270.104 34.006 268.55C34.006 268.144 34.062 267.71 34.076 267.556H32.788C32.858 267.85 32.886 268.158 32.886 268.564C32.886 270.132 32.886 272.918 32.466 274.206C32.046 275.564 31.22 276.81 30.03 277.65ZM50.05 268.55L50.064 269.684C51.59 269.852 54.306 269.852 55.804 269.684V268.55C54.418 268.76 51.576 268.816 50.05 268.55ZM50.596 274.262L49.588 274.164C49.434 274.836 49.364 275.34 49.364 275.802C49.364 277.118 50.414 277.902 52.752 277.902C54.208 277.902 55.384 277.79 56.252 277.608L56.224 276.432C55.104 276.698 54.012 276.81 52.766 276.81C50.848 276.81 50.4 276.18 50.4 275.536C50.4 275.158 50.47 274.766 50.596 274.262ZM47.39 267.472L46.144 267.374C46.13 267.682 46.088 268.032 46.046 268.354C45.878 269.516 45.416 271.91 45.416 273.968C45.416 275.872 45.654 277.482 45.934 278.476L46.928 278.406C46.914 278.252 46.9 278.056 46.886 277.916C46.886 277.748 46.914 277.482 46.956 277.286C47.082 276.614 47.6 275.144 47.95 274.15L47.362 273.688C47.124 274.262 46.802 275.102 46.564 275.732C46.48 275.046 46.438 274.458 46.438 273.786C46.438 272.204 46.872 269.712 47.138 268.41C47.194 268.158 47.306 267.71 47.39 267.472ZM63.714 272.988V279.12H64.736V273.968H69.58V279.064H70.63V272.988H63.714ZM64.26 277.524V278.504H70.168V277.524H64.26ZM65.016 266.38C64.582 268.648 63.714 270.65 62.356 271.868C62.622 272.036 63.084 272.414 63.28 272.596C64.652 271.21 65.604 269.068 66.122 266.562L65.016 266.38ZM68.866 266.352L67.9 266.618C68.53 268.984 69.636 271.294 71.008 272.554C71.204 272.274 71.568 271.868 71.834 271.672C70.532 270.622 69.412 268.466 68.866 266.352ZM59.542 267.122C60.48 267.514 61.628 268.186 62.174 268.69L62.804 267.822C62.216 267.332 61.054 266.702 60.116 266.352L59.542 267.122ZM58.772 270.944C59.738 271.294 60.914 271.882 61.502 272.344L62.076 271.462C61.474 271 60.27 270.454 59.332 270.132L58.772 270.944ZM59.248 278.238L60.144 278.938C60.956 277.636 61.922 275.886 62.65 274.402L61.866 273.73C61.068 275.326 59.99 277.16 59.248 278.238ZM75.04 272.414L75.516 273.576C76.412 273.212 79.478 271.938 81.2 271.938C82.642 271.938 83.58 272.82 83.58 274.01C83.58 276.292 80.92 277.16 77.882 277.244L78.344 278.322C82.11 278.098 84.714 276.726 84.714 274.024C84.714 272.12 83.272 270.93 81.284 270.93C79.646 270.93 77.336 271.77 76.342 272.078C75.908 272.218 75.446 272.344 75.04 272.414ZM87.8387 268.704L87.9647 269.936C89.4907 269.614 93.0467 269.264 94.5587 269.11C93.2707 269.866 91.9407 271.644 91.9407 273.828C91.9407 276.964 94.8807 278.336 97.4847 278.434L97.8767 277.286C95.6087 277.188 93.0467 276.32 93.0467 273.59C93.0467 271.938 94.2647 269.796 96.2667 269.152C96.9807 268.956 98.1987 268.928 99.0107 268.942L98.9967 267.822C98.0587 267.85 96.7567 267.934 95.2307 268.06C92.6407 268.284 90.0087 268.536 89.0987 268.634C88.8187 268.662 88.3707 268.69 87.8387 268.704ZM104.345 268.242L102.987 268.214C103.071 268.536 103.071 269.138 103.071 269.46C103.071 270.272 103.099 271.98 103.225 273.184C103.617 276.81 104.877 278.126 106.207 278.126C107.159 278.126 107.999 277.314 108.853 274.948L107.971 273.954C107.607 275.354 106.949 276.796 106.235 276.796C105.227 276.796 104.555 275.242 104.317 272.904C104.219 271.756 104.205 270.468 104.219 269.6C104.233 269.236 104.275 268.564 104.345 268.242ZM111.625 268.62L110.547 268.998C111.877 270.636 112.731 273.52 112.969 276.04L114.103 275.592C113.893 273.226 112.885 270.244 111.625 268.62ZM119.115 267.696L119.143 268.844C119.451 268.802 119.759 268.788 120.081 268.76C120.809 268.718 123.609 268.606 124.351 268.564C123.651 269.194 121.887 270.664 121.103 271.308C120.305 271.994 118.499 273.506 117.337 274.458L118.149 275.27C119.913 273.464 121.173 272.484 123.497 272.484C125.331 272.484 126.647 273.506 126.647 274.892C126.647 276.642 125.149 277.622 122.769 277.622C121.663 277.622 120.893 277.216 120.893 276.53C120.893 276.04 121.383 275.648 122.027 275.648C123.147 275.648 123.833 276.502 123.917 277.692L124.925 277.524C124.827 276.11 123.889 274.794 122.027 274.794C120.739 274.794 119.871 275.662 119.871 276.614C119.871 277.79 121.033 278.616 122.937 278.616C125.905 278.616 127.767 277.146 127.767 274.892C127.767 273.002 126.101 271.616 123.777 271.616C123.147 271.616 122.475 271.686 121.831 271.896C122.923 271 124.827 269.362 125.513 268.83C125.779 268.62 126.059 268.438 126.311 268.27L125.667 267.444C125.513 267.5 125.317 267.528 124.897 267.57C124.155 267.64 120.837 267.738 120.095 267.738C119.815 267.738 119.423 267.724 119.115 267.696ZM141.291 268.242C141.291 267.738 141.711 267.318 142.215 267.318C142.719 267.318 143.139 267.738 143.139 268.242C143.139 268.76 142.719 269.166 142.215 269.166C141.711 269.166 141.291 268.76 141.291 268.242ZM140.647 268.242C140.647 269.11 141.347 269.81 142.215 269.81C143.083 269.81 143.783 269.11 143.783 268.242C143.783 267.374 143.083 266.674 142.215 266.674C141.347 266.674 140.647 267.374 140.647 268.242ZM133.381 273.8C132.905 274.962 132.107 276.432 131.225 277.608L132.415 278.112C133.199 276.978 133.969 275.536 134.487 274.262C135.075 272.82 135.565 270.748 135.747 269.88C135.817 269.586 135.915 269.166 136.013 268.858L134.767 268.606C134.571 270.216 133.997 272.344 133.381 273.8ZM140.283 273.268C140.857 274.752 141.515 276.656 141.865 278.07L143.111 277.678C142.733 276.404 141.991 274.262 141.431 272.876C140.829 271.406 139.933 269.474 139.387 268.452L138.253 268.83C138.855 269.88 139.723 271.826 140.283 273.268ZM150.713 271.588L149.943 272.372C151.679 273.45 154.073 275.172 155.361 276.348L156.187 275.368C154.801 274.248 152.505 272.638 150.713 271.588ZM157.111 269.04L156.187 268.48C155.963 268.564 155.655 268.606 155.277 268.606H150.825L150.377 269.614H155.557C155.235 270.916 154.353 272.694 153.275 273.982C152.015 275.48 150.111 276.964 147.507 277.748L148.501 278.63C151.161 277.65 152.981 276.152 154.255 274.584C155.487 273.072 156.369 271.21 156.789 269.782C156.859 269.558 156.999 269.236 157.111 269.04ZM152.393 267.01L151.119 266.604C151.035 266.968 150.811 267.472 150.671 267.71C150.027 268.998 148.585 271.098 146.191 272.596L147.115 273.31C149.355 271.77 150.937 269.656 151.763 268.116C151.903 267.85 152.155 267.374 152.393 267.01ZM160.877 271.938V273.31C161.325 273.282 162.067 273.254 162.837 273.254C163.873 273.254 169.459 273.254 170.523 273.254C171.139 273.254 171.727 273.296 172.021 273.31V271.938C171.699 271.966 171.209 272.022 170.509 272.022C169.473 272.022 163.859 272.022 162.837 272.022C162.039 272.022 161.311 271.98 160.877 271.938ZM176.503 267.752L175.691 268.606C176.741 269.292 178.477 270.804 179.191 271.532L180.059 270.636C179.289 269.866 177.483 268.41 176.503 267.752ZM175.299 277.132L176.027 278.28C178.365 277.846 180.129 276.978 181.543 276.096C183.657 274.766 185.281 272.862 186.233 271.126L185.561 269.922C184.749 271.658 183.055 273.73 180.885 275.088C179.555 275.914 177.735 276.768 175.299 277.132Z" fill="#1A1A1C"/>
<path opacity="0.9" d="M1.408 21H7.84V19.784H5.472V9.272H4.352C3.728 9.656 2.976 9.928 1.92 10.104V11.048H4.016V19.784H1.408V21ZM10.219 21H17.579V19.752H14.331C13.739 19.752 13.035 19.8 12.411 19.864C15.179 17.256 17.019 14.872 17.019 12.52C17.019 10.424 15.707 9.064 13.611 9.064C12.123 9.064 11.099 9.752 10.139 10.792L10.987 11.608C11.643 10.84 12.475 10.248 13.435 10.248C14.891 10.248 15.579 11.24 15.579 12.584C15.579 14.584 13.899 16.936 10.219 20.152V21ZM31.27 8.2L30.406 8.568C30.838 9.176 31.382 10.136 31.702 10.792L32.566 10.392C32.246 9.752 31.67 8.776 31.27 8.2ZM33.014 7.56L32.182 7.928C32.63 8.52 33.142 9.432 33.494 10.12L34.358 9.736C34.054 9.144 33.446 8.152 33.014 7.56ZM32.326 11.384L31.27 10.744C30.998 10.856 30.646 10.904 30.214 10.904C29.718 10.904 25.766 10.904 25.11 10.904L24.598 12.056H30.534C30.198 13.512 29.222 15.576 27.974 17.048C26.518 18.744 24.534 20.2 21.59 21.064L22.742 22.104C25.75 21 27.67 19.528 29.126 17.752C30.534 16.024 31.526 13.848 31.958 12.248C32.038 11.992 32.198 11.624 32.326 11.384ZM26.966 8.968L25.494 8.488C25.398 8.888 25.158 9.48 24.998 9.752C24.294 11.192 22.726 13.512 19.958 15.16L21.078 15.992C23.638 14.28 25.318 11.992 26.262 10.232C26.422 9.928 26.71 9.384 26.966 8.968ZM48.07 8.872H46.566C46.614 9.256 46.662 9.72 46.662 10.264C46.662 10.824 46.662 12.168 46.662 12.792C46.662 15.8 46.454 17.112 45.318 18.424C44.326 19.56 42.966 20.184 41.494 20.568L42.55 21.672C43.718 21.272 45.318 20.568 46.342 19.32C47.51 17.96 48.022 16.696 48.022 12.84C48.022 12.248 48.022 10.888 48.022 10.264C48.022 9.72 48.038 9.256 48.07 8.872ZM40.646 9H39.19C39.238 9.304 39.254 9.864 39.254 10.136C39.254 10.616 39.254 14.792 39.254 15.48C39.254 15.944 39.222 16.456 39.19 16.712H40.646C40.614 16.424 40.598 15.896 40.598 15.48C40.598 14.808 40.598 10.616 40.598 10.136C40.598 9.768 40.614 9.304 40.646 9ZM60.038 11.8L58.854 12.2C59.19 12.904 59.926 14.936 60.102 15.672L61.286 15.24C61.094 14.552 60.31 12.44 60.038 11.8ZM65.83 12.696L64.454 12.248C64.198 14.296 63.382 16.344 62.246 17.736C60.934 19.368 58.886 20.584 57.046 21.128L58.102 22.2C59.878 21.528 61.83 20.28 63.318 18.408C64.454 16.968 65.158 15.24 65.574 13.48C65.638 13.272 65.718 13.016 65.83 12.696ZM56.31 12.6L55.126 13.048C55.446 13.608 56.31 15.832 56.566 16.664L57.766 16.216C57.478 15.368 56.63 13.272 56.31 12.6ZM74.326 19.592C74.326 20.184 74.31 20.984 74.23 21.496H75.782C75.718 20.968 75.686 20.104 75.686 19.592C75.686 18.84 75.67 12.776 75.67 10.296C75.67 9.8 75.718 9.112 75.782 8.616H74.214C74.294 9.128 74.326 9.832 74.326 10.296C74.326 11.624 74.326 18.696 74.326 19.592ZM75.382 12.824V14.232C77.126 14.776 80.118 15.912 81.942 16.888L82.502 15.528C80.726 14.664 77.494 13.432 75.382 12.824ZM92.95 8.36L91.638 8.248C91.59 9 91.366 9.96 91.014 10.84C90.47 12.2 89.398 14.056 87.094 16.264L88.198 17.08C88.726 16.424 89.174 15.848 89.638 15.4C90.374 14.744 91.382 14.232 92.406 14.232C93.238 14.232 93.878 14.664 93.894 15.592C93.91 16.424 93.894 18.072 93.83 18.92H95.062C95.046 17.928 95.014 16.088 95.014 15.256C95.014 13.96 94.054 13.224 92.822 13.224C92.118 13.224 91.206 13.448 90.582 13.816C91.222 12.984 91.814 11.912 92.214 10.936C92.63 9.864 92.806 8.984 92.95 8.36ZM87.462 10.088V11.288C88.358 11.352 89.414 11.384 90.102 11.384C92.134 11.384 95.11 11.24 97.35 10.904V9.72C95.094 10.12 92.326 10.248 90.166 10.248C89.43 10.248 88.326 10.2 87.462 10.088ZM99.686 13.944L99.174 12.76C98.726 12.984 98.326 13.16 97.846 13.384C96.79 13.88 95.494 14.376 93.974 15.16C92.07 16.136 90.086 17.336 90.086 19.288C90.086 21.224 91.926 21.72 94.198 21.72C95.59 21.72 97.366 21.592 98.582 21.448L98.63 20.152C97.222 20.408 95.494 20.552 94.246 20.552C92.598 20.552 91.366 20.36 91.366 19.112C91.366 18.008 92.486 17.144 94.07 16.312C95.622 15.512 97.142 14.904 98.278 14.456C98.71 14.296 99.286 14.072 99.686 13.944ZM103.702 9.112V10.136H116.806V9.112H103.702ZM104.214 20.84V21.848H116.326V20.84H104.214ZM106.854 11.192V12.104H113.59V11.192H106.854ZM106.854 13.208V14.12H113.59V13.208H106.854ZM102.95 15.272V16.28H117.494V15.272H102.95ZM106.31 18.136V19.128H114.166V18.136H106.31ZM106.134 7.576V15.832H107.334V7.576H106.134ZM113.174 7.576V15.832H114.374V7.576H113.174ZM109.574 16.792V21.4H110.806V16.792H109.574ZM106.982 15.544C106.118 16.952 104.406 18.328 102.79 18.968C103.062 19.192 103.398 19.608 103.574 19.88C105.254 19.096 107.014 17.576 107.99 15.928L106.982 15.544ZM113.526 15.544L112.582 15.912C113.51 17.48 115.206 18.968 116.902 19.688C117.078 19.4 117.43 18.984 117.702 18.76C116.038 18.168 114.374 16.904 113.526 15.544ZM119.894 10.936V12.152H133.862V10.936H119.894ZM123.094 18.072V19.288H130.55V18.072H123.094ZM126.214 7.576V22.28H127.478V7.576H126.214ZM125.846 11.336C124.566 14.408 122.022 17.384 119.35 18.776C119.622 19.016 120.022 19.464 120.214 19.768C122.982 18.152 125.494 15.096 126.918 11.704L125.846 11.336ZM127.878 11.384L126.806 11.752C128.214 15.112 130.678 18.168 133.51 19.736C133.702 19.4 134.118 18.92 134.422 18.664C131.654 17.336 129.142 14.424 127.878 11.384ZM148.518 11.464L147.83 10.312C147.494 10.584 147.142 10.792 146.678 11.064C145.638 11.656 143.398 12.728 141.766 13.816C139.878 15.064 138.71 16.424 138.71 18.152C138.71 20.552 140.886 21.448 143.894 21.448C145.894 21.448 147.75 21.272 148.95 21.064L148.966 19.624C147.718 19.944 145.574 20.168 143.846 20.168C141.318 20.168 140.038 19.336 140.038 18.008C140.038 16.808 140.934 15.752 142.422 14.776C143.99 13.752 146.214 12.696 147.286 12.136C147.766 11.896 148.166 11.672 148.518 11.464ZM140.422 8.552L139.158 9.096C140.022 11.08 140.982 13.24 141.798 14.552L142.886 13.896C142.15 12.6 141.158 10.6 140.422 8.552ZM157.59 8.536H155.958C156.054 9 156.102 9.56 156.102 10.152C156.102 11.832 155.942 15.88 155.942 18.248C155.942 20.872 157.526 21.816 159.83 21.816C163.334 21.816 165.414 19.816 166.502 18.296L165.606 17.208C164.454 18.872 162.79 20.504 159.862 20.504C158.342 20.504 157.238 19.896 157.238 18.136C157.238 15.752 157.366 11.96 157.43 10.152C157.462 9.624 157.51 9.064 157.59 8.536ZM175.862 8.424L174.342 8.296C174.374 8.632 174.342 9.176 174.278 9.624C174.166 10.456 173.75 12.472 173.366 13.944C172.758 16.2 171.638 19.448 170.678 21.112L172.07 21.576C172.918 19.832 173.99 16.52 174.566 14.248C175.014 12.648 175.35 10.84 175.59 9.688C175.654 9.384 175.766 8.776 175.862 8.424ZM172.326 11.096C171.734 11.096 171.158 11.064 170.406 10.968L170.438 12.216C171.03 12.264 171.59 12.28 172.294 12.28C174.022 12.28 176.438 12.008 178.422 11.56V10.312C176.438 10.808 174.086 11.096 172.326 11.096ZM177.382 13.288V14.488C178.358 14.376 179.35 14.312 180.342 14.312C181.286 14.312 182.214 14.408 183.046 14.504L183.078 13.288C182.214 13.192 181.238 13.16 180.31 13.16C179.286 13.16 178.214 13.208 177.382 13.288ZM177.702 17.176L176.518 17.064C176.374 17.736 176.278 18.344 176.278 18.952C176.278 20.536 177.654 21.304 180.166 21.304C181.334 21.304 182.406 21.208 183.27 21.08L183.318 19.8C182.326 19.992 181.238 20.104 180.182 20.104C177.91 20.104 177.478 19.368 177.478 18.616C177.478 18.2 177.574 17.704 177.702 17.176ZM188.982 20.504L189.894 21.288C190.15 21.144 190.406 21.064 190.566 21.016C194.566 19.848 197.862 17.88 199.942 15.304L199.222 14.184C197.222 16.76 193.526 18.856 190.454 19.64C190.454 18.824 190.454 12.072 190.454 10.552C190.454 10.104 190.518 9.496 190.566 9.112H188.998C189.062 9.416 189.126 10.136 189.126 10.568C189.126 12.088 189.126 18.712 189.126 19.72C189.126 20.024 189.094 20.248 188.982 20.504ZM203.446 15.224L204.07 16.472C206.646 15.672 209.19 14.504 210.95 13.416C212.822 12.248 214.502 10.904 215.878 9.48L214.806 8.472C213.702 9.816 212.102 11.192 210.422 12.248C208.646 13.352 206.214 14.488 203.446 15.224ZM210.166 12.904V19.8C210.166 20.392 210.118 21.192 210.07 21.496H211.654C211.574 21.192 211.542 20.392 211.542 19.8V12.488L210.166 12.904ZM233.606 10.2L232.806 9.432C232.582 9.496 232.006 9.544 231.702 9.544C230.742 9.544 223.27 9.544 222.502 9.544C221.91 9.544 221.254 9.48 220.694 9.4V10.84C221.318 10.792 221.91 10.76 222.502 10.76C223.27 10.76 230.502 10.76 231.622 10.76C231.11 11.752 229.606 13.48 228.118 14.328L229.19 15.176C231.014 13.912 232.534 11.848 233.174 10.76C233.286 10.584 233.478 10.344 233.606 10.2ZM227.206 12.296H225.766C225.83 12.728 225.83 13.08 225.83 13.464C225.83 16.136 225.478 18.408 223.014 19.928C222.566 20.232 222.006 20.504 221.574 20.648L222.742 21.608C226.822 19.56 227.206 16.632 227.206 12.296ZM243.99 8.2H242.47C242.534 8.696 242.55 9.064 242.55 9.4C242.55 9.768 242.55 10.904 242.55 11.528H243.91C243.91 10.968 243.91 9.768 243.91 9.4C243.91 9.064 243.926 8.696 243.99 8.2ZM249.446 11.304L248.582 10.76C248.374 10.824 248.086 10.888 247.494 10.888H239.014C238.454 10.888 237.974 10.856 237.51 10.824C237.574 11.16 237.574 11.704 237.574 12.04C237.574 12.6 237.574 14.344 237.574 14.856C237.574 15.176 237.558 15.608 237.51 15.88H238.902C238.87 15.64 238.854 15.208 238.854 14.936C238.854 14.44 238.854 12.728 238.854 12.072H247.782C247.638 13.432 247.142 15.368 246.278 16.728C245.286 18.248 243.542 19.432 241.926 19.96C241.414 20.152 240.806 20.312 240.278 20.408L241.318 21.592C244.246 20.792 246.454 19.16 247.638 17.064C248.534 15.544 248.998 13.544 249.222 12.264C249.27 11.96 249.366 11.528 249.446 11.304ZM257.366 19.592C257.366 20.184 257.35 20.984 257.27 21.496H258.822C258.758 20.968 258.726 20.104 258.726 19.592C258.726 18.84 258.71 12.776 258.71 10.296C258.71 9.8 258.758 9.112 258.822 8.616H257.254C257.334 9.128 257.366 9.832 257.366 10.296C257.366 11.624 257.366 18.696 257.366 19.592ZM258.422 12.824V14.232C260.166 14.776 263.158 15.912 264.982 16.888L265.542 15.528C263.766 14.664 260.534 13.432 258.422 12.824ZM281.142 9.848C281.142 9.272 281.622 8.792 282.198 8.792C282.774 8.792 283.254 9.272 283.254 9.848C283.254 10.44 282.774 10.904 282.198 10.904C281.622 10.904 281.142 10.44 281.142 9.848ZM280.406 9.848C280.406 10.84 281.206 11.64 282.198 11.64C283.19 11.64 283.99 10.84 283.99 9.848C283.99 8.856 283.19 8.056 282.198 8.056C281.206 8.056 280.406 8.856 280.406 9.848ZM272.102 16.2C271.558 17.528 270.646 19.208 269.638 20.552L270.998 21.128C271.894 19.832 272.774 18.184 273.366 16.728C274.038 15.08 274.598 12.712 274.806 11.72C274.886 11.384 274.998 10.904 275.11 10.552L273.686 10.264C273.462 12.104 272.806 14.536 272.102 16.2ZM279.99 15.592C280.646 17.288 281.398 19.464 281.798 21.08L283.222 20.632C282.79 19.176 281.942 16.728 281.302 15.144C280.614 13.464 279.59 11.256 278.966 10.088L277.67 10.52C278.358 11.72 279.35 13.944 279.99 15.592ZM291.91 13.672L291.03 14.568C293.014 15.8 295.75 17.768 297.222 19.112L298.166 17.992C296.582 16.712 293.958 14.872 291.91 13.672ZM299.222 10.76L298.166 10.12C297.91 10.216 297.558 10.264 297.126 10.264H292.038L291.526 11.416H297.446C297.078 12.904 296.07 14.936 294.838 16.408C293.398 18.12 291.222 19.816 288.246 20.712L289.382 21.72C292.422 20.6 294.502 18.888 295.958 17.096C297.366 15.368 298.374 13.24 298.854 11.608C298.934 11.352 299.094 10.984 299.222 10.76ZM293.83 8.44L292.374 7.976C292.278 8.392 292.022 8.968 291.862 9.24C291.126 10.712 289.478 13.112 286.742 14.824L287.798 15.64C290.358 13.88 292.166 11.464 293.11 9.704C293.27 9.4 293.558 8.856 293.83 8.44ZM303.526 14.072V15.64C304.038 15.608 304.886 15.576 305.766 15.576C306.95 15.576 313.334 15.576 314.55 15.576C315.254 15.576 315.926 15.624 316.262 15.64V14.072C315.894 14.104 315.334 14.168 314.534 14.168C313.35 14.168 306.934 14.168 305.766 14.168C304.854 14.168 304.022 14.12 303.526 14.072ZM321.385 9.288L320.457 10.264C321.657 11.048 323.641 12.776 324.457 13.608L325.449 12.584C324.569 11.704 322.505 10.04 321.385 9.288ZM320.009 20.008L320.841 21.32C323.513 20.824 325.529 19.832 327.145 18.824C329.561 17.304 331.417 15.128 332.505 13.144L331.737 11.768C330.809 13.752 328.873 16.12 326.393 17.672C324.873 18.616 322.793 19.592 320.009 20.008Z" fill="#1A1A1C"/>
<path d="M31.6667 318.683L29.3167 316.333L20 325.65L10.6834 316.333L8.33337 318.683L17.65 328L8.33337 337.316L10.6834 339.666L20 330.35L29.3167 339.666L31.6667 337.316L22.35 328L31.6667 318.683Z" fill="#EC0000"/>
<g clip-path="url(#clip1_14904_4969)">
<rect y="364" width="640" height="144" fill="white"/>
<rect x="64" y="404" width="182" height="64" fill="#EC0000" fill-opacity="0.2"/>
<rect x="262" y="404" width="182" height="64" fill="#EC0000" fill-opacity="0.2"/>
<rect x="460" y="404" width="116" height="64" fill="#DDDDDD"/>
<rect x="64" y="364" width="28" height="144" fill="black" fill-opacity="0.04"/>
<rect x="108" y="364" width="28" height="144" fill="black" fill-opacity="0.04"/>
<rect x="152" y="364" width="28" height="144" fill="black" fill-opacity="0.04"/>
<rect x="196" y="364" width="28" height="144" fill="black" fill-opacity="0.04"/>
<rect x="240" y="364" width="28" height="144" fill="black" fill-opacity="0.04"/>
<rect x="284" y="364" width="28" height="144" fill="black" fill-opacity="0.04"/>
<rect x="328" y="364" width="28" height="144" fill="black" fill-opacity="0.04"/>
<rect x="372" y="364" width="28" height="144" fill="black" fill-opacity="0.04"/>
<rect x="416" y="364" width="28" height="144" fill="black" fill-opacity="0.04"/>
<rect x="460" y="364" width="28" height="144" fill="black" fill-opacity="0.04"/>
<rect x="504" y="364" width="28" height="144" fill="black" fill-opacity="0.04"/>
<rect x="548" y="364" width="28" height="144" fill="black" fill-opacity="0.04"/>
</g>
<rect x="0.5" y="364.5" width="639" height="143" stroke="#DDDDDD"/>
<path opacity="0.9" d="M7.322 541.706L8.064 542.322C8.176 542.252 8.316 542.126 8.554 542.014C10.178 541.202 12.11 539.774 13.328 538.136L12.656 537.17C11.592 538.752 9.87 540.026 8.568 540.614C8.568 540.194 8.568 533.418 8.568 532.55C8.568 532.018 8.624 531.612 8.638 531.5H7.35C7.35 531.612 7.42 532.004 7.42 532.536C7.42 533.418 7.42 540.278 7.42 540.922C7.42 541.202 7.378 541.496 7.322 541.706ZM0.91 541.65L1.974 542.35C3.15 541.37 4.046 540.012 4.466 538.514C4.844 537.114 4.886 534.104 4.886 532.55C4.886 532.144 4.942 531.71 4.956 531.556H3.668C3.738 531.85 3.766 532.158 3.766 532.564C3.766 534.132 3.766 536.918 3.346 538.206C2.926 539.564 2.1 540.81 0.91 541.65ZM15.974 535.938V537.31C16.422 537.282 17.164 537.254 17.934 537.254C18.97 537.254 24.556 537.254 25.62 537.254C26.236 537.254 26.824 537.296 27.118 537.31V535.938C26.796 535.966 26.306 536.022 25.606 536.022C24.57 536.022 18.956 536.022 17.934 536.022C17.136 536.022 16.408 535.98 15.974 535.938ZM36.442 541.706L37.184 542.322C37.296 542.252 37.436 542.126 37.674 542.014C39.298 541.202 41.23 539.774 42.448 538.136L41.776 537.17C40.712 538.752 38.99 540.026 37.688 540.614C37.688 540.194 37.688 533.418 37.688 532.55C37.688 532.018 37.744 531.612 37.758 531.5H36.47C36.47 531.612 36.54 532.004 36.54 532.536C36.54 533.418 36.54 540.278 36.54 540.922C36.54 541.202 36.498 541.496 36.442 541.706ZM30.03 541.65L31.094 542.35C32.27 541.37 33.166 540.012 33.586 538.514C33.964 537.114 34.006 534.104 34.006 532.55C34.006 532.144 34.062 531.71 34.076 531.556H32.788C32.858 531.85 32.886 532.158 32.886 532.564C32.886 534.132 32.886 536.918 32.466 538.206C32.046 539.564 31.22 540.81 30.03 541.65ZM50.05 532.55L50.064 533.684C51.59 533.852 54.306 533.852 55.804 533.684V532.55C54.418 532.76 51.576 532.816 50.05 532.55ZM50.596 538.262L49.588 538.164C49.434 538.836 49.364 539.34 49.364 539.802C49.364 541.118 50.414 541.902 52.752 541.902C54.208 541.902 55.384 541.79 56.252 541.608L56.224 540.432C55.104 540.698 54.012 540.81 52.766 540.81C50.848 540.81 50.4 540.18 50.4 539.536C50.4 539.158 50.47 538.766 50.596 538.262ZM47.39 531.472L46.144 531.374C46.13 531.682 46.088 532.032 46.046 532.354C45.878 533.516 45.416 535.91 45.416 537.968C45.416 539.872 45.654 541.482 45.934 542.476L46.928 542.406C46.914 542.252 46.9 542.056 46.886 541.916C46.886 541.748 46.914 541.482 46.956 541.286C47.082 540.614 47.6 539.144 47.95 538.15L47.362 537.688C47.124 538.262 46.802 539.102 46.564 539.732C46.48 539.046 46.438 538.458 46.438 537.786C46.438 536.204 46.872 533.712 47.138 532.41C47.194 532.158 47.306 531.71 47.39 531.472ZM61.67 535.77H58.884V536.75H60.662V540.726H61.67V535.77ZM61.67 540.306H60.76C60.102 540.908 59.346 541.538 58.73 541.986L59.276 543.008C59.976 542.392 60.62 541.79 61.236 541.188C62.104 542.294 63.378 542.784 65.226 542.854C66.794 542.924 69.79 542.896 71.372 542.826C71.414 542.518 71.582 542.028 71.708 541.79C70.014 541.902 66.78 541.944 65.226 541.874C63.56 541.818 62.328 541.342 61.67 540.306ZM59.01 531.178C59.794 531.836 60.662 532.788 61.054 533.446L61.922 532.816C61.516 532.158 60.606 531.248 59.822 530.618L59.01 531.178ZM62.286 539.508V540.278H71.456V539.508H62.286ZM62.692 537.702V538.472H71.078V537.702H62.692ZM62.272 533.026V533.81H71.47V533.026H62.272ZM67.214 536.876V541.454H68.208V536.876H67.214ZM64.008 537.996V539.802H64.974V537.996H64.008ZM65.828 530.24C65.548 531.262 65.114 532.578 64.792 533.446H65.828C66.136 532.648 66.556 531.374 66.836 530.366L65.828 530.24ZM63.182 531.304V532.06H68.81V533.432H69.79V531.304H63.182ZM64.358 535.182H69.048V536.26H64.358V535.182ZM63.392 534.51V536.946H70.07V534.51H63.392ZM75.698 531.122V532.172H85.456V531.122H75.698ZM75.824 534.664V535.686H83.846V534.664H75.824ZM75.18 531.122V534.944C75.18 537.184 75.04 540.292 73.5 542.476C73.766 542.602 74.2 542.91 74.382 543.092C75.992 540.782 76.23 537.324 76.23 534.944V531.122H75.18ZM83.552 534.664V534.874C82.488 538.864 79.31 541.244 75.768 542.168C75.992 542.392 76.258 542.84 76.384 543.12C80.164 541.986 83.44 539.536 84.686 534.93L83.972 534.622L83.762 534.664H83.552ZM78.064 535.182L77.056 535.476C78.428 539.522 81.004 542.084 85.316 543.148C85.47 542.854 85.764 542.42 86.03 542.182C81.83 541.258 79.268 538.85 78.064 535.182ZM92.12 531.094H90.692C90.776 531.5 90.818 531.99 90.818 532.508C90.818 533.978 90.678 537.52 90.678 539.592C90.678 541.888 92.064 542.714 94.08 542.714C97.146 542.714 98.966 540.964 99.918 539.634L99.134 538.682C98.126 540.138 96.67 541.566 94.108 541.566C92.778 541.566 91.812 541.034 91.812 539.494C91.812 537.408 91.924 534.09 91.98 532.508C92.008 532.046 92.05 531.556 92.12 531.094ZM102.672 532.704L102.798 533.936C104.324 533.614 107.88 533.264 109.392 533.11C108.104 533.866 106.774 535.644 106.774 537.828C106.774 540.964 109.714 542.336 112.318 542.434L112.71 541.286C110.442 541.188 107.88 540.32 107.88 537.59C107.88 535.938 109.098 533.796 111.1 533.152C111.814 532.956 113.032 532.928 113.844 532.942L113.83 531.822C112.892 531.85 111.59 531.934 110.064 532.06C107.474 532.284 104.842 532.536 103.932 532.634C103.652 532.662 103.204 532.69 102.672 532.704ZM119.178 532.242L117.82 532.214C117.904 532.536 117.904 533.138 117.904 533.46C117.904 534.272 117.932 535.98 118.058 537.184C118.45 540.81 119.71 542.126 121.04 542.126C121.992 542.126 122.832 541.314 123.686 538.948L122.804 537.954C122.44 539.354 121.782 540.796 121.068 540.796C120.06 540.796 119.388 539.242 119.15 536.904C119.052 535.756 119.038 534.468 119.052 533.6C119.066 533.236 119.108 532.564 119.178 532.242ZM126.458 532.62L125.38 532.998C126.71 534.636 127.564 537.52 127.802 540.04L128.936 539.592C128.726 537.226 127.718 534.244 126.458 532.62ZM133.948 531.696L133.976 532.844C134.284 532.802 134.592 532.788 134.914 532.76C135.642 532.718 138.442 532.606 139.184 532.564C138.484 533.194 136.72 534.664 135.936 535.308C135.138 535.994 133.332 537.506 132.17 538.458L132.982 539.27C134.746 537.464 136.006 536.484 138.33 536.484C140.164 536.484 141.48 537.506 141.48 538.892C141.48 540.642 139.982 541.622 137.602 541.622C136.496 541.622 135.726 541.216 135.726 540.53C135.726 540.04 136.216 539.648 136.86 539.648C137.98 539.648 138.666 540.502 138.75 541.692L139.758 541.524C139.66 540.11 138.722 538.794 136.86 538.794C135.572 538.794 134.704 539.662 134.704 540.614C134.704 541.79 135.866 542.616 137.77 542.616C140.738 542.616 142.6 541.146 142.6 538.892C142.6 537.002 140.934 535.616 138.61 535.616C137.98 535.616 137.308 535.686 136.664 535.896C137.756 535 139.66 533.362 140.346 532.83C140.612 532.62 140.892 532.438 141.144 532.27L140.5 531.444C140.346 531.5 140.15 531.528 139.73 531.57C138.988 531.64 135.67 531.738 134.928 531.738C134.648 531.738 134.256 531.724 133.948 531.696ZM156.124 532.242C156.124 531.738 156.544 531.318 157.048 531.318C157.552 531.318 157.972 531.738 157.972 532.242C157.972 532.76 157.552 533.166 157.048 533.166C156.544 533.166 156.124 532.76 156.124 532.242ZM155.48 532.242C155.48 533.11 156.18 533.81 157.048 533.81C157.916 533.81 158.616 533.11 158.616 532.242C158.616 531.374 157.916 530.674 157.048 530.674C156.18 530.674 155.48 531.374 155.48 532.242ZM148.214 537.8C147.738 538.962 146.94 540.432 146.058 541.608L147.248 542.112C148.032 540.978 148.802 539.536 149.32 538.262C149.908 536.82 150.398 534.748 150.58 533.88C150.65 533.586 150.748 533.166 150.846 532.858L149.6 532.606C149.404 534.216 148.83 536.344 148.214 537.8ZM155.116 537.268C155.69 538.752 156.348 540.656 156.698 542.07L157.944 541.678C157.566 540.404 156.824 538.262 156.264 536.876C155.662 535.406 154.766 533.474 154.22 532.452L153.086 532.83C153.688 533.88 154.556 535.826 155.116 537.268ZM165.546 535.588L164.776 536.372C166.512 537.45 168.906 539.172 170.194 540.348L171.02 539.368C169.634 538.248 167.338 536.638 165.546 535.588ZM171.944 533.04L171.02 532.48C170.796 532.564 170.488 532.606 170.11 532.606H165.658L165.21 533.614H170.39C170.068 534.916 169.186 536.694 168.108 537.982C166.848 539.48 164.944 540.964 162.34 541.748L163.334 542.63C165.994 541.65 167.814 540.152 169.088 538.584C170.32 537.072 171.202 535.21 171.622 533.782C171.692 533.558 171.832 533.236 171.944 533.04ZM167.226 531.01L165.952 530.604C165.868 530.968 165.644 531.472 165.504 531.71C164.86 532.998 163.418 535.098 161.024 536.596L161.948 537.31C164.188 535.77 165.77 533.656 166.596 532.116C166.736 531.85 166.988 531.374 167.226 531.01ZM175.71 535.938V537.31C176.158 537.282 176.9 537.254 177.67 537.254C178.706 537.254 184.292 537.254 185.356 537.254C185.972 537.254 186.56 537.296 186.854 537.31V535.938C186.532 535.966 186.042 536.022 185.342 536.022C184.306 536.022 178.692 536.022 177.67 536.022C176.872 536.022 176.144 535.98 175.71 535.938ZM191.337 531.752L190.525 532.606C191.575 533.292 193.311 534.804 194.025 535.532L194.893 534.636C194.123 533.866 192.317 532.41 191.337 531.752ZM190.133 541.132L190.861 542.28C193.199 541.846 194.963 540.978 196.377 540.096C198.491 538.766 200.115 536.862 201.067 535.126L200.395 533.922C199.583 535.658 197.889 537.73 195.719 539.088C194.389 539.914 192.569 540.768 190.133 541.132Z" fill="#1A1A1C"/>
<defs>
<clipPath id="clip0_14904_4969">
<rect y="100" width="640" height="144" fill="white"/>
</clipPath>
<clipPath id="clip1_14904_4969">
<rect y="364" width="640" height="144" fill="white"/>
</clipPath>
</defs>
</svg>
