<svg width="492" height="153" viewBox="0 0 492 153" fill="none" xmlns="http://www.w3.org/2000/svg">
<path opacity="0.9" d="M313.472 8.812V8.35H314.508C315.25 8.35 315.74 8.364 316.048 8.392V6.53C315.67 6.6 315.25 6.628 314.508 6.628H313.472V5.158C313.472 4.598 313.528 4.136 313.57 3.856H311.568C311.61 4.136 311.652 4.598 311.652 5.158V6.628H308.334V5.242C308.334 4.696 308.376 4.248 308.418 3.982H306.43C306.472 4.402 306.514 4.836 306.514 5.242V6.628H305.324C304.624 6.628 304.05 6.544 303.812 6.502V8.406C304.12 8.378 304.624 8.35 305.324 8.35H306.514V10.254C306.514 10.884 306.472 11.444 306.43 11.724H308.39C308.376 11.444 308.334 10.87 308.334 10.254V8.35H311.652V8.882C311.652 12.326 310.462 13.53 307.76 14.468L309.258 15.882C312.632 14.398 313.472 12.284 313.472 8.812ZM318.428 9.554L319.31 11.318C321.032 10.814 322.81 10.058 324.252 9.302V13.782C324.252 14.398 324.21 15.28 324.154 15.616H326.366C326.268 15.266 326.24 14.398 326.24 13.782V8.126C327.598 7.23 328.942 6.138 330.006 5.088L328.494 3.646C327.584 4.752 325.988 6.152 324.546 7.048C322.992 8 320.934 8.91 318.428 9.554ZM342.448 3.352L341.342 3.814C341.594 4.192 341.874 4.682 342.112 5.13L341.944 5.004C341.664 5.102 341.104 5.172 340.502 5.172H335.56C335.14 5.172 334.286 5.13 333.908 5.074V7.062C334.202 7.048 334.972 6.964 335.56 6.964H340.306C339.998 7.958 339.144 9.344 338.22 10.394C336.904 11.864 334.734 13.572 332.48 14.412L333.922 15.924C335.84 15.028 337.702 13.558 339.186 12.004C340.502 13.264 341.804 14.706 342.714 15.966L344.31 14.566C343.484 13.558 341.79 11.766 340.404 10.562C341.342 9.302 342.126 7.818 342.602 6.726C342.728 6.432 342.98 6.012 343.092 5.844L342.77 5.606L343.568 5.27C343.33 4.78 342.812 3.884 342.448 3.352ZM344.212 2.862L343.106 3.324C343.484 3.842 343.946 4.668 344.24 5.242L345.346 4.766C345.094 4.276 344.59 3.394 344.212 2.862Z" fill="black"/>
<path opacity="0.9" d="M2.408 42.71V44.46C2.814 44.432 3.262 44.418 3.766 44.418H5.292V46.798H3.01C2.576 46.798 1.876 46.756 1.484 46.728V48.562C1.904 48.534 2.604 48.492 3.01 48.492H5.292V51.194C5.292 52.608 5.922 53.49 8.484 53.49C9.8 53.49 11.382 53.434 12.292 53.378L12.418 51.488C11.298 51.6 10.066 51.684 8.806 51.684C7.686 51.684 7.21 51.404 7.21 50.634V48.492H11.48C11.788 48.492 12.418 48.492 12.81 48.534L12.796 46.742C12.432 46.77 11.732 46.798 11.438 46.798H7.21V44.418H10.5C11.004 44.418 11.396 44.446 11.76 44.46V42.71C11.438 42.752 10.976 42.78 10.5 42.78H3.766C3.262 42.78 2.814 42.738 2.408 42.71ZM25.48 41.828L24.374 42.29C24.752 42.822 25.172 43.662 25.466 44.236L26.586 43.746C26.32 43.228 25.83 42.346 25.48 41.828ZM27.132 41.198L26.026 41.66C26.404 42.178 26.866 43.004 27.146 43.578L28.266 43.102C28.014 42.612 27.496 41.73 27.132 41.198ZM17.248 48.646C16.772 49.878 15.946 51.39 15.064 52.538L17.024 53.364C17.766 52.314 18.592 50.718 19.096 49.36C19.586 48.058 20.09 46.126 20.286 45.146C20.342 44.838 20.496 44.152 20.622 43.746L18.578 43.326C18.41 45.104 17.878 47.078 17.248 48.646ZM24.164 48.352C24.724 49.864 25.228 51.628 25.62 53.294L27.692 52.622C27.3 51.236 26.558 48.996 26.068 47.736C25.536 46.378 24.57 44.222 23.996 43.144L22.134 43.746C22.722 44.81 23.632 46.882 24.164 48.352ZM29.988 47.554L30.87 49.318C32.592 48.814 34.37 48.058 35.812 47.302V51.782C35.812 52.398 35.77 53.28 35.714 53.616H37.926C37.828 53.266 37.8 52.398 37.8 51.782V46.126C39.158 45.23 40.502 44.138 41.566 43.088L40.054 41.646C39.144 42.752 37.548 44.152 36.106 45.048C34.552 46 32.494 46.91 29.988 47.554ZM50.722 52.692L51.898 53.658C52.024 53.546 52.192 53.406 52.5 53.238C54.068 52.44 56.084 50.928 57.246 49.416L56.168 47.876C55.23 49.234 53.844 50.34 52.71 50.83V43.508C52.71 42.878 52.794 42.332 52.808 42.29H50.722C50.736 42.332 50.834 42.864 50.834 43.494V51.656C50.834 52.034 50.778 52.426 50.722 52.692ZM44.24 52.482L45.948 53.616C47.138 52.552 48.02 51.18 48.44 49.598C48.818 48.184 48.86 45.23 48.86 43.578C48.86 42.99 48.944 42.374 48.958 42.304H46.9C46.984 42.654 47.026 43.032 47.026 43.592C47.026 45.286 47.012 47.932 46.62 49.136C46.228 50.326 45.472 51.614 44.24 52.482Z" fill="black"/>
<path opacity="0.9" d="M7.966 83.912L5.936 83.282C5.81 83.758 5.516 84.402 5.292 84.738C4.592 85.956 3.29 87.874 0.84 89.4L2.352 90.562C3.766 89.582 5.068 88.238 6.048 86.936H10.052C9.842 87.804 9.24 89.022 8.512 90.03C7.63 89.442 6.748 88.868 6.006 88.448L4.76 89.722C5.474 90.17 6.398 90.8 7.308 91.472C6.146 92.634 4.592 93.768 2.17 94.51L3.794 95.924C5.978 95.098 7.574 93.908 8.806 92.606C9.38 93.068 9.898 93.502 10.276 93.852L11.606 92.27C11.2 91.934 10.654 91.528 10.052 91.094C11.046 89.694 11.746 88.196 12.124 87.062C12.25 86.712 12.432 86.334 12.586 86.068L11.158 85.186C10.85 85.284 10.374 85.34 9.94 85.34H7.098C7.266 85.032 7.616 84.402 7.966 83.912ZM25.186 83.198L24.038 83.674C24.304 84.08 24.584 84.57 24.822 85.032C24.57 85.06 24.332 85.06 24.164 85.06H17.682C17.22 85.06 16.422 85.004 16.016 84.948V86.922C16.38 86.894 17.038 86.866 17.682 86.866H24.192C24.01 88.07 23.478 89.652 22.554 90.814C21.42 92.242 19.838 93.46 17.066 94.104L18.592 95.784C21.098 94.972 22.96 93.586 24.22 91.906C25.396 90.352 25.998 88.182 26.334 86.81C26.404 86.516 26.502 86.11 26.642 85.844L25.746 85.256L26.264 85.046C26.012 84.542 25.55 83.73 25.186 83.198ZM27.146 82.848L25.984 83.31C26.362 83.828 26.796 84.626 27.104 85.2L28.266 84.696C28 84.206 27.496 83.352 27.146 82.848ZM31.85 94.44L33.18 95.588C33.502 95.378 33.81 95.28 34.006 95.21C37.31 94.132 40.208 92.466 42.126 90.17L41.132 88.588C39.34 90.772 36.218 92.564 33.936 93.222V85.942C33.936 85.396 33.992 84.892 34.076 84.346H31.878C31.962 84.752 32.032 85.41 32.032 85.942V93.53C32.032 93.852 32.018 94.09 31.85 94.44ZM50.75 86.684L49.084 87.23C49.434 87.958 50.05 89.652 50.218 90.338L51.898 89.75C51.702 89.106 51.016 87.286 50.75 86.684ZM55.916 87.706L53.956 87.076C53.788 88.826 53.116 90.688 52.164 91.878C51.002 93.334 49.056 94.398 47.516 94.804L48.986 96.302C50.624 95.686 52.374 94.51 53.676 92.83C54.628 91.598 55.216 90.142 55.58 88.728C55.664 88.448 55.748 88.154 55.916 87.706ZM47.502 87.426L45.822 88.028C46.158 88.644 46.858 90.506 47.096 91.262L48.804 90.618C48.524 89.834 47.852 88.14 47.502 87.426ZM62.636 93.656C62.636 94.216 62.58 95.056 62.496 95.616H64.68C64.624 95.042 64.554 94.062 64.554 93.656V89.694C66.066 90.212 68.166 91.024 69.608 91.78L70.406 89.848C69.118 89.218 66.43 88.224 64.554 87.678V85.606C64.554 85.032 64.624 84.416 64.68 83.926H62.496C62.594 84.416 62.636 85.116 62.636 85.606V93.656Z" fill="black"/>
<path opacity="0.9" d="M306.864 95.196C308.768 95.196 310.49 93.866 310.49 91.57C310.49 89.302 309.034 88.28 307.298 88.28C306.822 88.28 306.458 88.378 306.052 88.56L306.248 86.362H310.014V84.64H304.47L304.176 89.666L305.128 90.282C305.73 89.89 306.066 89.736 306.682 89.736C307.718 89.736 308.418 90.408 308.418 91.612C308.418 92.844 307.676 93.53 306.584 93.53C305.632 93.53 304.89 93.054 304.316 92.48L303.35 93.782C304.134 94.552 305.226 95.196 306.864 95.196ZM312.406 95H319.35V93.264H317.11C316.62 93.264 315.934 93.334 315.416 93.39C317.306 91.542 318.874 89.526 318.874 87.636C318.874 85.704 317.558 84.458 315.612 84.458C314.198 84.458 313.26 85.004 312.308 86.026L313.442 87.146C313.974 86.558 314.576 86.068 315.346 86.068C316.34 86.068 316.886 86.712 316.886 87.748C316.886 89.344 315.234 91.29 312.406 93.824V95ZM321.77 95H328.014V93.334H326.068V84.64H324.542C323.87 85.046 323.17 85.312 322.12 85.508V86.782H324.01V93.334H321.77V95ZM339.738 90.086C340.718 91.052 341.628 91.57 342.902 91.57C344.372 91.57 345.66 90.73 346.556 89.12L345.562 88.588C344.974 89.694 344.008 90.45 342.916 90.45C341.894 90.45 341.278 90.016 340.536 89.288C339.556 88.322 338.646 87.804 337.372 87.804C335.902 87.804 334.614 88.644 333.718 90.254L334.712 90.786C335.3 89.68 336.266 88.924 337.358 88.924C338.38 88.924 338.996 89.372 339.738 90.086ZM354.601 95.196C356.575 95.196 358.395 93.656 358.395 89.638C358.395 86.432 356.925 84.85 354.951 84.85C353.355 84.85 352.011 86.138 352.011 88.042C352.011 90.086 353.117 91.122 354.853 91.122C355.693 91.122 356.631 90.604 357.275 89.764L357.205 88.742C356.533 89.778 355.721 90.17 355.063 90.17C353.831 90.17 353.215 89.344 353.215 88.042C353.215 86.712 353.971 85.844 354.951 85.844C356.393 85.844 357.191 87.174 357.191 89.638C357.191 92.998 355.987 94.132 354.545 94.132C353.929 94.132 353.313 93.838 352.907 93.334L352.193 94.146C352.739 94.748 353.523 95.196 354.601 95.196ZM363.921 95.196C365.503 95.196 366.861 93.908 366.861 91.99C366.861 89.946 365.727 88.91 364.005 88.91C363.165 88.91 362.241 89.428 361.597 90.268L361.639 91.29C362.339 90.254 363.151 89.862 363.795 89.862C365.041 89.862 365.657 90.688 365.657 91.99C365.657 93.306 364.901 94.188 363.907 94.188C362.465 94.188 361.681 92.858 361.681 90.394C361.681 87.034 362.885 85.914 364.313 85.914C364.943 85.914 365.559 86.208 365.965 86.684L366.665 85.886C366.119 85.298 365.335 84.85 364.271 84.85C362.283 84.85 360.463 86.376 360.463 90.394C360.463 93.6 361.947 95.196 363.921 95.196ZM371.938 95.196C373.912 95.196 375.116 93.334 375.116 89.988C375.116 86.642 373.912 84.85 371.938 84.85C369.936 84.85 368.732 86.642 368.732 89.988C368.732 93.334 369.936 95.196 371.938 95.196ZM371.938 94.16C370.762 94.16 369.964 92.914 369.964 89.988C369.964 87.048 370.762 85.872 371.938 85.872C373.1 85.872 373.884 87.048 373.884 89.988C373.884 92.914 373.1 94.16 371.938 94.16ZM377.66 98.206H378.934V95.644L378.906 94.314C379.592 94.874 380.306 95.196 380.992 95.196C382.742 95.196 384.296 93.684 384.296 91.094C384.296 88.742 383.246 87.216 381.272 87.216C380.39 87.216 379.55 87.706 378.864 88.28H378.822L378.696 87.398H377.66V98.206ZM380.796 94.118C380.292 94.118 379.62 93.908 378.934 93.334V89.33C379.676 88.644 380.32 88.28 380.964 88.28C382.406 88.28 382.98 89.414 382.98 91.108C382.98 92.984 382.042 94.118 380.796 94.118ZM385.523 95H386.867L387.889 93.222C388.141 92.76 388.393 92.298 388.659 91.864H388.729C389.009 92.298 389.289 92.774 389.555 93.222L390.675 95H392.061L389.569 91.164L391.865 87.398H390.535L389.611 89.064C389.373 89.498 389.149 89.918 388.925 90.352H388.869C388.603 89.918 388.351 89.498 388.113 89.064L387.091 87.398H385.719L388.015 91.038L385.523 95Z" fill="black"/>
<path opacity="0.9" d="M306.892 53.182C308.88 53.182 310.084 51.32 310.084 47.974C310.084 44.642 308.88 42.836 306.892 42.836C304.904 42.836 303.686 44.628 303.686 47.974C303.686 51.32 304.904 53.182 306.892 53.182ZM306.892 52.16C305.716 52.16 304.932 50.9 304.932 47.974C304.932 45.048 305.716 43.858 306.892 43.858C308.054 43.858 308.838 45.048 308.838 47.974C308.838 50.9 308.054 52.16 306.892 52.16ZM321.624 48.072C322.604 49.038 323.5 49.57 324.774 49.57C326.258 49.57 327.546 48.716 328.428 47.12L327.434 46.588C326.86 47.694 325.894 48.436 324.788 48.436C323.78 48.436 323.164 48.002 322.408 47.288C321.428 46.308 320.532 45.79 319.258 45.79C317.774 45.79 316.486 46.644 315.604 48.24L316.598 48.772C317.172 47.666 318.138 46.924 319.244 46.924C320.266 46.924 320.868 47.358 321.624 48.072ZM336.921 53.182C338.657 53.182 340.281 51.964 340.281 49.808C340.281 47.652 338.895 46.672 337.187 46.672C336.571 46.672 336.123 46.84 335.661 47.092L335.913 44.11H339.791V43.018H334.793L334.471 47.82L335.157 48.254C335.745 47.862 336.179 47.638 336.865 47.638C338.153 47.638 338.993 48.464 338.993 49.85C338.993 51.236 338.013 52.118 336.809 52.118C335.619 52.118 334.877 51.572 334.289 50.984L333.659 51.824C334.345 52.51 335.325 53.182 336.921 53.182ZM342.209 53H348.663V51.894H345.765C345.233 51.894 344.617 51.95 344.085 51.992C346.451 49.5 348.159 47.638 348.159 45.762C348.159 43.998 347.011 42.836 345.177 42.836C343.875 42.836 342.993 43.438 342.153 44.348L342.895 45.062C343.455 44.404 344.183 43.872 345.023 43.872C346.297 43.872 346.913 44.684 346.913 45.818C346.913 47.456 345.219 49.248 342.209 52.244V53ZM353.811 53.182C355.799 53.182 357.003 51.32 357.003 47.974C357.003 44.642 355.799 42.836 353.811 42.836C351.823 42.836 350.605 44.628 350.605 47.974C350.605 51.32 351.823 53.182 353.811 53.182ZM353.811 52.16C352.635 52.16 351.851 50.9 351.851 47.974C351.851 45.048 352.635 43.858 353.811 43.858C354.973 43.858 355.757 45.048 355.757 47.974C355.757 50.9 354.973 52.16 353.811 52.16ZM359.532 56.206H360.806V53.63L360.778 52.3C361.464 52.86 362.192 53.182 362.878 53.182C364.628 53.182 366.182 51.684 366.182 49.08C366.182 46.742 365.118 45.202 363.158 45.202C362.276 45.202 361.422 45.706 360.736 46.266H360.694L360.582 45.398H359.532V56.206ZM362.668 52.118C362.164 52.118 361.492 51.908 360.806 51.32V47.33C361.548 46.644 362.206 46.28 362.85 46.28C364.292 46.28 364.852 47.414 364.852 49.094C364.852 50.984 363.928 52.118 362.668 52.118ZM367.436 53H368.78L369.802 51.222C370.068 50.76 370.32 50.298 370.586 49.864H370.656C370.936 50.298 371.216 50.76 371.468 51.222L372.588 53H373.988L371.482 49.164L373.792 45.398H372.462L371.524 47.064C371.3 47.498 371.076 47.918 370.838 48.338H370.782C370.53 47.918 370.264 47.498 370.026 47.064L369.004 45.398H367.632L369.942 49.038L367.436 53Z" fill="black"/>
<path opacity="0.9" d="M305.45 129.902C305.45 128.628 306.08 127.998 306.85 127.998C307.732 127.998 308.446 128.698 308.628 130.574C308.152 131.372 307.494 131.694 306.92 131.694C306.024 131.694 305.45 131.12 305.45 129.902ZM306.57 137.196C308.628 137.196 310.546 135.502 310.546 131.582C310.546 127.984 308.782 126.444 306.822 126.444C305.044 126.444 303.56 127.774 303.56 129.902C303.56 132.1 304.806 133.164 306.528 133.164C307.228 133.164 308.11 132.744 308.656 132.044C308.558 134.634 307.606 135.516 306.444 135.516C305.828 135.516 305.198 135.194 304.82 134.774L303.728 136.02C304.344 136.65 305.282 137.196 306.57 137.196ZM316.116 131.932C317.012 131.932 317.6 132.506 317.6 133.724C317.6 134.998 316.956 135.642 316.186 135.642C315.318 135.642 314.618 134.914 314.422 133.024C314.898 132.24 315.556 131.932 316.116 131.932ZM316.228 137.196C317.992 137.196 319.476 135.852 319.476 133.724C319.476 131.512 318.244 130.476 316.508 130.476C315.836 130.476 314.94 130.896 314.38 131.596C314.464 128.992 315.444 128.096 316.634 128.096C317.236 128.096 317.866 128.432 318.23 128.852L319.322 127.62C318.692 126.976 317.782 126.444 316.508 126.444C314.422 126.444 312.504 128.096 312.504 131.96C312.504 135.614 314.254 137.196 316.228 137.196ZM321.756 137H327.986V135.334H326.04V126.626H324.514C323.856 127.046 323.142 127.312 322.106 127.508V128.782H323.982V135.334H321.756V137ZM330.7 140.206H331.974V137.63L331.946 136.3C332.632 136.86 333.36 137.182 334.046 137.182C335.796 137.182 337.35 135.684 337.35 133.08C337.35 130.742 336.286 129.202 334.326 129.202C333.444 129.202 332.59 129.706 331.904 130.266H331.862L331.75 129.398H330.7V140.206ZM333.836 136.118C333.332 136.118 332.66 135.908 331.974 135.32V131.33C332.716 130.644 333.374 130.28 334.018 130.28C335.46 130.28 336.02 131.414 336.02 133.094C336.02 134.984 335.096 136.118 333.836 136.118ZM338.604 137H339.948L340.97 135.222C341.236 134.76 341.488 134.298 341.754 133.864H341.824C342.104 134.298 342.384 134.76 342.636 135.222L343.756 137H345.156L342.65 133.164L344.96 129.398H343.63L342.692 131.064C342.468 131.498 342.244 131.918 342.006 132.338H341.95C341.698 131.918 341.432 131.498 341.194 131.064L340.172 129.398H338.8L341.11 133.038L338.604 137ZM356.226 132.072C357.206 133.038 358.102 133.57 359.376 133.57C360.86 133.57 362.148 132.716 363.03 131.12L362.036 130.588C361.462 131.694 360.496 132.436 359.39 132.436C358.382 132.436 357.766 132.002 357.01 131.288C356.03 130.308 355.134 129.79 353.86 129.79C352.376 129.79 351.088 130.644 350.206 132.24L351.2 132.772C351.774 131.666 352.74 130.924 353.846 130.924C354.868 130.924 355.47 131.358 356.226 132.072Z" fill="black"/>
<path opacity="0.9" d="M2.632 126.43V128.236C3.052 128.208 3.654 128.194 4.13 128.194H8.708C9.198 128.194 9.744 128.208 10.22 128.236V126.43C9.744 126.5 9.184 126.542 8.708 126.542H4.13C3.654 126.542 3.08 126.5 2.632 126.43ZM1.008 130.014V131.848C1.4 131.82 1.946 131.792 2.352 131.792H6.202C6.146 132.968 5.908 134.018 5.334 134.886C4.774 135.712 3.794 136.51 2.8 136.888L4.438 138.078C5.684 137.448 6.762 136.37 7.252 135.39C7.756 134.41 8.064 133.234 8.148 131.792H11.522C11.914 131.792 12.446 131.806 12.796 131.834V130.014C12.432 130.07 11.816 130.098 11.522 130.098H2.352C1.918 130.098 1.428 130.07 1.008 130.014ZM11.06 125.464L9.94 125.926C10.318 126.458 10.752 127.298 11.046 127.872L12.166 127.382C11.9 126.864 11.41 125.982 11.06 125.464ZM12.712 124.834L11.606 125.296C11.984 125.828 12.432 126.64 12.726 127.228L13.846 126.738C13.594 126.248 13.076 125.366 12.712 124.834ZM26.236 127.508L25.088 126.654C24.808 126.752 24.248 126.836 23.646 126.836H18.704C18.284 126.836 17.43 126.794 17.052 126.738V128.726C17.346 128.712 18.116 128.628 18.704 128.628H23.45C23.142 129.622 22.288 131.008 21.364 132.058C20.048 133.528 17.878 135.236 15.624 136.076L17.066 137.588C18.984 136.678 20.846 135.222 22.33 133.654C23.646 134.928 24.948 136.356 25.858 137.616L27.454 136.23C26.628 135.222 24.934 133.43 23.548 132.226C24.486 130.966 25.27 129.468 25.746 128.376C25.872 128.096 26.124 127.662 26.236 127.508ZM37.142 126.08L35.098 125.408C34.972 125.884 34.678 126.528 34.468 126.878C33.768 128.082 32.55 129.888 30.1 131.386L31.668 132.548C33.04 131.61 34.258 130.378 35.196 129.16H39.13C38.906 130.21 38.094 131.89 37.142 132.982C35.924 134.368 34.37 135.586 31.5 136.44L33.152 137.924C35.784 136.888 37.478 135.6 38.808 133.976C40.068 132.408 40.866 130.546 41.244 129.3C41.356 128.95 41.552 128.558 41.706 128.292L40.278 127.41C39.956 127.508 39.494 127.578 39.06 127.578H36.246C36.26 127.55 36.274 127.536 36.288 127.508C36.456 127.2 36.82 126.57 37.142 126.08ZM48.076 135.656C48.076 136.216 48.02 137.056 47.936 137.616H50.12C50.064 137.042 49.994 136.062 49.994 135.656V131.694C51.506 132.212 53.606 133.024 55.048 133.78L55.846 131.848C54.558 131.218 51.87 130.224 49.994 129.678V127.606C49.994 127.032 50.064 126.416 50.12 125.926H47.936C48.034 126.416 48.076 127.116 48.076 127.606V135.656ZM65.31 128.684L63.644 129.23C63.994 129.958 64.61 131.652 64.778 132.338L66.458 131.75C66.262 131.106 65.576 129.286 65.31 128.684ZM70.476 129.706L68.516 129.076C68.348 130.826 67.676 132.688 66.724 133.878C65.562 135.334 63.616 136.398 62.076 136.804L63.546 138.302C65.184 137.686 66.934 136.51 68.236 134.83C69.188 133.598 69.776 132.142 70.14 130.728C70.224 130.448 70.308 130.154 70.476 129.706ZM62.062 129.426L60.382 130.028C60.718 130.644 61.418 132.506 61.656 133.262L63.364 132.618C63.084 131.834 62.412 130.14 62.062 129.426ZM84.056 126.738C84.056 126.29 84.42 125.926 84.868 125.926C85.302 125.926 85.666 126.29 85.666 126.738C85.666 127.172 85.302 127.536 84.868 127.536C84.42 127.536 84.056 127.172 84.056 126.738ZM83.188 126.738C83.188 126.836 83.202 126.92 83.216 127.004C82.922 127.046 82.614 127.06 82.418 127.06H75.936C75.474 127.06 74.676 127.004 74.27 126.948V128.922C74.62 128.894 75.292 128.866 75.936 128.866H82.446C82.264 130.07 81.732 131.652 80.808 132.814C79.674 134.242 78.092 135.46 75.32 136.104L76.846 137.784C79.338 136.972 81.214 135.586 82.474 133.906C83.65 132.352 84.252 130.182 84.574 128.81C84.616 128.684 84.644 128.544 84.686 128.39C84.742 128.404 84.812 128.404 84.868 128.404C85.778 128.404 86.534 127.648 86.534 126.738C86.534 125.814 85.778 125.058 84.868 125.058C83.944 125.058 83.188 125.814 83.188 126.738Z" fill="black"/>
<line y1="26.75" x2="492" y2="26.75" stroke="#CCCCCC" stroke-width="0.5"/>
<line y1="68.75" x2="492" y2="68.75" stroke="#CCCCCC" stroke-width="0.5"/>
<line y1="110.75" x2="492" y2="110.75" stroke="#CCCCCC" stroke-width="0.5"/>
<line y1="152.75" x2="492" y2="152.75" stroke="#CCCCCC" stroke-width="0.5"/>
</svg>
