<svg width="724" height="372" viewBox="0 0 724 372" fill="none" xmlns="http://www.w3.org/2000/svg">
<path opacity="0.9" d="M7.376 124.56V128.32C7.376 128.528 7.296 128.576 7.056 128.576C6.8 128.608 5.936 128.608 5.008 128.56C5.2 128.864 5.424 129.296 5.504 129.616C6.64 129.616 7.408 129.616 7.92 129.44C8.416 129.28 8.576 128.976 8.576 128.352V124.56H7.376ZM11.248 127.52C9.264 129.824 4.944 131.008 0.608 131.552C0.848 131.808 1.216 132.336 1.36 132.624C5.632 131.936 10.112 130.656 12.4 128.032L11.248 127.52ZM4.32 125.408C3.504 126.624 2.176 127.776 0.848 128.528C1.12 128.72 1.584 129.152 1.792 129.36C3.12 128.512 4.56 127.168 5.488 125.776L4.32 125.408ZM10.752 125.904C12.032 126.816 13.568 128.144 14.272 129.024L15.296 128.352C14.528 127.456 12.976 126.176 11.696 125.312L10.752 125.904ZM3.856 131.152V139.312H5.024V132.112H12.032V139.232H13.248V131.152H3.856ZM4.432 133.392V134.272H12.576V133.392H4.432ZM4.432 135.6V136.48H12.576V135.6H4.432ZM4.432 137.792V138.736H12.576V137.792H4.432ZM20.624 130.208V131.344H31.744V130.208H20.624ZM25.808 130.64V137.808C25.808 138.064 25.696 138.144 25.408 138.16C25.072 138.16 23.952 138.176 22.768 138.128C22.944 138.464 23.136 138.976 23.2 139.312C24.72 139.312 25.68 139.296 26.256 139.12C26.832 138.928 27.024 138.576 27.024 137.824V130.64H25.808ZM19.152 126.56V127.712H31.856V126.56H19.152ZM18.496 126.56V130.864C18.496 133.136 18.368 136.336 17.088 138.592C17.376 138.704 17.904 139.056 18.128 139.248C19.472 136.864 19.68 133.296 19.68 130.88V126.56H18.496ZM24.464 124.576V127.184H25.696V124.576H24.464ZM33.328 138H34.832L36.896 131.44C37.328 130.128 37.696 128.848 38.08 127.488H38.144C38.528 128.848 38.896 130.128 39.312 131.44L41.376 138H42.928L38.96 126.272H37.296L33.328 138ZM35.408 134.416H40.816V133.248H35.408V134.416Z" fill="#1A1A1C"/>
<path opacity="0.9" d="M7.376 70.56V74.32C7.376 74.528 7.296 74.576 7.056 74.576C6.8 74.608 5.936 74.608 5.008 74.56C5.2 74.864 5.424 75.296 5.504 75.616C6.64 75.616 7.408 75.616 7.92 75.44C8.416 75.28 8.576 74.976 8.576 74.352V70.56H7.376ZM11.248 73.52C9.264 75.824 4.944 77.008 0.608 77.552C0.848 77.808 1.216 78.336 1.36 78.624C5.632 77.936 10.112 76.656 12.4 74.032L11.248 73.52ZM4.32 71.408C3.504 72.624 2.176 73.776 0.848 74.528C1.12 74.72 1.584 75.152 1.792 75.36C3.12 74.512 4.56 73.168 5.488 71.776L4.32 71.408ZM10.752 71.904C12.032 72.816 13.568 74.144 14.272 75.024L15.296 74.352C14.528 73.456 12.976 72.176 11.696 71.312L10.752 71.904ZM3.856 77.152V85.312H5.024V78.112H12.032V85.232H13.248V77.152H3.856ZM4.432 79.392V80.272H12.576V79.392H4.432ZM4.432 81.6V82.48H12.576V81.6H4.432ZM4.432 83.792V84.736H12.576V83.792H4.432ZM20.624 76.208V77.344H31.744V76.208H20.624ZM25.808 76.64V83.808C25.808 84.064 25.696 84.144 25.408 84.16C25.072 84.16 23.952 84.176 22.768 84.128C22.944 84.464 23.136 84.976 23.2 85.312C24.72 85.312 25.68 85.296 26.256 85.12C26.832 84.928 27.024 84.576 27.024 83.824V76.64H25.808ZM19.152 72.56V73.712H31.856V72.56H19.152ZM18.496 72.56V76.864C18.496 79.136 18.368 82.336 17.088 84.592C17.376 84.704 17.904 85.056 18.128 85.248C19.472 82.864 19.68 79.296 19.68 76.88V72.56H18.496ZM24.464 70.576V73.184H25.696V70.576H24.464ZM44.8 76.656V72.864C44.8 72.24 44.864 71.728 44.88 71.568H43.424C43.456 71.712 43.504 72.24 43.504 72.864V76.752C43.504 81.248 42.064 82.624 39.152 83.728L40.224 84.752C43.872 83.104 44.8 80.912 44.8 76.656ZM39.024 71.664H37.6C37.648 72.032 37.68 72.48 37.68 72.816V78.688C37.68 79.296 37.616 79.984 37.6 80.128H39.024C39.008 79.984 38.96 79.28 38.96 78.688V72.816C38.96 72.272 39.008 71.808 39.024 71.664ZM34.352 74.768V76.144C34.528 76.144 35.248 76.096 35.952 76.096H46.56C47.264 76.096 47.84 76.128 48.016 76.144V74.784C47.792 74.816 47.264 74.88 46.544 74.88H35.952C35.28 74.88 34.496 74.784 34.352 74.768ZM51.296 78.224L51.92 79.472C54.496 78.672 57.04 77.504 58.8 76.416C60.672 75.248 62.352 73.904 63.728 72.48L62.656 71.472C61.552 72.816 59.952 74.192 58.272 75.248C56.496 76.352 54.064 77.488 51.296 78.224ZM58.016 75.904V82.8C58.016 83.392 57.968 84.192 57.92 84.496H59.504C59.424 84.192 59.392 83.392 59.392 82.8V75.488L58.016 75.904ZM71.936 82.592C71.936 83.184 71.92 83.984 71.84 84.496H73.392C73.328 83.968 73.296 83.104 73.296 82.592C73.296 81.84 73.28 75.776 73.28 73.296C73.28 72.8 73.328 72.112 73.392 71.616H71.824C71.904 72.128 71.936 72.832 71.936 73.296C71.936 74.624 71.936 81.696 71.936 82.592ZM72.992 75.824V77.232C74.736 77.776 77.728 78.912 79.552 79.888L80.112 78.528C78.336 77.664 75.104 76.432 72.992 75.824Z" fill="#1A1A1C"/>
<path d="M1 105V94H345V105" stroke="#1A1A1C"/>
<path d="M1 43V32H722V43" stroke="#1A1A1C"/>
<path opacity="0.9" d="M3.872 10.776V11.848H12.08V10.776H3.872ZM4.32 14.12V15.176H11.696V14.12H4.32ZM3.632 17.88V18.904H12.432V17.88H3.632ZM7.344 11.112V18.424H8.464V11.112H7.344ZM9.472 15.88C10.048 16.424 10.736 17.208 11.056 17.704L11.872 17.208C11.552 16.712 10.848 15.976 10.24 15.448L9.472 15.88ZM1.36 8.296V22.296H2.576V9.4H13.344V22.296H14.624V8.296H1.36ZM2.016 20.376V21.48H13.936V20.376H2.016ZM25.648 10.088L24.32 10.056C24.16 11.72 23.824 13.528 23.36 15.048C22.544 17.752 21.68 18.84 20.928 18.84C20.208 18.84 19.296 17.944 19.296 15.928C19.296 13.576 21.488 10.68 25.008 10.68C28.08 10.68 29.856 12.792 29.856 15.352C29.856 18.12 27.84 19.656 25.792 20.12C25.408 20.2 24.928 20.264 24.416 20.312L25.152 21.496C28.96 21 31.168 18.76 31.168 15.416C31.168 12.168 28.784 9.528 25.04 9.528C21.12 9.528 18.032 12.552 18.032 16.024C18.032 18.68 19.456 20.312 20.896 20.312C22.368 20.312 23.648 18.616 24.624 15.336C25.12 13.624 25.44 11.752 25.648 10.088ZM40.24 8.536V9.688H48.096V8.536H40.24ZM44.912 13.304V20.728C44.912 21 44.816 21.064 44.496 21.08C44.208 21.096 43.136 21.096 42 21.064C42.176 21.416 42.336 21.912 42.384 22.248C43.952 22.248 44.864 22.232 45.408 22.056C45.952 21.864 46.128 21.496 46.128 20.744V13.304H44.912ZM39.536 12.952V14.088H48.56V12.952H39.536ZM36.336 14.184V22.328H37.536V13.208L37.392 13.144L36.336 14.184ZM38.192 10.984C37.088 12.824 35.328 14.68 33.664 15.864C33.92 16.088 34.336 16.616 34.512 16.856C36.192 15.512 38.08 13.448 39.328 11.416L38.192 10.984ZM37.536 7.56C36.72 8.712 35.168 10.152 33.84 11.048C34.048 11.288 34.368 11.752 34.544 12.008C35.968 10.984 37.616 9.432 38.688 8.024L37.536 7.56ZM50.72 8.696V9.848H58.08V8.696H50.72ZM54.672 13.368V14.52H57.488V13.368H54.672ZM54.128 9.32V19.432H55.296V9.32H54.128ZM51.408 12.28V19.88H52.496V12.28H51.408ZM50.448 19.608L50.672 20.808C52.672 20.36 55.504 19.704 58.176 19.064L58.064 17.96C55.28 18.584 52.32 19.256 50.448 19.608ZM59.168 10.552V11.672H65.264V10.552H59.168ZM59.712 7.56C59.216 10.296 58.336 12.936 57.008 14.6C57.296 14.776 57.776 15.176 57.984 15.4C59.328 13.56 60.32 10.76 60.912 7.768L59.712 7.56ZM63.04 11.128C62.352 16.2 60.784 19.448 57.008 21.272C57.232 21.528 57.6 22.04 57.712 22.328C61.712 20.216 63.424 16.776 64.24 11.256L63.04 11.128ZM59.68 11.576L58.624 11.768C59.504 16.664 61.184 20.504 64.576 22.296C64.768 21.976 65.136 21.512 65.408 21.272C62.16 19.752 60.464 16.04 59.68 11.576ZM78.08 13.656V9.864C78.08 9.24 78.144 8.728 78.16 8.568H76.704C76.736 8.712 76.784 9.24 76.784 9.864V13.752C76.784 18.248 75.344 19.624 72.432 20.728L73.504 21.752C77.152 20.104 78.08 17.912 78.08 13.656ZM72.304 8.664H70.88C70.928 9.032 70.96 9.48 70.96 9.816V15.688C70.96 16.296 70.896 16.984 70.88 17.128H72.304C72.288 16.984 72.24 16.28 72.24 15.688V9.816C72.24 9.272 72.288 8.808 72.304 8.664ZM67.632 11.768V13.144C67.808 13.144 68.528 13.096 69.232 13.096H79.84C80.544 13.096 81.12 13.128 81.296 13.144V11.784C81.072 11.816 80.544 11.88 79.824 11.88H69.232C68.56 11.88 67.776 11.784 67.632 11.768ZM84.816 14.072V15.64C85.328 15.608 86.176 15.576 87.056 15.576C88.24 15.576 94.624 15.576 95.84 15.576C96.544 15.576 97.216 15.624 97.552 15.64V14.072C97.184 14.104 96.624 14.168 95.824 14.168C94.64 14.168 88.224 14.168 87.056 14.168C86.144 14.168 85.312 14.12 84.816 14.072ZM111.488 8.472L110.64 8.84C111.072 9.448 111.6 10.408 111.92 11.048L112.784 10.664C112.464 10.008 111.888 9.048 111.488 8.472ZM113.232 7.832L112.4 8.2C112.848 8.792 113.376 9.704 113.712 10.392L114.576 10.008C114.272 9.416 113.664 8.424 113.232 7.832ZM104.304 9H102.816C102.88 9.384 102.912 9.912 102.912 10.296C102.912 11.16 102.912 17.56 102.912 19.096C102.912 20.408 103.6 20.968 104.816 21.192C105.488 21.304 106.432 21.336 107.392 21.336C109.136 21.336 111.536 21.224 112.928 21.016V19.544C111.584 19.896 109.136 20.056 107.44 20.056C106.656 20.056 105.84 20.024 105.328 19.928C104.56 19.784 104.208 19.576 104.208 18.744C104.208 17.592 104.208 11.16 104.208 10.296C104.208 9.848 104.256 9.384 104.304 9ZM103.616 14.056L103.632 15.384C105.6 14.888 108.768 13.96 110.752 13.16C111.232 12.968 111.808 12.712 112.272 12.52L111.712 11.24C111.248 11.528 110.784 11.752 110.304 11.976C108.448 12.76 105.552 13.64 103.616 14.056ZM129.264 10.312L128.464 9.688C128.208 9.768 127.776 9.816 127.264 9.816C126.656 9.816 121.712 9.816 121.088 9.816C120.592 9.816 119.68 9.752 119.472 9.72V11.16C119.648 11.144 120.512 11.08 121.088 11.08C121.632 11.08 126.752 11.08 127.328 11.08C126.912 12.408 125.744 14.312 124.656 15.544C123.008 17.368 120.656 19.288 118.064 20.28L119.088 21.352C121.616 20.2 123.904 18.296 125.696 16.296C127.024 14.824 128.24 12.584 128.88 11C128.96 10.792 129.168 10.44 129.264 10.312ZM125.904 15.464L124.992 16.36C126.72 17.88 128.592 19.928 129.744 21.448L130.848 20.472C129.76 19.144 127.632 16.904 125.904 15.464Z" fill="#1A1A1C"/>
<path opacity="0.9" d="M130.376 124.56V128.32C130.376 128.528 130.296 128.576 130.056 128.576C129.8 128.608 128.936 128.608 128.008 128.56C128.2 128.864 128.424 129.296 128.504 129.616C129.64 129.616 130.408 129.616 130.92 129.44C131.416 129.28 131.576 128.976 131.576 128.352V124.56H130.376ZM134.248 127.52C132.264 129.824 127.944 131.008 123.608 131.552C123.848 131.808 124.216 132.336 124.36 132.624C128.632 131.936 133.112 130.656 135.4 128.032L134.248 127.52ZM127.32 125.408C126.504 126.624 125.176 127.776 123.848 128.528C124.12 128.72 124.584 129.152 124.792 129.36C126.12 128.512 127.56 127.168 128.488 125.776L127.32 125.408ZM133.752 125.904C135.032 126.816 136.568 128.144 137.272 129.024L138.296 128.352C137.528 127.456 135.976 126.176 134.696 125.312L133.752 125.904ZM126.856 131.152V139.312H128.024V132.112H135.032V139.232H136.248V131.152H126.856ZM127.432 133.392V134.272H135.576V133.392H127.432ZM127.432 135.6V136.48H135.576V135.6H127.432ZM127.432 137.792V138.736H135.576V137.792H127.432ZM143.624 130.208V131.344H154.744V130.208H143.624ZM148.808 130.64V137.808C148.808 138.064 148.696 138.144 148.408 138.16C148.072 138.16 146.952 138.176 145.768 138.128C145.944 138.464 146.136 138.976 146.2 139.312C147.72 139.312 148.68 139.296 149.256 139.12C149.832 138.928 150.024 138.576 150.024 137.824V130.64H148.808ZM142.152 126.56V127.712H154.856V126.56H142.152ZM141.496 126.56V130.864C141.496 133.136 141.368 136.336 140.088 138.592C140.376 138.704 140.904 139.056 141.128 139.248C142.472 136.864 142.68 133.296 142.68 130.88V126.56H141.496ZM147.464 124.576V127.184H148.696V124.576H147.464ZM157.88 138H161.624C164.232 138 166.056 136.864 166.056 134.576C166.056 132.976 165.08 132.032 163.672 131.76V131.696C164.776 131.328 165.384 130.304 165.384 129.152C165.384 127.088 163.736 126.272 161.352 126.272H157.88V138ZM159.368 131.264V127.44H161.176C163 127.44 163.928 127.952 163.928 129.328C163.928 130.528 163.112 131.264 161.096 131.264H159.368ZM159.368 136.832V132.4H161.416C163.464 132.4 164.616 133.072 164.616 134.528C164.616 136.112 163.416 136.832 161.416 136.832H159.368Z" fill="#1A1A1C"/>
<path opacity="0.9" d="M253.376 124.56V128.32C253.376 128.528 253.296 128.576 253.056 128.576C252.8 128.608 251.936 128.608 251.008 128.56C251.2 128.864 251.424 129.296 251.504 129.616C252.64 129.616 253.408 129.616 253.92 129.44C254.416 129.28 254.576 128.976 254.576 128.352V124.56H253.376ZM257.248 127.52C255.264 129.824 250.944 131.008 246.608 131.552C246.848 131.808 247.216 132.336 247.36 132.624C251.632 131.936 256.112 130.656 258.4 128.032L257.248 127.52ZM250.32 125.408C249.504 126.624 248.176 127.776 246.848 128.528C247.12 128.72 247.584 129.152 247.792 129.36C249.12 128.512 250.56 127.168 251.488 125.776L250.32 125.408ZM256.752 125.904C258.032 126.816 259.568 128.144 260.272 129.024L261.296 128.352C260.528 127.456 258.976 126.176 257.696 125.312L256.752 125.904ZM249.856 131.152V139.312H251.024V132.112H258.032V139.232H259.248V131.152H249.856ZM250.432 133.392V134.272H258.576V133.392H250.432ZM250.432 135.6V136.48H258.576V135.6H250.432ZM250.432 137.792V138.736H258.576V137.792H250.432ZM266.624 130.208V131.344H277.744V130.208H266.624ZM271.808 130.64V137.808C271.808 138.064 271.696 138.144 271.408 138.16C271.072 138.16 269.952 138.176 268.768 138.128C268.944 138.464 269.136 138.976 269.2 139.312C270.72 139.312 271.68 139.296 272.256 139.12C272.832 138.928 273.024 138.576 273.024 137.824V130.64H271.808ZM265.152 126.56V127.712H277.856V126.56H265.152ZM264.496 126.56V130.864C264.496 133.136 264.368 136.336 263.088 138.592C263.376 138.704 263.904 139.056 264.128 139.248C265.472 136.864 265.68 133.296 265.68 130.88V126.56H264.496ZM270.464 124.576V127.184H271.696V124.576H270.464ZM285.312 138.224C286.832 138.224 287.968 137.616 288.896 136.528L288.096 135.6C287.344 136.432 286.48 136.912 285.376 136.912C283.136 136.912 281.728 135.072 281.728 132.112C281.728 129.184 283.2 127.36 285.424 127.36C286.416 127.36 287.2 127.808 287.808 128.464L288.624 127.504C287.936 126.752 286.832 126.064 285.408 126.064C282.432 126.064 280.208 128.368 280.208 132.144C280.208 135.952 282.384 138.224 285.312 138.224Z" fill="#1A1A1C"/>
<rect x="0.5" y="155.5" width="98" height="216" fill="white"/>
<rect y="310" width="99" height="62" fill="#F1F1F4"/>
<rect x="11" y="219" width="76" height="6" rx="3" fill="#F1F1F4"/>
<rect x="29" y="171" width="58" height="6" rx="3" fill="#F1F1F4"/>
<rect x="11" y="200" width="56" height="10" rx="5" fill="#F1F1F4"/>
<rect x="11" y="239" width="56" height="6" rx="3" fill="#F1F1F4"/>
<rect x="11" y="229" width="61" height="6" rx="3" fill="#F1F1F4"/>
<rect x="11" y="255" width="23" height="10" rx="5" fill="#0017C1"/>
<rect x="11" y="168" width="12" height="12" rx="6" fill="#1A1A1C"/>
<rect x="0.5" y="155.5" width="98" height="216" stroke="#D8D8DB"/>
<rect x="379.5" y="155.5" width="98" height="216" fill="white"/>
<rect x="379" y="310" width="99" height="62" fill="#F1F1F4"/>
<rect x="390" y="219" width="76" height="6" rx="3" fill="#F1F1F4"/>
<rect x="408" y="171" width="58" height="6" rx="3" fill="#F1F1F4"/>
<rect x="390" y="200" width="56" height="10" rx="5" fill="#F1F1F4"/>
<rect x="390" y="239" width="56" height="6" rx="3" fill="#F1F1F4"/>
<rect x="390" y="229" width="61" height="6" rx="3" fill="#F1F1F4"/>
<rect x="390" y="255" width="23" height="10" rx="5" fill="#0017C1"/>
<rect x="390" y="168" width="12" height="12" rx="2" fill="#1A1A1C"/>
<rect x="379.5" y="155.5" width="98" height="216" stroke="#D8D8DB"/>
<rect x="123.5" y="155.5" width="98" height="216" fill="white"/>
<rect x="123" y="310" width="99" height="62" fill="#F1F1F4"/>
<rect x="134" y="219" width="76" height="6" rx="3" fill="#F1F1F4"/>
<rect x="152" y="171" width="58" height="6" rx="3" fill="#F1F1F4"/>
<rect x="134" y="200" width="56" height="10" rx="5" fill="#F1F1F4"/>
<rect x="134" y="239" width="56" height="6" rx="3" fill="#F1F1F4"/>
<rect x="134" y="229" width="61" height="6" rx="3" fill="#F1F1F4"/>
<rect x="134" y="255" width="23" height="10" rx="5" fill="#0017C1"/>
<rect x="134" y="168" width="12" height="12" rx="6" fill="#1A1A1C"/>
<rect x="123.5" y="155.5" width="98" height="216" stroke="#D8D8DB"/>
<rect x="502.5" y="155.5" width="98" height="216" fill="white"/>
<rect x="502" y="310" width="99" height="62" fill="#F1F1F4"/>
<rect x="513" y="219" width="76" height="6" rx="3" fill="#F1F1F4"/>
<rect x="531" y="171" width="58" height="6" rx="3" fill="#F1F1F4"/>
<rect x="513" y="200" width="56" height="10" rx="5" fill="#F1F1F4"/>
<rect x="513" y="239" width="56" height="6" rx="3" fill="#F1F1F4"/>
<rect x="513" y="229" width="61" height="6" rx="3" fill="#F1F1F4"/>
<rect x="513" y="255" width="23" height="10" rx="5" fill="#0017C1"/>
<rect x="513" y="168" width="12" height="12" rx="2" fill="#1A1A1C"/>
<rect x="502.5" y="155.5" width="98" height="216" stroke="#D8D8DB"/>
<rect x="246.5" y="155.5" width="98" height="216" fill="white"/>
<rect x="246" y="310" width="99" height="62" fill="#F1F1F4"/>
<rect x="257" y="219" width="76" height="6" rx="3" fill="#F1F1F4"/>
<rect x="275" y="171" width="58" height="6" rx="3" fill="#F1F1F4"/>
<rect x="257" y="200" width="56" height="10" rx="5" fill="#F1F1F4"/>
<rect x="257" y="239" width="56" height="6" rx="3" fill="#F1F1F4"/>
<rect x="257" y="229" width="61" height="6" rx="3" fill="#F1F1F4"/>
<rect x="257" y="255" width="23" height="10" rx="5" fill="#0017C1"/>
<rect x="257" y="168" width="12" height="12" rx="6" fill="#1A1A1C"/>
<rect x="246.5" y="155.5" width="98" height="216" stroke="#D8D8DB"/>
<rect x="625.5" y="155.5" width="98" height="216" fill="white"/>
<rect x="625" y="310" width="99" height="62" fill="#F1F1F4"/>
<rect x="636" y="219" width="76" height="6" rx="3" fill="#F1F1F4"/>
<rect x="654" y="171" width="58" height="6" rx="3" fill="#F1F1F4"/>
<rect x="636" y="200" width="56" height="10" rx="5" fill="#F1F1F4"/>
<rect x="636" y="239" width="56" height="6" rx="3" fill="#F1F1F4"/>
<rect x="636" y="229" width="61" height="6" rx="3" fill="#F1F1F4"/>
<rect x="636" y="255" width="23" height="10" rx="5" fill="#0017C1"/>
<rect x="636" y="168" width="12" height="12" rx="2" fill="#1A1A1C"/>
<rect x="625.5" y="155.5" width="98" height="216" stroke="#D8D8DB"/>
</svg>
