<svg width="569" height="111" viewBox="0 0 569 111" fill="none" xmlns="http://www.w3.org/2000/svg">
    <rect width="244" height="68" transform="translate(24 21)" fill="white" />
    <rect x="48" y="37" width="36" height="36" rx="18" fill="#1A1A1C" />
    <path
    opacity="0.9"
    d="M112.992 53.224C115.728 53.224 117.344 51.576 117.344 49.64C117.344 47.928 116.4 47.016 114.96 46.424L113.408 45.768C112.4 45.368 111.568 45.064 111.568 44.216C111.568 43.432 112.224 42.968 113.264 42.968C114.24 42.968 115.024 43.32 115.776 43.944L116.976 42.456C116.016 41.48 114.64 40.936 113.264 40.936C110.864 40.936 109.168 42.424 109.168 44.36C109.168 46.088 110.368 47.048 111.568 47.544L113.152 48.216C114.208 48.664 114.928 48.936 114.928 49.816C114.928 50.648 114.272 51.176 113.04 51.176C112 51.176 110.88 50.648 110.032 49.864L108.672 51.496C109.824 52.6 111.408 53.224 112.992 53.224ZM123.792 53.224C124.896 53.224 126.032 52.84 126.912 52.232L126.112 50.792C125.472 51.192 124.832 51.416 124.096 51.416C122.768 51.416 121.808 50.648 121.616 49.176H127.136C127.2 48.968 127.248 48.536 127.248 48.088C127.248 45.624 125.968 43.816 123.504 43.816C121.376 43.816 119.328 45.624 119.328 48.52C119.328 51.48 121.28 53.224 123.792 53.224ZM121.584 47.608C121.76 46.312 122.592 45.64 123.536 45.64C124.688 45.64 125.232 46.408 125.232 47.608H121.584ZM129.825 53H132.177V46.84C132.801 46.168 133.377 45.832 133.889 45.832C134.737 45.832 135.153 46.312 135.153 47.704V53H137.489V46.84C138.129 46.168 138.705 45.832 139.217 45.832C140.065 45.832 140.465 46.312 140.465 47.704V53H142.817V47.416C142.817 45.16 141.937 43.816 140.033 43.816C138.865 43.816 138.001 44.52 137.185 45.384C136.753 44.392 136.001 43.816 134.721 43.816C133.553 43.816 132.721 44.456 131.969 45.24H131.921L131.745 44.04H129.825V53ZM148.095 53.224C149.119 53.224 150.015 52.712 150.799 52.04H150.863L151.023 53H152.943V47.768C152.943 45.176 151.775 43.816 149.503 43.816C148.095 43.816 146.815 44.344 145.759 45L146.607 46.552C147.439 46.072 148.239 45.704 149.071 45.704C150.175 45.704 150.559 46.376 150.607 47.256C146.991 47.64 145.439 48.648 145.439 50.568C145.439 52.088 146.495 53.224 148.095 53.224ZM148.863 51.384C148.175 51.384 147.679 51.08 147.679 50.376C147.679 49.576 148.415 48.968 150.607 48.696V50.504C150.031 51.064 149.535 51.384 148.863 51.384ZM155.98 53H158.332V46.84C158.988 46.184 159.452 45.832 160.188 45.832C161.068 45.832 161.452 46.312 161.452 47.704V53H163.804V47.416C163.804 45.16 162.972 43.816 161.036 43.816C159.82 43.816 158.908 44.456 158.124 45.224H158.076L157.9 44.04H155.98V53ZM170.15 53.224C170.934 53.224 171.558 53.048 172.038 52.888L171.654 51.176C171.414 51.272 171.062 51.368 170.774 51.368C169.974 51.368 169.558 50.888 169.558 49.864V45.896H171.766V44.04H169.558V41.624H167.606L167.334 44.04L165.942 44.152V45.896H167.206V49.864C167.206 51.864 168.022 53.224 170.15 53.224ZM174.229 53H176.581V44.04H174.229V53ZM175.413 42.6C176.213 42.6 176.773 42.088 176.773 41.304C176.773 40.536 176.213 40.024 175.413 40.024C174.597 40.024 174.037 40.536 174.037 41.304C174.037 42.088 174.597 42.6 175.413 42.6ZM183.536 53.224C184.528 53.224 185.616 52.888 186.48 52.136L185.536 50.584C185.04 51 184.432 51.304 183.792 51.304C182.512 51.304 181.568 50.216 181.568 48.52C181.568 46.84 182.496 45.736 183.872 45.736C184.368 45.736 184.784 45.944 185.232 46.328L186.352 44.808C185.696 44.248 184.848 43.816 183.744 43.816C181.312 43.816 179.168 45.544 179.168 48.52C179.168 51.496 181.056 53.224 183.536 53.224ZM196.879 53.224C197.871 53.224 198.959 52.888 199.823 52.136L198.879 50.584C198.383 51 197.775 51.304 197.135 51.304C195.855 51.304 194.911 50.216 194.911 48.52C194.911 46.84 195.839 45.736 197.215 45.736C197.711 45.736 198.127 45.944 198.575 46.328L199.695 44.808C199.039 44.248 198.191 43.816 197.087 43.816C194.655 43.816 192.511 45.544 192.511 48.52C192.511 51.496 194.399 53.224 196.879 53.224ZM205.408 53.224C207.648 53.224 209.712 51.496 209.712 48.52C209.712 45.544 207.648 43.816 205.408 43.816C203.168 43.816 201.104 45.544 201.104 48.52C201.104 51.496 203.168 53.224 205.408 53.224ZM205.408 51.304C204.192 51.304 203.504 50.216 203.504 48.52C203.504 46.84 204.192 45.736 205.408 45.736C206.624 45.736 207.312 46.84 207.312 48.52C207.312 50.216 206.624 51.304 205.408 51.304ZM214.528 53.224C215.088 53.224 215.472 53.128 215.744 53.016L215.456 51.272C215.296 51.304 215.232 51.304 215.136 51.304C214.912 51.304 214.672 51.128 214.672 50.584V40.232H212.32V50.488C212.32 52.152 212.896 53.224 214.528 53.224ZM221.751 53.224C223.991 53.224 226.055 51.496 226.055 48.52C226.055 45.544 223.991 43.816 221.751 43.816C219.511 43.816 217.447 45.544 217.447 48.52C217.447 51.496 219.511 53.224 221.751 53.224ZM221.751 51.304C220.535 51.304 219.847 50.216 219.847 48.52C219.847 46.84 220.535 45.736 221.751 45.736C222.967 45.736 223.655 46.84 223.655 48.52C223.655 50.216 222.967 51.304 221.751 51.304ZM228.662 53H231.014V47.656C231.51 46.36 232.358 45.896 233.062 45.896C233.43 45.896 233.686 45.944 234.006 46.04L234.406 44.008C234.134 43.896 233.846 43.816 233.35 43.816C232.422 43.816 231.462 44.456 230.806 45.624H230.758L230.582 44.04H228.662V53Z"
    fill="#1A1A1C"
    />
    <path
    opacity="0.9"
    d="M109.204 74.122H110.828V71.63L110.772 70.328C111.416 70.888 112.116 71.196 112.802 71.196C114.538 71.196 116.12 69.67 116.12 67.038C116.12 64.658 115.014 63.104 113.068 63.104C112.2 63.104 111.374 63.58 110.702 64.154H110.66L110.52 63.3H109.204V74.122ZM112.494 69.852C112.018 69.852 111.43 69.67 110.828 69.152V65.386C111.472 64.77 112.046 64.448 112.634 64.448C113.922 64.448 114.454 65.442 114.454 67.052C114.454 68.858 113.6 69.852 112.494 69.852ZM118.582 71H120.206V66.212C120.682 64.994 121.438 64.546 122.054 64.546C122.376 64.546 122.572 64.588 122.838 64.672L123.118 63.272C122.88 63.16 122.642 63.104 122.264 63.104C121.438 63.104 120.626 63.692 120.08 64.686H120.038L119.898 63.3H118.582V71ZM124.871 71H126.495V63.3H124.871V71ZM125.683 61.858C126.271 61.858 126.691 61.48 126.691 60.892C126.691 60.318 126.271 59.94 125.683 59.94C125.081 59.94 124.689 60.318 124.689 60.892C124.689 61.48 125.081 61.858 125.683 61.858ZM129.464 71H131.088V65.54C131.704 64.84 132.292 64.504 132.81 64.504C133.692 64.504 134.098 65.022 134.098 66.366V71H135.708V65.54C136.352 64.84 136.912 64.504 137.444 64.504C138.312 64.504 138.718 65.022 138.718 66.366V71H140.328V66.156C140.328 64.21 139.586 63.104 137.976 63.104C137.01 63.104 136.226 63.72 135.456 64.518C135.134 63.636 134.49 63.104 133.342 63.104C132.39 63.104 131.62 63.678 130.962 64.378H130.92L130.78 63.3H129.464V71ZM143.231 71H144.855V63.3H143.231V71ZM144.043 61.858C144.631 61.858 145.051 61.48 145.051 60.892C145.051 60.318 144.631 59.94 144.043 59.94C143.441 59.94 143.049 60.318 143.049 60.892C143.049 61.48 143.441 61.858 144.043 61.858ZM150.414 71.196C150.988 71.196 151.506 71.042 151.94 70.902L151.646 69.712C151.408 69.81 151.086 69.908 150.82 69.908C150.022 69.908 149.686 69.418 149.686 68.508V64.588H151.702V63.3H149.686V61.172H148.342L148.16 63.3L146.956 63.384V64.588H148.076V68.494C148.076 70.104 148.692 71.196 150.414 71.196ZM153.935 71H155.559V63.3H153.935V71ZM154.747 61.858C155.335 61.858 155.755 61.48 155.755 60.892C155.755 60.318 155.335 59.94 154.747 59.94C154.145 59.94 153.753 60.318 153.753 60.892C153.753 61.48 154.145 61.858 154.747 61.858ZM160.222 71H162.098L164.758 63.3H163.19L161.874 67.444C161.65 68.2 161.426 68.984 161.202 69.74H161.132C160.908 68.984 160.684 68.2 160.46 67.444L159.158 63.3H157.506L160.222 71ZM169.8 71.196C170.808 71.196 171.69 70.86 172.404 70.384L171.844 69.348C171.27 69.712 170.696 69.922 170.01 69.922C168.68 69.922 167.756 69.054 167.63 67.584H172.628C172.67 67.388 172.698 67.08 172.698 66.758C172.698 64.574 171.592 63.104 169.562 63.104C167.77 63.104 166.048 64.658 166.048 67.164C166.048 69.698 167.7 71.196 169.8 71.196ZM167.602 66.464C167.77 65.12 168.624 64.378 169.59 64.378C170.71 64.378 171.298 65.134 171.298 66.464H167.602ZM181.911 71.196C182.807 71.196 183.717 70.86 184.417 70.244L183.759 69.166C183.297 69.558 182.723 69.866 182.079 69.866C180.791 69.866 179.909 68.788 179.909 67.164C179.909 65.526 180.819 64.448 182.135 64.448C182.653 64.448 183.087 64.672 183.507 65.036L184.291 64C183.745 63.496 183.031 63.104 182.051 63.104C180.021 63.104 178.243 64.588 178.243 67.164C178.243 69.712 179.839 71.196 181.911 71.196ZM189.237 71.196C191.141 71.196 192.863 69.712 192.863 67.164C192.863 64.588 191.141 63.104 189.237 63.104C187.319 63.104 185.611 64.588 185.611 67.164C185.611 69.712 187.319 71.196 189.237 71.196ZM189.237 69.866C188.019 69.866 187.277 68.788 187.277 67.164C187.277 65.526 188.019 64.448 189.237 64.448C190.441 64.448 191.211 65.526 191.211 67.164C191.211 68.788 190.441 69.866 189.237 69.866ZM196.927 71.196C197.333 71.196 197.585 71.126 197.795 71.056L197.585 69.838C197.445 69.866 197.389 69.866 197.319 69.866C197.123 69.866 196.941 69.712 196.941 69.278V59.856H195.317V69.194C195.317 70.44 195.751 71.196 196.927 71.196ZM203.14 71.196C205.044 71.196 206.766 69.712 206.766 67.164C206.766 64.588 205.044 63.104 203.14 63.104C201.222 63.104 199.514 64.588 199.514 67.164C199.514 69.712 201.222 71.196 203.14 71.196ZM203.14 69.866C201.922 69.866 201.18 68.788 201.18 67.164C201.18 65.526 201.922 64.448 203.14 64.448C204.344 64.448 205.114 65.526 205.114 67.164C205.114 68.788 204.344 69.866 203.14 69.866ZM209.22 71H210.844V66.212C211.32 64.994 212.076 64.546 212.692 64.546C213.014 64.546 213.21 64.588 213.476 64.672L213.756 63.272C213.518 63.16 213.28 63.104 212.902 63.104C212.076 63.104 211.264 63.692 210.718 64.686H210.676L210.536 63.3H209.22V71Z"
    fill="#626264"
    />
    <rect width="244" height="68" transform="translate(292 21)" fill="#1A1A1C" />
    <rect x="316" y="37" width="36" height="36" rx="18" fill="white" />
    <path
    opacity="0.9"
    d="M380.992 53.224C383.712 53.224 385.328 51.576 385.328 49.64C385.328 47.944 384.384 47.016 382.96 46.424L381.408 45.784C380.4 45.384 379.552 45.064 379.552 44.216C379.552 43.448 380.208 42.984 381.248 42.984C382.224 42.984 383.008 43.336 383.776 43.96L384.96 42.472C384 41.496 382.624 40.952 381.248 40.952C378.864 40.952 377.152 42.44 377.152 44.376C377.152 46.088 378.368 47.064 379.552 47.544L381.136 48.216C382.192 48.664 382.912 48.952 382.912 49.832C382.912 50.648 382.272 51.176 381.04 51.176C380 51.176 378.864 50.664 378.032 49.88L376.672 51.512C377.824 52.616 379.392 53.224 380.992 53.224ZM391.792 53.224C392.896 53.224 394.016 52.856 394.896 52.248L394.112 50.792C393.456 51.192 392.816 51.416 392.096 51.416C390.768 51.416 389.808 50.664 389.6 49.192H395.136C395.184 48.968 395.232 48.552 395.232 48.104C395.232 45.624 393.968 43.832 391.488 43.832C389.376 43.832 387.328 45.624 387.328 48.536C387.328 51.496 389.28 53.224 391.792 53.224ZM389.568 47.624C389.76 46.312 390.592 45.64 391.536 45.64C392.688 45.64 393.232 46.408 393.232 47.624H389.568ZM397.825 53H400.177V46.84C400.785 46.168 401.377 45.848 401.873 45.848C402.737 45.848 403.137 46.312 403.137 47.72V53H405.489V46.84C406.129 46.168 406.689 45.848 407.201 45.848C408.065 45.848 408.449 46.312 408.449 47.72V53H410.801V47.416C410.801 45.176 409.937 43.832 408.033 43.832C406.865 43.832 406.001 44.536 405.169 45.384C404.753 44.392 404.001 43.832 402.705 43.832C401.553 43.832 400.721 44.472 399.969 45.24H399.921L399.729 44.056H397.825V53ZM416.079 53.224C417.103 53.224 417.999 52.728 418.783 52.056H418.847L419.023 53H420.943V47.784C420.943 45.176 419.775 43.832 417.503 43.832C416.079 43.832 414.815 44.36 413.759 45L414.607 46.568C415.423 46.072 416.239 45.72 417.071 45.72C418.175 45.72 418.543 46.376 418.591 47.256C414.991 47.656 413.439 48.664 413.439 50.568C413.439 52.104 414.479 53.224 416.079 53.224ZM416.847 51.384C416.159 51.384 415.679 51.08 415.679 50.392C415.679 49.576 416.399 48.984 418.591 48.712V50.52C418.015 51.08 417.519 51.384 416.847 51.384ZM423.98 53H426.332V46.84C426.988 46.2 427.452 45.848 428.188 45.848C429.052 45.848 429.452 46.312 429.452 47.72V53H431.804V47.416C431.804 45.176 430.956 43.832 429.036 43.832C427.82 43.832 426.892 44.472 426.124 45.24H426.076L425.884 44.056H423.98V53ZM438.134 53.224C438.934 53.224 439.558 53.048 440.038 52.888L439.654 51.176C439.398 51.272 439.062 51.384 438.758 51.384C437.974 51.384 437.542 50.904 437.542 49.88V45.896H439.766V44.056H437.542V41.624H435.59L435.334 44.056L433.942 44.152V45.896H435.19V49.88C435.19 51.88 436.006 53.224 438.134 53.224ZM442.245 53H444.597V44.056H442.245V53ZM443.413 42.6C444.229 42.6 444.789 42.088 444.789 41.304C444.789 40.536 444.229 40.04 443.413 40.04C442.597 40.04 442.053 40.536 442.053 41.304C442.053 42.088 442.597 42.6 443.413 42.6ZM451.536 53.224C452.528 53.224 453.632 52.888 454.48 52.152L453.552 50.6C453.056 51 452.448 51.32 451.792 51.32C450.512 51.32 449.584 50.216 449.584 48.536C449.584 46.84 450.496 45.752 451.888 45.752C452.368 45.752 452.8 45.944 453.248 46.328L454.352 44.824C453.696 44.248 452.864 43.832 451.744 43.832C449.312 43.832 447.184 45.56 447.184 48.536C447.184 51.496 449.072 53.224 451.536 53.224ZM464.879 53.224C465.871 53.224 466.975 52.888 467.823 52.152L466.895 50.6C466.399 51 465.791 51.32 465.135 51.32C463.855 51.32 462.927 50.216 462.927 48.536C462.927 46.84 463.839 45.752 465.231 45.752C465.711 45.752 466.143 45.944 466.591 46.328L467.695 44.824C467.039 44.248 466.207 43.832 465.087 43.832C462.655 43.832 460.527 45.56 460.527 48.536C460.527 51.496 462.415 53.224 464.879 53.224ZM473.346 53.224C475.586 53.224 477.634 51.496 477.634 48.536C477.634 45.56 475.586 43.832 473.346 43.832C471.09 43.832 469.042 45.56 469.042 48.536C469.042 51.496 471.09 53.224 473.346 53.224ZM473.346 51.32C472.114 51.32 471.442 50.216 471.442 48.536C471.442 46.84 472.114 45.752 473.346 45.752C474.562 45.752 475.234 46.84 475.234 48.536C475.234 50.216 474.562 51.32 473.346 51.32ZM482.465 53.224C483.025 53.224 483.393 53.128 483.665 53.032L483.377 51.288C483.217 51.32 483.153 51.32 483.073 51.32C482.849 51.32 482.609 51.144 482.609 50.584V40.248H480.257V50.488C480.257 52.152 480.817 53.224 482.465 53.224ZM489.688 53.224C491.928 53.224 493.976 51.496 493.976 48.536C493.976 45.56 491.928 43.832 489.688 43.832C487.432 43.832 485.384 45.56 485.384 48.536C485.384 51.496 487.432 53.224 489.688 53.224ZM489.688 51.32C488.456 51.32 487.784 50.216 487.784 48.536C487.784 46.84 488.456 45.752 489.688 45.752C490.904 45.752 491.576 46.84 491.576 48.536C491.576 50.216 490.904 51.32 489.688 51.32ZM496.6 53H498.952V47.672C499.448 46.376 500.296 45.896 500.984 45.896C501.368 45.896 501.608 45.96 501.928 46.04L502.328 44.024C502.056 43.896 501.768 43.832 501.288 43.832C500.36 43.832 499.384 44.456 498.744 45.64H498.696L498.504 44.056H496.6V53Z"
    fill="white"
    />
    <path
    opacity="0.9"
    d="M377.204 74.122H378.828V71.63L378.772 70.328C379.416 70.888 380.116 71.196 380.802 71.196C382.538 71.196 384.12 69.67 384.12 67.038C384.12 64.658 383.014 63.104 381.068 63.104C380.2 63.104 379.374 63.58 378.702 64.154H378.66L378.52 63.3H377.204V74.122ZM380.494 69.852C380.018 69.852 379.43 69.67 378.828 69.152V65.386C379.472 64.77 380.046 64.448 380.634 64.448C381.922 64.448 382.454 65.442 382.454 67.052C382.454 68.858 381.6 69.852 380.494 69.852ZM386.582 71H388.206V66.212C388.682 64.994 389.438 64.546 390.054 64.546C390.376 64.546 390.572 64.588 390.838 64.672L391.118 63.272C390.88 63.16 390.642 63.104 390.264 63.104C389.438 63.104 388.626 63.692 388.08 64.686H388.038L387.898 63.3H386.582V71ZM392.871 71H394.495V63.3H392.871V71ZM393.683 61.858C394.271 61.858 394.691 61.48 394.691 60.892C394.691 60.318 394.271 59.94 393.683 59.94C393.081 59.94 392.689 60.318 392.689 60.892C392.689 61.48 393.081 61.858 393.683 61.858ZM397.464 71H399.088V65.54C399.704 64.84 400.292 64.504 400.81 64.504C401.692 64.504 402.098 65.022 402.098 66.366V71H403.708V65.54C404.352 64.84 404.912 64.504 405.444 64.504C406.312 64.504 406.718 65.022 406.718 66.366V71H408.328V66.156C408.328 64.21 407.586 63.104 405.976 63.104C405.01 63.104 404.226 63.72 403.456 64.518C403.134 63.636 402.49 63.104 401.342 63.104C400.39 63.104 399.62 63.678 398.962 64.378H398.92L398.78 63.3H397.464V71ZM411.231 71H412.855V63.3H411.231V71ZM412.043 61.858C412.631 61.858 413.051 61.48 413.051 60.892C413.051 60.318 412.631 59.94 412.043 59.94C411.441 59.94 411.049 60.318 411.049 60.892C411.049 61.48 411.441 61.858 412.043 61.858ZM418.414 71.196C418.988 71.196 419.506 71.042 419.94 70.902L419.646 69.712C419.408 69.81 419.086 69.908 418.82 69.908C418.022 69.908 417.686 69.418 417.686 68.508V64.588H419.702V63.3H417.686V61.172H416.342L416.16 63.3L414.956 63.384V64.588H416.076V68.494C416.076 70.104 416.692 71.196 418.414 71.196ZM421.935 71H423.559V63.3H421.935V71ZM422.747 61.858C423.335 61.858 423.755 61.48 423.755 60.892C423.755 60.318 423.335 59.94 422.747 59.94C422.145 59.94 421.753 60.318 421.753 60.892C421.753 61.48 422.145 61.858 422.747 61.858ZM428.222 71H430.098L432.758 63.3H431.19L429.874 67.444C429.65 68.2 429.426 68.984 429.202 69.74H429.132C428.908 68.984 428.684 68.2 428.46 67.444L427.158 63.3H425.506L428.222 71ZM437.8 71.196C438.808 71.196 439.69 70.86 440.404 70.384L439.844 69.348C439.27 69.712 438.696 69.922 438.01 69.922C436.68 69.922 435.756 69.054 435.63 67.584H440.628C440.67 67.388 440.698 67.08 440.698 66.758C440.698 64.574 439.592 63.104 437.562 63.104C435.77 63.104 434.048 64.658 434.048 67.164C434.048 69.698 435.7 71.196 437.8 71.196ZM435.602 66.464C435.77 65.12 436.624 64.378 437.59 64.378C438.71 64.378 439.298 65.134 439.298 66.464H435.602ZM449.911 71.196C450.807 71.196 451.717 70.86 452.417 70.244L451.759 69.166C451.297 69.558 450.723 69.866 450.079 69.866C448.791 69.866 447.909 68.788 447.909 67.164C447.909 65.526 448.819 64.448 450.135 64.448C450.653 64.448 451.087 64.672 451.507 65.036L452.291 64C451.745 63.496 451.031 63.104 450.051 63.104C448.021 63.104 446.243 64.588 446.243 67.164C446.243 69.712 447.839 71.196 449.911 71.196ZM457.237 71.196C459.141 71.196 460.863 69.712 460.863 67.164C460.863 64.588 459.141 63.104 457.237 63.104C455.319 63.104 453.611 64.588 453.611 67.164C453.611 69.712 455.319 71.196 457.237 71.196ZM457.237 69.866C456.019 69.866 455.277 68.788 455.277 67.164C455.277 65.526 456.019 64.448 457.237 64.448C458.441 64.448 459.211 65.526 459.211 67.164C459.211 68.788 458.441 69.866 457.237 69.866ZM464.927 71.196C465.333 71.196 465.585 71.126 465.795 71.056L465.585 69.838C465.445 69.866 465.389 69.866 465.319 69.866C465.123 69.866 464.941 69.712 464.941 69.278V59.856H463.317V69.194C463.317 70.44 463.751 71.196 464.927 71.196ZM471.14 71.196C473.044 71.196 474.766 69.712 474.766 67.164C474.766 64.588 473.044 63.104 471.14 63.104C469.222 63.104 467.514 64.588 467.514 67.164C467.514 69.712 469.222 71.196 471.14 71.196ZM471.14 69.866C469.922 69.866 469.18 68.788 469.18 67.164C469.18 65.526 469.922 64.448 471.14 64.448C472.344 64.448 473.114 65.526 473.114 67.164C473.114 68.788 472.344 69.866 471.14 69.866ZM477.22 71H478.844V66.212C479.32 64.994 480.076 64.546 480.692 64.546C481.014 64.546 481.21 64.588 481.476 64.672L481.756 63.272C481.518 63.16 481.28 63.104 480.902 63.104C480.076 63.104 479.264 63.692 478.718 64.686H478.676L478.536 63.3H477.22V71Z"
    fill="#B4B4B7"
    />
    <rect x="0.5" y="0.5" width="568" height="110" rx="4.5" stroke="#9747FF" stroke-dasharray="10 5" />
</svg>