<svg width="734" height="216" viewBox="0 0 734 216" fill="none" xmlns="http://www.w3.org/2000/svg">
<rect width="244" height="56" transform="translate(84)" fill="white"/>
<rect x="108" y="16" width="24" height="24" rx="12" fill="#1A3EE8"/>
<g opacity="0.9">
<path d="M149.584 35H150.96L151.392 31.528H153.392L152.992 35H154.384L154.8 31.528H156.528V30.008H154.976L155.264 27.816H156.88V26.296H155.44L155.824 23.208H154.432L154.048 26.296H152.016L152.4 23.208H151.024L150.64 26.296H148.992V27.816H150.448L150.176 30.008H148.624V31.528H149.984L149.584 35ZM151.552 30.008L151.824 27.816H153.856L153.584 30.008H151.552ZM162.798 35.224C165.214 35.224 166.798 33.112 166.798 29.192C166.798 25.288 165.214 23.256 162.798 23.256C160.35 23.256 158.782 25.272 158.782 29.192C158.782 33.112 160.35 35.224 162.798 35.224ZM162.798 33.384C161.774 33.384 161.006 32.408 161.006 29.192C161.006 25.976 161.774 25.08 162.798 25.08C163.822 25.08 164.574 25.976 164.574 29.192C164.574 32.408 163.822 33.384 162.798 33.384ZM172.875 35.224C175.291 35.224 176.875 33.112 176.875 29.192C176.875 25.288 175.291 23.256 172.875 23.256C170.427 23.256 168.859 25.272 168.859 29.192C168.859 33.112 170.427 35.224 172.875 35.224ZM172.875 33.384C171.851 33.384 171.083 32.408 171.083 29.192C171.083 25.976 171.851 25.08 172.875 25.08C173.899 25.08 174.651 25.976 174.651 29.192C174.651 32.408 173.899 33.384 172.875 33.384ZM179.529 35H186.665V33.096H184.441V23.464H182.697C181.929 23.928 181.129 24.232 179.929 24.472V25.928H182.089V33.096H179.529V35ZM191.27 35H193.654C193.862 30.504 194.278 28.2 196.966 24.92V23.464H189.11V25.448H194.438C192.23 28.504 191.494 31.032 191.27 35ZM204.66 35.224C206.196 35.224 207.46 34.632 208.436 33.496L207.188 32.008C206.564 32.696 205.764 33.176 204.756 33.176C202.868 33.176 201.668 31.64 201.668 29.048C201.668 26.52 203.012 24.984 204.788 24.984C205.7 24.984 206.372 25.384 206.98 25.976L208.228 24.456C207.46 23.656 206.26 22.952 204.756 22.952C201.748 22.952 199.252 25.224 199.252 29.128C199.252 33.08 201.668 35.224 204.66 35.224ZM210.824 35H217.96V33.096H215.736V23.464H213.992C213.224 23.928 212.424 24.232 211.224 24.472V25.928H213.384V33.096H210.824V35Z" fill="#1A1A1C"/>
</g>
<rect x="84.5" y="80.5" width="243" height="55" fill="white"/>
<rect x="108" y="96" width="24" height="24" rx="12" fill="#1A3EE8"/>
<path opacity="0.9" d="M151.824 115.224C154.144 115.224 155.376 113.976 155.376 112.392C155.376 110.744 154.08 110.136 152.896 109.688C151.936 109.352 151.12 109.096 151.12 108.456C151.12 107.928 151.488 107.576 152.304 107.576C152.96 107.576 153.6 107.896 154.224 108.344L155.296 106.936C154.56 106.36 153.536 105.832 152.24 105.832C150.192 105.832 148.912 106.968 148.912 108.552C148.912 110.072 150.176 110.744 151.312 111.192C152.24 111.544 153.184 111.864 153.184 112.52C153.184 113.08 152.768 113.48 151.872 113.48C151.04 113.48 150.288 113.112 149.472 112.488L148.416 113.976C149.296 114.712 150.624 115.224 151.824 115.224ZM161.73 115.224C162.834 115.224 163.954 114.856 164.834 114.248L164.05 112.792C163.394 113.192 162.754 113.416 162.034 113.416C160.706 113.416 159.746 112.664 159.538 111.192H165.074C165.122 110.968 165.17 110.552 165.17 110.104C165.17 107.624 163.906 105.832 161.426 105.832C159.314 105.832 157.266 107.624 157.266 110.536C157.266 113.496 159.218 115.224 161.73 115.224ZM159.506 109.624C159.698 108.312 160.53 107.64 161.474 107.64C162.626 107.64 163.17 108.408 163.17 109.624H159.506ZM169.642 115.224C170.666 115.224 171.562 114.728 172.346 114.056H172.41L172.586 115H174.506V109.784C174.506 107.176 173.338 105.832 171.066 105.832C169.642 105.832 168.378 106.36 167.322 107L168.17 108.568C168.986 108.072 169.802 107.72 170.634 107.72C171.738 107.72 172.106 108.376 172.154 109.256C168.554 109.656 167.002 110.664 167.002 112.568C167.002 114.104 168.042 115.224 169.642 115.224ZM170.41 113.384C169.722 113.384 169.242 113.08 169.242 112.392C169.242 111.576 169.962 110.984 172.154 110.712V112.52C171.578 113.08 171.082 113.384 170.41 113.384ZM177.047 111.272H181.431V109.592H177.047V111.272ZM187.545 115.224C189.929 115.224 191.529 113.864 191.529 112.072C191.529 110.52 190.617 109.656 189.545 109.048V108.968C190.297 108.44 191.065 107.512 191.065 106.392C191.065 104.504 189.721 103.256 187.625 103.256C185.561 103.256 184.041 104.456 184.041 106.376C184.041 107.576 184.729 108.424 185.609 109.08V109.144C184.537 109.72 183.593 110.632 183.593 112.072C183.593 113.928 185.273 115.224 187.545 115.224ZM188.297 108.408C187.065 107.912 186.121 107.432 186.121 106.376C186.121 105.416 186.761 104.904 187.577 104.904C188.553 104.904 189.145 105.576 189.145 106.536C189.145 107.208 188.841 107.816 188.297 108.408ZM187.593 113.56C186.489 113.56 185.609 112.872 185.609 111.8C185.609 110.984 186.073 110.28 186.713 109.784C188.217 110.424 189.337 110.824 189.337 111.976C189.337 113 188.617 113.56 187.593 113.56ZM197.639 115.224C200.055 115.224 201.639 113.112 201.639 109.192C201.639 105.288 200.055 103.256 197.639 103.256C195.191 103.256 193.623 105.272 193.623 109.192C193.623 113.112 195.191 115.224 197.639 115.224ZM197.639 113.384C196.615 113.384 195.847 112.408 195.847 109.192C195.847 105.976 196.615 105.08 197.639 105.08C198.663 105.08 199.415 105.976 199.415 109.192C199.415 112.408 198.663 113.384 197.639 113.384ZM207.716 115.224C210.132 115.224 211.716 113.112 211.716 109.192C211.716 105.288 210.132 103.256 207.716 103.256C205.268 103.256 203.7 105.272 203.7 109.192C203.7 113.112 205.268 115.224 207.716 115.224ZM207.716 113.384C206.692 113.384 205.924 112.408 205.924 109.192C205.924 105.976 206.692 105.08 207.716 105.08C208.74 105.08 209.492 105.976 209.492 109.192C209.492 112.408 208.74 113.384 207.716 113.384Z" fill="#1A1A1C"/>
<rect x="84.5" y="80.5" width="243" height="55" stroke="#D8D8DB"/>
<path opacity="0.9" d="M364.848 103.272C364.848 102.76 365.264 102.344 365.776 102.344C366.288 102.344 366.704 102.76 366.704 103.272C366.704 103.784 366.288 104.2 365.776 104.2C365.264 104.2 364.848 103.784 364.848 103.272ZM363.856 103.272C363.856 104.328 364.72 105.192 365.776 105.192C366.832 105.192 367.696 104.328 367.696 103.272C367.696 102.216 366.832 101.352 365.776 101.352C364.72 101.352 363.856 102.216 363.856 103.272ZM365.808 104.536L364.224 103.528C363.808 103.64 363.296 103.656 362.976 103.656C362.08 103.656 356.768 103.656 355.568 103.656C355.04 103.656 354.144 103.576 353.664 103.512V105.784C354.08 105.752 354.832 105.704 355.568 105.704C356.768 105.704 362.048 105.704 363.024 105.704C362.816 107.08 362.208 108.904 361.136 110.232C359.856 111.848 358.048 113.24 354.864 113.976L356.608 115.896C359.472 114.984 361.6 113.4 363.04 111.48C364.384 109.704 365.088 107.208 365.456 105.64C365.536 105.304 365.648 104.84 365.808 104.536ZM381.472 102.584H379.056C379.12 103.032 379.168 103.544 379.168 104.2C379.168 104.888 379.168 106.424 379.168 107.224C379.168 109.72 378.944 110.92 377.856 112.12C376.88 113.16 375.6 113.768 374 114.136L375.68 115.912C376.848 115.528 378.496 114.76 379.552 113.592C380.752 112.28 381.424 110.808 381.424 107.352C381.424 106.568 381.424 105.016 381.424 104.2C381.424 103.544 381.44 103.032 381.472 102.584ZM374.064 102.728H371.744C371.792 103.096 371.808 103.656 371.808 103.944C371.808 104.648 371.808 108.424 371.808 109.336C371.808 109.832 371.76 110.456 371.728 110.744H374.064C374.032 110.376 374 109.752 374 109.352C374 108.456 374 104.648 374 103.944C374 103.448 374.032 103.096 374.064 102.728ZM389.824 102.472L389.088 104.376C391.344 104.664 395.872 105.672 397.744 106.36L398.56 104.376C396.544 103.672 391.936 102.728 389.824 102.472ZM389.104 106.776L388.352 108.712C390.736 109.096 394.848 110.024 396.672 110.728L397.456 108.728C395.456 108.04 391.392 107.16 389.104 106.776ZM388.272 111.368L387.472 113.368C390.032 113.768 395.104 114.872 397.264 115.752L398.144 113.752C395.936 112.936 391.024 111.784 388.272 111.368ZM405.136 102.744V104.808C405.616 104.776 406.304 104.744 406.848 104.744C407.856 104.744 412.336 104.744 413.28 104.744C413.824 104.744 414.448 104.776 414.992 104.808V102.744C414.448 102.808 413.808 102.856 413.28 102.856C412.336 102.856 407.856 102.856 406.848 102.856C406.304 102.856 405.648 102.808 405.136 102.744ZM403.264 106.824V108.92C403.712 108.888 404.336 108.872 404.8 108.872C405.808 108.872 414.336 108.872 415.28 108.872C415.728 108.872 416.336 108.888 416.752 108.904V106.824C416.32 106.904 415.616 106.92 415.28 106.92C414.336 106.92 405.808 106.92 404.8 106.92C404.304 106.92 403.744 106.888 403.264 106.824ZM411.456 107.944L409.232 107.96C409.232 109.672 409.008 111.176 408.208 112.392C407.584 113.336 406.448 114.248 405.312 114.696L407.2 116.056C408.608 115.32 409.856 114.088 410.4 112.968C411.088 111.64 411.456 110.04 411.456 107.944ZM419.303 110.456L420.247 112.328C422.071 111.784 424.535 110.712 425.975 109.864C427.719 108.84 429.655 107.336 430.615 106.296L429.031 104.744C428.199 105.784 426.599 107.208 425.031 108.152C423.767 108.92 421.399 109.992 419.303 110.456ZM424.855 109.416V114.68C424.855 115.256 424.807 116.104 424.759 116.424H427.143C427.047 116.104 427.031 115.256 427.031 114.68V109L424.855 109.416ZM446.391 101.528L445.063 102.072C445.479 102.712 445.959 103.528 446.279 104.2L447.607 103.64C447.319 103.048 446.791 102.136 446.391 101.528ZM448.615 101.112L447.287 101.656C447.735 102.248 448.231 103.144 448.567 103.8L449.895 103.24C449.591 102.664 449.031 101.704 448.615 101.112ZM448.039 104.536L446.455 103.528C446.039 103.64 445.527 103.656 445.207 103.656C444.311 103.656 438.999 103.656 437.799 103.656C437.271 103.656 436.375 103.576 435.895 103.512V105.784C436.311 105.752 437.079 105.704 437.799 105.704C438.999 105.704 444.295 105.704 445.255 105.704C445.047 107.08 444.439 108.904 443.367 110.232C442.087 111.848 440.279 113.24 437.111 113.976L438.855 115.896C441.703 114.984 443.831 113.4 445.287 111.48C446.615 109.704 447.319 107.208 447.687 105.64C447.767 105.304 447.895 104.84 448.039 104.536ZM455.895 113.48C455.895 114.104 455.847 115.08 455.735 115.704H458.247C458.167 115.048 458.103 113.928 458.103 113.48C458.103 112.296 458.087 106.04 458.087 104.28C458.087 103.608 458.167 102.92 458.231 102.344H455.735C455.847 102.92 455.895 103.704 455.895 104.28C455.895 105.624 455.895 112.248 455.895 113.48ZM457.623 106.488V108.792C459.367 109.368 462.055 110.392 463.879 111.336L464.775 109.112C463.207 108.344 459.751 107.08 457.623 106.488ZM468.983 107.592V110.12C469.591 110.072 470.663 110.024 471.559 110.024C473.447 110.024 478.711 110.024 480.167 110.024C480.839 110.024 481.655 110.104 482.039 110.12V107.592C481.607 107.624 480.903 107.704 480.151 107.704C478.727 107.704 473.447 107.704 471.559 107.704C470.727 107.704 469.575 107.64 468.983 107.592ZM498.551 105.064L496.903 104.04C496.551 104.168 496.007 104.232 495.511 104.232C495.015 104.232 491.655 104.232 490.951 104.232L490.215 106.056H495.607C495.351 107.24 494.423 109.16 493.335 110.408C491.927 111.992 490.151 113.384 486.887 114.376L488.775 116.056C491.783 114.872 493.703 113.4 495.223 111.544C496.679 109.768 497.591 107.64 498.023 106.2C498.151 105.8 498.375 105.368 498.551 105.064ZM493.335 102.52L490.983 101.752C490.839 102.312 490.503 103.048 490.263 103.432C489.479 104.808 488.071 106.872 485.271 108.584L487.063 109.912C489.367 108.344 491.271 106.088 492.359 104.152C492.535 103.816 492.951 103.08 493.335 102.52ZM504.663 102.84L503.143 104.456C504.311 105.256 506.327 107 507.159 107.896L508.791 106.232C507.847 105.256 505.767 103.592 504.663 102.84ZM502.647 113.496L504.007 115.608C506.247 115.224 508.311 114.344 509.943 113.368C512.519 111.816 514.647 109.608 515.847 107.432L514.615 105.192C513.591 107.352 511.511 109.784 508.775 111.416C507.223 112.328 505.159 113.144 502.647 113.496Z" fill="#1A1A1C"/>
<path opacity="0.9" d="M356.512 192.872C356.512 194.776 357.04 195.64 360.672 195.64C362.4 195.64 364.32 195.496 365.632 195.304L365.712 193.128C364.128 193.448 362.336 193.656 360.656 193.656C358.912 193.656 358.624 193.32 358.624 192.312C358.624 190.536 358.624 186.136 358.624 184.216C358.624 183.672 358.688 182.856 358.768 182.376H356.384C356.464 182.856 356.512 183.672 356.512 184.216C356.512 186.152 356.512 191.56 356.512 192.872ZM366.576 185.848L365.04 184.648C364.752 184.808 364.352 184.92 363.904 185.032C362.448 185.384 354.928 186.856 352.752 187.112L353.136 189.208C355.168 188.76 362.56 187.288 363.536 187.096C363.088 187.928 362.048 189.4 360.992 190.344L362.752 191.384C363.904 190.248 365.36 188.056 366.064 186.712C366.208 186.44 366.432 186.072 366.576 185.848ZM383.872 184.92L382.288 183.624C381.936 183.736 381.408 183.8 380.784 183.8C379.072 183.8 372.928 183.8 371.92 183.8C371.36 183.8 370.496 183.72 370.064 183.64V185.896C370.4 185.848 371.264 185.768 371.92 185.768C373.136 185.768 378.96 185.768 380.368 185.768C379.536 187.24 377.744 189.416 375.632 190.888L377.232 192.36C379.712 190.536 382.08 187.656 383.328 185.592C383.456 185.4 383.648 185.176 383.872 184.92ZM375.44 192.6C376.48 193.656 377.824 195.16 378.48 196.056L380.368 194.552C379.6 193.624 378.336 192.296 377.28 191.272C376.064 190.104 374.464 188.808 373.6 188.152L371.92 189.528C372.864 190.2 374.496 191.656 375.44 192.6ZM389.136 182.84L387.616 184.456C388.784 185.256 390.8 187 391.632 187.896L393.264 186.232C392.32 185.256 390.24 183.592 389.136 182.84ZM387.12 193.496L388.48 195.608C390.72 195.224 392.784 194.344 394.416 193.368C396.992 191.816 399.12 189.608 400.32 187.432L399.088 185.192C398.064 187.352 395.984 189.784 393.248 191.416C391.696 192.328 389.632 193.144 387.12 193.496ZM405.136 182.744V184.808C405.616 184.776 406.304 184.744 406.848 184.744C407.856 184.744 412.336 184.744 413.28 184.744C413.824 184.744 414.448 184.776 414.992 184.808V182.744C414.448 182.808 413.808 182.856 413.28 182.856C412.336 182.856 407.856 182.856 406.848 182.856C406.304 182.856 405.648 182.808 405.136 182.744ZM403.264 186.824V188.92C403.712 188.888 404.336 188.872 404.8 188.872C405.808 188.872 414.336 188.872 415.28 188.872C415.728 188.872 416.336 188.888 416.752 188.904V186.824C416.32 186.904 415.616 186.92 415.28 186.92C414.336 186.92 405.808 186.92 404.8 186.92C404.304 186.92 403.744 186.888 403.264 186.824ZM411.456 187.944L409.232 187.96C409.232 189.672 409.008 191.176 408.208 192.392C407.584 193.336 406.448 194.248 405.312 194.696L407.2 196.056C408.608 195.32 409.856 194.088 410.4 192.968C411.088 191.64 411.456 190.04 411.456 187.944ZM419.303 190.456L420.247 192.328C422.071 191.784 424.535 190.712 425.975 189.864C427.719 188.84 429.655 187.336 430.615 186.296L429.031 184.744C428.199 185.784 426.599 187.208 425.031 188.152C423.767 188.92 421.399 189.992 419.303 190.456ZM424.855 189.416V194.68C424.855 195.256 424.807 196.104 424.759 196.424H427.143C427.047 196.104 427.031 195.256 427.031 194.68V189L424.855 189.416ZM442.311 185.512L440.423 186.136C440.807 186.968 441.511 188.904 441.719 189.672L443.623 189.016C443.399 188.28 442.615 186.184 442.311 185.512ZM448.215 186.664L445.975 185.944C445.799 187.96 445.015 190.088 443.927 191.432C442.615 193.096 440.375 194.312 438.631 194.792L440.311 196.504C442.183 195.784 444.167 194.456 445.655 192.52C446.743 191.128 447.431 189.464 447.847 187.848C447.943 187.528 448.039 187.192 448.215 186.664ZM438.599 186.344L436.679 187.048C437.063 187.736 437.879 189.88 438.135 190.728L440.087 190.008C439.783 189.112 438.999 187.16 438.599 186.344ZM465.271 185.064L463.623 184.04C463.271 184.168 462.727 184.232 462.231 184.232C461.735 184.232 458.375 184.232 457.671 184.232L456.935 186.056H462.327C462.071 187.24 461.143 189.16 460.055 190.408C458.647 191.992 456.871 193.384 453.607 194.376L455.495 196.056C458.503 194.872 460.423 193.4 461.943 191.544C463.399 189.768 464.311 187.64 464.743 186.2C464.871 185.8 465.095 185.368 465.271 185.064ZM460.055 182.52L457.703 181.752C457.559 182.312 457.223 183.048 456.983 183.432C456.199 184.808 454.791 186.872 451.991 188.584L453.783 189.912C456.087 188.344 457.991 186.088 459.079 184.152C459.255 183.816 459.671 183.08 460.055 182.52ZM472.535 193.48C472.535 194.104 472.487 195.08 472.375 195.704H474.887C474.807 195.048 474.743 193.928 474.743 193.48C474.743 192.296 474.727 186.04 474.727 184.28C474.727 183.608 474.807 182.92 474.871 182.344H472.375C472.487 182.92 472.535 183.704 472.535 184.28C472.535 185.624 472.535 192.248 472.535 193.48ZM474.263 186.488V188.792C476.007 189.368 478.695 190.392 480.519 191.336L481.415 189.112C479.847 188.344 476.391 187.08 474.263 186.488ZM485.623 187.592V190.12C486.231 190.072 487.303 190.024 488.199 190.024C490.087 190.024 495.351 190.024 496.807 190.024C497.479 190.024 498.295 190.104 498.679 190.12V187.592C498.247 187.624 497.543 187.704 496.791 187.704C495.367 187.704 490.087 187.704 488.199 187.704C487.367 187.704 486.215 187.64 485.623 187.592ZM515.191 185.064L513.543 184.04C513.191 184.168 512.647 184.232 512.151 184.232C511.655 184.232 508.295 184.232 507.591 184.232L506.855 186.056H512.247C511.991 187.24 511.063 189.16 509.975 190.408C508.567 191.992 506.791 193.384 503.527 194.376L505.415 196.056C508.423 194.872 510.343 193.4 511.863 191.544C513.319 189.768 514.231 187.64 514.663 186.2C514.791 185.8 515.015 185.368 515.191 185.064ZM509.975 182.52L507.623 181.752C507.479 182.312 507.143 183.048 506.903 183.432C506.119 184.808 504.711 186.872 501.911 188.584L503.703 189.912C506.007 188.344 507.911 186.088 508.999 184.152C509.175 183.816 509.591 183.08 509.975 182.52ZM521.303 182.84L519.783 184.456C520.951 185.256 522.967 187 523.799 187.896L525.431 186.232C524.487 185.256 522.407 183.592 521.303 182.84ZM519.287 193.496L520.647 195.608C522.887 195.224 524.951 194.344 526.583 193.368C529.159 191.816 531.287 189.608 532.487 187.432L531.255 185.192C530.231 187.352 528.151 189.784 525.415 191.416C523.863 192.328 521.799 193.144 519.287 193.496Z" fill="#1A1A1C"/>
<rect x="84.5" y="160.5" width="243" height="55" fill="white"/>
<rect x="108" y="176" width="24" height="24" rx="12" fill="#1A3EE8"/>
<path opacity="0.9" d="M153.744 195.224C155.712 195.224 157.552 193.464 157.552 190.376C157.552 187.624 156.224 185.832 154.032 185.832C153.136 185.832 152.256 186.264 151.536 186.888L151.616 185.464V182.248H149.264V195H151.104L151.296 194.056H151.36C152.08 194.808 152.944 195.224 153.744 195.224ZM153.232 193.288C152.752 193.288 152.16 193.128 151.616 192.632V188.68C152.208 188.056 152.768 187.752 153.36 187.752C154.608 187.752 155.136 188.696 155.136 190.424C155.136 192.36 154.304 193.288 153.232 193.288ZM162.873 195.224C164.089 195.224 164.937 194.632 165.721 193.72H165.769L165.945 195H167.865V186.056H165.529V192.088C164.921 192.888 164.441 193.208 163.705 193.208C162.825 193.208 162.441 192.728 162.441 191.352V186.056H160.089V191.64C160.089 193.896 160.937 195.224 162.873 195.224ZM174.292 195.224C175.092 195.224 175.716 195.048 176.196 194.888L175.812 193.176C175.556 193.272 175.22 193.384 174.916 193.384C174.132 193.384 173.7 192.904 173.7 191.88V187.896H175.924V186.056H173.7V183.624H171.748L171.492 186.056L170.1 186.152V187.896H171.348V191.88C171.348 193.88 172.164 195.224 174.292 195.224ZM181.214 195.224C182.014 195.224 182.638 195.048 183.118 194.888L182.734 193.176C182.478 193.272 182.142 193.384 181.838 193.384C181.054 193.384 180.622 192.904 180.622 191.88V187.896H182.846V186.056H180.622V183.624H178.67L178.414 186.056L177.022 186.152V187.896H178.27V191.88C178.27 193.88 179.086 195.224 181.214 195.224ZM188.677 195.224C190.917 195.224 192.965 193.496 192.965 190.536C192.965 187.56 190.917 185.832 188.677 185.832C186.421 185.832 184.373 187.56 184.373 190.536C184.373 193.496 186.421 195.224 188.677 195.224ZM188.677 193.32C187.445 193.32 186.773 192.216 186.773 190.536C186.773 188.84 187.445 187.752 188.677 187.752C189.893 187.752 190.565 188.84 190.565 190.536C190.565 192.216 189.893 193.32 188.677 193.32ZM195.589 195H197.941V188.84C198.597 188.2 199.061 187.848 199.797 187.848C200.661 187.848 201.061 188.312 201.061 189.72V195H203.413V189.416C203.413 187.176 202.565 185.832 200.645 185.832C199.429 185.832 198.501 186.472 197.733 187.24H197.685L197.493 186.056H195.589V195ZM205.983 191.272H210.367V189.592H205.983V191.272ZM215.249 195.224C215.809 195.224 216.177 195.128 216.449 195.032L216.161 193.288C216.001 193.32 215.937 193.32 215.857 193.32C215.633 193.32 215.393 193.144 215.393 192.584V182.248H213.041V192.488C213.041 194.152 213.601 195.224 215.249 195.224ZM218.728 195H221.08V186.056H218.728V195ZM219.896 184.6C220.712 184.6 221.272 184.088 221.272 183.304C221.272 182.536 220.712 182.04 219.896 182.04C219.08 182.04 218.536 182.536 218.536 183.304C218.536 184.088 219.08 184.6 219.896 184.6ZM227.363 198.888C230.355 198.888 232.259 197.528 232.259 195.72C232.259 194.136 231.075 193.48 228.915 193.48H227.379C226.339 193.48 225.971 193.208 225.971 192.744C225.971 192.376 226.115 192.184 226.355 191.96C226.755 192.104 227.155 192.168 227.507 192.168C229.443 192.168 230.979 191.16 230.979 189.128C230.979 188.584 230.803 188.088 230.563 187.784H232.099V186.056H228.867C228.499 185.912 228.019 185.832 227.507 185.832C225.619 185.832 223.891 186.952 223.891 189.064C223.891 190.12 224.483 190.968 225.107 191.416V191.48C224.547 191.864 224.099 192.472 224.099 193.144C224.099 193.88 224.451 194.36 224.915 194.664V194.744C224.083 195.192 223.635 195.848 223.635 196.6C223.635 198.168 225.267 198.888 227.363 198.888ZM227.507 190.728C226.723 190.728 226.099 190.12 226.099 189.064C226.099 188.008 226.723 187.432 227.507 187.432C228.307 187.432 228.915 188.008 228.915 189.064C228.915 190.12 228.291 190.728 227.507 190.728ZM227.731 197.4C226.419 197.4 225.587 196.984 225.587 196.232C225.587 195.864 225.763 195.512 226.179 195.176C226.499 195.272 226.867 195.304 227.411 195.304H228.499C229.459 195.304 229.987 195.48 229.987 196.12C229.987 196.808 229.075 197.4 227.731 197.4ZM234.414 195H236.766V188.84C237.422 188.2 237.886 187.848 238.622 187.848C239.486 187.848 239.886 188.312 239.886 189.72V195H242.238V189.416C242.238 187.176 241.39 185.832 239.47 185.832C238.254 185.832 237.358 186.472 236.654 187.144L236.766 185.464V182.248H234.414V195ZM248.552 195.224C249.352 195.224 249.976 195.048 250.456 194.888L250.072 193.176C249.816 193.272 249.48 193.384 249.176 193.384C248.392 193.384 247.96 192.904 247.96 191.88V187.896H250.184V186.056H247.96V183.624H246.008L245.752 186.056L244.36 186.152V187.896H245.608V191.88C245.608 193.88 246.424 195.224 248.552 195.224ZM251.479 191.272H255.863V189.592H251.479V191.272ZM263.017 195.224C264.985 195.224 266.825 193.464 266.825 190.376C266.825 187.624 265.497 185.832 263.305 185.832C262.409 185.832 261.529 186.264 260.809 186.888L260.889 185.464V182.248H258.537V195H260.377L260.569 194.056H260.633C261.353 194.808 262.217 195.224 263.017 195.224ZM262.505 193.288C262.025 193.288 261.433 193.128 260.889 192.632V188.68C261.481 188.056 262.041 187.752 262.633 187.752C263.881 187.752 264.409 188.696 264.409 190.424C264.409 192.36 263.577 193.288 262.505 193.288ZM273.218 195.224C275.458 195.224 277.506 193.496 277.506 190.536C277.506 187.56 275.458 185.832 273.218 185.832C270.962 185.832 268.914 187.56 268.914 190.536C268.914 193.496 270.962 195.224 273.218 195.224ZM273.218 193.32C271.986 193.32 271.314 192.216 271.314 190.536C271.314 188.84 271.986 187.752 273.218 187.752C274.434 187.752 275.106 188.84 275.106 190.536C275.106 192.216 274.434 193.32 273.218 193.32ZM283.282 195.224C284.21 195.224 285.106 194.728 285.762 194.072H285.81L285.986 195H287.906V182.248H285.554V185.384L285.65 186.792C284.994 186.2 284.37 185.832 283.362 185.832C281.442 185.832 279.602 187.608 279.602 190.536C279.602 193.48 281.042 195.224 283.282 195.224ZM283.874 193.288C282.706 193.288 282.018 192.376 282.018 190.504C282.018 188.712 282.882 187.752 283.89 187.752C284.45 187.752 285.026 187.944 285.554 188.44V192.376C285.042 193.032 284.514 193.288 283.874 193.288ZM291.835 198.6C293.851 198.6 294.811 197.384 295.595 195.288L298.779 186.056H296.523L295.275 190.2C295.067 191.048 294.843 191.896 294.651 192.744H294.571C294.299 191.88 294.075 191.016 293.803 190.2L292.395 186.056H290.011L293.499 194.84L293.355 195.368C293.083 196.168 292.571 196.744 291.675 196.744C291.451 196.744 291.211 196.664 291.051 196.616L290.619 198.424C290.955 198.536 291.323 198.6 291.835 198.6Z" fill="#1A1A1C"/>
<rect x="84.5" y="160.5" width="243" height="55" stroke="#D8D8DB"/>
<path d="M119.646 80.3536C119.842 80.5488 120.158 80.5488 120.354 80.3536L123.536 77.1716C123.731 76.9763 123.731 76.6597 123.536 76.4645C123.34 76.2692 123.024 76.2692 122.828 76.4645L120 79.2929L117.172 76.4645C116.976 76.2692 116.66 76.2692 116.464 76.4645C116.269 76.6597 116.269 76.9763 116.464 77.1716L119.646 80.3536ZM119.5 56V80H120.5V56H119.5Z" fill="#1A1A1C"/>
<path d="M119.646 160.354C119.842 160.549 120.158 160.549 120.354 160.354L123.536 157.172C123.731 156.976 123.731 156.66 123.536 156.464C123.34 156.269 123.024 156.269 122.828 156.464L120 159.293L117.172 156.464C116.976 156.269 116.66 156.269 116.464 156.464C116.269 156.66 116.269 156.976 116.464 157.172L119.646 160.354ZM119.5 136V160H120.5V136H119.5Z" fill="#1A1A1C"/>
</svg>
